<?xml version="1.0" encoding="utf-8" ?>
<svg xmlns="http://www.w3.org/2000/svg" xmlns:xlink="http://www.w3.org/1999/xlink" width="1024" height="1024">
	<path fill="#FEFEFE" d="M0 0L1024 0L1024 1024L0 1024L0 0Z"/>
	<path fill="#5FA6F3" d="M169.784 235.635L170.791 235.617C176.589 235.52 192.946 233.81 196.779 237.882C200.486 241.821 198.79 260.564 198.827 266.566C205.781 266.683 223.376 264.772 228.463 268.851C229.961 270.052 230.43 271.528 230.567 273.378C230.945 278.477 231.351 294.556 228.089 298.124C227.008 299.307 225.631 299.907 224.072 300.189C219.781 300.964 204.003 299.991 198.576 300.014C198.375 307.642 199.848 320.75 197.885 327.573C197.267 329.718 196.237 330.54 194.342 331.502C188.048 331.645 172.141 333.681 167.742 329.361C163.779 325.47 165.459 306.097 165.472 300.448C158.126 300.111 143.157 301.193 136.864 298.986C135.77 298.602 134.983 298.145 134.537 297.043C133.004 293.252 133.394 273.116 135.053 269.527C139.765 265.165 158.372 266.919 165.424 266.97C165.465 259.115 164.354 249.276 165.789 241.726C166.365 238.697 167.242 237.352 169.784 235.635Z"/>
	<path fill="#F7CEF0" d="M750.666 85.5658C758.33 85.3325 779.902 84.3573 786.398 86.1021C790.866 87.3023 793.079 89.2982 795.402 93.2158C796.618 106.316 795.579 122.859 795.687 136.414C803.992 136.561 812.328 136.279 820.635 136.181C825.366 136.125 830.475 135.726 835.137 136.628C837.855 137.154 840.527 138.293 842.486 140.299C843.772 141.616 844.601 143.18 845.045 144.962C846.431 150.521 845.543 166.349 845.671 173.006C845.763 177.782 846.147 184.066 842.445 187.669C840.659 189.408 838.299 190.449 835.877 190.938C828.157 192.496 804.855 191.353 795.554 191.291C795.499 200.167 797.188 230.649 794.007 236.76C792.554 239.553 789.773 240.922 786.93 241.917C785.52 242.077 784.106 242.234 782.688 242.304C774.591 242.704 759.339 243.456 751.773 241.941C749.319 241.449 746.949 240.491 745.143 238.714C743.4 236.998 742.359 234.783 741.853 232.41C740.666 226.843 741.408 220.135 741.471 214.401Q741.567 202.916 741.538 191.431Q728.879 191.369 716.221 191.451C711.408 191.464 706.206 191.864 701.457 191.063C699.022 190.653 696.494 189.738 694.613 188.093C691.79 185.627 691.306 181.836 691.07 178.283C690.762 173.65 691.183 168.917 691.201 164.272C691.225 158.012 690.609 151.225 691.588 145.072C691.874 143.276 692.293 141.516 693.563 140.149C695.633 137.922 698.635 136.83 701.563 136.311C706.769 135.389 712.822 136.009 718.14 136.072Q729.606 136.187 741.071 136.073C741.209 126.948 739.398 97.4382 742.738 91.2487C744.352 88.2571 747.531 86.5166 750.666 85.5658Z"/>
	<path d="M554.204 273.667C554.552 273.624 554.901 273.587 555.251 273.57C566.888 272.998 576.551 276.922 585.025 284.805C594.169 283.689 602.073 284.059 609.715 290.067C625.667 302.606 624.969 324.139 626.022 342.357Q626.959 357.299 628.512 372.19C617.13 374.31 604.41 374.995 592.828 375.437C596.254 379.827 599.988 384.029 603.69 388.187C627.02 395.254 659.867 401.744 677.707 419.433C686.353 428.005 692.744 439.251 695.29 451.194C697.409 461.133 696.768 471.786 696.8 481.907L696.876 519.846L696.856 668.699C705.247 669.037 713.757 668.76 722.159 668.76L771.387 668.698C771.809 647.105 771.498 625.451 771.483 603.852C771.476 594.539 770.395 582.831 772.119 573.811C772.934 569.543 775.093 565.459 777.856 562.134C784.928 553.626 793.663 552.217 803.986 551.245C804.98 550.542 804.825 550.314 805.155 549.193C804.78 547.682 804.654 547.411 803.592 546.277L802.896 546.099L801.942 545.84C800.043 545.339 798.626 544.751 797.479 543.056C795.575 540.242 795.538 536.04 796.222 532.838C796.857 529.863 798.392 526.942 801.089 525.364C802.198 524.715 803.478 524.377 804.75 524.256C810.027 523.751 842.355 523.719 846.075 524.864C848.631 525.65 850.795 527.332 852.017 529.729C853.588 532.808 853.539 536.682 852.379 539.885C851.074 543.49 849.044 544.183 845.855 545.72C844.921 547.405 845.098 549.505 845.038 551.388C854.181 551.793 862.327 553.401 869.065 560.052C872.723 563.664 875.214 567.972 876.298 572.999C878.302 582.294 877.143 593.037 877.206 602.543Q877.49 635.584 877.246 668.625C882.258 668.605 887.246 668.609 892.255 668.849C892.702 677.674 892.163 686.758 892.201 695.613L892.093 767.197L892.497 965.607C899.573 965.687 960.75 964.828 962.696 965.787C962.991 965.932 963.196 966.215 963.447 966.429L963.493 967.87C962.491 968.735 961.395 968.78 960.1 968.833C945.599 969.431 930.826 968.875 916.304 968.885L822.25 968.761L556.75 968.891L217.335 969.022L111.991 968.971C96.5832 968.964 81.0643 969.423 65.6742 969.085C64.1341 969.052 62.3131 969.02 60.9134 968.312C60.0544 967.878 60.3381 968.104 60.0242 967.108C60.1953 966.841 60.3268 966.545 60.5374 966.308C60.6633 966.167 60.8495 966.094 61.0126 965.998C62.5577 965.089 123.982 965.616 131.245 965.608L131.399 767.085C131.386 734.403 130.494 701.609 131.51 668.943C142.835 668.026 154.663 668.632 166.049 668.603L235.779 668.675L235.93 637.574L172.666 637.65L172.641 530.484L355.073 530.481L355.037 542.331L415.2 528.637C417.533 519.352 421.13 510.181 423.917 500.995L436.407 459.673C439.963 448.128 442.835 434.982 449.467 424.741C458.867 410.226 471.726 405.065 487.5 399.842C496.524 396.854 505.509 394.295 514.715 391.951C520.909 390.373 528.147 389.273 533.59 385.848C536.532 383.997 538.128 381.55 540.012 378.731Q520.478 375.916 501.044 372.478C503.432 351.972 511.611 307.354 524.315 290.831C531.975 280.869 541.799 275.304 554.204 273.667Z"/>
	<path fill="#FEFEFE" d="M286.722 650.031C293.874 649.705 301.35 649.063 307.7 653.057C313.465 656.682 315.751 662.256 317.256 668.58L286.565 668.623Q286.548 659.326 286.722 650.031Z"/>
	<path fill="#FEFEFE" d="M300.9 925.245Q309.296 925.212 317.692 925.309L317.699 965.579L308.75 965.579L291.797 965.496C291.458 952.157 291.69 938.758 291.682 925.413L300.9 925.245Z"/>
	<path fill="#1741AF" d="M265.175 926.12C272.792 925.363 280.815 925.807 288.473 925.816Q288.578 945.646 288.387 965.476L273.163 965.376C269.52 965.407 266.192 965.191 262.778 963.796Q262.283 963.595 261.799 963.368Q261.316 963.141 260.844 962.89Q260.373 962.639 259.915 962.364Q259.456 962.089 259.013 961.791Q258.57 961.493 258.142 961.173Q257.715 960.852 257.305 960.51Q256.894 960.168 256.502 959.806Q256.11 959.443 255.736 959.061Q255.363 958.679 255.01 958.278Q254.657 957.877 254.325 957.458Q253.993 957.04 253.683 956.605Q253.372 956.17 253.085 955.72Q252.798 955.269 252.534 954.805Q252.27 954.34 252.03 953.863Q251.79 953.385 251.575 952.896Q251.361 952.407 251.171 951.908C249.338 947.047 249.434 941.439 251.767 936.762C254.559 931.165 259.476 928.132 265.175 926.12Z"/>
	<path fill="#5FA6F3" d="M321.193 925.414C330.699 925.388 343.794 923.831 352.07 929.283C356.879 932.451 360.541 937.557 361.546 943.27C362.691 949.783 360.398 955.043 356.649 960.161C348.079 967.99 332.27 965.563 321.301 965.501Q321.358 945.457 321.193 925.414Z"/>
	<path fill="#FE8A56" d="M839.02 595.52L873.934 595.683L873.893 639.678L839.115 639.91L839.02 595.52Z"/>
	<path fill="#FEFEFE" d="M579.469 361.391C581.949 363.799 584.162 368.089 586.27 370.966C590.462 376.686 594.832 382.097 599.441 387.485C597.56 386.917 595.629 386.234 593.709 385.828C593.422 385.767 591.994 385.537 591.738 385.649C591.555 385.729 591.498 385.97 591.402 386.144C590.657 387.489 590.461 389.196 590.133 390.688C588.623 397.557 586.859 402.285 580.529 406.215C572.671 411.095 563.264 411.606 554.432 409.692C543.906 405.885 538.513 400.574 532.929 391.036L533.543 390.485C539.594 385.105 543.671 378.189 547.69 371.268C551.531 372.321 555.414 372.841 559.398 372.601C568.17 372.071 573.92 367.733 579.469 361.391Z"/>
	<path fill="#FEFEFE" d="M561.699 313.01C563.334 313.284 568.084 320.611 569.988 322.233C574.847 326.373 579.976 326.565 586 326.196C586.568 329.065 587.01 332.099 586.601 335.015C586.078 338.754 579.749 355.099 577.506 358.702C573.572 365.022 567.964 367.965 560.925 369.543C560.554 369.565 560.182 369.587 559.81 369.6C553.033 369.833 547.202 368.409 542.195 363.5C531.196 352.714 533.453 334.655 533.528 320.639C544.255 320.578 552.237 318.034 561.699 313.01Z"/>
	<path d="M543.385 325.438C544.322 325.376 545.314 325.276 546.248 325.389C547.725 325.568 549.238 326.758 549.997 328.009C551.304 330.164 551.211 333.192 550.482 335.527C550.154 336.575 550.201 336.625 549.186 337.14C548.175 336.259 548.348 335.966 548.18 334.615Q548.131 333.858 548.061 333.103C547.887 331.251 547.639 329.076 546.147 327.857C544.539 328.906 543.726 331.823 542.706 333.523L542.233 333.084C541.74 329.896 541.674 328.224 543.385 325.438Z"/>
	<path d="M548.506 344.128C552.913 343.995 559.884 342.906 563.648 345.473C564.735 346.215 565.621 347.209 565.798 348.565C566.221 351.795 563.096 355.597 561.126 357.836C559.315 358.905 557.431 359.644 555.284 359.321C552.635 358.923 550.427 357.118 548.885 355.012C547.373 352.947 545.814 349.237 546.479 346.629C546.876 345.071 547.222 344.964 548.506 344.128Z"/>
	<path fill="#F7CEF0" d="M549.487 346.685C552.23 346.331 557.995 345.941 560.413 347.009C561.718 347.586 561.843 347.845 562.315 349.083C562.111 350.856 561.525 352.056 560.702 353.627C559.516 354.745 558.142 355.76 556.458 355.9C554.776 356.039 553.12 355.275 551.979 354.066C550.111 352.087 549.426 349.331 549.487 346.685Z"/>
	<path fill="#FEFEFE" d="M593.687 389.432C596.493 389.589 599.517 390.419 602.293 390.954C605.71 397.172 607.676 404.506 610.156 411.171C613.582 420.382 617.289 429.487 620.704 438.704C611.585 438.83 602.45 438.628 593.33 438.54C598.477 447.204 606.258 456.32 611.98 465.283C607.872 471.514 603.208 477.39 598.685 483.323C591.643 491.842 585.314 501.117 577.833 509.239C579.023 493.014 581.251 476.771 582.991 460.593Q585.005 441.196 587.784 421.893C589.3 410.843 590.616 400.173 593.687 389.432Z"/>
	<path fill="#FE8A56" d="M774.64 643.477L873.774 643.328L873.807 668.476L774.566 668.495L774.64 643.477Z"/>
	<path fill="#FEFEFE" d="M774.569 595.499C794.909 594.633 815.586 595.266 835.949 595.467L835.992 639.987L774.571 640.037L774.569 595.499Z"/>
	<path fill="#FEFEFE" d="M801.856 554.709C817.316 554.684 833.106 553.914 848.529 554.64C855.972 554.991 862.822 557.688 867.8 563.39C875.065 571.711 874.457 581.884 873.697 592.143L845.847 592.184L774.664 592.292C774.568 582.059 773.676 571.424 780.931 563.138C786.502 556.776 793.843 555.254 801.856 554.709Z"/>
	<path fill="#80AE7B" d="M587.516 404.955Q584.014 427.79 581.063 450.703C579.366 464.989 578.181 479.338 576.583 493.636Q570.679 543.9 567.083 594.382C566.189 606.013 565.046 617.65 564.414 629.297C563.069 639.733 562.76 650.575 562.248 661.081C560.592 652.487 560.506 643.074 559.791 634.327Q558.041 614.381 556.067 594.457L545.785 474.697Q543.239 439.959 540.067 405.273C545.762 409.539 551.442 412.649 558.599 413.571C569.768 415.011 578.79 411.731 587.516 404.955Z"/>
	<path fill="#F7CEF0" d="M553.28 276.628Q556.346 276.419 559.418 276.481C570.284 276.662 578.123 282.148 585.404 289.681C587.555 288.223 589.328 287.4 591.942 287.128C597.938 286.505 604.055 288.85 608.574 292.737C623.09 305.224 621.816 325.215 622.996 342.499C623.618 351.623 624.526 360.727 625.143 369.855Q608.12 371.396 591.068 372.586C587.318 368.316 584.417 363.574 581.518 358.712C583.649 354.997 586.974 344.622 588.472 340.109C590.51 333.965 590.282 328.748 587.351 323.053C584.493 322.993 581.33 323.194 578.54 322.657C571.664 321.335 568.2 316.467 564.467 311.086C564.696 310.887 564.927 310.691 565.154 310.489C567.397 308.493 569.131 306.494 569.265 303.384L568.504 302.862C566.142 303.597 565.003 305.593 563.596 307.492C555.957 314.021 545.304 317.628 535.257 317.649C524.854 317.67 528.671 313.968 523.676 309.072C522.4 309.186 522.45 309.364 521.578 310.335C521.592 310.526 521.588 310.72 521.619 310.909C522.286 314.988 526.655 318.518 529.778 320.813L530.154 321.086C531.85 328.613 530.058 337.515 530.969 345.317C532.223 356.051 536.535 363.165 545.032 369.855C544.087 371.941 543.004 373.821 541.767 375.747C529.188 374.835 516.613 372.212 504.165 370.221C507.69 349.627 514.256 310.001 525.422 294.014C532.26 284.223 541.631 278.689 553.28 276.628Z"/>
	<path fill="#FE8A56" d="M352.135 886.507C381.332 885.985 410.656 886.339 439.86 886.456L440.07 965.773L430.712 965.707L355.705 965.649C357.43 963.899 359.349 962.127 360.814 960.154C364.491 955.197 366.362 949.278 365.349 943.12C363.987 934.841 358.678 929.329 352.089 924.754C351.848 912.027 352.196 899.244 352.135 886.507Z"/>
	<path fill="#FEFEFE" d="M460.8 585.061C461.529 585.013 461.083 584.974 462.078 585.466C463.308 590.107 462.439 604.02 462.443 609.599L462.478 668.834L320.852 668.617C318.988 660.575 316.083 654.748 309.058 650.027C302.212 646.388 294.5 646.305 286.969 647.451Q286.994 642.561 287.182 637.675C309.77 637.173 332.463 637.589 355.066 637.467L354.97 612.35C365.428 610.066 375.822 606.867 386.209 604.235L460.8 585.061Z"/>
	<path fill="#FEFEFE" d="M134.509 672.011L631.258 671.954L794.776 671.913C826.215 671.878 857.708 671.468 889.142 671.908C889.115 682.991 888.779 694.182 889.183 705.254L134.426 705.008Q134.31 688.509 134.509 672.011Z"/>
	<path fill="#FEFEFE" d="M606.491 392.248C620.694 395.256 648.825 404.311 661.436 411.204Q665.325 413.336 668.875 415.995Q672.424 418.655 675.563 421.788C683.802 429.975 690.028 440.265 692.375 451.721C694.45 461.851 693.81 472.914 693.828 483.226L693.832 523.85L693.895 668.766C672.102 669.553 650.024 668.952 628.212 668.871C626.927 652.866 627.663 636.284 627.647 620.2L627.567 533.995C627.55 525.883 628.676 497.384 626.336 491.591L626.389 491.927L626.049 491.414L624.908 492.003C624.377 493.452 624.579 495.33 624.581 496.875L624.991 668.814Q594.613 668.989 564.234 668.852C564.874 646.097 567.744 623.062 569.598 600.367C571.318 579.318 572.823 558.297 574.875 537.272C575.465 531.224 575.48 520.319 577.888 514.884C579.804 510.559 584.625 505.901 587.583 502.091C596.93 490.051 606.172 477.688 616.015 466.06C612.085 458.718 604.534 449.232 599.693 442.002C603.712 441.941 622.074 442.977 624.339 441.185C624.734 438.875 609.053 399.509 606.491 392.248Z"/>
	<path fill="#FEFEFE" d="M527.671 391.569L528.969 391.449C531.483 392.919 534.482 399.006 536.651 401.46L537.154 402.023Q547.269 535.611 559.979 668.979L465.516 668.821L465.491 559.544C465.489 553.689 466.406 530.059 465.196 525.757C464.197 525.284 464.246 525.258 463.194 525.577C461.058 528.48 462.076 535.656 462.158 539.25L462.373 581.356C440.029 587.856 417.254 593.112 394.682 598.764C381.538 602.055 368.38 606.151 355.131 608.865C354.856 587.834 355.006 566.78 355.008 545.746C375.886 541.397 396.465 535.526 417.452 531.66C421.718 520.763 424.657 508.906 427.961 497.667Q434.419 476.011 441.309 454.489C444.023 445.901 445.997 436.469 450.567 428.636C460.968 410.811 479.236 405.194 497.886 399.752Q512.728 395.477 527.671 391.569Z"/>
	<path fill="#FEFEFE" d="M134.426 705.008L889.183 705.254C889.782 714.773 889.504 724.421 889.436 733.959C889.385 741.001 889.642 748.221 889.1 755.238C889.766 777.379 889.076 799.74 889.126 821.904L889.308 965.496L443.31 965.534L442.988 886.526C444.773 886.564 447.32 886.883 449.025 886.378C451.139 885.752 453.214 884.21 454.116 882.157C454.762 880.685 454.778 879.071 454.153 877.593C453.401 875.815 451.847 874.582 450.077 873.9C446.983 872.709 359.577 873.043 349.576 873.503C347.543 873.596 343.277 873.928 341.564 875.089C340.646 875.712 339.588 877.733 339.417 878.817C339.169 880.396 339.5 881.774 340.507 883.032C342.82 885.918 345.105 886.485 348.648 886.747L348.948 923.249C345.309 922.336 341.673 922.008 337.934 921.809C324.718 921.105 311.281 921.595 298.037 921.576C287.651 921.562 276.001 920.506 265.823 922.263C259.39 923.374 254.248 926.512 250.527 931.945Q250.192 932.431 249.882 932.933Q249.572 933.434 249.288 933.951Q249.003 934.468 248.744 934.998Q248.486 935.528 248.254 936.07Q248.022 936.613 247.817 937.166Q247.612 937.719 247.436 938.282Q247.259 938.844 247.11 939.415Q246.961 939.986 246.841 940.563Q246.721 941.141 246.629 941.724Q246.538 942.306 246.476 942.893Q246.413 943.479 246.38 944.068Q246.347 944.657 246.344 945.247Q246.34 945.837 246.366 946.426Q246.391 947.016 246.446 947.603Q246.501 948.19 246.585 948.774Q246.669 949.358 246.782 949.937C248.236 957.049 252.871 961.764 258.714 965.598L134.467 965.691L134.398 744.692C133.921 740.193 134.198 735.394 134.17 730.86C134.116 722.262 133.921 713.592 134.426 705.008Z"/>
	<path fill="#FE8A56" d="M134.426 705.008L889.183 705.254C889.782 714.773 889.504 724.421 889.436 733.959C889.385 741.001 889.642 748.221 889.1 755.238C888.034 740.107 889.107 722.888 888.954 707.426L134.569 707.56C134.529 719.89 135.041 732.387 134.398 744.692C133.921 740.193 134.198 735.394 134.17 730.86C134.116 722.262 133.921 713.592 134.426 705.008Z"/>
	<path fill="#F7CEF0" d="M494.337 749.651C502.077 749.182 510.018 749.46 517.779 749.427C523.853 749.402 530.728 749.193 535.267 753.986C536.967 755.781 537.898 757.984 538.351 760.391C539.306 765.467 538.662 771.358 538.618 776.561L538.569 801.003C548.06 801.008 572.067 799.75 579.884 801.438C582.344 801.969 584.73 803.047 586.588 804.77C589.846 807.792 590.495 811.803 590.553 816.06C590.623 821.301 590.294 826.556 590.284 831.8C590.273 837.55 590.876 843.985 589.941 849.622C589.56 851.922 588.887 853.899 587.197 855.563C585.113 857.615 582.304 858.748 579.465 859.268C574.65 860.15 569.08 859.649 564.174 859.626L538.562 859.553C538.552 869.189 539.755 889.129 538.22 897.4C537.777 899.784 536.828 902.135 535.349 904.069C533.009 907.13 530.325 908.055 526.625 908.522C518.068 908.54 499.853 909.572 492.256 908.129C489.545 907.614 486.796 906.561 484.832 904.556C483.112 902.799 482.268 900.591 481.831 898.207C480.944 893.365 481.521 887.769 481.587 882.846L481.852 859.268C470.312 858.674 451.088 860.838 440.908 858.654C438.228 858.079 435.5 856.845 433.535 854.898C431.98 853.356 431.206 851.607 430.735 849.49C429.201 842.586 430.025 827.735 429.96 820.012C429.918 815.099 429.748 808.822 433.567 805.17C435.695 803.135 438.488 801.993 441.344 801.439C446.492 800.441 452.452 801.034 457.688 801.064L482.175 801.105C482.016 792.083 480.257 760.988 484.369 754.919C486.597 751.63 490.651 750.404 494.337 749.651Z"/>
</svg>
