<?xml version="1.0" encoding="utf-8" ?>
<svg xmlns="http://www.w3.org/2000/svg" xmlns:xlink="http://www.w3.org/1999/xlink" width="1024" height="1024">
	<path fill="#FEFEFE" d="M0 0L1024 0L1024 1024L0 1024L0 0Z"/>
	<path fill="#010000" d="M118.932 280.454C119.117 280.396 119.312 280.362 119.489 280.281C123.596 278.382 127.64 269.442 129.725 265.575C153.674 221.161 171.698 165.736 223.619 146.709C244.287 139.135 263.558 139.485 284.595 145.257C294.744 148.042 304.585 152.036 314.585 155.313C346.329 165.716 384.489 174.68 415.389 157.207C429.127 149.439 437.767 136.671 450.13 127.388C458.885 120.813 468.595 115.122 478.828 111.227C507.568 100.288 548.186 98.7001 578.002 106.815C593.721 111.093 607.427 118.291 618.96 129.91C627.315 138.328 632.675 149.137 639.634 158.654C662.473 189.889 688.017 197.137 722.031 177.987C738.65 168.63 753.366 156.431 769.455 146.306C800.832 126.561 838.15 121.776 873.75 131.704C909.017 141.54 939.378 167.553 957.122 199.266L957.566 200.066C967.271 217.752 972.683 236.463 975.822 256.276C985.308 316.137 967.333 374.366 956.944 432.757C952.173 459.572 948.602 486.056 952.047 513.289Q952.905 519.871 954.251 526.37Q955.598 532.869 957.426 539.25Q959.254 545.63 961.554 551.857Q963.853 558.083 966.611 564.12C970.896 573.689 976.268 582.71 980.626 592.229C990.695 614.224 992.342 637.81 985.691 661.104C977.681 689.153 961.812 718.752 944.828 742.391C939.493 749.817 931.45 755.864 927.459 764.015L976.153 763.851C982.492 763.837 989.877 762.984 996.072 763.864C997.617 764.083 999.007 764.557 1000.24 765.523C999.766 766.141 1000.05 766.02 999.42 766.096C992.672 766.91 985.382 766.434 978.581 766.44L939.873 766.568C887.441 766.936 834.966 766.087 782.544 766.921C785.138 777.705 786.105 788.929 788.999 799.594C791.482 808.739 794.62 817.73 797.285 826.827C799.481 834.322 801.216 841.938 803.227 849.481C804.396 853.869 805.971 858.27 806.86 862.716C797.292 864.171 787.612 867.035 778.17 869.286C768.088 871.691 757.712 873.714 747.737 876.455C746.275 876.857 745.061 877.46 743.84 878.358C740.379 866.023 733.239 840.282 727.008 829.871C724.618 836.791 719.685 869.95 716.243 872.735C710.018 871.851 702.869 872.486 696.556 872.498L654.521 872.704C657.102 867.04 660.665 834.728 661.781 826.488C664.539 806.139 667.412 785.649 670.774 765.391C652.993 765.047 635.14 765.937 617.369 765.109L501.329 765.097C479.808 765.114 458.203 764.761 436.691 765.313C437.276 778.063 436.936 790.95 436.926 803.715L436.797 866.12C444.064 865.952 451.77 864.633 457.565 870.059C461.135 873.401 462.982 878.045 462.953 882.913C462.925 887.61 461.23 892.314 457.786 895.583Q457.069 896.261 456.27 896.84Q455.471 897.42 454.604 897.892Q453.737 898.363 452.816 898.719Q451.896 899.074 450.937 899.308C443.2 901.226 428.167 899.623 419.441 899.911Q419.139 900.414 418.821 900.907Q418.503 901.401 418.169 901.883Q417.835 902.366 417.485 902.837Q417.136 903.309 416.771 903.769Q416.406 904.229 416.027 904.677Q415.648 905.124 415.254 905.56Q414.86 905.995 414.453 906.417Q414.045 906.84 413.624 907.249Q413.203 907.657 412.769 908.052Q412.335 908.448 411.889 908.828Q411.442 909.209 410.983 909.575Q410.524 909.941 410.054 910.292Q409.584 910.643 409.102 910.979Q408.621 911.314 408.129 911.634Q407.636 911.954 407.134 912.258Q406.632 912.561 406.12 912.849Q405.608 913.136 405.087 913.406Q404.567 913.677 404.037 913.93Q403.508 914.184 402.971 914.42Q402.433 914.656 401.889 914.875Q401.344 915.093 400.792 915.294Q400.241 915.495 399.683 915.678Q399.126 915.86 398.562 916.025Q397.999 916.19 397.43 916.336Q396.862 916.482 396.289 916.61Q395.716 916.738 395.14 916.847Q394.563 916.956 393.983 917.047Q393.403 917.137 392.821 917.209Q392.238 917.281 391.654 917.333Q391.069 917.386 390.483 917.419Q389.897 917.453 389.311 917.468Q388.724 917.482 388.137 917.478Q387.55 917.474 386.964 917.45Q386.377 917.427 385.792 917.384Q385.206 917.342 384.623 917.281Q384.039 917.219 383.458 917.139Q382.876 917.059 382.298 916.96Q381.719 916.861 381.144 916.743Q380.569 916.625 379.998 916.489Q379.428 916.353 378.861 916.198Q378.295 916.043 377.734 915.87Q377.174 915.697 376.619 915.506Q376.064 915.315 375.515 915.105Q374.967 914.896 374.426 914.67Q373.884 914.443 373.35 914.199Q372.817 913.955 372.291 913.693Q371.766 913.432 371.249 913.154Q370.732 912.876 370.225 912.581Q369.717 912.286 369.22 911.975Q368.722 911.664 368.234 911.337Q367.747 911.01 367.271 910.667Q366.794 910.324 366.329 909.966Q365.864 909.608 365.411 909.235Q364.958 908.862 364.517 908.475Q364.076 908.088 363.648 907.686Q363.22 907.285 362.805 906.87Q362.39 906.454 361.989 906.026Q361.587 905.598 361.2 905.156Q360.813 904.715 360.441 904.262Q360.068 903.808 359.71 903.343Q359.353 902.878 359.01 902.401Q358.668 901.924 358.341 901.437Q358.014 900.949 357.703 900.452Q357.393 899.954 357.098 899.446C323.141 898.617 288.955 899.413 254.97 899.415Q254.675 899.921 254.365 900.418Q254.054 900.914 253.727 901.4Q253.4 901.886 253.058 902.362Q252.716 902.837 252.358 903.301Q252.001 903.765 251.628 904.217Q251.256 904.669 250.869 905.109Q250.482 905.548 250.081 905.976Q249.68 906.403 249.266 906.816Q248.851 907.23 248.424 907.63Q247.996 908.03 247.555 908.417Q247.115 908.803 246.662 909.174Q246.21 909.546 245.745 909.903Q245.281 910.259 244.805 910.601Q244.329 910.943 243.842 911.268Q243.356 911.594 242.859 911.904Q242.362 912.214 241.855 912.508Q241.348 912.802 240.832 913.079Q240.316 913.356 239.791 913.616Q239.267 913.877 238.734 914.12Q238.201 914.363 237.661 914.589Q237.12 914.814 236.573 915.023Q236.025 915.231 235.471 915.421Q234.917 915.611 234.357 915.784Q233.798 915.956 233.233 916.11Q232.667 916.264 232.098 916.399Q231.528 916.535 230.954 916.652Q230.38 916.769 229.803 916.868Q229.225 916.966 228.645 917.046Q228.065 917.125 227.482 917.186Q226.9 917.247 226.315 917.289Q225.731 917.331 225.146 917.354Q224.561 917.377 223.975 917.381Q223.389 917.385 222.804 917.37Q222.218 917.355 221.633 917.321Q221.049 917.287 220.465 917.234Q219.882 917.181 219.301 917.11Q218.719 917.038 218.141 916.948Q217.562 916.857 216.987 916.748Q216.411 916.638 215.84 916.511Q215.268 916.383 214.701 916.237Q214.134 916.09 213.572 915.926Q213.009 915.761 212.453 915.578Q211.896 915.396 211.346 915.195Q210.796 914.994 210.252 914.776Q209.709 914.558 209.173 914.322Q208.637 914.086 208.108 913.833Q207.58 913.58 207.06 913.31Q206.541 913.04 206.03 912.753Q205.519 912.466 205.018 912.163Q204.517 911.86 204.026 911.54Q203.535 911.221 203.054 910.886Q202.574 910.551 202.105 910.201Q201.635 909.85 201.177 909.485Q200.72 909.12 200.274 908.74Q199.828 908.359 199.395 907.965Q198.962 907.571 198.542 907.163Q198.122 906.755 197.715 906.333Q197.308 905.912 196.916 905.477Q196.523 905.043 196.144 904.596Q195.766 904.149 195.402 903.69Q195.038 903.231 194.689 902.76Q194.34 902.29 194.007 901.808Q193.674 901.327 193.356 900.834Q193.038 900.342 192.737 899.84Q192.444 899.353 192.167 898.856Q191.89 898.36 191.629 897.855Q191.367 897.35 191.122 896.837Q190.876 896.324 190.647 895.804Q190.418 895.284 190.205 894.756Q189.993 894.229 189.797 893.695Q189.601 893.162 189.422 892.622Q189.243 892.083 189.081 891.538Q188.919 890.993 188.774 890.443Q188.629 889.893 188.501 889.339Q188.374 888.785 188.264 888.227Q188.154 887.669 188.062 887.108Q187.969 886.547 187.895 885.984Q187.82 885.42 187.763 884.854Q187.706 884.289 187.667 883.721Q187.628 883.154 187.607 882.586Q187.585 882.018 187.582 881.449Q187.579 880.881 187.593 880.312Q187.608 879.744 187.64 879.176Q187.672 878.609 187.723 878.042Q187.773 877.476 187.841 876.912Q187.909 876.347 187.995 875.785Q188.08 875.223 188.184 874.664Q188.287 874.105 188.408 873.549Q188.529 872.994 188.667 872.443Q188.805 871.891 188.961 871.344Q189.117 870.797 189.289 870.256Q189.462 869.714 189.652 869.178Q189.841 868.642 190.048 868.112Q190.254 867.583 190.477 867.059Q190.7 866.536 190.939 866.021Q191.179 865.505 191.434 864.997L177.016 865.1C176.03 865.089 175.549 865.021 174.695 864.518C173.775 862.121 174.232 858.962 174.101 856.393L174.197 766.142C135.394 765.391 96.4432 766.083 57.6238 766.105C52.3715 766.109 27.7153 766.905 24.4514 766.048C23.9439 765.914 23.5441 765.52 23.0905 765.257L22.8846 764.344C25.3826 762.658 64.9156 763.447 71.2069 763.376L75.0691 762.524C76.5046 758.186 76.725 753.291 77.6717 748.807C80.3671 736.04 85.0616 722.317 84.2975 709.155C82.8408 684.066 64.0141 675.061 47.3808 660.308C30.7081 645.52 31.3081 629.375 39.7177 609.936C46.4623 594.345 56.1867 580.228 63.2562 564.811C79.7122 528.923 75.818 486.203 61.3455 450.461C54.0581 432.463 45.6938 415.068 44.6162 395.311C43.3676 372.42 53.3485 354.668 70.6524 340.325C80.3325 332.301 90.9417 325.054 99.3391 315.631C99.332 313.261 99.2938 311.03 99.8696 308.709C100.311 299.964 99.9432 291.005 99.9837 282.239C100.095 258.104 99.7464 233.954 99.9971 209.823C106.07 209.39 112.419 209.497 118.495 209.875C119.061 217.846 118.707 226.081 118.73 234.08L118.932 280.454Z"/>
	<path fill="#FEE9E1" d="M118.932 280.454C119.117 280.396 119.312 280.362 119.489 280.281C123.596 278.382 127.64 269.442 129.725 265.575C153.674 221.161 171.698 165.736 223.619 146.709C244.287 139.135 263.558 139.485 284.595 145.257C294.744 148.042 304.585 152.036 314.585 155.313C346.329 165.716 384.489 174.68 415.389 157.207C429.127 149.439 437.767 136.671 450.13 127.388C458.885 120.813 468.595 115.122 478.828 111.227C507.568 100.288 548.186 98.7001 578.002 106.815C593.721 111.093 607.427 118.291 618.96 129.91C627.315 138.328 632.675 149.137 639.634 158.654C662.473 189.889 688.017 197.137 722.031 177.987C738.65 168.63 753.366 156.431 769.455 146.306C800.832 126.561 838.15 121.776 873.75 131.704C909.017 141.54 939.378 167.553 957.122 199.266L957.566 200.066C967.271 217.752 972.683 236.463 975.822 256.276C985.308 316.137 967.333 374.366 956.944 432.757C952.173 459.572 948.602 486.056 952.047 513.289Q952.905 519.871 954.251 526.37Q955.598 532.869 957.426 539.25Q959.254 545.63 961.554 551.857Q963.853 558.083 966.611 564.12C970.896 573.689 976.268 582.71 980.626 592.229C990.695 614.224 992.342 637.81 985.691 661.104C977.681 689.153 961.812 718.752 944.828 742.391C939.493 749.817 931.45 755.864 927.459 764.015L921.813 764.007L921.958 383.962L921.986 268.13L922.022 232.517C922.028 225.028 922.383 217.326 921.604 209.882Q912.019 209.772 902.436 210.008C901.93 223.75 902.388 237.641 902.407 251.401L902.493 329.565L816.505 329.511L743.341 329.516C716.542 329.896 689.684 329.617 662.88 329.506Q662.677 269.776 663.094 210.049Q653.8 209.892 644.508 210.135L644.527 329.55L521.962 329.536C496.541 330.026 471.021 329.557 445.589 329.566Q409.315 329.787 373.041 329.556C372.682 303.155 372.945 276.714 372.903 250.308C372.882 236.826 373.42 223.05 372.373 209.615C367.297 209.502 359.436 208.364 354.728 210.108C353.07 217.545 354.209 237.358 354.237 245.998L354.399 329.532L264.263 329.665C239.361 330.038 214.414 329.731 189.507 329.761C165.985 330.107 142.412 329.796 118.886 329.798Q118.778 305.125 118.932 280.454Z"/>
	<path fill="#F4793D" d="M480.412 247.561L485.641 247.585Q503.821 247.702 522 247.552L521.962 329.536C496.541 330.026 471.021 329.557 445.589 329.566C446.37 302.44 445.643 275.103 445.616 247.955Q463.015 247.845 480.412 247.561Z"/>
	<path fill="#FEFEFE" d="M480.412 247.561L485.641 247.585C485.566 251.122 485.911 254.659 485.809 258.188C485.747 260.321 485.682 262.405 484.052 263.956C482.752 264.244 482.747 264.235 481.55 263.648C479.155 259.91 480.364 252.082 480.412 247.561Z"/>
	<path fill="#F4793D" d="M780.491 247.373L783.545 247.456C793.966 249.056 805.887 247.943 816.478 247.877L816.505 329.511L743.341 329.516C743.813 302.401 743.402 275.208 743.413 248.084C755.547 248.049 768.46 248.879 780.491 247.373Z"/>
	<path fill="#010000" d="M780.491 247.373L783.545 247.456C783.613 252.245 784.952 264.699 781.902 268.389C778.918 264.299 780.393 252.416 780.491 247.373Z"/>
	<path fill="#F4793D" d="M221.922 257.143L222.123 257.518C222.296 258.741 222.432 259.928 222.498 261.163C223.953 262.004 226.135 261.814 227.714 261.367C228.46 261.156 228.233 261.229 228.661 260.517C240.294 259.13 252.777 260.066 264.5 260.159L264.263 329.665C239.361 330.038 214.414 329.731 189.507 329.761Q189.702 294.954 189.434 260.147L189.42 257.085C200.243 257.271 211.096 257.127 221.922 257.143Z"/>
	<path fill="#010000" d="M221.922 257.143L222.123 257.518L221.947 259.714C220.023 261.037 194.091 260.15 189.434 260.147L189.42 257.085C200.243 257.271 211.096 257.127 221.922 257.143Z"/>
	<path fill="#F4793D" d="M222.155 245.936C223.842 245.058 226.657 245.526 228.491 245.755C240.439 246.198 252.43 245.594 264.393 245.923C264.44 249.645 264.331 253.438 264.544 257.15L264.5 260.159C252.777 260.066 240.294 259.13 228.661 260.517C228.233 261.229 228.46 261.156 227.714 261.367C226.135 261.814 223.953 262.004 222.498 261.163C222.432 259.928 222.296 258.741 222.123 257.518L221.922 257.143C221.858 256.088 221.703 255.029 221.587 253.978L221.735 249.562C222.051 248.466 222.038 247.083 222.155 245.936Z"/>
	<path fill="#010000" d="M228.7 257.419C230.99 256.203 259.889 257.126 264.544 257.15L264.5 260.159C252.777 260.066 240.294 259.13 228.661 260.517L228.7 257.419Z"/>
	<path fill="#FEFEFE" d="M222.155 245.936C223.842 245.058 226.657 245.526 228.491 245.755L228.516 249.425C228.549 251.16 228.526 252.912 228.684 254.64L228.7 257.419L228.661 260.517C228.233 261.229 228.46 261.156 227.714 261.367C226.135 261.814 223.953 262.004 222.498 261.163C222.432 259.928 222.296 258.741 222.123 257.518L221.922 257.143C221.858 256.088 221.703 255.029 221.587 253.978L221.735 249.562C222.051 248.466 222.038 247.083 222.155 245.936Z"/>
	<path fill="#010000" d="M228.516 249.425C230.202 249.443 231.493 249.334 232.95 250.327C233.245 251.098 233.548 251.27 233.145 252.07C232.423 253.502 231.335 253.955 229.87 254.35Q229.28 254.506 228.684 254.64C228.526 252.912 228.549 251.16 228.516 249.425Z"/>
	<path fill="#F4793D" d="M189.784 245.968C200.517 245.997 211.451 246.607 222.155 245.936C222.038 247.083 222.051 248.466 221.735 249.562L221.587 253.978C221.703 255.029 221.858 256.088 221.922 257.143C211.096 257.127 200.243 257.271 189.42 257.085C189.98 253.456 189.78 249.636 189.784 245.968Z"/>
	<path fill="#010000" d="M221.587 253.978C219.766 253.995 219.067 254.011 217.676 252.858C217.229 251.51 217.177 251.568 217.751 250.279C219.289 249.289 219.942 249.518 221.735 249.562L221.587 253.978Z"/>
	<path fill="#FEFEFE" d="M319.712 685.034L389.626 684.952C400.222 684.945 412.838 684.001 423.271 685.208C426.16 685.543 428.303 685.848 430.408 687.925C432.082 689.576 433.162 691.303 433.455 693.662C434.249 700.054 433.755 706.745 433.728 713.185L433.778 744.781Q434.234 799.288 433.796 853.796C433.75 857.885 433.7 861.964 433.485 866.049Q427.335 865.957 421.185 865.93Q421.42 866.431 421.639 866.939Q421.858 867.448 422.062 867.962Q422.266 868.477 422.454 868.997Q422.642 869.518 422.814 870.044Q422.985 870.571 423.141 871.102Q423.297 871.633 423.436 872.169Q423.575 872.704 423.698 873.244Q423.821 873.784 423.928 874.327Q424.034 874.87 424.124 875.416Q424.214 875.962 424.286 876.511Q424.359 877.06 424.416 877.61Q424.472 878.161 424.511 878.713Q424.55 879.265 424.573 879.818Q424.595 880.371 424.601 880.925Q424.606 881.478 424.595 882.032Q424.583 882.585 424.555 883.138Q424.526 883.691 424.481 884.243Q424.436 884.794 424.374 885.344Q424.312 885.894 424.233 886.442Q424.154 886.99 424.058 887.535Q423.963 888.08 423.85 888.622Q423.738 889.164 423.609 889.703Q423.481 890.241 423.336 890.775Q423.19 891.309 423.029 891.839Q422.868 892.368 422.69 892.893Q422.512 893.417 422.319 893.935Q422.125 894.454 421.916 894.966Q421.707 895.479 421.482 895.985Q421.257 896.491 421.017 896.989Q420.777 897.488 420.522 897.979Q420.266 898.47 419.996 898.953Q419.726 899.436 419.441 899.911Q419.139 900.414 418.821 900.907Q418.503 901.401 418.169 901.883Q417.835 902.366 417.485 902.837Q417.136 903.309 416.771 903.769Q416.406 904.229 416.027 904.677Q415.648 905.124 415.254 905.56Q414.86 905.995 414.453 906.417Q414.045 906.84 413.624 907.249Q413.203 907.657 412.769 908.052Q412.335 908.448 411.889 908.828Q411.442 909.209 410.983 909.575Q410.524 909.941 410.054 910.292Q409.584 910.643 409.102 910.979Q408.621 911.314 408.129 911.634Q407.636 911.954 407.134 912.258Q406.632 912.561 406.12 912.849Q405.608 913.136 405.087 913.406Q404.567 913.677 404.037 913.93Q403.508 914.184 402.971 914.42Q402.433 914.656 401.889 914.875Q401.344 915.093 400.792 915.294Q400.241 915.495 399.683 915.678Q399.126 915.86 398.562 916.025Q397.999 916.19 397.43 916.336Q396.862 916.482 396.289 916.61Q395.716 916.738 395.14 916.847Q394.563 916.956 393.983 917.047Q393.403 917.137 392.821 917.209Q392.238 917.281 391.654 917.333Q391.069 917.386 390.483 917.419Q389.897 917.453 389.311 917.468Q388.724 917.482 388.137 917.478Q387.55 917.474 386.964 917.45Q386.377 917.427 385.792 917.384Q385.206 917.342 384.623 917.281Q384.039 917.219 383.458 917.139Q382.876 917.059 382.298 916.96Q381.719 916.861 381.144 916.743Q380.569 916.625 379.998 916.489Q379.428 916.353 378.861 916.198Q378.295 916.043 377.734 915.87Q377.174 915.697 376.619 915.506Q376.064 915.315 375.515 915.105Q374.967 914.896 374.426 914.67Q373.884 914.443 373.35 914.199Q372.817 913.955 372.291 913.693Q371.766 913.432 371.249 913.154Q370.732 912.876 370.225 912.581Q369.717 912.286 369.22 911.975Q368.722 911.664 368.234 911.337Q367.747 911.01 367.271 910.667Q366.794 910.324 366.329 909.966Q365.864 909.608 365.411 909.235Q364.958 908.862 364.517 908.475Q364.076 908.088 363.648 907.686Q363.22 907.285 362.805 906.87Q362.39 906.454 361.989 906.026Q361.587 905.598 361.2 905.156Q360.813 904.715 360.441 904.262Q360.068 903.808 359.71 903.343Q359.353 902.878 359.01 902.401Q358.668 901.924 358.341 901.437Q358.014 900.949 357.703 900.452Q357.393 899.954 357.098 899.446C323.141 898.617 288.955 899.413 254.97 899.415Q254.675 899.921 254.365 900.418Q254.054 900.914 253.727 901.4Q253.4 901.886 253.058 902.362Q252.716 902.837 252.358 903.301Q252.001 903.765 251.628 904.217Q251.256 904.669 250.869 905.109Q250.482 905.548 250.081 905.976Q249.68 906.403 249.266 906.816Q248.851 907.23 248.424 907.63Q247.996 908.03 247.555 908.417Q247.115 908.803 246.662 909.174Q246.21 909.546 245.745 909.903Q245.281 910.259 244.805 910.601Q244.329 910.943 243.842 911.268Q243.356 911.594 242.859 911.904Q242.362 912.214 241.855 912.508Q241.348 912.802 240.832 913.079Q240.316 913.356 239.791 913.616Q239.267 913.877 238.734 914.12Q238.201 914.363 237.661 914.589Q237.12 914.814 236.573 915.023Q236.025 915.231 235.471 915.421Q234.917 915.611 234.357 915.784Q233.798 915.956 233.233 916.11Q232.667 916.264 232.098 916.399Q231.528 916.535 230.954 916.652Q230.38 916.769 229.803 916.868Q229.225 916.966 228.645 917.046Q228.065 917.125 227.482 917.186Q226.9 917.247 226.315 917.289Q225.731 917.331 225.146 917.354Q224.561 917.377 223.975 917.381Q223.389 917.385 222.804 917.37Q222.218 917.355 221.633 917.321Q221.049 917.287 220.465 917.234Q219.882 917.181 219.301 917.11Q218.719 917.038 218.141 916.948Q217.562 916.857 216.987 916.748Q216.411 916.638 215.84 916.511Q215.268 916.383 214.701 916.237Q214.134 916.09 213.572 915.926Q213.009 915.761 212.453 915.578Q211.896 915.396 211.346 915.195Q210.796 914.994 210.252 914.776Q209.709 914.558 209.173 914.322Q208.637 914.086 208.108 913.833Q207.58 913.58 207.06 913.31Q206.541 913.04 206.03 912.753Q205.519 912.466 205.018 912.163Q204.517 911.86 204.026 911.54Q203.535 911.221 203.054 910.886Q202.574 910.551 202.105 910.201Q201.635 909.85 201.177 909.485Q200.72 909.12 200.274 908.74Q199.828 908.359 199.395 907.965Q198.962 907.571 198.542 907.163Q198.122 906.755 197.715 906.333Q197.308 905.912 196.916 905.477Q196.523 905.043 196.144 904.596Q195.766 904.149 195.402 903.69Q195.038 903.231 194.689 902.76Q194.34 902.29 194.007 901.808Q193.674 901.327 193.356 900.834Q193.038 900.342 192.737 899.84Q192.444 899.353 192.167 898.856Q191.89 898.36 191.629 897.855Q191.367 897.35 191.122 896.837Q190.876 896.324 190.647 895.804Q190.418 895.284 190.205 894.756Q189.993 894.229 189.797 893.695Q189.601 893.162 189.422 892.622Q189.243 892.083 189.081 891.538Q188.919 890.993 188.774 890.443Q188.629 889.893 188.501 889.339Q188.374 888.785 188.264 888.227Q188.154 887.669 188.062 887.108Q187.969 886.547 187.895 885.984Q187.82 885.42 187.763 884.854Q187.706 884.289 187.667 883.721Q187.628 883.154 187.607 882.586Q187.585 882.018 187.582 881.449Q187.579 880.881 187.593 880.312Q187.608 879.744 187.64 879.176Q187.672 878.609 187.723 878.042Q187.773 877.476 187.841 876.912Q187.909 876.347 187.995 875.785Q188.08 875.223 188.184 874.664Q188.287 874.105 188.408 873.549Q188.529 872.994 188.667 872.443Q188.805 871.891 188.961 871.344Q189.117 870.797 189.289 870.256Q189.462 869.714 189.652 869.178Q189.841 868.642 190.048 868.112Q190.254 867.583 190.477 867.059Q190.7 866.536 190.939 866.021Q191.179 865.505 191.434 864.997L177.016 865.1L176.953 749.208L176.842 715.232C176.811 708.903 176.377 702.228 177.066 695.941C177.386 693.014 178.381 690.487 180.471 688.371C182.669 686.147 184.879 685.746 187.905 685.347C197.193 684.121 210.17 685.048 219.768 685.04L288.514 685.055L319.712 685.034Z"/>
	<path fill="#010000" d="M355.593 866.009Q355.864 865.427 356.155 864.856Q356.446 864.284 356.757 863.724Q357.068 863.163 357.399 862.613Q357.73 862.064 358.08 861.526Q358.43 860.989 358.799 860.464Q359.168 859.94 359.555 859.428Q359.942 858.917 360.347 858.42Q360.753 857.923 361.175 857.44Q361.598 856.958 362.037 856.49Q362.476 856.023 362.932 855.572Q363.387 855.12 363.859 854.685Q364.33 854.25 364.816 853.832Q365.303 853.414 365.804 853.014Q366.305 852.613 366.82 852.231Q367.334 851.848 367.862 851.484Q368.39 851.12 368.931 850.775Q369.472 850.43 370.024 850.104Q370.577 849.778 371.14 849.472Q371.704 849.166 372.278 848.88Q372.852 848.595 373.436 848.329Q374.02 848.064 374.613 847.82Q375.206 847.575 375.807 847.352Q376.409 847.129 377.017 846.927Q377.626 846.725 378.242 846.545Q378.857 846.365 379.479 846.207Q380.1 846.048 380.727 845.912Q381.354 845.776 381.985 845.662Q382.616 845.548 383.251 845.457Q383.886 845.366 384.524 845.297Q385.161 845.228 385.801 845.182Q386.441 845.136 387.082 845.112Q387.723 845.089 388.364 845.088Q389.005 845.087 389.646 845.109Q390.287 845.131 390.927 845.176Q391.567 845.22 392.205 845.288Q392.843 845.355 393.478 845.445Q394.113 845.535 394.744 845.647Q395.376 845.759 396.003 845.894Q396.63 846.029 397.252 846.185Q397.874 846.342 398.49 846.521Q399.106 846.699 399.715 846.9Q400.324 847.1 400.926 847.322Q401.528 847.544 402.121 847.787Q402.715 848.03 403.299 848.294Q403.884 848.557 404.459 848.842Q405.034 849.126 405.598 849.431Q406.162 849.735 406.716 850.06Q407.269 850.384 407.81 850.728Q408.352 851.072 408.881 851.435Q409.41 851.798 409.925 852.179Q410.441 852.56 410.943 852.959Q411.445 853.359 411.932 853.776Q412.42 854.193 412.892 854.626Q413.365 855.06 413.821 855.51Q414.278 855.961 414.718 856.427Q415.159 856.893 415.582 857.375Q416.006 857.856 416.412 858.353Q416.819 858.849 417.207 859.359Q417.596 859.87 417.966 860.393Q418.336 860.917 418.687 861.454Q419.039 861.99 419.371 862.539Q419.703 863.087 420.016 863.647Q420.328 864.208 420.621 864.778Q420.913 865.349 421.185 865.93Q421.42 866.431 421.639 866.939Q421.858 867.448 422.062 867.962Q422.266 868.477 422.454 868.997Q422.642 869.518 422.814 870.044Q422.985 870.571 423.141 871.102Q423.297 871.633 423.436 872.169Q423.575 872.704 423.698 873.244Q423.821 873.784 423.928 874.327Q424.034 874.87 424.124 875.416Q424.214 875.962 424.286 876.511Q424.359 877.06 424.416 877.61Q424.472 878.161 424.511 878.713Q424.55 879.265 424.573 879.818Q424.595 880.371 424.601 880.925Q424.606 881.478 424.595 882.032Q424.583 882.585 424.555 883.138Q424.526 883.691 424.481 884.243Q424.436 884.794 424.374 885.344Q424.312 885.894 424.233 886.442Q424.154 886.99 424.058 887.535Q423.963 888.08 423.85 888.622Q423.738 889.164 423.609 889.703Q423.481 890.241 423.336 890.775Q423.19 891.309 423.029 891.839Q422.868 892.368 422.69 892.893Q422.512 893.417 422.319 893.935Q422.125 894.454 421.916 894.966Q421.707 895.479 421.482 895.985Q421.257 896.491 421.017 896.989Q420.777 897.488 420.522 897.979Q420.266 898.47 419.996 898.953Q419.726 899.436 419.441 899.911Q419.139 900.414 418.821 900.907Q418.503 901.401 418.169 901.883Q417.835 902.366 417.485 902.837Q417.136 903.309 416.771 903.769Q416.406 904.229 416.027 904.677Q415.648 905.124 415.254 905.56Q414.86 905.995 414.453 906.417Q414.045 906.84 413.624 907.249Q413.203 907.657 412.769 908.052Q412.335 908.448 411.889 908.828Q411.442 909.209 410.983 909.575Q410.524 909.941 410.054 910.292Q409.584 910.643 409.102 910.979Q408.621 911.314 408.129 911.634Q407.636 911.954 407.134 912.258Q406.632 912.561 406.12 912.849Q405.608 913.136 405.087 913.406Q404.567 913.677 404.037 913.93Q403.508 914.184 402.971 914.42Q402.433 914.656 401.889 914.875Q401.344 915.093 400.792 915.294Q400.241 915.495 399.683 915.678Q399.126 915.86 398.562 916.025Q397.999 916.19 397.43 916.336Q396.862 916.482 396.289 916.61Q395.716 916.738 395.14 916.847Q394.563 916.956 393.983 917.047Q393.403 917.137 392.821 917.209Q392.238 917.281 391.654 917.333Q391.069 917.386 390.483 917.419Q389.897 917.453 389.311 917.468Q388.724 917.482 388.137 917.478Q387.55 917.474 386.964 917.45Q386.377 917.427 385.792 917.384Q385.206 917.342 384.623 917.281Q384.039 917.219 383.458 917.139Q382.876 917.059 382.298 916.96Q381.719 916.861 381.144 916.743Q380.569 916.625 379.998 916.489Q379.428 916.353 378.861 916.198Q378.295 916.043 377.734 915.87Q377.174 915.697 376.619 915.506Q376.064 915.315 375.515 915.105Q374.967 914.896 374.426 914.67Q373.884 914.443 373.35 914.199Q372.817 913.955 372.291 913.693Q371.766 913.432 371.249 913.154Q370.732 912.876 370.225 912.581Q369.717 912.286 369.22 911.975Q368.722 911.664 368.234 911.337Q367.747 911.01 367.271 910.667Q366.794 910.324 366.329 909.966Q365.864 909.608 365.411 909.235Q364.958 908.862 364.517 908.475Q364.076 908.088 363.648 907.686Q363.22 907.285 362.805 906.87Q362.39 906.454 361.989 906.026Q361.587 905.598 361.2 905.156Q360.813 904.715 360.441 904.262Q360.068 903.808 359.71 903.343Q359.353 902.878 359.01 902.401Q358.668 901.924 358.341 901.437Q358.014 900.949 357.703 900.452Q357.393 899.954 357.098 899.446Q356.825 898.976 356.567 898.497Q356.308 898.019 356.064 897.533Q355.82 897.047 355.591 896.554Q355.361 896.062 355.147 895.562Q354.932 895.062 354.733 894.556Q354.533 894.051 354.349 893.539Q354.165 893.027 353.997 892.51Q353.828 891.994 353.675 891.472Q353.522 890.95 353.385 890.424Q353.247 889.898 353.126 889.368Q353.005 888.838 352.899 888.304Q352.794 887.771 352.704 887.235Q352.615 886.698 352.542 886.16Q352.468 885.621 352.411 885.08Q352.354 884.539 352.314 883.997Q352.273 883.455 352.248 882.912Q352.224 882.369 352.216 881.825Q352.208 881.281 352.216 880.738Q352.224 880.194 352.249 879.651Q352.273 879.108 352.314 878.566Q352.355 878.023 352.412 877.483Q352.469 876.942 352.542 876.403Q352.616 875.865 352.705 875.328Q352.795 874.792 352.9 874.259Q353.006 873.725 353.127 873.195Q353.249 872.665 353.386 872.139Q353.524 871.613 353.677 871.091Q353.83 870.57 353.999 870.053Q354.167 869.536 354.351 869.024Q354.536 868.513 354.735 868.007Q354.934 867.501 355.149 867.001Q355.364 866.502 355.593 866.009Z"/>
	<path fill="#FEFEFE" d="M385.761 867.887Q386.089 867.826 386.42 867.78Q386.75 867.735 387.083 867.706Q387.415 867.677 387.748 867.664Q388.082 867.652 388.416 867.656Q388.749 867.659 389.082 867.679Q389.415 867.7 389.747 867.736Q390.079 867.772 390.408 867.825Q390.738 867.878 391.064 867.947Q391.391 868.016 391.714 868.1Q392.036 868.185 392.354 868.286Q392.673 868.386 392.986 868.502Q393.298 868.618 393.605 868.749Q393.912 868.88 394.212 869.027Q394.512 869.173 394.804 869.333Q395.097 869.494 395.381 869.669Q395.665 869.844 395.94 870.033Q396.216 870.221 396.481 870.423Q396.747 870.625 397.002 870.84Q397.258 871.054 397.503 871.281Q397.747 871.508 397.98 871.747Q398.213 871.986 398.435 872.236Q398.656 872.486 398.864 872.746Q399.073 873.007 399.268 873.277Q399.464 873.547 399.646 873.827Q399.828 874.107 399.996 874.395Q400.164 874.683 400.318 874.979Q400.472 875.275 400.611 875.579Q400.75 875.882 400.874 876.192Q400.998 876.502 401.106 876.817Q401.215 877.133 401.308 877.453Q401.401 877.774 401.478 878.098Q401.555 878.423 401.616 878.751Q401.677 879.079 401.722 879.41Q401.767 879.74 401.795 880.073Q401.824 880.405 401.836 880.739Q401.849 881.072 401.844 881.406Q401.84 881.739 401.82 882.073Q401.799 882.406 401.762 882.737Q401.725 883.069 401.672 883.398Q401.619 883.728 401.55 884.054Q401.481 884.381 401.396 884.703Q401.311 885.026 401.21 885.344Q401.109 885.662 400.992 885.975Q400.876 886.287 400.744 886.594Q400.613 886.901 400.466 887.201Q400.32 887.5 400.159 887.793Q399.998 888.085 399.822 888.369Q399.647 888.653 399.458 888.928Q399.269 889.203 399.067 889.468Q398.865 889.734 398.65 889.989Q398.435 890.244 398.208 890.488Q397.98 890.733 397.741 890.966Q397.502 891.198 397.252 891.419Q397.002 891.64 396.741 891.848Q396.481 892.057 396.21 892.252Q395.939 892.447 395.659 892.629Q395.38 892.811 395.091 892.978Q394.803 893.146 394.506 893.299Q394.21 893.453 393.906 893.592Q393.603 893.73 393.293 893.854Q392.983 893.977 392.667 894.086Q392.352 894.194 392.031 894.286Q391.711 894.379 391.386 894.456Q391.061 894.532 390.733 894.593Q390.405 894.654 390.075 894.698Q389.745 894.743 389.413 894.771Q389.081 894.799 388.748 894.811Q388.415 894.823 388.082 894.818Q387.749 894.814 387.416 894.793Q387.084 894.772 386.753 894.735Q386.422 894.698 386.093 894.645Q385.764 894.592 385.438 894.522Q385.112 894.453 384.79 894.368Q384.468 894.283 384.15 894.182Q383.833 894.081 383.521 893.965Q383.208 893.848 382.902 893.717Q382.596 893.585 382.297 893.439Q381.997 893.293 381.706 893.132Q381.414 892.971 381.13 892.796Q380.847 892.621 380.572 892.432Q380.298 892.244 380.033 892.042Q379.768 891.84 379.513 891.625Q379.258 891.411 379.014 891.184Q378.77 890.957 378.537 890.718Q378.305 890.48 378.084 890.23Q377.864 889.98 377.655 889.72Q377.447 889.46 377.252 889.19Q377.057 888.92 376.876 888.64Q376.694 888.361 376.526 888.073Q376.359 887.785 376.205 887.489Q376.052 887.194 375.913 886.891Q375.775 886.588 375.651 886.278Q375.527 885.969 375.419 885.654Q375.311 885.339 375.218 885.019Q375.125 884.699 375.048 884.375Q374.971 884.051 374.91 883.723Q374.849 883.396 374.804 883.065Q374.759 882.735 374.731 882.403Q374.702 882.071 374.69 881.738Q374.678 881.406 374.682 881.072Q374.686 880.739 374.706 880.407Q374.726 880.074 374.763 879.743Q374.8 879.412 374.853 879.083Q374.905 878.754 374.974 878.428Q375.043 878.102 375.128 877.78Q375.213 877.458 375.313 877.14Q375.414 876.822 375.53 876.51Q375.646 876.198 375.777 875.891Q375.908 875.585 376.054 875.286Q376.2 874.986 376.361 874.694Q376.521 874.402 376.696 874.118Q376.87 873.835 377.059 873.56Q377.247 873.285 377.449 873.02Q377.65 872.754 377.864 872.499Q378.079 872.244 378.305 872Q378.532 871.756 378.77 871.523Q379.009 871.29 379.258 871.069Q379.507 870.848 379.767 870.64Q380.027 870.431 380.297 870.236Q380.567 870.041 380.846 869.859Q381.125 869.677 381.413 869.509Q381.701 869.341 381.996 869.187Q382.292 869.033 382.595 868.894Q382.897 868.755 383.207 868.631Q383.516 868.507 383.831 868.398Q384.146 868.29 384.466 868.196Q384.785 868.103 385.109 868.026Q385.434 867.948 385.761 867.887Z"/>
	<path fill="#010000" d="M191.434 864.997Q191.717 864.435 192.019 863.882Q192.321 863.33 192.642 862.789Q192.964 862.247 193.304 861.718Q193.643 861.188 194.002 860.67Q194.36 860.152 194.736 859.648Q195.112 859.143 195.505 858.651Q195.898 858.16 196.308 857.682Q196.719 857.205 197.145 856.742Q197.572 856.279 198.014 855.831Q198.456 855.383 198.914 854.951Q199.372 854.519 199.844 854.103Q200.317 853.687 200.804 853.288Q201.29 852.889 201.791 852.506Q202.291 852.124 202.804 851.76Q203.318 851.396 203.843 851.049Q204.369 850.703 204.906 850.375Q205.444 850.048 205.992 849.739Q206.541 849.43 207.1 849.14Q207.659 848.851 208.227 848.581Q208.796 848.311 209.374 848.061Q209.951 847.811 210.537 847.581Q211.124 847.351 211.717 847.142Q212.311 846.933 212.912 846.745Q213.512 846.556 214.119 846.389Q214.726 846.222 215.338 846.076Q215.951 845.929 216.568 845.805Q217.185 845.68 217.806 845.577Q218.427 845.474 219.051 845.392Q219.675 845.311 220.302 845.251Q220.928 845.191 221.557 845.154Q222.185 845.116 222.814 845.1Q223.444 845.084 224.073 845.09Q224.702 845.096 225.331 845.124Q225.96 845.152 226.588 845.202Q227.215 845.251 227.841 845.323Q228.466 845.395 229.089 845.488Q229.711 845.581 230.33 845.696Q230.949 845.811 231.563 845.948Q232.178 846.084 232.787 846.242Q233.397 846.4 234 846.579Q234.604 846.758 235.201 846.957Q235.798 847.157 236.387 847.378Q236.977 847.598 237.558 847.839Q238.14 848.08 238.713 848.341Q239.286 848.602 239.849 848.882Q240.413 849.163 240.966 849.463Q241.519 849.763 242.062 850.083Q242.604 850.402 243.135 850.74Q243.666 851.078 244.185 851.434Q244.704 851.791 245.21 852.165Q245.717 852.539 246.21 852.93Q246.703 853.322 247.182 853.73Q247.661 854.139 248.125 854.563Q248.59 854.988 249.039 855.429Q249.488 855.87 249.922 856.326Q250.356 856.782 250.774 857.253Q251.191 857.724 251.592 858.209Q251.993 858.695 252.377 859.194Q252.761 859.693 253.127 860.205Q253.493 860.717 253.841 861.241Q254.19 861.765 254.519 862.302Q254.849 862.838 255.16 863.385Q255.471 863.933 255.762 864.49Q256.054 865.048 256.326 865.616Q256.564 866.112 256.786 866.615Q257.009 867.118 257.216 867.628Q257.423 868.137 257.614 868.653Q257.806 869.169 257.981 869.69Q258.157 870.211 258.317 870.737Q258.477 871.264 258.62 871.795Q258.764 872.326 258.891 872.861Q259.019 873.396 259.13 873.935Q259.241 874.473 259.336 875.015Q259.43 875.557 259.508 876.102Q259.586 876.646 259.648 877.193Q259.709 877.739 259.754 878.287Q259.799 878.836 259.827 879.385Q259.855 879.934 259.867 880.484Q259.878 881.034 259.873 881.584Q259.868 882.134 259.846 882.684Q259.823 883.234 259.785 883.782Q259.746 884.331 259.691 884.878Q259.635 885.425 259.563 885.971Q259.491 886.516 259.402 887.059Q259.314 887.602 259.209 888.142Q259.104 888.682 258.982 889.218Q258.861 889.755 258.723 890.287Q258.585 890.82 258.431 891.348Q258.277 891.876 258.107 892.399Q257.938 892.922 257.752 893.44Q257.566 893.958 257.365 894.469Q257.163 894.981 256.946 895.487Q256.729 895.992 256.497 896.491Q256.265 896.99 256.018 897.481Q255.771 897.972 255.509 898.456Q255.247 898.939 254.97 899.415Q254.675 899.921 254.365 900.418Q254.054 900.914 253.727 901.4Q253.4 901.886 253.058 902.362Q252.716 902.837 252.358 903.301Q252.001 903.765 251.628 904.217Q251.256 904.669 250.869 905.109Q250.482 905.548 250.081 905.976Q249.68 906.403 249.266 906.816Q248.851 907.23 248.424 907.63Q247.996 908.03 247.555 908.417Q247.115 908.803 246.662 909.174Q246.21 909.546 245.745 909.903Q245.281 910.259 244.805 910.601Q244.329 910.943 243.842 911.268Q243.356 911.594 242.859 911.904Q242.362 912.214 241.855 912.508Q241.348 912.802 240.832 913.079Q240.316 913.356 239.791 913.616Q239.267 913.877 238.734 914.12Q238.201 914.363 237.661 914.589Q237.12 914.814 236.573 915.023Q236.025 915.231 235.471 915.421Q234.917 915.611 234.357 915.784Q233.798 915.956 233.233 916.11Q232.667 916.264 232.098 916.399Q231.528 916.535 230.954 916.652Q230.38 916.769 229.803 916.868Q229.225 916.966 228.645 917.046Q228.065 917.125 227.482 917.186Q226.9 917.247 226.315 917.289Q225.731 917.331 225.146 917.354Q224.561 917.377 223.975 917.381Q223.389 917.385 222.804 917.37Q222.218 917.355 221.633 917.321Q221.049 917.287 220.465 917.234Q219.882 917.181 219.301 917.11Q218.719 917.038 218.141 916.948Q217.562 916.857 216.987 916.748Q216.411 916.638 215.84 916.511Q215.268 916.383 214.701 916.237Q214.134 916.09 213.572 915.926Q213.009 915.761 212.453 915.578Q211.896 915.396 211.346 915.195Q210.796 914.994 210.252 914.776Q209.709 914.558 209.173 914.322Q208.637 914.086 208.108 913.833Q207.58 913.58 207.06 913.31Q206.541 913.04 206.03 912.753Q205.519 912.466 205.018 912.163Q204.517 911.86 204.026 911.54Q203.535 911.221 203.054 910.886Q202.574 910.551 202.105 910.201Q201.635 909.85 201.177 909.485Q200.72 909.12 200.274 908.74Q199.828 908.359 199.395 907.965Q198.962 907.571 198.542 907.163Q198.122 906.755 197.715 906.333Q197.308 905.912 196.916 905.477Q196.523 905.043 196.144 904.596Q195.766 904.149 195.402 903.69Q195.038 903.231 194.689 902.76Q194.34 902.29 194.007 901.808Q193.674 901.327 193.356 900.834Q193.038 900.342 192.737 899.84Q192.444 899.353 192.167 898.856Q191.89 898.36 191.629 897.855Q191.367 897.35 191.122 896.837Q190.876 896.324 190.647 895.804Q190.418 895.284 190.205 894.756Q189.993 894.229 189.797 893.695Q189.601 893.162 189.422 892.622Q189.243 892.083 189.081 891.538Q188.919 890.993 188.774 890.443Q188.629 889.893 188.501 889.339Q188.374 888.785 188.264 888.227Q188.154 887.669 188.062 887.108Q187.969 886.547 187.895 885.984Q187.82 885.42 187.763 884.854Q187.706 884.289 187.667 883.721Q187.628 883.154 187.607 882.586Q187.585 882.018 187.582 881.449Q187.579 880.881 187.593 880.312Q187.608 879.744 187.64 879.176Q187.672 878.609 187.723 878.042Q187.773 877.476 187.841 876.912Q187.909 876.347 187.995 875.785Q188.08 875.223 188.184 874.664Q188.287 874.105 188.408 873.549Q188.529 872.994 188.667 872.443Q188.805 871.891 188.961 871.344Q189.117 870.797 189.289 870.256Q189.462 869.714 189.652 869.178Q189.841 868.642 190.048 868.112Q190.254 867.583 190.477 867.059Q190.7 866.536 190.939 866.021Q191.179 865.505 191.434 864.997Z"/>
	<path fill="#FEFEFE" d="M220.806 868.061Q221.133 867.984 221.463 867.922Q221.794 867.86 222.127 867.815Q222.46 867.77 222.794 867.74Q223.129 867.711 223.465 867.698Q223.801 867.685 224.137 867.689Q224.473 867.692 224.808 867.711Q225.144 867.731 225.478 867.767Q225.812 867.803 226.144 867.855Q226.476 867.906 226.805 867.974Q227.134 868.042 227.459 868.126Q227.785 868.21 228.106 868.31Q228.427 868.409 228.743 868.524Q229.058 868.639 229.368 868.769Q229.678 868.899 229.981 869.044Q230.284 869.189 230.58 869.349Q230.876 869.508 231.164 869.682Q231.451 869.855 231.73 870.043Q232.009 870.23 232.279 870.431Q232.548 870.631 232.808 870.845Q233.067 871.058 233.316 871.284Q233.565 871.51 233.803 871.747Q234.04 871.985 234.266 872.234Q234.492 872.483 234.705 872.742Q234.919 873.002 235.12 873.271Q235.32 873.541 235.508 873.82Q235.695 874.099 235.869 874.386Q236.043 874.674 236.202 874.97Q236.362 875.265 236.507 875.569Q236.652 875.872 236.782 876.181Q236.912 876.491 237.027 876.807Q237.142 877.123 237.242 877.444Q237.341 877.765 237.425 878.09Q237.509 878.415 237.577 878.745Q237.645 879.074 237.697 879.406Q237.749 879.738 237.785 880.072Q237.821 880.406 237.84 880.741Q237.86 881.077 237.864 881.413Q237.867 881.749 237.854 882.085Q237.841 882.42 237.812 882.755Q237.783 883.09 237.737 883.423Q237.692 883.756 237.631 884.086Q237.569 884.417 237.492 884.744Q237.415 885.071 237.321 885.393Q237.228 885.716 237.12 886.034Q237.011 886.352 236.887 886.665Q236.763 886.977 236.624 887.283Q236.485 887.589 236.332 887.888Q236.178 888.187 236.01 888.478Q235.842 888.769 235.661 889.052Q235.479 889.334 235.284 889.608Q235.088 889.881 234.88 890.145Q234.672 890.409 234.451 890.662Q234.23 890.915 233.997 891.157Q233.765 891.4 233.52 891.631Q233.276 891.861 233.021 892.08Q232.766 892.298 232.5 892.505Q232.235 892.711 231.959 892.903Q231.684 893.096 231.4 893.276Q231.116 893.455 230.823 893.62Q230.531 893.786 230.231 893.937Q229.931 894.088 229.623 894.224Q229.316 894.36 229.003 894.482Q228.689 894.603 228.371 894.709Q228.052 894.815 227.728 894.905Q227.285 895.029 226.835 895.123Q226.386 895.217 225.93 895.28Q225.475 895.344 225.017 895.378Q224.559 895.412 224.099 895.415Q223.639 895.418 223.181 895.391Q222.722 895.364 222.266 895.306Q221.81 895.249 221.359 895.161Q220.908 895.073 220.463 894.956Q220.019 894.839 219.583 894.692Q219.148 894.546 218.723 894.371Q218.298 894.196 217.885 893.993Q217.473 893.79 217.075 893.561Q216.676 893.331 216.294 893.075Q215.912 892.82 215.548 892.54Q215.184 892.26 214.839 891.956Q214.494 891.652 214.17 891.326Q213.846 891 213.544 890.654Q213.243 890.307 212.964 889.941Q212.686 889.575 212.433 889.192Q212.18 888.808 211.952 888.409Q211.725 888.01 211.525 887.596Q211.324 887.182 211.152 886.756Q210.979 886.331 210.835 885.894Q210.691 885.458 210.577 885.013Q210.462 884.568 210.377 884.116Q210.292 883.664 210.237 883.208Q210.182 882.752 210.157 882.293Q210.133 881.834 210.139 881.375Q210.144 880.915 210.181 880.457Q210.217 879.999 210.283 879.544Q210.35 879.09 210.447 878.64Q210.543 878.191 210.669 877.749Q210.795 877.307 210.95 876.874Q211.105 876.442 211.288 876.02Q211.472 875.599 211.683 875.191Q211.894 874.782 212.131 874.389Q212.368 873.995 212.631 873.618Q212.894 873.241 213.182 872.883Q213.469 872.524 213.78 872.185Q214.09 871.846 214.422 871.529Q214.755 871.211 215.107 870.917Q215.46 870.622 215.831 870.351Q216.202 870.08 216.591 869.834Q216.979 869.589 217.383 869.369Q217.787 869.15 218.204 868.958Q218.622 868.766 219.051 868.602Q219.48 868.437 219.92 868.302Q220.359 868.167 220.806 868.061Z"/>
	<path fill="#4666C9" d="M256.326 865.616C275.217 866.107 294.149 865.854 313.045 865.876C327.216 865.892 341.428 866.266 355.593 866.009Q355.364 866.502 355.149 867.001Q354.934 867.501 354.735 868.007Q354.536 868.513 354.351 869.024Q354.167 869.536 353.999 870.053Q353.83 870.57 353.677 871.091Q353.524 871.613 353.386 872.139Q353.249 872.665 353.127 873.195Q353.006 873.725 352.9 874.259Q352.795 874.792 352.705 875.328Q352.616 875.865 352.542 876.403Q352.469 876.942 352.412 877.483Q352.355 878.023 352.314 878.566Q352.273 879.108 352.249 879.651Q352.224 880.194 352.216 880.738Q352.208 881.281 352.216 881.825Q352.224 882.369 352.248 882.912Q352.273 883.455 352.314 883.997Q352.354 884.539 352.411 885.08Q352.468 885.621 352.542 886.16Q352.615 886.698 352.704 887.235Q352.794 887.771 352.899 888.305Q353.005 888.838 353.126 889.368Q353.247 889.898 353.385 890.424Q353.522 890.95 353.675 891.472Q353.828 891.994 353.997 892.51Q354.165 893.027 354.349 893.539Q354.533 894.051 354.733 894.556Q354.932 895.062 355.147 895.562Q355.361 896.061 355.591 896.554Q355.82 897.047 356.064 897.533Q356.308 898.019 356.567 898.497Q356.825 898.976 357.098 899.446C323.141 898.617 288.955 899.413 254.97 899.415Q255.247 898.939 255.509 898.456Q255.771 897.972 256.018 897.481Q256.265 896.99 256.497 896.491Q256.729 895.992 256.946 895.487Q257.163 894.981 257.365 894.469Q257.566 893.958 257.752 893.44Q257.938 892.922 258.107 892.399Q258.277 891.876 258.431 891.348Q258.585 890.82 258.723 890.287Q258.861 889.754 258.982 889.218Q259.104 888.682 259.209 888.142Q259.314 887.602 259.402 887.059Q259.491 886.516 259.563 885.971Q259.635 885.425 259.691 884.878Q259.746 884.331 259.785 883.782Q259.823 883.234 259.846 882.684Q259.868 882.134 259.873 881.584Q259.878 881.034 259.867 880.484Q259.855 879.934 259.827 879.385Q259.799 878.836 259.754 878.287Q259.709 877.739 259.648 877.193Q259.586 876.646 259.508 876.102Q259.43 875.557 259.336 875.015Q259.241 874.473 259.13 873.935Q259.019 873.396 258.891 872.861Q258.764 872.326 258.62 871.795Q258.477 871.264 258.317 870.737Q258.157 870.211 257.981 869.69Q257.806 869.169 257.614 868.653Q257.423 868.137 257.216 867.628Q257.009 867.118 256.786 866.615Q256.564 866.112 256.326 865.616Z"/>
	<path fill="#4666C9" d="M288.514 685.055L319.712 685.034C319.049 696.075 319.55 707.404 319.481 718.475L288.586 718.458C288.349 707.329 288.729 696.189 288.514 685.055Z"/>
	<path fill="#010000" d="M277.277 767.103L279.003 767.59C280.687 770.065 280.093 822.58 279.528 829.113L277.479 828.548C276.263 826.28 276.604 771.874 277.277 767.103Z"/>
	<path fill="#010000" d="M331.925 766.777C332.681 767.072 333.257 767.42 333.941 767.847C334.999 771.808 334.597 825.406 333.425 828.563C332.386 828.055 332.239 827.931 331.597 826.97C330.831 815.64 331.401 803.933 331.405 792.564C331.407 785.425 330.416 773.272 331.925 766.777Z"/>
	<path fill="#F4793D" d="M766.54 607.357C768.231 601.338 768.336 594.915 770.249 588.92C771.657 593.471 772.872 597.884 773.237 602.65C773.874 610.963 773.504 684.47 774.319 685.354C774.33 685.366 775.983 686.296 776.02 686.315C776.176 686.398 776.338 686.466 776.497 686.541L776.391 713.053C776.372 717.925 775.985 722.928 776.46 727.776C777.311 736.482 778.906 745.213 780.201 753.87C780.696 757.179 781.78 761.281 781.573 764.581C781.854 765.345 782.08 766.255 782.544 766.921C785.138 777.705 786.105 788.929 788.999 799.594C791.482 808.739 794.62 817.73 797.285 826.827C799.481 834.322 801.216 841.938 803.227 849.481C804.396 853.869 805.971 858.27 806.86 862.716C797.292 864.171 787.612 867.035 778.17 869.286C768.088 871.691 757.712 873.714 747.737 876.455C746.275 876.857 745.061 877.46 743.84 878.358C740.379 866.023 733.239 840.282 727.008 829.871C724.618 836.791 719.685 869.95 716.243 872.735C710.018 871.851 702.869 872.486 696.556 872.498L654.521 872.704C657.102 867.04 660.665 834.728 661.781 826.488C664.539 806.139 667.412 785.649 670.774 765.391C652.993 765.047 635.14 765.937 617.369 765.109C630.474 764.442 643.916 764.982 657.06 764.984C661.026 764.985 665.849 765.777 669.709 764.918C670.849 764.664 670.952 764.534 671.532 763.601L671.203 762.553L669.493 762.174C670.686 762.014 670.814 762.122 671.813 761.342C673.675 753.425 674.385 745.122 675.361 737.056C676.192 730.183 677.305 723.209 677.633 716.294C679.671 713.356 687.492 709.35 690.634 707.241C703.82 698.392 716.855 689.33 730.113 680.583C739.385 674.465 749.874 668.493 758.395 661.384C759.994 660.05 761.986 658.321 762.766 656.347C766.139 647.806 765.563 618.748 766.54 607.357Z"/>
	<path fill="#010000" d="M735.165 741.727C736.054 741.892 736.77 742.117 737.616 742.418C738.295 744.081 728.52 813.454 727.239 821.973C726.403 821.8 725.658 821.54 724.854 821.26C724.295 820.268 724.251 819.891 724.304 818.715C724.723 809.502 726.729 799.818 727.962 790.639C730.146 774.365 731.907 757.822 735.165 741.727Z"/>
	<path fill="#FEE9E1" d="M662.556 484.912L902.616 484.978L902.515 592.488L816.452 592.591C802.615 592.784 788.762 592.659 774.923 592.666C773.544 587.304 772.14 582.038 769.613 577.084C765.611 569.235 758.691 561.94 750.166 559.145C750.206 553.939 750.013 548.741 749.847 543.539C754.446 538.727 757.019 533.237 757.209 526.511C757.415 519.163 754.883 513.269 749.907 508.041C743.128 502.979 736.732 499.524 727.909 501.002C722.522 501.904 716.097 505.673 713.053 510.37C712.357 511.445 711.857 512.708 711.341 513.878C705.934 515.598 695.138 518.182 692.173 523.612C691.445 524.945 691.553 525.344 691.776 526.778C692.882 528.037 693.909 527.974 695.557 528.069C699.936 528.322 704.326 528.142 708.666 528.875C708.661 536.284 707.786 545.205 713.493 550.9C715.591 552.994 718.054 554.239 720.649 555.578C721.297 556.559 721.377 557.028 721.36 558.199C719.383 560.33 715.582 561.11 713.071 562.616C704.053 568.024 696.618 579.494 695.982 590.071L695.7 591.363C692.348 593.318 668.506 591.811 662.527 592.261L662.556 484.912Z"/>
	<path fill="#F4793D" d="M749.907 508.041L816.476 507.896C816.495 536.085 815.852 564.417 816.452 592.591C802.615 592.784 788.762 592.659 774.923 592.666C773.544 587.304 772.14 582.038 769.613 577.084C765.611 569.235 758.691 561.94 750.166 559.145C750.206 553.939 750.013 548.741 749.847 543.539C754.446 538.727 757.019 533.237 757.209 526.511C757.415 519.163 754.883 513.269 749.907 508.041Z"/>
	<path fill="#FEFEFE" d="M776.408 617.997L902.609 618.067L902.504 764.136Q861.113 764.581 819.719 764.413C807.09 764.417 794.173 763.874 781.573 764.581C781.78 761.281 780.696 757.179 780.201 753.87C778.906 745.213 777.311 736.482 776.46 727.776C775.985 722.928 776.372 717.925 776.391 713.053L776.497 686.541C777.656 678.202 776.895 669.025 776.756 660.618C776.521 646.428 776.22 632.187 776.408 617.997Z"/>
	<path fill="#010000" d="M813.823 675.186C814.646 675.487 815.081 675.764 815.779 676.267C816.341 682.623 816.942 716.805 815.307 721.006C814.55 720.609 813.906 720.542 813.609 719.68C812.462 716.352 812.534 678.197 813.823 675.186Z"/>
	<path fill="#FEE9E1" d="M99.3391 315.631C99.332 313.261 99.2938 311.03 99.8696 308.709L99.6365 763.212C90.3138 763.987 80.5759 763.399 71.2069 763.376L75.0691 762.524C76.5046 758.186 76.725 753.291 77.6717 748.807C80.3671 736.04 85.0616 722.317 84.2975 709.155C82.8408 684.066 64.0141 675.061 47.3808 660.308C30.7081 645.52 31.3081 629.375 39.7177 609.936C46.4623 594.345 56.1867 580.228 63.2562 564.811C79.7122 528.923 75.818 486.203 61.3455 450.461C54.0581 432.463 45.6938 415.068 44.6162 395.311C43.3676 372.42 53.3485 354.668 70.6524 340.325C80.3325 332.301 90.9417 325.054 99.3391 315.631Z"/>
	<path fill="#FEFEFE" d="M372.939 595.307C386.141 595.926 399.558 595.42 412.781 595.4L478.379 595.43L694.56 595.462C692.604 606.5 691.514 617.667 690.238 628.797Q687.837 648.873 685.711 668.981C680.059 674.219 670.782 679.548 664.011 683.349C663.293 660.813 663.847 638.068 663.873 615.513C651.925 615.172 639.902 615.391 627.946 615.36L555.782 615.337L372.912 615.432L372.939 595.307Z"/>
	<path fill="#FEFEFE" d="M728.435 640.428C728.189 639.51 728.2 639.748 728.149 638.866C727.886 634.326 728.423 629.742 728.528 625.199C728.69 618.175 727.843 610.003 729.565 603.178Q729.804 602.193 730.166 601.247Q730.528 600.301 731.008 599.409Q731.488 598.517 732.077 597.693Q732.667 596.869 733.357 596.127Q733.966 595.466 734.639 594.869Q735.311 594.272 736.04 593.745Q736.769 593.219 737.547 592.768Q738.324 592.317 739.144 591.946Q739.963 591.575 740.815 591.288Q741.667 591.001 742.543 590.8Q743.42 590.6 744.312 590.488Q745.204 590.377 746.103 590.355C750.763 590.248 755.421 591.81 758.704 595.201C763.958 600.626 763.087 608.198 763.081 615.129C762.658 625.229 762.956 647.473 759.669 656.442C755.412 660.954 749.309 664.242 744.142 667.675L717.485 685.245C705.674 693.058 694.108 701.66 682.029 709.007C679.622 710.471 675.375 713.39 672.503 713.377C668.643 713.36 664.827 709.957 662.426 707.262C659.671 704.171 657.151 699.794 657.413 695.502C657.562 693.074 658.726 691.264 660.57 689.745C665.891 685.365 672.372 681.846 678.084 677.947Q696.766 665.184 715.245 652.128C719.095 649.403 725.721 645.817 728.329 641.986L728.435 640.428Z"/>
	<path fill="#010000" d="M661.969 691.982C662.627 692.234 663.031 692.653 663.563 693.104C664.533 696.03 665.753 698.759 667.376 701.387C668.298 702.88 670.155 704.712 670.626 706.377C670.75 706.817 670.618 707.293 670.615 707.751C670.176 707.766 669.513 707.832 669.053 707.719C666.752 707.152 664.494 703.308 663.534 701.351C662.083 698.394 660.8 695.209 661.969 691.982Z"/>
	<path fill="#4666C9" d="M695.982 590.071C697.188 589.807 697.669 589.937 698.355 588.843C699.776 586.578 700.526 583.545 701.641 581.082C705.417 572.74 711.248 565.444 720.415 563.008C726.9 561.285 748.074 560.823 753.701 564.157C761.447 568.746 767.718 577.18 769.725 585.928C769.954 586.922 770.116 587.909 770.249 588.92C768.336 594.915 768.231 601.338 766.54 607.357L765.6 609.651C764.512 609.927 765.042 609.836 764.015 609.943C763.242 611.608 763.226 613.32 763.081 615.129C763.087 608.198 763.958 600.626 758.704 595.201C755.421 591.81 750.763 590.248 746.103 590.355Q745.204 590.377 744.312 590.488Q743.42 590.6 742.543 590.8Q741.667 591.001 740.815 591.288Q739.963 591.575 739.143 591.946Q738.324 592.317 737.547 592.768Q736.769 593.219 736.04 593.745Q735.311 594.272 734.639 594.869Q733.966 595.466 733.357 596.127Q732.667 596.869 732.077 597.693Q731.488 598.517 731.008 599.409Q730.528 600.301 730.166 601.247Q729.804 602.193 729.565 603.178C727.843 610.003 728.69 618.175 728.528 625.199C728.423 629.742 727.886 634.326 728.149 638.866C728.2 639.748 728.189 639.51 728.435 640.428C728.022 640.376 727.607 640.207 727.196 640.273C725.013 640.619 690.362 665.684 685.711 668.981Q687.837 648.873 690.238 628.797C691.514 617.667 692.604 606.5 694.56 595.462L478.379 595.43L412.781 595.4C399.558 595.42 386.141 595.926 372.939 595.307C378.911 594.288 386.085 594.991 392.176 594.986L437.24 595.063L606.25 595.016L667.19 594.95C674.836 594.93 682.652 595.438 690.263 595.127C691.782 595.065 693.289 595.002 694.589 594.133C695.239 593.698 695.131 593.423 695.289 592.725C685.309 591.151 673.433 592.984 663.115 592.304L662.527 592.261C668.506 591.811 692.348 593.318 695.7 591.363L695.982 590.071Z"/>
	<path fill="#4666C9" d="M433.485 866.049C434.37 866.113 435.063 866.015 435.93 865.834C437.908 862.544 435.668 776.488 436.691 765.313C437.276 778.063 436.936 790.95 436.926 803.715L436.797 866.12C444.064 865.952 451.77 864.633 457.565 870.059C461.135 873.401 462.982 878.045 462.953 882.913C462.925 887.61 461.23 892.314 457.786 895.583Q457.069 896.261 456.27 896.84Q455.471 897.42 454.604 897.892Q453.737 898.363 452.816 898.719Q451.896 899.074 450.937 899.308C443.2 901.226 428.167 899.623 419.441 899.911Q419.726 899.436 419.996 898.953Q420.266 898.47 420.522 897.979Q420.777 897.488 421.017 896.989Q421.257 896.491 421.482 895.985Q421.707 895.479 421.916 894.967Q422.125 894.454 422.319 893.936Q422.512 893.417 422.69 892.893Q422.868 892.368 423.029 891.839Q423.19 891.309 423.336 890.775Q423.481 890.241 423.61 889.703Q423.738 889.165 423.851 888.622Q423.963 888.08 424.058 887.535Q424.154 886.99 424.233 886.442Q424.312 885.894 424.374 885.344Q424.436 884.794 424.481 884.243Q424.527 883.691 424.555 883.138Q424.583 882.585 424.595 882.032Q424.606 881.478 424.601 880.925Q424.595 880.371 424.573 879.818Q424.55 879.265 424.511 878.713Q424.472 878.161 424.416 877.61Q424.359 877.06 424.287 876.511Q424.214 875.962 424.124 875.416Q424.034 874.87 423.928 874.327Q423.821 873.784 423.698 873.244Q423.576 872.704 423.436 872.169Q423.297 871.633 423.141 871.102Q422.985 870.571 422.814 870.044Q422.642 869.518 422.454 868.998Q422.266 868.477 422.062 867.962Q421.858 867.448 421.639 866.939Q421.42 866.431 421.185 865.93Q427.335 865.957 433.485 866.049Z"/>
	<path fill="#FEFEFE" d="M677.633 716.294C677.305 723.209 676.192 730.183 675.361 737.056C674.385 745.122 673.675 753.425 671.813 761.342C670.814 762.122 670.686 762.014 669.493 762.174C667.595 762.192 665.926 762.155 664.069 761.741C662.609 758.999 663.565 723.072 663.581 717.031C668.279 716.916 672.961 716.849 677.633 716.294Z"/>
	<path fill="#FEE9E1" d="M372.852 484.943L554.165 484.902L613.86 484.816C624.043 484.792 634.299 484.503 644.472 484.766L644.354 592.429L635.906 592.362C617.415 592.973 598.738 592.404 580.224 592.395L473.538 592.447L407.919 592.474C396.49 592.496 384.238 593.39 372.904 592.239L372.852 484.943Z"/>
	<path fill="#F4793D" d="M485.456 521.638C497.346 521.382 509.702 522.133 521.514 521.213C522.314 529.518 521.902 538.165 521.908 546.517L521.965 592.045L608.925 592.045C613.505 592.051 632.935 591.356 635.906 592.362C617.415 592.973 598.738 592.404 580.224 592.395L473.538 592.447L407.919 592.474C396.49 592.496 384.238 593.39 372.904 592.239C380.997 591.684 389.434 592.161 397.56 592.166L446.375 592.178L446.32 521.293C453.197 521.326 473.689 520.249 478.976 521.79C479.112 521.857 479.242 521.938 479.385 521.99C481.116 522.625 483.802 522.399 485.456 521.638Z"/>
	<path fill="#F4793D" d="M485.456 521.638C485.94 518.792 486.876 514.193 486.166 511.451C485.854 510.246 485.754 510.85 486.236 509.837C497.456 508.739 509.664 509.385 520.966 509.67C521.956 510.381 521.744 510.541 521.99 511.677C521.623 514.266 521.53 516.751 521.506 519.359L521.514 521.213C509.702 522.133 497.346 521.382 485.456 521.638Z"/>
	<path fill="#010000" d="M485.456 521.638C485.94 518.792 486.876 514.193 486.166 511.451C485.854 510.246 485.754 510.85 486.236 509.837C497.456 508.739 509.664 509.385 520.966 509.67C521.956 510.381 521.744 510.541 521.99 511.677C516.48 511.92 493.76 510.833 490.411 512.674C489.759 513.831 489.793 513.928 490.151 515.272C490.228 515.563 490.338 515.844 490.422 516.133C490.685 517.03 490.71 517.695 490.692 518.618C495.046 520.371 514.707 518.386 521.506 519.359L521.514 521.213C509.702 522.133 497.346 521.382 485.456 521.638Z"/>
	<path fill="#F4793D" d="M479.074 509.973C479.773 512.763 479.318 516.066 479.209 518.935L478.976 521.79C473.689 520.249 453.197 521.326 446.32 521.293L446.28 519.013C446.471 516.538 446.531 514.323 446.183 511.843C453.877 512.67 470.612 512.344 478.642 511.784L479.074 509.973Z"/>
	<path fill="#010000" d="M446.28 519.013L479.209 518.935L478.976 521.79C473.689 520.249 453.197 521.326 446.32 521.293L446.28 519.013Z"/>
	<path fill="#010000" d="M446.183 511.843C446.322 510.85 446.387 510.391 447.085 509.651C452.935 509.15 474.235 508.663 479.074 509.973L478.642 511.784C470.612 512.344 453.877 512.67 446.183 511.843Z"/>
	<path fill="#FEE9E1" d="M372.993 353.878L536.035 353.961C572.173 353.956 608.358 353.338 644.489 353.748L644.418 459.246L521.608 459.09C496.413 459.681 471.08 459.178 445.87 459.188L372.963 459.109L372.993 353.878Z"/>
	<path fill="#F4793D" d="M480.215 389.442C480.844 383.914 479.71 377.929 480.814 372.538C482.123 371.55 483.927 371.73 485.505 371.653C497.515 372.224 509.675 371.878 521.698 371.795L521.608 459.09C496.413 459.681 471.08 459.178 445.87 459.188L445.699 372.013L480.042 371.974C479.995 377.736 479.615 383.711 480.215 389.442Z"/>
	<path fill="#FEFEFE" d="M480.215 389.442C480.844 383.914 479.71 377.929 480.814 372.538C482.123 371.55 483.927 371.73 485.505 371.653C485.51 377.316 485.984 383.59 485.193 389.172C483.527 389.567 481.917 389.478 480.215 389.442Z"/>
	<path fill="#FEFEFE" d="M372.932 618.504C383.529 618.134 394.231 618.41 404.838 618.403L463.96 618.385C502.624 618.377 541.419 617.66 580.067 618.406C580.482 638.945 580.177 659.58 580.085 680.126C580.051 687.746 578.981 700.041 580.406 707.163C580.902 709.639 582.322 711.976 584.113 713.735C585.747 715.342 587.43 716.187 589.68 716.601C595.965 717.757 602.969 717.163 609.362 717.148Q626.769 716.985 644.176 717.208C644.414 732.204 644.235 747.231 644.256 762.229C638.175 763.069 631.013 762.377 624.853 762.373L583.606 762.359L436.588 762.092L436.615 716.568C436.645 709.398 437.681 699.685 436.227 692.883C435.66 690.229 434.143 687.589 432.206 685.701C430.579 684.116 428.709 683.047 426.482 682.571C419.703 681.123 411.578 681.951 404.621 681.976L372.965 681.971L372.932 618.504Z"/>
	<path fill="#010000" d="M514.413 670.102C515.273 670.243 515.869 670.44 516.67 670.754C517.599 672.555 517.368 718.206 516.696 722.848C515.618 722.664 515.117 722.551 514.305 721.802C513.297 713.372 514.053 704.093 514.053 695.575C514.052 687.368 513.228 678.196 514.413 670.102Z"/>
	<path fill="#010000" d="M466.333 669.584C467.07 669.805 467.614 669.908 468.166 670.483C468.869 671.216 468.906 717.412 468.304 723.013C467.189 722.608 466.884 722.548 466.135 721.653C465.41 711.56 465.875 701.166 465.874 691.04C465.873 684.257 464.962 676.164 466.333 669.584Z"/>
	<path fill="#FEE9E1" d="M118.826 484.922L353.994 484.888L354.007 592.33L264.216 592.44L189.489 592.468L118.824 592.483L118.826 484.922Z"/>
	<path fill="#F4793D" d="M229.491 522.505C234.667 520.752 256.834 521.819 263.954 521.738C264.377 545.293 264.135 568.88 264.216 592.44L189.489 592.468L189.525 521.879C196.292 521.882 217.431 520.874 222.846 522.201C223.7 523.282 223.833 523.391 225.278 523.597C226.425 523.76 227.581 523.53 228.713 523.344L229.491 522.505Z"/>
	<path fill="#010000" d="M223.558 511.832L223.74 510.215C225.222 508.958 227.622 509.383 229.491 509.415C235.41 509.455 259.785 508.306 263.664 510.002L263.929 511.545L264.028 519.038L263.954 521.738C256.834 521.819 234.667 520.752 229.491 522.505L228.713 523.344C227.581 523.53 226.425 523.76 225.278 523.597C223.833 523.391 223.7 523.282 222.846 522.201L223.149 519.088C223.134 516.619 223.201 514.286 223.558 511.832Z"/>
	<path fill="#F4793D" d="M263.929 511.545L264.028 519.038C253.129 518.792 242.165 519.034 231.26 519.037C230.932 517.201 230.694 515.458 230.616 513.593C233.046 509.444 257.986 513.37 263.929 511.545Z"/>
	<path fill="#FEFEFE" d="M223.558 511.832L223.74 510.215C225.222 508.958 227.622 509.383 229.491 509.415C229.5 513.713 229.158 518.234 229.491 522.505L228.713 523.344C227.581 523.53 226.425 523.76 225.278 523.597C223.833 523.391 223.7 523.282 222.846 522.201L223.149 519.088C223.134 516.619 223.201 514.286 223.558 511.832Z"/>
	<path fill="#F4793D" d="M189.136 511.341C193.887 512.739 217.712 512.397 223.558 511.832C223.201 514.286 223.134 516.619 223.149 519.088L222.846 522.201C217.431 520.874 196.292 521.882 189.525 521.879L189.492 519.11C189.543 516.498 189.675 513.914 189.136 511.341Z"/>
	<path fill="#010000" d="M189.492 519.11C200.701 519.098 211.944 518.898 223.149 519.088L222.846 522.201C217.431 520.874 196.292 521.882 189.525 521.879L189.492 519.11Z"/>
	<path fill="#010000" d="M189.136 511.341L189.741 509.681C193.127 508.445 217.525 509.216 222.597 509.629C223.253 510.368 223.369 510.872 223.558 511.832C217.712 512.397 193.887 512.739 189.136 511.341Z"/>
	<path fill="#FEE9E1" d="M662.622 353.937L902.493 354.435L902.514 459.131L822.674 459.115C813.957 459.799 804.835 459.293 796.071 459.288L745.296 459.28L691.845 459.322C682.264 459.334 672.419 459.817 662.865 459.141L662.622 353.937Z"/>
	<path fill="#F4793D" d="M743.423 372.671Q761.909 373.009 780.397 372.91L783.511 373.045Q799.96 373.246 816.409 373.091L816.548 432.484C816.565 440.105 815.692 451.324 816.852 458.515C818.771 459.109 820.687 459.072 822.674 459.115C813.957 459.799 804.835 459.293 796.071 459.288L745.296 459.28L691.845 459.322C682.264 459.334 672.419 459.817 662.865 459.141C672.17 458.579 681.701 458.972 691.036 458.971L743.395 458.981L743.423 372.671Z"/>
	<path fill="#010000" d="M780.397 372.91L783.511 373.045C783.516 376.961 784.344 395.179 782.446 397.152L781.549 397.032C778.931 394.102 780.28 377.602 780.397 372.91Z"/>
	<path fill="#FEE9E1" d="M118.742 353.96L238.923 353.93C277.275 353.864 315.688 353.355 354.033 353.851L353.993 459.045L264.176 459.011Q226.811 458.893 189.447 459.193L118.864 459.185C118.795 424.12 118.423 389.021 118.742 353.96Z"/>
	<path fill="#F4793D" d="M228.974 372.802Q246.709 372.941 264.443 372.695L264.176 459.011Q226.811 458.893 189.447 459.193L189.526 373.036C200.129 373.098 211.562 371.96 222.039 373.183C222.95 374.433 222.82 376.138 222.919 377.63C222.859 380.254 222.832 382.872 222.618 385.489C222.469 387.302 222.79 388.651 223.992 390.08C225.524 390.806 227.052 390.58 228.695 390.503C229.354 384.708 228.972 378.636 228.974 372.802Z"/>
	<path fill="#FEFEFE" d="M222.919 377.63C223.048 375.981 222.885 374.571 223.81 373.178C225.373 372.852 226.856 372.926 228.439 372.974C228.394 378.724 227.964 384.799 228.695 390.503C227.052 390.58 225.524 390.806 223.992 390.08C222.79 388.651 222.469 387.302 222.618 385.489C222.832 382.872 222.859 380.254 222.919 377.63Z"/>
	<path fill="#FEFEFE" d="M125.228 618.25L272.38 618.21C299.547 618.211 326.807 617.67 353.959 618.298L353.79 681.914L255.556 682.053C255.491 676.998 256.585 656.547 254.686 653.502L253.915 653.436C251.657 655.924 252.674 664.834 252.687 668.25L252.634 682.076L215.561 682.103C215.56 677.232 216.546 656.291 214.866 653.317L213.756 653.127L213.036 653.793C211.706 658.466 212.599 676.11 212.579 682.134L198.565 682.02C191.675 681.98 183.659 681.152 178.435 686.549C176.645 688.399 175.108 690.628 174.55 693.177C172.963 700.438 173.943 709.653 173.949 717.125L173.996 763.469L119.075 763.43Q118.603 690.891 119.019 618.355L125.228 618.25Z"/>
	<path fill="#FEFEFE" d="M905.1 213.014L919.283 213.041C920.013 276.99 919.487 341.015 919.47 404.971L919.439 763.916L905.384 763.94L905.1 213.014Z"/>
	<path fill="#FEFEFE" d="M583.025 618.396C608.978 617.799 635.099 618.106 661.061 618.4L661.198 684.905C657.622 687.83 654.839 690.613 654.455 695.477C653.99 701.36 657.446 706.134 661.062 710.367C662.334 711.602 663.693 712.766 665.006 713.957C643.986 714.408 622.894 714.08 601.865 714.126C597.162 714.137 589.436 714.98 585.956 711.343C584.526 709.849 583.597 708.094 583.247 706.051C582.031 698.963 582.956 687.076 582.963 679.376L583.025 618.396Z"/>
	<path fill="#4666C9" d="M617.52 623.638L635.484 623.627Q635.514 632.142 635.4 640.656C629.438 640.602 623.491 640.539 617.533 640.776L617.52 623.638Z"/>
	<path fill="#FEFEFE" d="M102.779 212.699C107.134 212.53 111.521 212.644 115.879 212.652L115.972 676.51C115.964 688.665 116.817 760.892 115.835 763.144L114.625 763.452L102.597 763.415L102.779 212.699Z"/>
	<path fill="#FEFEFE" d="M357.292 212.661C361.364 212.574 365.448 212.679 369.52 212.718C370.784 258.6 370.019 304.723 369.977 350.631L370.033 568.872L370.107 654.775C370.11 659.467 370.778 678.291 369.988 681.01C369.878 681.388 369.574 681.68 369.368 682.016L356.797 681.98C356.353 661 356.758 639.953 356.786 618.964L356.892 505.687L357.292 212.661Z"/>
	<path fill="#FEFEFE" d="M372.923 462.001L644.345 462.062L644.355 481.649L372.91 481.953L372.923 462.001Z"/>
	<path fill="#FEFEFE" d="M373.855 332.722Q411.303 332.88 448.75 332.625L569.237 332.606C594.308 332.628 619.525 332.095 644.581 332.907C644.617 336.668 645.567 347.947 643.875 350.741L372.989 350.832C372.969 347.458 371.878 334.825 373.855 332.722Z"/>
	<path fill="#FEFEFE" d="M647.495 212.869L660.083 212.817L659.933 592.355L647.118 592.342C646.512 527.823 647.191 463.252 647.346 398.73L647.495 212.869Z"/>
	<path fill="#FEFEFE" d="M667.955 462.233C701.096 461.624 734.317 462.103 767.465 462.115L902.504 462.01C902.539 468.396 903.025 475.213 902.285 481.537C900.596 482.318 898.214 482.008 896.375 481.997L662.776 482.045L662.704 462.638L667.955 462.233Z"/>
	<path fill="#FEFEFE" d="M121.235 595.24L252.979 595.263C286.65 595.19 320.384 594.671 354.05 595.238C354.092 599.195 355.118 612.508 353.388 615.012L351.875 615.264L118.976 615.308C118.947 611.045 117.84 598.565 119.62 595.554L121.235 595.24Z"/>
	<path fill="#FEFEFE" d="M119.071 462.187C144.938 461.687 170.875 461.978 196.75 461.94L354.023 462.016C354.049 468.593 354.146 475.177 353.924 481.752L119.033 481.953L119.071 462.187Z"/>
	<path fill="#FEFEFE" d="M662.526 332.581L902.471 332.922L902.463 351.397C854.683 351.83 806.848 351.308 759.065 351.067C726.905 350.904 694.703 351.222 662.551 350.692L662.526 332.581Z"/>
	<path fill="#FEFEFE" d="M301.92 332.751L354.095 332.732L354.086 350.815C333.494 351.251 312.807 350.903 292.204 350.914L170.75 350.916L118.91 350.857L118.923 332.919L301.92 332.751Z"/>
	<path fill="#FEFEFE" d="M896.198 595.257L902.534 595.211L902.542 615.277L781.585 615.162L775.972 615.157Q776.069 605.323 775.649 595.497L896.198 595.257Z"/>
	<path fill="#FEFEFE" d="M727.878 504.057C730.522 503.945 733.386 503.719 735.975 504.324C742.09 505.753 747.9 509.331 751.273 514.722C754.364 519.661 755.057 525.605 753.557 531.192C752.742 534.229 751.045 537.715 748.216 539.327L747.508 539.08C745.978 536.241 747.221 532.327 745.617 529.468C744.967 528.308 744.463 528.311 743.286 528.108C742.028 528.599 741.831 528.648 741.044 529.727C741.425 531.435 743.175 531.351 743.531 532.718C744.135 535.035 742.332 536.827 741.391 538.759L741.833 539.905C743.424 541.308 744.999 541.978 746.948 542.783L747.042 559.082L737.223 559.075L724.058 559.097L723.788 552.789C720.781 551.646 718.036 550.604 715.72 548.261C710.419 542.899 711.484 534.866 711.639 527.975C718.192 527.741 726.505 528.938 732.799 527.46C734.091 527.157 734.644 526.934 735.38 525.836C735.118 524.972 734.735 524.305 734.209 523.579C729.763 517.45 720.966 515.254 713.887 514.243C717.838 509.119 721.625 505.995 727.878 504.057Z"/>
	<path fill="#FEFEFE" d="M647.048 717.129C651.626 717.069 656.209 717.102 660.787 717.092L660.895 762.191L647.217 762.221C646.71 747.227 647.015 732.131 647.048 717.129Z"/>
	<path fill="#010000" d="M727.008 829.871C733.239 840.282 740.379 866.023 743.84 878.358C745.061 877.46 746.275 876.857 747.737 876.455C757.712 873.714 768.088 871.691 778.17 869.286C787.612 867.035 797.292 864.171 806.86 862.716C806.791 863.005 806.705 863.291 806.654 863.583C806.169 866.367 809.914 872.4 810.711 875.421C813.294 885.212 807.143 897.957 799.764 904.244C791.662 911.146 780.264 912.875 770.316 915.712C764.65 917.328 759.032 919.167 753.418 920.955C770.532 921.401 787.714 921.084 804.835 921.06L893.898 920.983C907.847 920.986 922.053 920.396 935.973 920.898C937.42 920.95 939.002 920.986 940.302 921.675L940.532 922.675C939.799 923.691 939.787 923.846 938.469 923.993C932.677 924.637 925.943 923.943 920.075 923.924L880.981 923.901L744.906 923.829L316.03 923.801L171.751 923.889C167.058 923.895 132.619 924.557 130.496 923.979C130.169 923.89 129.904 923.65 129.608 923.486L129.353 922.371C129.775 921.762 129.758 921.438 130.525 921.312C135.673 920.465 141.328 920.956 146.546 920.995Q158 921.087 169.454 920.967Q224.557 920.504 279.66 920.963L641.923 920.984C635.508 916.995 630.154 912.715 628.441 904.888C627.343 899.871 627.873 893.937 630.733 889.562Q631.165 888.892 631.664 888.271Q632.162 887.649 632.722 887.082Q633.282 886.515 633.898 886.009Q634.513 885.502 635.177 885.062Q635.841 884.622 636.548 884.252Q637.254 883.883 637.994 883.588Q638.734 883.293 639.501 883.076Q640.268 882.859 641.053 882.722C645.294 882.018 649.693 882.525 653.96 881.941C653.937 879.625 653.314 874.588 654.521 872.704L696.556 872.498C702.869 872.486 710.018 871.851 716.243 872.735C719.685 869.95 724.618 836.791 727.008 829.871Z"/>
	<path fill="#FEFEFE" d="M727.008 829.871C733.239 840.282 740.379 866.023 743.84 878.358C744.672 880.63 745.671 882.849 746.616 885.077Q745.046 885.454 743.493 885.899C739.093 887.177 734.999 889.677 732.85 893.864C730.759 897.938 730.94 902.777 732.343 907.04C734.734 914.3 739.515 917.755 746.06 920.915L695.705 920.918C708.183 910.865 713.464 901.271 714.825 885.228C715.125 881.69 714.765 876.755 715.953 873.48C716.044 873.23 716.146 872.984 716.243 872.735C719.685 869.95 724.618 836.791 727.008 829.871Z"/>
	<path fill="#FEFEFE" d="M705.7 875.75L712.582 875.782C712.319 884.497 711.231 894.013 707.655 902.024C704.206 909.75 698.323 916.561 690.237 919.571C684.72 921.624 657.53 921.55 651.282 920.473C647.729 919.86 644.868 918.6 641.62 917.095C638.969 915.433 636.532 913.529 634.545 911.092C631.302 907.115 630.696 902.329 631.203 897.343C633.014 879.55 651.577 888.829 655.966 883.848C657.376 882.248 656.73 877.954 656.654 875.944L705.7 875.75Z"/>
	<path fill="#FEFEFE" d="M803.234 866.612C803.477 866.658 803.46 866.635 803.73 866.857C805.714 868.494 807.129 873.39 807.569 875.868C808.868 883.176 806.458 890.983 802.258 896.986C794.722 907.759 781.675 909.184 769.946 912.407C764.11 914.011 758.22 916.217 752.243 917.185C746.848 918.059 744.197 916.78 739.932 913.724C736.757 910.106 734.816 905.717 734.707 900.851C734.365 885.58 747.831 891.056 751.003 887.778Q749.345 883.806 747.647 879.851C766.273 876.296 784.709 870.824 803.234 866.612Z"/>
	<path fill="#4666C9" d="M174.101 856.393C174.232 858.962 173.775 862.121 174.695 864.518C175.549 865.021 176.03 865.089 177.016 865.1L191.434 864.997Q191.179 865.505 190.939 866.021Q190.7 866.536 190.477 867.059Q190.254 867.583 190.048 868.112Q189.841 868.642 189.652 869.178Q189.462 869.714 189.289 870.256Q189.117 870.797 188.961 871.344Q188.805 871.891 188.667 872.443Q188.529 872.994 188.408 873.549Q188.287 874.105 188.184 874.664Q188.08 875.223 187.995 875.785Q187.909 876.347 187.841 876.912Q187.773 877.476 187.723 878.042Q187.672 878.609 187.64 879.176Q187.608 879.744 187.593 880.312Q187.579 880.881 187.582 881.449Q187.585 882.018 187.607 882.586Q187.628 883.154 187.667 883.721Q187.706 884.289 187.763 884.854Q187.82 885.42 187.895 885.984Q187.969 886.547 188.062 887.108Q188.154 887.669 188.264 888.227Q188.374 888.785 188.501 889.339Q188.629 889.893 188.774 890.443Q188.919 890.993 189.081 891.538Q189.243 892.083 189.422 892.622Q189.601 893.162 189.797 893.695Q189.993 894.229 190.205 894.756Q190.418 895.284 190.647 895.804Q190.876 896.324 191.122 896.837Q191.367 897.35 191.629 897.855Q191.89 898.36 192.167 898.856Q192.444 899.353 192.737 899.84C183.495 899.596 166.03 901.045 157.955 899.154C156.588 898.833 155.444 898.173 154.418 897.221C151.39 894.415 150.449 890.2 150.206 886.24C149.862 880.628 149.321 871.872 153.489 867.507C157.206 863.616 168.693 864.996 173.958 865Q173.953 860.695 174.101 856.393Z"/>
</svg>
