<?xml version="1.0" encoding="utf-8" ?>
<svg xmlns="http://www.w3.org/2000/svg" xmlns:xlink="http://www.w3.org/1999/xlink" width="1024" height="1024">
	<path fill="#FEFEFE" d="M0 0L1024 0L1024 1024L0 1024L0 0Z"/>
	<path fill="#010101" d="M797.287 456.643C801.109 456.268 805.592 456.866 809.216 458.14C824.214 463.413 818.163 477.127 824.718 485.736C827.923 489.946 834.547 490.78 836.829 495.855C838.047 498.565 837.736 502.147 836.566 504.82C835.298 507.716 832.78 509.785 829.864 510.895C825.628 512.507 820.15 512.516 816.029 510.551C806.489 506 803.029 487.154 799.603 477.594C793.334 475.391 788.595 473.351 783.677 468.729C783.606 468.841 783.533 468.952 783.464 469.065C780.009 474.783 774.954 485.116 776.914 491.905C778.831 498.541 785.339 497.979 790.31 500.578C792.251 503.596 791.299 514.58 791.351 518.802C799.546 519.133 807.796 518.893 816 519.042C821.502 519.142 827.07 519.696 832.567 519.497C836.57 519.352 840.493 517.54 844.479 517.759C847.139 517.905 849.895 518.715 852.311 519.812C858.362 522.56 862.397 527.888 864.133 534.23C866.252 541.972 865.251 551.239 865.235 559.264C865.192 581.919 866.608 602.578 874.733 624.042C876.057 621.626 877.496 619.466 879.547 617.599C882.737 614.695 891.582 609.034 896.06 609.81C896.966 609.967 897.578 610.278 898.127 610.996C898.989 612.121 899.092 612.949 898.81 614.324C897.683 619.815 890.114 624.966 885.182 626.596C882.909 627.347 880.58 627.374 878.443 628.547L878.486 629.205C884.615 632.464 894.149 631.133 900.954 632.574C902.167 632.831 902.557 633.195 903.146 634.234L902.584 635.181C897.662 636.663 885.324 633.93 879.845 633.292C888.152 645.315 893.948 657.85 897.229 672.166C900.443 686.189 900.976 700.367 901.939 714.655L904.751 752.779Q910.109 823.684 914.364 894.663C919.3 894.616 927.137 893.697 931.61 895.296L931.95 896.038C930.911 897.275 929.816 897.52 928.233 897.734C922.572 898.498 916.278 897.999 910.556 898.003L876.322 898.054Q814.437 898.496 752.553 897.984L363.878 898.202L183.338 898.063L121.483 898.115C112.222 898.124 102.684 898.71 93.4654 898.254C92.0349 898.183 91.0319 897.732 89.8982 896.864L89.8108 896.114C92.9576 894.268 120.199 895.255 125.991 895.213L125.93 772.646L125.936 729.813C125.945 718.337 125.791 706.84 126.747 695.393Q126.911 693.313 127.119 691.237Q127.327 689.16 127.578 687.089Q127.829 685.017 128.123 682.951Q128.417 680.885 128.754 678.826Q129.091 676.767 129.472 674.715Q129.852 672.663 130.274 670.62Q130.697 668.576 131.163 666.542Q131.628 664.508 132.136 662.484Q132.643 660.46 133.193 658.447Q133.743 656.434 134.334 654.433Q134.926 652.432 135.559 650.444Q136.193 648.455 136.867 646.481Q137.542 644.506 138.258 642.546Q138.973 640.586 139.73 638.641Q140.486 636.696 141.283 634.768Q142.08 632.839 142.917 630.928Q143.753 629.016 144.63 627.122Q145.507 625.229 146.423 623.354Q147.338 621.479 148.293 619.623Q149.248 617.768 150.241 615.933Q151.235 614.098 152.266 612.284Q153.297 610.47 154.366 608.678Q155.435 606.886 156.542 605.116Q157.648 603.347 158.79 601.601Q159.933 599.855 161.112 598.133Q162.291 596.411 163.506 594.715Q164.721 593.018 165.97 591.347Q167.22 589.676 168.505 588.031Q169.789 586.387 171.107 584.769Q172.426 583.152 173.778 581.562Q175.13 579.973 176.514 578.412Q177.899 576.851 179.316 575.319Q181.721 572.608 184.267 570.029C218.858 534.449 267.906 515.169 317.199 514.511C365.374 513.868 415.306 533.279 449.851 566.959Q451.342 568.399 452.802 569.871Q454.262 571.343 455.69 572.845Q457.118 574.348 458.514 575.88Q459.91 577.413 461.273 578.975Q462.635 580.537 463.964 582.128Q465.293 583.719 466.588 585.338Q467.883 586.957 469.143 588.603Q470.403 590.25 471.627 591.922Q472.851 593.595 474.04 595.294Q475.228 596.992 476.38 598.716Q477.532 600.44 478.646 602.187Q479.761 603.935 480.838 605.706Q481.915 607.478 482.954 609.271Q483.993 611.065 484.994 612.881Q485.994 614.697 486.955 616.533Q487.917 618.37 488.839 620.226Q489.761 622.083 490.643 623.959Q491.525 625.835 492.367 627.729Q493.209 629.624 494.01 631.536Q494.811 633.448 495.571 635.376Q496.331 637.305 497.05 639.249Q497.769 641.194 498.446 643.153Q499.123 645.113 499.758 647.086Q500.393 649.059 500.985 651.046Q501.578 653.032 502.128 655.031Q502.678 657.03 503.185 659.04Q503.693 661.05 504.157 663.07Q504.621 665.09 505.042 667.12Q505.463 669.15 505.841 671.188Q506.218 673.227 506.552 675.273Q506.886 677.318 507.176 679.371Q507.466 681.424 507.712 683.482C509.32 697.476 509.213 711.485 509.271 725.546Q509.495 749.462 509.31 773.378L509.904 895.043C550.878 895.409 591.906 894.667 632.889 894.635C675.557 894.601 718.297 895.266 760.955 894.719Q761.025 892.627 761.179 890.54C761.819 882.119 765.246 877.025 771.488 871.629C771.605 855.107 771.03 838.568 770.646 822.051C770.368 810.132 770.365 798.164 769.894 786.255C769.788 783.602 767.687 782.265 767.587 779.762C767.272 771.877 768.452 763.428 768.91 755.529Q770.183 732.31 771.03 709.071C695.336 708.086 619.574 709.866 543.876 708.774Q539.91 700.367 537.09 691.509L555.013 691.462C555.579 682.901 556.814 675.364 560.733 667.627C564.044 661.089 569.017 653.832 576.378 651.621C580.742 650.31 585.337 651.183 589.254 653.388C597.974 658.295 603.759 669.811 606.342 679.087C608.724 669.751 615.18 657.693 623.746 652.671C627.433 650.509 631.635 649.785 635.771 650.997C647.839 654.533 650.892 667.382 656.424 676.872C656.504 677.009 656.587 677.144 656.668 677.28C659.535 667.968 664.035 657.137 673.184 652.367C677.055 650.349 681.364 649.857 685.508 651.329C696.183 655.118 701.164 667.301 705.472 676.771C707.951 669.061 711.426 660.115 717.818 654.78C722.395 650.96 727.331 650.108 733.074 650.517C736.417 632.797 741.162 615.106 745.18 597.515C748.677 582.208 751.357 566.334 756.329 551.437C759.141 543.01 762.821 533.236 768.803 526.482C774.098 520.506 780.688 518.386 788.404 518.049L788.074 502.99C785.368 502.437 782.648 501.811 780.271 500.342C776.965 498.299 774.663 495.12 773.956 491.284C772.422 482.953 777.998 470.395 782.836 463.791C786.554 458.715 791.417 457.56 797.287 456.643Z"/>
	<path fill="#FEFEFE" d="M310.352 517.717C314.819 517.441 319.359 517.483 323.833 517.603Q326.141 517.668 328.448 517.791Q330.754 517.913 333.056 518.091Q335.359 518.27 337.656 518.505Q339.953 518.74 342.244 519.032Q344.535 519.323 346.818 519.671Q349.101 520.019 351.375 520.422Q353.649 520.826 355.912 521.285Q358.175 521.744 360.427 522.259Q362.678 522.774 364.916 523.343Q367.154 523.913 369.377 524.538Q371.6 525.162 373.808 525.841Q376.015 526.52 378.205 527.253Q380.395 527.986 382.566 528.773Q384.738 529.559 386.889 530.399Q389.04 531.238 391.17 532.13Q393.301 533.022 395.408 533.966Q397.516 534.911 399.599 535.906Q401.683 536.902 403.742 537.948Q405.8 538.995 407.833 540.091Q409.865 541.188 411.87 542.334Q413.875 543.48 415.851 544.675Q417.827 545.87 419.773 547.114Q421.719 548.357 423.635 549.648Q425.55 550.938 427.432 552.276Q429.315 553.613 431.165 554.996Q433.014 556.379 434.829 557.807Q436.644 559.235 438.423 560.707Q440.202 562.179 441.945 563.695Q443.688 565.21 445.392 566.768Q447.097 568.326 448.763 569.925Q450.43 571.524 452.056 573.163Q453.682 574.803 455.268 576.482L410.953 576.533C406.042 576.525 398.695 575.733 394.015 576.564C392.71 576.796 392.496 577.152 391.739 578.122L391.965 578.97C395.192 580.326 450.124 579.468 458.329 579.468Q461.658 583.246 464.778 587.197Q467.899 591.149 470.802 595.263Q473.704 599.377 476.381 603.642Q479.058 607.907 481.501 612.31Q483.943 616.712 486.145 621.241Q488.347 625.769 490.302 630.409Q492.256 635.049 493.957 639.788Q495.659 644.527 497.102 649.351C489.942 649.465 475.913 647.268 470.534 652.764C468.74 654.597 467.737 656.729 467.261 659.232C465.905 666.376 466.697 674.423 466.742 681.7L466.685 712.898L436.573 712.937C436.474 701.254 437.11 689.193 436.146 677.566C434.13 653.229 422.465 630.327 406.567 612.174C383.567 585.911 353.003 575.391 319.053 573.07C319.031 565.328 318.955 557.58 319.048 549.839C319.103 545.154 319.589 540.217 319.109 535.559C318.946 533.975 318.777 532.486 317.686 531.292C315.977 533.184 316.115 536.466 316.098 538.875C315.838 550.334 315.954 561.821 315.827 573.285C285.953 574.042 256.147 585.944 234.997 607.244C214.028 628.362 201.021 655.002 197.933 684.665C196.962 693.995 197.19 703.573 197.226 712.942L129.309 712.967C129.308 684.5 134.465 655.851 146.778 630.012L172.677 630.027C178.424 630.064 184.61 630.578 190.271 629.652C192.858 629.229 195.492 628.331 197.543 626.651C200.982 623.836 202.234 619.543 202.498 615.256C202.983 607.38 203.898 587.309 198.238 581.245C197.729 580.7 197.227 580.174 196.735 579.615C205.77 578.524 245.697 580.881 249.311 578.832L249.555 577.908L248.93 577.005C243.117 575.797 235.669 576.673 229.643 576.643L182.415 576.506Q183.692 575.015 184.999 573.549C205.317 550.805 240.404 531.626 269.73 523.729C283.084 520.133 296.575 518.475 310.352 517.717Z"/>
	<path fill="#FEFEFE" d="M129.253 716.023Q163.382 715.662 197.512 715.972Q197.588 730.161 197.321 744.348C197.244 750.901 196.515 758.335 198.009 764.727C198.782 768.035 200.588 771.229 202.949 773.66C205.405 776.188 208.199 777.617 211.617 778.362C219.182 780.013 228.347 779.053 236.117 779.04L274.679 779.067C275.156 796.864 274.558 814.814 274.571 832.626Q258.095 832.704 241.619 832.563C234.783 832.529 226.973 831.777 220.273 833.26C216.006 834.204 211.918 836.183 208.775 839.255C201.388 846.477 203.135 859.039 203.185 868.443L202.999 895.051L129.182 895.145C128.571 875.679 129.032 856.076 129.067 836.597C138.688 836.475 161.624 838.986 168.617 832.635C172.623 828.997 174.069 823.522 174.208 818.28C174.411 810.621 175.234 796.329 173.668 789.378C172.912 786.021 171.338 782.778 168.875 780.34C166.954 778.439 164.592 777.228 161.994 776.532C154.29 774.47 137.737 775.648 129.095 775.549C129.047 755.734 128.626 735.825 129.253 716.023Z"/>
	<path fill="#FEFEFE" d="M846.151 631.554L870.722 631.549C870.4 644.263 870.916 657.028 871.212 669.741Q871.859 699.538 872.917 729.323C873.484 744.952 874.329 760.832 873.826 776.46C863.768 777.959 852.83 777.429 842.618 777.7C819.547 778.311 796.471 778.542 773.408 779.388C772.51 779.335 772.153 779.253 771.349 778.937C770.543 777.402 773.825 716.418 774.19 709.372C775.634 708.814 776.958 708.312 778.065 707.17C779.917 705.26 780.626 701.271 780.292 698.72C778.653 686.211 760.069 694.264 755.194 690.346L755.574 689.58C757.372 689.625 759.093 689.459 760.864 689.148C798.886 682.481 824.407 662.145 846.151 631.554Z"/>
	<path fill="#FEFEFE" d="M309.844 712.719Q320.125 712.298 330.385 713.086C362.373 715.422 392.01 727.551 417.115 747.356C422.844 751.875 428.778 756.662 433.56 762.185C433.972 766.826 434.042 771.393 434.039 776.046L325.75 776.229L254.541 776.104C241.82 776.15 228.673 776.898 215.994 776.099C213.36 775.933 210.741 775.672 208.371 774.411C203.778 771.968 201.783 767.493 200.398 762.759C200.51 762.636 200.62 762.511 200.733 762.389C206.507 756.158 214.277 750.804 221.213 745.906C248.858 726.387 275.501 714.411 309.844 712.719Z"/>
	<path fill="#010101" d="M242.967 745.089C245.715 744.872 249.221 744.561 251.864 745.457C254.5 746.35 257.583 748.082 258.704 750.796C259.248 752.111 259.224 753.109 258.665 754.422C257.571 756.991 254.667 758.64 252.22 759.594C249.145 759.842 245.591 759.992 242.651 758.908C240.201 758.006 237.203 756.354 236.275 753.722C235.851 752.518 235.851 751.478 236.441 750.322C237.726 747.802 240.459 746.14 242.967 745.089Z"/>
	<path fill="#DA4A2C" d="M338.471 719.165C341.009 719.132 344.865 718.928 347.148 720.03C349.401 721.117 351.468 722.698 352.271 725.166C352.767 726.686 352.637 728.272 351.898 729.694C350.53 732.327 348.567 733.575 345.849 734.544C342.402 734.626 339.327 734.828 336.174 733.153C333.862 731.924 331.906 730.031 331.189 727.449C330.753 725.883 330.977 724.445 331.844 723.057C333.29 720.742 335.919 719.643 338.471 719.165Z"/>
	<path fill="#010101" d="M302.529 744.616C305.662 744.422 308.865 744.17 311.761 745.634C314.11 746.823 316.263 748.668 317.003 751.287C317.406 752.713 317.227 754.091 316.45 755.355C314.941 757.813 312.448 758.755 309.793 759.444C307.493 759.557 304.245 759.899 302.048 759.123C299.583 758.253 297.004 756.561 295.876 754.117C295.286 752.838 295.159 751.478 295.703 750.145C296.86 747.308 299.826 745.639 302.529 744.616Z"/>
	<path fill="#010101" d="M374.68 744.145C376.765 744.292 379.275 744.269 381.211 745.104C383.424 746.058 385.488 747.981 386.285 750.288C386.843 751.904 386.753 753.581 385.925 755.087C384.526 757.631 381.975 758.828 379.321 759.629C376.394 759.637 373.626 759.818 370.971 758.364C368.812 757.182 366.93 755.243 366.383 752.78C366.029 751.189 366.307 749.653 367.203 748.299C368.841 745.826 371.904 744.699 374.68 744.145Z"/>
	<path fill="#DA4A2C" d="M277.34 719.649C279.741 719.473 282.565 719.033 284.938 719.42C287.496 719.837 290.249 721.229 291.749 723.396C292.575 724.588 292.911 725.948 292.57 727.388C291.889 730.262 289.56 732.223 287.121 733.609C284.649 734.227 281.357 734.524 278.885 733.816C276.38 733.098 273.991 731.547 272.757 729.195C272.002 727.759 271.822 726.199 272.387 724.647C273.258 722.254 275.115 720.711 277.34 719.649Z"/>
	<path fill="#FEFEFE" d="M392.134 778.897C430.199 778.828 468.327 778.455 506.386 779.005C507.213 796.792 506.664 815.023 506.472 832.837C497.456 832.84 449.251 831.836 444.18 833.863L444.681 834.597C446.464 835.457 448.148 835.912 450.133 836.07C455.324 836.484 460.982 835.881 466.236 835.878L505.529 835.902C505.638 835.945 505.769 835.953 505.856 836.032C506.081 836.236 506.324 836.45 506.443 836.73C506.911 837.821 506.865 889.291 506.839 895.005L433.292 895.04Q433.579 881.47 433.571 867.897C433.594 862.088 434.131 855.65 432.933 849.937C432.098 845.956 430.308 842.242 427.531 839.25C418.74 829.781 403.771 832.866 392.116 832.684C391.881 814.765 392.079 796.818 392.134 778.897Z"/>
	<path fill="#4B71BE" d="M874.017 633.154C874.66 633.468 875.232 633.749 875.78 634.221C885.488 642.575 891.961 662.386 894.59 674.428C897.001 685.467 897.543 696.681 898.324 707.915L901.121 747.72L906.67 827.341C907.614 841.207 909.117 855.174 909.501 869.06L866.875 869.144L856.019 869.264C850.076 839.847 842.115 810.711 835.229 781.486C842.423 781.189 871.729 781.311 875.895 779.375C878.628 771.086 876.159 736.412 875.856 725.663C874.991 694.957 873.218 663.856 874.017 633.154Z"/>
	<path fill="#FEFEFE" d="M277.673 779.054C314.632 779 351.831 778.054 388.759 779.091C389.374 785.453 389.039 792.107 389.035 798.504L388.992 832.607L277.516 832.699Q277.35 805.875 277.673 779.054Z"/>
	<path fill="#4B71BE" d="M821.815 781.75L832.233 781.571C835.209 794.632 833.598 808.125 833.098 821.43L831.203 869.304C816.086 868.796 800.907 869.014 785.781 868.998C782.056 869.007 778.488 869.203 774.793 869.684C774.641 840.646 773.719 811.607 773.346 782.569L821.815 781.75Z"/>
	<path fill="#FEFEFE" d="M436.649 715.992C459.85 716.003 483.091 715.697 506.287 716.169C507.146 736.025 506.571 756.127 506.485 776.005L437.114 775.987C436.176 756.086 436.4 735.914 436.649 715.992Z"/>
	<path fill="#FEFEFE" d="M859.009 590.067C859.245 590.295 859.266 590.672 859.376 590.981C856.622 603.825 852.109 616.549 845.011 627.643C826.284 656.91 799.007 677.546 764.797 684.994C762.82 685.425 756.215 687.226 754.785 686.306C754.142 681.523 753.085 676.892 751.989 672.2C762.394 668.344 772.234 663.493 781.035 656.677C800.164 641.863 814.729 621.644 817.891 597.303C834.64 597.79 844.195 599.256 859.009 590.067Z"/>
	<path fill="#FEFEFE" d="M841.321 521.157L842.334 521.129C847.513 520.998 852.355 522.321 856.106 526.072C858.87 528.836 860.538 532.445 861.347 536.236C862.614 542.166 862.092 548.701 862.094 554.753Q862.151 568.605 861.936 582.456C861.853 582.571 861.774 582.688 861.688 582.801C856.659 589.381 848.267 593.56 840.125 594.513Q828.945 594.931 817.782 594.187C818.423 584.534 819.784 574.895 820.692 565.26C821.426 557.466 821.482 549.485 823.152 541.818C824.04 537.741 825.467 533.694 827.723 530.164C831.057 524.95 835.414 522.447 841.321 521.157Z"/>
	<path fill="#4B71BE" d="M541.638 694.646C547.423 694.2 553.428 694.46 559.243 694.445L592.794 694.423L694.821 694.433L748.669 694.437C755.699 694.44 767.237 693.534 773.699 694.897C774.949 695.16 775.67 695.962 776.268 697.053C777.546 699.383 776.231 703.64 775.549 705.965L546.012 705.811C544.304 702.171 542.726 698.522 541.638 694.646Z"/>
	<path fill="#FEFEFE" d="M129.182 778.659C138.679 778.55 159.516 776.3 166.774 782.495C169.831 785.104 170.893 788.554 171.153 792.45C171.52 797.955 171.665 819.588 170.414 824.064C169.75 826.441 168.559 828.088 166.946 829.915C165.198 831.132 163.442 832.239 161.354 832.762C153.467 834.741 137.834 833.506 129.146 833.432Q128.992 806.045 129.182 778.659Z"/>
	<path fill="#FEFEFE" d="M750.277 590.368C757.681 594.3 764.781 596.33 773.026 597.712L773.132 626.937C773.144 632.994 773.504 639.269 772.629 645.271C771.858 650.564 770.096 655.893 768.693 661.055C764.728 663.184 760.797 665.147 756.641 666.882C754.633 667.648 752.555 668.274 750.515 668.954C746.668 662.02 742.988 656.332 736.293 651.87C740.883 631.338 745.356 610.834 750.277 590.368Z"/>
	<path fill="#4B71BE" d="M201.691 685.582L434.048 685.519C434.1 687.822 434.668 692.576 433.369 694.43L200.742 694.458C200.876 691.438 201.184 688.562 201.691 685.582Z"/>
	<path fill="#FEFEFE" d="M477.574 652.599C484.399 652.313 491.244 652.417 498.074 652.426C503.795 672.417 506.351 692.306 506.281 713.081L499.469 713.085L469.785 713.035C469.625 703.332 468.543 663.042 471.349 657.083C472.553 654.528 475.066 653.484 477.574 652.599Z"/>
	<path fill="#FEFEFE" d="M180.414 579.737C184.024 579.647 191.341 578.547 194.141 581.044C199.307 585.651 199.558 593.632 199.669 600.031C199.793 607.155 201.245 618.791 195.723 624.135C191.057 628.651 173.366 627.021 166.806 626.955L148.218 626.996Q149.672 623.918 151.215 620.883C155.093 613.246 173.786 581.904 180.414 579.737Z"/>
	<path fill="#FEFEFE" d="M782.757 522.1C796.141 521.27 810.08 521.893 823.508 522.211C822.321 530.197 820.438 538.049 819.238 546.025C818.703 549.58 819.176 553.848 818.005 557.185L817.092 557.561C803.41 557.243 790.436 556.635 776.769 558.063C776.599 548.817 775.146 536.81 778.015 527.944C778.949 525.059 780.069 523.491 782.757 522.1Z"/>
	<path fill="#FEFEFE" d="M857.867 872.57C875.147 872.093 892.544 872.512 909.836 872.515Q910.639 883.688 911.055 894.882L896.25 894.943L842.452 895.022C842.413 889.986 842.787 885.933 845.457 881.455C848.36 876.588 852.47 873.95 857.867 872.57Z"/>
	<path fill="#FEFEFE" d="M779.602 872.177C796.653 871.777 814.009 872.208 831.07 872.491Q830.542 883.761 829.3 894.975L815.75 894.953Q789.964 895.047 764.181 894.656C764.377 889.638 764.7 884.683 767.331 880.237C770.1 875.557 774.48 873.405 779.602 872.177Z"/>
	<path fill="#DADADA" d="M628.535 654.1L629.189 654.058C634.311 653.767 638.141 654.843 641.967 658.404C650.971 666.784 654.186 679.592 654.378 691.435L634.75 691.429L608.458 691.423C608.313 684.393 609.754 677.989 612.626 671.557C615.94 664.135 620.672 657.099 628.535 654.1Z"/>
	<path fill="#FEFEFE" d="M579.428 654.183C584.906 654.526 588.783 656.104 592.688 660.073C600.787 668.306 604.59 680.138 604.588 691.423L583.75 691.45L558.54 691.398Q558.503 690.443 558.505 689.487Q558.508 688.531 558.55 687.576Q558.592 686.621 558.674 685.668Q558.756 684.716 558.877 683.767Q558.998 682.819 559.159 681.877Q559.32 680.934 559.519 679.999Q559.719 679.065 559.957 678.139Q560.196 677.213 560.472 676.298Q560.749 675.383 561.063 674.48Q561.378 673.577 561.729 672.688Q562.081 671.799 562.469 670.925Q562.857 670.052 563.281 669.195Q563.706 668.338 564.165 667.5Q564.624 666.662 565.118 665.843Q565.612 665.025 566.139 664.227Q566.667 663.43 567.227 662.655C570.348 658.262 574.025 655.103 579.428 654.183Z"/>
	<path fill="#FEFEFE" d="M679.452 653.553C679.751 653.558 680.05 653.554 680.349 653.566C685.145 653.752 689.147 656.443 692.257 659.943Q692.972 660.736 693.646 661.564Q694.32 662.392 694.953 663.253Q695.586 664.113 696.175 665.003Q696.764 665.894 697.309 666.812Q697.853 667.731 698.352 668.675Q698.85 669.62 699.301 670.588Q699.752 671.556 700.154 672.545Q700.557 673.534 700.91 674.542Q701.263 675.55 701.566 676.574Q701.869 677.598 702.12 678.635Q702.372 679.673 702.572 680.722Q702.772 681.771 702.92 682.829Q703.068 683.886 703.163 684.95Q703.259 686.013 703.301 687.08Q703.344 688.147 703.333 689.215Q703.323 690.283 703.26 691.349L682.152 691.233C674.102 691.164 666.044 691.254 657.992 691.27C657.962 682.016 660.201 672.914 665.029 664.966C668.535 659.193 672.76 655.189 679.452 653.553Z"/>
	<path fill="#DADADA" d="M726.702 653.554C726.898 653.542 727.093 653.525 727.289 653.519C732.161 653.355 735.56 654.763 739.113 658.168C748.015 666.699 751.392 679.44 751.779 691.368L732.25 691.411L707.344 691.386C706.911 683.37 708.538 675.979 711.927 668.686C715.079 661.904 719.452 656.155 726.702 653.554Z"/>
	<path fill="#F4754F" d="M795.28 460.112C799.582 459.667 804.092 459.717 808.248 461.069C820.495 465.053 815.419 478.734 821.208 486.724C824.7 491.544 831.629 493.134 834.316 498.73C835.009 500.172 835.172 501.578 834.546 503.092C833.409 505.849 828.812 508.173 826.197 509.054C823.284 509.49 820.364 509.22 817.648 508.021C807.171 503.391 806.862 485.981 802.857 476.588C802.786 476.421 802.71 476.255 802.636 476.089C798.332 473.539 788.613 471.554 786.28 466.715C785.72 465.552 785.841 465.254 786.21 464.112C788.188 461.852 792.39 460.535 795.28 460.112Z"/>
	<path fill="#FEFEFE" d="M774.522 525.398C775.454 526.957 773.68 534.806 773.573 537.236C772.725 556.347 773.215 575.648 773.057 594.785C767.406 593.748 762.319 592.544 757.039 590.248C754.9 589.171 752.957 587.83 750.97 586.503C754.533 567.077 759.39 539.083 774.522 525.398Z"/>
	<path fill="#FEFEFE" d="M837.116 804.333C839.72 811.262 841.019 819.217 842.766 826.424Q848.101 848.286 853.041 870.241C845.884 874.155 842.613 879.055 839.868 886.459C839.299 889.304 839.097 892.116 838.902 895.004L832.658 894.986Q834.953 868.757 835.624 842.436C835.997 829.761 836.063 816.971 837.116 804.333Z"/>
	<path fill="#F4754F" d="M242.724 667.736C246.789 667.645 250.232 667.297 253.672 669.896C255.286 671.117 256.85 673.234 256.893 675.341C256.927 677.023 256.368 678.413 255.119 679.534C252.943 681.485 250.645 681.317 247.875 681.24C243.681 681.187 237.321 682.169 234.026 679.15C232.997 678.208 232.393 676.925 232.42 675.519C232.458 673.488 233.59 671.579 234.947 670.14C237.219 667.729 239.669 667.847 242.724 667.736Z"/>
	<path fill="#F4754F" d="M290.456 668.229C294.913 668.155 299.865 667.58 303.621 670.525C305.006 671.61 306.095 673.212 306.154 675.021C306.198 676.358 305.603 677.636 304.703 678.6C302.462 681.002 300.172 681.194 297.039 681.232C292.997 681.319 288.804 681.765 285.065 679.915C283.366 679.074 281.77 677.628 281.3 675.724C280.938 674.254 281.416 672.752 282.368 671.61C284.595 668.937 287.157 668.473 290.456 668.229Z"/>
	<path fill="#F4754F" d="M336.934 668.646C339.739 668.429 342.545 668.215 345.361 668.246C348.174 668.277 351.658 668.614 353.643 670.873C354.737 672.117 355.127 673.862 354.916 675.484C354.574 678.12 352.44 679.987 350.426 681.463C346.03 681.548 340.907 682.093 336.637 681.138C334.971 680.766 333.015 679.984 332.293 678.301C331.635 676.766 331.692 674.165 332.28 672.618C333.112 670.429 334.935 669.584 336.934 668.646Z"/>
	<path fill="#F4754F" d="M385.415 668.564C389.62 668.342 394.657 667.622 398.727 668.721C400.607 669.228 402.244 670.297 403.157 672.058C404.026 673.735 403.949 675.905 403.295 677.645C402.491 679.787 400.978 680.507 399.046 681.438C395.319 681.502 391.234 681.966 387.542 681.578C385.442 681.357 383.221 680.594 382.003 678.758C381.112 677.414 380.82 675.531 381.079 673.953C381.488 671.461 383.516 669.966 385.415 668.564Z"/>
	<path fill="#FEFEFE" d="M892.497 614.068C893.425 613.912 893.932 614.047 894.819 614.339L894.806 615.281L894.545 614.129C894.694 615.485 894.708 615.487 893.935 616.629C890.838 621.211 885.874 623.447 880.621 624.423L879.17 624.4L878.85 623.551C878.956 623.372 879.058 623.19 879.169 623.013C882.009 618.479 887.416 615.224 892.497 614.068Z"/>
	<path fill="#4B71BE" d="M484.573 137.22C493.012 129.979 505.091 123.155 516.691 124.405C517.673 124.511 517.793 124.544 518.53 125.249C517.863 126.296 517.592 126.295 516.333 126.574C513.198 127.27 509.893 127.252 506.731 127.869C499.17 129.343 491.86 134.031 486.12 138.989C477.823 148.164 472.905 157.289 472.391 169.817C472.578 180.189 475.683 190.195 482.006 198.541C483.517 200.537 486.375 202.558 487.54 204.643C493.255 208.8 498.982 212.762 505.935 214.5C513.649 216.428 521.844 215.953 529.73 215.899L566.017 215.734C577.161 215.71 589.738 214.499 600.513 217.461Q602.221 217.939 603.89 218.539Q605.56 219.138 607.181 219.857Q608.803 220.575 610.369 221.408Q611.935 222.242 613.436 223.186Q614.938 224.13 616.368 225.179Q617.797 226.229 619.148 227.379Q620.498 228.529 621.762 229.774Q623.026 231.018 624.197 232.35C629.075 238.01 632.94 245.889 634.084 253.305C634.15 253.736 634.176 254.173 634.209 254.608C635.91 260.033 635.434 268.209 634.046 273.669C632.676 280.247 630.188 285.962 626.404 291.53C623.515 295.513 620.293 298.834 616.371 301.815C611.271 305.428 605.308 309.07 598.996 309.952C598.719 310.037 598.442 310.126 598.164 310.208C594.48 311.286 590.33 311.535 586.513 311.961C574.876 313.263 565.934 316.524 557.39 324.825C535.2 347.676 548.488 366.796 532.351 386.533C522.141 398.282 510.258 404.639 494.57 405.697C477.596 406.842 468.958 406.146 454.628 416.994C450.367 421.277 446.694 425.374 443.504 430.516C438.804 440.541 437.041 449.436 439.04 460.443C439.543 463.211 440.563 465.952 440.995 468.701L441.436 469.365C446.573 477.23 448.367 481.829 456.002 488.01C461.285 491.539 466.407 494.332 472.615 495.869C478.466 497.317 484.354 497.341 490.343 497.31C510.511 497.207 525.611 496.927 540.88 512.336Q542.133 513.576 543.292 514.906Q544.45 516.235 545.507 517.646Q546.564 519.058 547.515 520.543Q548.465 522.028 549.303 523.58Q550.141 525.131 550.862 526.74Q551.584 528.349 552.184 530.007Q552.785 531.665 553.262 533.362Q553.739 535.06 554.089 536.788C556.667 549.292 553.643 561.786 546.605 572.306C543.939 576.292 540.84 579.611 536.967 582.442C534.716 584.164 532.319 585.921 529.784 587.208C526.676 588.786 520.86 591.234 517.503 590.09C518.415 587.979 528.183 585.321 530.764 583.948L533.898 582.266C537.181 579.406 540.347 576.562 543.087 573.164C550.515 563.954 553.502 552.225 552.232 540.532Q552.133 539.648 551.998 538.77Q551.863 537.891 551.692 537.019Q551.522 536.146 551.315 535.282Q551.109 534.417 550.868 533.561Q550.627 532.706 550.351 531.86Q550.076 531.015 549.766 530.182Q549.456 529.349 549.112 528.529Q548.768 527.709 548.392 526.904Q548.015 526.099 547.606 525.31Q547.196 524.52 546.755 523.749Q546.314 522.977 545.842 522.223Q545.37 521.47 544.868 520.737Q544.365 520.003 543.834 519.291Q543.302 518.579 542.741 517.889Q542.181 517.199 541.593 516.532Q541.005 515.865 540.39 515.223C511.782 485.477 481.919 511.828 453.122 488.616C453.038 488.564 452.949 488.52 452.87 488.46C446.911 483.907 440.009 474.703 438.623 467.235C438.127 466.144 437.784 465.027 437.463 463.876C434.1 451.846 436.152 438.927 442.245 428.149Q443.224 426.273 444.401 424.513Q445.578 422.754 446.939 421.133Q448.3 419.512 449.828 418.048Q451.357 416.584 453.035 415.294C471.849 397.782 492.942 408.536 513.297 398.619C519.524 395.585 524.449 391 529.553 386.427C546.696 362.938 532.874 345.504 557.123 321.707C568.267 312.285 579.64 309.793 593.917 309.008C602.199 307.357 608.764 304.292 615.732 299.55C618.306 297.319 620.631 294.798 623.048 292.399C628.575 284.238 631.868 275.824 632.654 265.995L632.611 260.068C631.689 249.699 627.645 239.642 620.445 232.015C614.717 225.947 606.852 221.498 598.776 219.463C589.405 217.101 578.935 217.888 569.315 217.903C551.095 217.931 532.609 218.732 514.42 218.005C504.196 217.596 492.805 213.676 485.761 205.97C485.649 205.888 485.534 205.811 485.425 205.726C476.903 199.029 471.903 187.114 470.439 176.651C469.796 171.978 469.85 167.553 470.678 162.912C471.409 153.217 477.924 143.856 484.573 137.22Z"/>
	<path fill="#4B71BE" d="M180.234 174.388Q180.112 173.285 180.043 172.178Q179.975 171.07 179.961 169.961Q179.948 168.852 179.988 167.743Q180.028 166.634 180.123 165.528Q180.218 164.423 180.366 163.323Q180.515 162.224 180.717 161.133Q180.92 160.042 181.175 158.962Q181.431 157.883 181.739 156.817Q182.047 155.751 182.407 154.701Q182.767 153.652 183.178 152.621Q183.588 151.59 184.049 150.581Q184.51 149.572 185.02 148.586Q185.529 147.601 186.087 146.641Q186.644 145.682 187.248 144.751Q187.851 143.82 188.5 142.92Q189.148 142.019 189.84 141.152C197.648 131.36 208.888 125.454 221.249 124.039C228.873 123.166 236.848 123.516 244.514 123.625Q259.049 123.878 273.586 123.871C303.948 123.88 334.403 123.05 364.754 123.864C366.049 123.898 367.369 123.81 368.397 124.628C367.624 125.593 366.481 125.839 365.303 125.964C362.226 126.291 358.821 125.924 355.699 125.933L331.602 125.956L253.963 125.971C241.785 125.966 228.409 124.816 216.494 127.292C209.701 128.704 203.455 132.079 198.175 136.539C188.882 144.391 183.367 155.089 182.396 167.19C182.594 180.693 185.947 191.874 195.821 201.501Q197.851 203.471 199.987 205.324L200.819 205.802C205.283 208.338 210.094 211.02 215.161 212.086C238.532 217 261.985 205.228 281.924 226.171C287.054 231.56 290.991 237.902 293.042 245.074C296.21 256.153 295.11 269.109 289.157 279.105C288.725 279.831 288.737 279.792 288.318 280.365C283.77 289.28 274.191 296.506 264.813 299.676C255.889 303.748 244.524 302.219 234.949 302.182Q205.599 302.073 176.249 302.277C163.451 302.377 140.091 300.885 128.499 305.064C116.382 309.432 106.223 319.636 101.737 331.658C97.3862 343.318 98.1629 355.263 103.405 366.49Q104.579 368.978 105.82 371.434C105.618 373.154 106.984 374.606 107.668 376.124C105.531 373.119 102.14 366.513 99.783 364.317C97.0266 358.815 96.2283 351.649 96.3935 345.563Q96.4333 344.395 96.5311 343.231Q96.6289 342.067 96.7844 340.909Q96.9399 339.751 97.1527 338.602Q97.3655 337.454 97.6351 336.317Q97.9047 335.18 98.2304 334.058Q98.5562 332.936 98.9372 331.832Q99.3183 330.728 99.7537 329.643Q100.189 328.559 100.678 327.498Q101.167 326.437 101.708 325.402Q102.248 324.366 102.84 323.359Q103.432 322.351 104.073 321.375Q104.714 320.398 105.402 319.454Q106.091 318.51 106.826 317.602Q107.56 316.694 108.339 315.823Q109.118 314.952 109.939 314.121Q110.761 313.29 111.622 312.501C117.487 307.086 124.298 303.341 132.083 301.54C144.121 298.754 164.343 300.265 177.343 300.274C193.987 300.286 210.809 299.763 227.431 300.396C241.467 299.006 254.689 302.186 268.071 295.809C280.783 289.751 287.074 279.788 291.605 266.879C291.562 264.969 292.088 262.773 292.239 260.831C293.163 248.94 289.506 238.739 281.676 229.753C265.312 210.975 242.706 216.526 220.702 214.951C210.149 214.196 200.179 210.248 193.135 202.122C185.374 195.784 181.528 183.93 180.234 174.388Z"/>
	<path fill="#4B71BE" d="M195.732 392.076C210.67 391.46 223.363 393.182 234.813 403.626C242.36 410.51 246.983 419.421 248.742 429.454C250.467 442.03 247.803 453.772 240.059 464.002C238.042 466.667 235.668 469.287 233.043 471.362C226.106 477.341 217.878 481.207 208.754 482.385C195.63 484.045 181.273 482.706 168.006 482.691C164.171 482.824 160.317 482.966 156.504 483.418C135.565 485.901 117.062 501.212 112.282 522.076C111.542 525.303 111.456 533.998 109.938 535.938L108.992 535.944C108.318 534.994 108.319 534.159 108.321 533.019C108.337 518.964 115.113 504.539 125.337 495.018C136.026 485.064 149.389 480.44 163.859 480.944C178.236 480.623 192.927 481.943 207.235 480.45C216.749 478.92 223.685 475.485 231.464 469.83Q233.562 467.823 235.492 465.654C243.455 456.664 247.5 445.424 246.75 433.449Q246.654 432.517 246.52 431.59Q246.385 430.663 246.213 429.742Q246.04 428.821 245.83 427.908Q245.619 426.995 245.372 426.092Q245.124 425.189 244.839 424.296Q244.554 423.404 244.232 422.524Q243.911 421.644 243.554 420.778Q243.196 419.912 242.803 419.062Q242.41 418.211 241.983 417.378Q241.555 416.544 241.093 415.729Q240.632 414.914 240.137 414.118Q239.642 413.323 239.115 412.549Q238.587 411.774 238.028 411.022Q237.47 410.27 236.88 409.542Q236.291 408.814 235.672 408.111Q235.053 407.407 234.406 406.73C219.252 391.118 197.665 394.205 177.848 393.914C182.914 392.957 188.534 393.711 193.732 393.222Q189.581 393.01 185.426 392.886C188.836 392.72 192.376 392.71 195.732 392.076Z"/>
	<defs>
		<linearGradient id="gradient_0" gradientUnits="userSpaceOnUse" x1="154.62292" y1="372.29089" x2="135.88927" y2="398.59616">
			<stop offset="0" stop-color="#274897"/>
			<stop offset="1" stop-color="#4F66B6"/>
		</linearGradient>
	</defs>
	<path fill="url(#gradient_0)" d="M99.783 364.317C102.14 366.513 105.531 373.119 107.668 376.124C106.984 374.606 105.618 373.154 105.82 371.434C105.952 371.578 106.086 371.72 106.214 371.867C109.145 375.21 111.602 378.834 114.972 381.821C121.476 387.588 131.968 391.097 140.533 391.79C147.089 392.32 153.781 392.049 160.361 392.032Q178.047 391.883 195.732 392.076C192.376 392.71 188.836 392.72 185.426 392.886Q189.581 393.01 193.732 393.222C188.534 393.711 182.914 392.957 177.848 393.914C171.943 394.24 165.918 394.03 159.993 394.069C147.339 394.153 134.982 395.209 123.179 389.764Q122.172 389.299 121.189 388.785Q120.207 388.271 119.25 387.709Q118.294 387.148 117.367 386.539Q116.439 385.931 115.543 385.278Q114.647 384.624 113.784 383.927Q112.921 383.231 112.094 382.492Q111.266 381.754 110.476 380.975Q109.686 380.197 108.936 379.381Q108.185 378.564 107.476 377.712Q106.766 376.859 106.1 375.973Q105.433 375.086 104.811 374.168Q104.189 373.25 103.613 372.302Q103.038 371.354 102.509 370.379Q101.981 369.404 101.501 368.404Q101.021 367.404 100.592 366.382Q100.162 365.359 99.783 364.317Z"/>
</svg>
