<?xml version="1.0" encoding="utf-8" ?>
<svg xmlns="http://www.w3.org/2000/svg" xmlns:xlink="http://www.w3.org/1999/xlink" width="1024" height="1024">
	<path fill="#FEFEFE" d="M0 0L1024 0L1024 1024L0 1024L0 0Z"/>
	<path fill="#A5C1DC" d="M852.629 310.975C872.755 310.65 892.923 310.923 913.054 310.917L1019.16 310.808C1019.61 327.675 1019.19 344.624 1019.04 361.498L1018.92 363.783C1018.15 380.126 1018.54 396.638 1018.53 413L1018.44 502.018L1017.66 558.282C1017.55 567.406 1016.9 577.041 1017.72 586.121L1017 588.427C1014.76 593.474 1015.98 680.073 1015.49 693.864L1015.41 810.82C1015.39 835.745 1014.88 860.71 1015.25 885.631C981.649 885.804 947.984 885.972 914.381 885.604L910.602 885.621C876.81 885.633 841.703 886.985 808.063 885.615C808.226 867.302 808.602 847.689 816.77 830.905C823.662 816.744 836.36 809.251 852.211 810.589C857.814 811.061 865.261 812.974 870.583 810.94C876.205 808.79 878.732 803.136 880.945 797.99Q867.276 797.935 853.613 797.539C853.407 789.6 854.43 754.76 853.041 750.136C854.274 749.146 855.973 748.372 857.349 747.56C855.772 745.061 854.156 742.587 852.796 739.962C853.511 738.704 853.46 737.411 853.5 736.007C853.858 723.239 853.533 710.371 853.527 697.591L853.12 599.547L852.629 310.975Z"/>
	<path d="M859.843 361.452C880.521 361.04 901.271 361.407 921.956 361.426L1019.04 361.498L1018.92 363.783C1018.15 380.126 1018.54 396.638 1018.53 413L1018.44 502.018L1017.66 558.282C1017.55 567.406 1016.9 577.041 1017.72 586.121L1017 588.427C999.92 589.1 982.56 588.462 965.451 588.417L859.706 588.281C860.868 512.703 859.41 437.042 859.843 361.452Z"/>
	<path fill="#A5C1DC" d="M986.538 363.885Q1002.73 363.946 1018.92 363.783C1018.15 380.126 1018.54 396.638 1018.53 413L1018.44 502.018L1017.66 558.282C1017.55 567.406 1016.9 577.041 1017.72 586.121C1007.39 585.599 996.943 585.896 986.598 585.882C986.253 559.691 986.513 533.463 986.515 507.268L986.538 363.885Z"/>
	<path fill="#A5C1DC" d="M863.419 363.733L919.652 363.874L919.681 365.058C920.399 409.46 919.77 453.983 919.808 498.399L919.755 557.78C919.716 566.436 920.141 575.306 919.671 583.928C919.606 585.127 919.801 585.011 918.926 585.914L862.157 585.712L862.024 416.473L862.026 383.867C861.99 378.152 861.021 369.58 862.327 364.178L863.419 363.733Z"/>
	<path fill="#A5C1DC" d="M922.341 476.031C942.895 476.056 963.542 475.66 984.083 476.26L984.342 585.916L922.114 585.846L922.341 476.031Z"/>
	<path fill="#A5C1DC" d="M922.195 363.964L984.002 363.956L984.157 435.927C984.158 448.344 984.827 461.209 983.929 473.572L922.312 473.545L922.195 363.964Z"/>
	<path fill="#3A7569" d="M880.945 797.99C888.863 774.685 881.606 744.505 898.973 724.752C918.744 702.266 938.384 726.002 948.263 724C952.306 723.181 957.563 713.84 959.936 710.606C967.946 699.693 979.93 689.805 993.787 687.922C1001.77 686.837 1009.17 689.024 1015.49 693.864L1015.41 810.82C1015.39 835.745 1014.88 860.71 1015.25 885.631C981.649 885.804 947.984 885.972 914.381 885.604L910.602 885.621C876.81 885.633 841.703 886.985 808.063 885.615C808.226 867.302 808.602 847.689 816.77 830.905C823.662 816.744 836.36 809.251 852.211 810.589C857.814 811.061 865.261 812.974 870.583 810.94C876.205 808.79 878.732 803.136 880.945 797.99Z"/>
	<path d="M929.492 850.936C936.986 837.21 945.241 821.377 948.338 805.985C949.075 802.322 949.454 798.654 949.611 794.922C949.801 790.414 948.147 782.185 950.358 778.39C951.29 778.96 951.269 779.856 951.525 780.895C952.458 784.679 952.559 788.8 952.553 792.677C952.528 811.209 944.404 825.392 937.882 842.034C955.138 837.181 970.711 828.671 981.949 814.274C984.589 810.891 987.508 802.849 991.194 801.127C991.793 801.793 991.905 801.623 991.846 802.421C991.729 804.019 990.589 805.739 989.846 807.149C985.023 816.306 977.811 823.951 969.539 830.109C959.186 837.815 948.597 842.225 936.131 845.398Q928.891 858.077 921.976 870.936C919.381 875.701 916.331 880.537 914.381 885.604L910.602 885.621C916.266 875.64 922.075 865.695 926.91 855.277C925.454 847.636 923.012 840.708 919.425 833.799C915.579 826.392 911.038 819.208 906.243 812.378C904.201 809.469 901.544 806.718 899.748 803.691C899.128 802.647 898.703 801.851 898.727 800.603L899.214 800.037C904.133 801.54 918.456 825.82 921.239 831.075C924.644 837.503 927.312 844.002 929.492 850.936Z"/>
	<path fill="#D9E5EE" d="M734.431 621.513L771.909 621.548C778.551 630.78 784.23 640.787 790.203 650.462C795.269 658.667 800.663 666.658 805.757 674.841C807.863 678.223 813.77 690.284 816.075 692.008C818.99 694.545 826.354 707.608 827.642 708.191C827.968 708.339 828.355 708.262 828.711 708.297L830.696 707.093C831.073 707.186 831.502 707.16 831.827 707.373C834.256 708.969 849.754 734.908 852.493 739.456L852.796 739.962C854.156 742.587 855.772 745.061 857.349 747.56C855.973 748.372 854.274 749.146 853.041 750.136C854.43 754.76 853.407 789.6 853.613 797.539Q867.276 797.935 880.945 797.99C878.732 803.136 876.205 808.79 870.583 810.94C865.261 812.974 857.814 811.061 852.211 810.589C836.36 809.251 823.662 816.744 816.77 830.905C808.602 847.689 808.226 867.302 808.063 885.615L436.246 885.446L338.837 885.408C334.553 885.409 317.077 886.451 314.611 885.916C316.416 885.444 318.892 885.71 320.786 885.676C315.464 875.497 310.335 865.469 302.248 857.136C297.001 851.73 290.768 847.523 284.891 842.86C269.441 830.602 266.325 814.883 262.006 796.532L261.142 796.153L260.962 794.695C286.76 793.662 312.879 794.419 338.712 794.414C339.393 765.024 345.01 738.896 367.15 717.76C384.264 701.423 406.53 692.389 430.284 693.173C451.924 693.886 473.978 704.22 488.671 720.072C507.354 740.228 513.501 765.246 512.393 792.12L512.284 794.49C520.609 794.492 578.225 793.591 582.134 794.918L582.898 796.134C587.774 797.026 593.442 796.481 598.417 796.488L629.879 796.56C635.8 796.591 642.351 796.242 648.2 797.122C654.136 790.849 676.329 759.176 681.541 757.869C682.435 758.127 682.921 758.331 683.857 758.186C683.404 755.293 681.08 751.771 679.854 749.029L691.257 748.903C690.693 740.531 689.8 732.204 689.538 723.81L691.824 723.956C699.283 722.53 718.904 723.632 727.55 723.607L729.389 723.838C731.914 728.808 728.991 742.13 730.253 748.512C731.19 740.624 729.546 732.392 730.692 724.528C731.862 723.824 732.941 724.098 734.282 724.126C735.191 718.226 734.604 711.425 734.604 705.42L734.586 667.96C733.787 652.625 734.45 636.891 734.431 621.513Z"/>
	<path d="M734.431 621.513L771.909 621.548C778.551 630.78 784.23 640.787 790.203 650.462C795.269 658.667 800.663 666.658 805.757 674.841C807.863 678.223 813.77 690.284 816.075 692.008C818.99 694.545 826.354 707.608 827.642 708.191C827.968 708.339 828.355 708.262 828.711 708.297L830.696 707.093C831.073 707.186 831.502 707.16 831.827 707.373C834.256 708.969 849.754 734.908 852.493 739.456L852.796 739.962C854.156 742.587 855.772 745.061 857.349 747.56C855.973 748.372 854.274 749.146 853.041 750.136C854.43 754.76 853.407 789.6 853.613 797.539C841.272 798.063 828.679 797.542 816.32 797.512C807.535 797.491 798.01 798.165 789.301 797.256C788.242 797.145 787.519 796.863 786.593 796.369L785.1 797.073C770.366 796.339 755.026 797.419 740.228 797.491C740.251 795.1 740.122 792.783 739.918 790.403C739.401 785.638 739.758 780.494 739.775 775.687L739.893 748.57L730.253 748.512C731.19 740.624 729.546 732.392 730.692 724.528C731.862 723.824 732.941 724.098 734.282 724.126C735.191 718.226 734.604 711.425 734.604 705.42L734.586 667.96C733.787 652.625 734.45 636.891 734.431 621.513Z"/>
	<path fill="#668CC3" d="M734.431 621.513L771.909 621.548C778.551 630.78 784.23 640.787 790.203 650.462C795.269 658.667 800.663 666.658 805.757 674.841C807.863 678.223 813.77 690.284 816.075 692.008C815.481 692.738 815.032 693.285 814.636 694.146C803.591 702.164 790.823 708.036 780.147 716.477C779.341 716.991 778.45 717.475 777.7 718.063C775.323 720.054 771.542 721.438 768.721 722.833C761.556 709.994 753.666 697.534 745.91 685.045C742.538 679.615 739.073 672.403 734.586 667.96C733.787 652.625 734.45 636.891 734.431 621.513Z"/>
	<path fill="#FEFEFE" d="M734.586 667.96C739.073 672.403 742.538 679.615 745.91 685.045C753.666 697.534 761.556 709.994 768.721 722.833C771.542 721.438 775.323 720.054 777.7 718.063C781.538 723.974 785.866 729.604 789.616 735.549C786.767 737.446 784.169 739.001 782.212 741.892L782.095 743.158C782.884 744.037 783.443 744.587 784.698 744.659C785.933 744.73 787.283 744.544 788.517 744.436C787.085 754.691 786.525 765.225 785.895 775.56C785.464 782.623 784.77 790.01 785.1 797.073C770.366 796.339 755.026 797.419 740.228 797.491C740.251 795.1 740.122 792.783 739.918 790.403C739.401 785.638 739.758 780.494 739.775 775.687L739.893 748.57L730.253 748.512C731.19 740.624 729.546 732.392 730.692 724.528C731.862 723.824 732.941 724.098 734.282 724.126C735.191 718.226 734.604 711.425 734.604 705.42L734.586 667.96Z"/>
	<path fill="#FEFEFE" d="M853.041 750.136C854.43 754.76 853.407 789.6 853.613 797.539C841.272 798.063 828.679 797.542 816.32 797.512C807.535 797.491 798.01 798.165 789.301 797.256C788.242 797.145 787.519 796.863 786.593 796.369C796.99 787.431 809.505 779.758 820.87 772.034C831.571 764.759 842.076 756.988 853.041 750.136Z"/>
	<path fill="#FEFEFE" d="M814.636 694.146C818.604 699.078 821.863 704.514 825.44 709.728C814.595 718.319 802.94 725.984 791.657 733.991C787.792 728.415 783.053 722.583 780.147 716.477C790.823 708.036 803.591 702.164 814.636 694.146Z"/>
	<path d="M338.712 794.414C339.393 765.024 345.01 738.896 367.15 717.76C384.264 701.423 406.53 692.389 430.284 693.173C451.924 693.886 473.978 704.22 488.671 720.072C507.354 740.228 513.501 765.246 512.393 792.12L512.284 794.49C520.609 794.492 578.225 793.591 582.134 794.918L581.655 796.086C574.628 797.416 561.871 796.438 554.134 796.427L494.291 796.445L262.006 796.532L261.142 796.153L260.962 794.695C286.76 793.662 312.879 794.419 338.712 794.414Z"/>
	<path fill="#FEFEFE" d="M420.93 695.698C424.622 695.281 428.523 695.244 432.229 695.482C453.642 696.86 475.234 707.807 489.194 724.045C506.264 743.902 511.874 768.733 509.98 794.365L444.985 794.352C451.357 789.048 456.308 782.693 458.284 774.512Q458.472 773.729 458.62 772.937Q458.769 772.145 458.878 771.346Q458.986 770.548 459.055 769.745Q459.124 768.942 459.152 768.137Q459.181 767.332 459.169 766.526Q459.157 765.721 459.105 764.916Q459.053 764.112 458.961 763.312Q458.869 762.512 458.737 761.717Q458.605 760.922 458.433 760.135Q458.261 759.347 458.051 758.57Q457.84 757.792 457.591 757.026Q457.341 756.26 457.054 755.507Q456.767 754.754 456.442 754.017Q456.117 753.279 455.756 752.559Q455.395 751.838 454.999 751.137Q454.602 750.436 454.171 749.755C449.029 741.577 441.801 737.6 432.541 735.552C429.96 735.384 427.381 735.286 424.797 735.459C416.531 736.011 409.046 740.031 403.631 746.23C397.781 752.926 394.769 761.143 395.484 770.055C396.303 780.251 401.556 787.976 409.228 794.413L341.126 794.323C341.455 769.463 345.966 746.774 361.938 726.896C376.778 708.426 397.649 698.215 420.93 695.698Z"/>
	<path fill="#FEFEFE" d="M425.851 737.675C425.975 737.663 426.098 737.644 426.222 737.637Q426.932 737.594 427.643 737.586Q428.355 737.579 429.066 737.607Q429.777 737.636 430.485 737.7Q431.194 737.764 431.898 737.864Q432.602 737.964 433.301 738.1Q433.999 738.235 434.69 738.406Q435.381 738.577 436.062 738.782Q436.743 738.987 437.413 739.226Q438.083 739.466 438.74 739.739Q439.397 740.012 440.039 740.318Q440.682 740.623 441.308 740.961Q441.934 741.299 442.542 741.668Q443.15 742.037 443.739 742.436Q444.328 742.835 444.896 743.264Q445.464 743.692 446.01 744.149Q446.555 744.605 447.077 745.089Q447.643 745.603 448.182 746.146Q448.721 746.688 449.232 747.258Q449.743 747.827 450.224 748.421Q450.705 749.016 451.156 749.634Q451.606 750.252 452.025 750.892Q452.443 751.532 452.829 752.192Q453.214 752.853 453.566 753.532Q453.917 754.211 454.234 754.908Q454.55 755.604 454.831 756.315Q455.112 757.026 455.356 757.751Q455.601 758.476 455.808 759.212Q456.015 759.948 456.185 760.694Q456.354 761.44 456.486 762.193Q456.617 762.946 456.71 763.706Q456.803 764.465 456.858 765.227Q456.912 765.99 456.928 766.755C457.065 774.649 453.759 782.412 448.223 787.996C442.729 793.54 437.989 794.69 430.531 794.607C422.247 794.739 415.572 795.493 408.484 790.129C402.569 785.652 399.114 778.897 398.228 771.625C397.225 763.389 399.385 755.442 404.53 748.902C410.022 741.92 417.152 738.671 425.851 737.675Z"/>
	<path d="M691.824 723.956C699.283 722.53 718.904 723.632 727.55 723.607L729.389 723.838C731.914 728.808 728.991 742.13 730.253 748.512L739.893 748.57L739.775 775.687C739.758 780.494 739.401 785.638 739.918 790.403Q739.662 794.862 739.623 799.327L675.71 799.118C667.435 799.065 658.948 799.616 650.707 799.164C649.612 799.104 648.696 799.158 647.818 798.425L648.2 797.122C654.136 790.849 676.329 759.176 681.541 757.869C682.435 758.127 682.921 758.331 683.857 758.186C683.404 755.293 681.08 751.771 679.854 749.029L691.257 748.903C690.693 740.531 689.8 732.204 689.538 723.81L691.824 723.956Z"/>
	<path fill="#FEFEFE" d="M691.824 723.956C699.283 722.53 718.904 723.632 727.55 723.607L727.694 748.572L693.86 748.669Q692.984 736.301 691.824 723.956Z"/>
	<path fill="#3A7569" d="M54.4003 618.039C62.2594 607.074 68.983 593.847 81.4168 587.209Q82.0659 586.857 82.732 586.539Q83.3982 586.221 84.0797 585.937Q84.7612 585.653 85.4562 585.404Q86.1513 585.155 86.8581 584.942Q87.5649 584.729 88.2817 584.552Q88.9984 584.375 89.7233 584.235Q90.4481 584.094 91.1791 583.991Q91.9101 583.888 92.6455 583.822Q93.3808 583.757 94.1185 583.728Q94.8563 583.7 95.5945 583.709Q96.3327 583.719 97.0695 583.766Q97.8062 583.812 98.5397 583.897Q99.2731 583.981 100.001 584.103Q100.73 584.224 101.451 584.383Q102.172 584.541 102.884 584.736Q103.596 584.931 104.297 585.162C117.669 589.451 125.54 600.596 131.57 612.548C133.515 620.224 136.583 638.306 143.497 642.562C146.779 644.582 151.572 643.033 154.984 642.041C172.56 636.926 188.545 632.755 205.739 642.227C215 647.329 222.286 655.868 225.117 666.124C231.691 689.932 213.472 712.643 218.998 734.041C223.03 749.655 240.894 758.826 250.268 771.179C255.102 777.549 258.132 784.912 260.475 792.506C260.703 793.246 260.9 793.92 260.962 794.695L261.142 796.153L262.006 796.532C266.325 814.883 269.441 830.602 284.891 842.86C290.768 847.523 297.001 851.73 302.248 857.136C310.335 865.469 315.464 875.497 320.786 885.676C318.892 885.71 316.416 885.444 314.611 885.916C293.39 885.083 271.863 885.715 250.605 885.687C232.796 885.665 214.479 884.819 196.717 885.938C187.834 884.977 178.152 885.71 169.199 885.712C145.777 885.718 122.038 886.5 98.6408 885.57L94.8225 885.642L11.3748 885.678C11.7463 851.865 11.4466 818.025 11.4144 784.21L11.5384 633.559C20.0533 636.233 30.1333 637.485 38.6877 634.247C46.0093 631.476 51.3937 625.089 54.4003 618.039Z"/>
	<path d="M94.8225 885.642C88.8907 875.705 83.539 865.43 81.5474 853.901C80.2028 846.117 81.2431 839.427 81.695 831.674C82.5147 817.608 81.5233 801.854 75.8475 788.84C70.5181 776.621 61.2416 769.062 52.5114 759.491C44.082 750.249 38.2514 738.165 35.8399 725.925C35.4061 723.723 34.111 718.386 34.9398 716.302C35.051 716.022 35.262 715.793 35.4231 715.538L36.4466 715.685C38.2856 718.184 38.5071 726.633 39.4297 730.056Q40.4129 733.662 41.7646 737.148Q43.1162 740.633 44.8218 743.959C49.1147 752.226 55 758.491 61.4218 765.11C80.398 784.669 83.7072 798.4 84.1978 825.13C90.5264 813.671 96.073 808.628 103.408 798.786C112.147 787.06 119.057 772.711 123.783 758.859C126.536 750.789 128.512 742.39 130.004 733.998C130.695 730.111 130.737 725.24 131.966 721.552C132.352 720.394 132.411 720.393 133.493 720.052C134.227 720.458 134.416 720.336 134.652 721.212C135.278 723.539 133.948 727.907 133.564 730.366C129.974 753.311 121.52 777.026 108.664 796.456C104.749 802.372 99.7009 807.428 95.1846 812.877C84.779 825.432 81.3624 838.871 84.5528 854.807C86.8463 866.263 91.8701 876.129 98.6408 885.57L94.8225 885.642Z"/>
	<path d="M196.717 885.938C195.822 879.353 195.438 872.563 193.601 866.156C191.5 858.826 188.145 851.865 185.384 844.77C179.272 829.068 176.277 812.358 177.762 795.512C178.151 791.108 178.24 785.519 179.954 781.501C180.688 780.902 181.111 780.629 182.044 780.444L182.031 780.935C181.873 785.244 181.054 789.52 180.645 793.811C179.742 803.268 179.951 812.578 181.687 821.933Q183.652 832.135 187.22 841.893C192.319 855.828 199.92 869.55 198.724 884.919C198.009 885.391 197.542 885.649 196.717 885.938Z"/>
	<path fill="#668CC3" d="M230.666 503.998C230.602 502.59 230.271 502.353 231.226 501.236C238.464 500.459 246.219 501.028 253.505 501.071L300.603 501.432C309.283 500.681 318.264 501.161 326.979 501.217L371.65 501.397L516.487 501.485L532.074 501.464L549.183 501.466L607.088 501.466C610.679 501.461 622.655 500.784 625.358 501.44C625.695 501.522 625.914 501.855 626.192 502.063L626.186 503.92C624.127 508.024 622.398 520.427 620.777 525.966Q619.619 530.024 618.293 534.03Q616.967 538.037 615.476 541.984Q613.984 545.932 612.33 549.814Q610.675 553.696 608.86 557.506Q607.045 561.316 605.074 565.047Q603.102 568.778 600.976 572.423Q598.851 576.069 596.575 579.623Q594.3 583.177 591.878 586.633Q590.433 588.682 588.939 590.695Q587.444 592.708 585.901 594.684Q584.357 596.659 582.766 598.597Q581.174 600.534 579.535 602.431Q577.897 604.329 576.212 606.186Q574.527 608.042 572.797 609.857Q571.067 611.672 569.293 613.443Q567.519 615.215 565.702 616.943Q563.885 618.67 562.026 620.353Q560.168 622.035 558.268 623.671Q556.368 625.308 554.429 626.897Q552.49 628.486 550.512 630.027Q548.535 631.568 546.52 633.06Q544.505 634.552 542.454 635.994Q540.403 637.436 538.317 638.827Q536.232 640.218 534.112 641.558Q531.993 642.898 529.841 644.185Q527.69 645.472 525.507 646.706Q523.325 647.94 521.112 649.119Q518.9 650.299 516.66 651.424Q514.419 652.55 512.152 653.62Q509.885 654.689 507.591 655.703Q505.298 656.717 502.981 657.674Q500.664 658.631 498.324 659.531Q495.984 660.431 493.622 661.274Q491.261 662.116 488.879 662.9Q486.498 663.684 484.098 664.409Q481.698 665.134 479.281 665.8Q476.864 666.466 474.431 667.073Q471.999 667.679 469.552 668.226Q467.105 668.773 464.645 669.259Q462.186 669.745 459.715 670.171C409.161 679.305 353.123 666.571 311.033 637.349Q309.261 636.132 307.517 634.875Q305.773 633.618 304.058 632.321Q302.343 631.025 300.659 629.69Q298.974 628.354 297.32 626.98Q295.666 625.607 294.044 624.196Q292.422 622.785 290.833 621.337Q289.244 619.89 287.688 618.406Q286.132 616.922 284.611 615.403Q283.089 613.885 281.603 612.331Q280.117 610.778 278.666 609.191Q277.216 607.605 275.802 605.985Q274.388 604.366 273.012 602.714Q271.635 601.063 270.297 599.381Q268.959 597.698 267.659 595.986Q266.359 594.273 265.099 592.531Q263.839 590.79 262.619 589.02Q261.399 587.249 260.22 585.452Q259.041 583.654 257.903 581.83Q256.766 580.006 255.67 578.157Q254.574 576.307 253.521 574.433Q252.467 572.559 251.457 570.661Q250.447 568.764 249.48 566.843Q248.514 564.923 247.592 562.981Q246.669 561.039 245.791 559.077Q244.914 557.115 244.081 555.133Q243.248 553.151 242.461 551.15Q241.674 549.15 240.933 547.132Q240.191 545.114 239.496 543.08Q238.801 541.045 238.153 538.995Q237.505 536.946 236.904 534.882Q236.302 532.818 235.748 530.741Q235.194 528.663 234.688 526.574C232.805 519.076 232.04 511.568 230.666 503.998Z"/>
	<path d="M230.666 503.998C230.602 502.59 230.271 502.353 231.226 501.236C238.464 500.459 246.219 501.028 253.505 501.071L300.603 501.432C309.283 500.681 318.264 501.161 326.979 501.217L371.65 501.397L516.487 501.485L532.074 501.464L549.183 501.466L607.088 501.466C610.679 501.461 622.655 500.784 625.358 501.44C625.695 501.522 625.914 501.855 626.192 502.063L626.186 503.92C621.342 504.328 616.31 504.064 611.439 504.065L583.678 504.049L501.21 504.158L230.666 503.998Z"/>
	<path d="M664.216 266.256Q664.078 265.159 663.995 264.057Q663.911 262.954 663.883 261.849Q663.854 260.744 663.88 259.638Q663.906 258.533 663.987 257.431Q664.068 256.328 664.203 255.231Q664.339 254.133 664.529 253.044Q664.718 251.955 664.962 250.877Q665.205 249.798 665.502 248.733Q665.798 247.668 666.148 246.619Q666.497 245.57 666.897 244.539Q667.298 243.509 667.749 242.5Q668.2 241.49 668.701 240.505Q669.202 239.519 669.751 238.559Q670.3 237.6 670.896 236.668Q671.491 235.737 672.133 234.836Q672.774 233.936 673.459 233.068Q674.144 232.173 674.873 231.313Q675.603 230.453 676.374 229.631Q677.145 228.809 677.956 228.026Q678.768 227.243 679.617 226.502Q680.466 225.76 681.352 225.062Q682.237 224.364 683.156 223.712Q684.075 223.059 685.025 222.452Q685.976 221.846 686.956 221.288Q687.935 220.73 688.941 220.222Q689.947 219.713 690.978 219.255Q692.008 218.798 693.06 218.392Q694.112 217.987 695.182 217.634Q696.253 217.281 697.34 216.983Q698.427 216.684 699.528 216.44Q700.629 216.196 701.74 216.007Q702.852 215.818 703.971 215.685C716.624 214.188 729.973 217.548 739.975 225.59C748.889 232.757 755.118 244.743 756.275 256.087C757.291 266.05 753.921 276.353 747.583 284.049C743.597 288.888 738.914 292.101 733.626 295.388C752.068 312.852 765.904 324.643 773.632 349.973Q774.743 353.555 775.609 357.204Q776.476 360.854 777.093 364.553Q777.71 368.253 778.075 371.985Q778.44 375.718 778.551 379.467C779.148 400.065 778.667 420.797 778.699 441.412L778.853 550.855L778.83 596.625C778.845 604.969 778.578 613.397 779.066 621.725C776.683 621.64 774.293 621.507 771.909 621.548L734.431 621.513C734.45 636.891 733.787 652.625 734.586 667.96L734.604 705.42C734.604 711.425 735.191 718.226 734.282 724.126C732.941 724.098 731.862 723.824 730.692 724.528C729.546 732.392 731.19 740.624 730.253 748.512C728.991 742.13 731.914 728.808 729.389 723.838L727.55 723.607C718.904 723.632 699.283 722.53 691.824 723.956L689.538 723.81C685.688 723.896 681.874 723.767 678.028 723.595C677.975 689.624 678.28 655.572 677.439 621.61C676.743 621.398 676.115 621.096 675.454 620.795C674.843 619.326 674.908 617.887 674.97 616.329C675.156 611.683 675.942 607.008 676.249 602.352Q678.006 575.302 680.147 548.28C682.919 511.624 685.273 474.889 688.555 438.277C671.957 444.241 655.332 446.312 637.775 444.875C635.425 444.682 632.115 444.784 629.909 444.185C624.81 442.8 628.6 434.396 626.694 430.957C625.391 430.575 624.37 430.247 623.197 429.535C623.005 428.65 622.855 428.11 622.43 427.293C611.883 431.462 604.807 434.361 593.423 431.105C588.371 430.147 584.392 426.095 580.829 422.687C577.009 417.426 574.468 410.917 574.93 404.332C575.353 398.308 578.356 392.712 582.889 388.769C588.878 383.56 596.857 381.6 604.622 382.213C609.701 383.611 614.009 385.098 618.383 388.104C623.396 393.109 625.911 397.945 628.522 404.472C628.837 402.225 629.034 399.713 630.409 397.845C631.379 397.63 631.15 397.543 631.935 397.755C635.511 398.719 638.626 399.648 642.35 399.996C661.176 401.755 677.045 398.852 691.829 386.558Q695.059 360.563 701.076 335.068C703.952 322.992 709.144 312.078 709.615 299.499C702.326 299.57 696.104 298.349 689.922 294.356C684.357 290.76 677.903 283.935 676.443 277.298C674.775 276.781 673.008 276.296 671.442 275.515C667.456 273.529 665.679 270.246 664.216 266.256Z"/>
	<path fill="#668CC3" d="M677.439 621.61C695.417 620.861 713.681 621.492 731.685 621.533C732.062 634.638 731.038 718.822 732.782 723.421L734.282 724.126C732.941 724.098 731.862 723.824 730.692 724.528C729.546 732.392 731.19 740.624 730.253 748.512C728.991 742.13 731.914 728.808 729.389 723.838L727.55 723.607C718.904 723.632 699.283 722.53 691.824 723.956L689.538 723.81C685.688 723.896 681.874 723.767 678.028 723.595C677.975 689.624 678.28 655.572 677.439 621.61Z"/>
	<path fill="#668CC3" d="M664.216 266.256Q664.078 265.159 663.995 264.057Q663.911 262.954 663.883 261.849Q663.854 260.744 663.88 259.638Q663.906 258.533 663.987 257.431Q664.068 256.328 664.203 255.231Q664.339 254.133 664.529 253.044Q664.718 251.955 664.962 250.877Q665.205 249.798 665.502 248.733Q665.798 247.668 666.148 246.619Q666.497 245.57 666.897 244.539Q667.298 243.509 667.749 242.5Q668.2 241.49 668.701 240.505Q669.202 239.519 669.751 238.559Q670.3 237.6 670.896 236.668Q671.491 235.737 672.133 234.836Q672.774 233.936 673.459 233.068Q674.144 232.173 674.873 231.313Q675.603 230.453 676.374 229.631Q677.145 228.809 677.956 228.026Q678.768 227.243 679.617 226.502Q680.466 225.76 681.352 225.062Q682.237 224.364 683.156 223.712Q684.075 223.059 685.025 222.452Q685.976 221.846 686.956 221.288Q687.935 220.73 688.941 220.222Q689.947 219.713 690.978 219.255Q692.008 218.798 693.06 218.392Q694.112 217.987 695.182 217.634Q696.253 217.281 697.34 216.983Q698.427 216.684 699.528 216.44Q700.629 216.196 701.74 216.007Q702.852 215.818 703.971 215.685C716.624 214.188 729.973 217.548 739.975 225.59C748.889 232.757 755.118 244.743 756.275 256.087C757.291 266.05 753.921 276.353 747.583 284.049C743.597 288.888 738.914 292.101 733.626 295.388C727.343 287.489 726.053 279.472 723.663 269.95C722.247 268.941 720.396 267.81 719.328 266.423C717.895 264.561 717.392 261.481 715.281 260.383C712.846 261.999 711.921 267.093 707.36 270.077C704.118 272.199 700.103 273.426 696.267 272.41C690.087 270.775 691.672 265.785 688.901 261.712C688.462 261.066 688.192 261.189 687.49 261.051C685.621 262.406 685.018 267.933 683.632 270.275C682.521 272.154 680.811 273.944 678.56 274.315C668.52 275.973 668.277 264.601 665.254 262.804C664.136 263.888 664.362 264.739 664.216 266.256Z"/>
	<path fill="#FEFEFE" d="M732.028 295.944L732.379 296.265C732.426 296.569 732.582 298.1 732.789 298.406C733.855 299.982 745.692 309.724 748.405 312.458C778.687 342.969 776.408 376.492 776.418 416.012L776.407 476.003L688.093 476.088C688.964 463.042 690.235 450.036 691.007 436.979C700.682 432.541 709.942 427.154 717.831 419.95C737.324 402.149 748.039 375.303 749.086 349.18C749.149 347.627 749.346 346.604 748.265 345.429L747.342 345.455C745.978 347.319 745.79 360.315 745.317 363.432C743.636 374.523 738.651 385.978 733.513 395.828C727.408 406.801 719.909 416.017 709.77 423.528C686.531 440.745 658.034 445.622 629.823 441.555C629.701 428.069 629.695 413.679 631.471 400.327Q633.214 400.838 635 401.173C653.259 404.542 672.757 403.177 688.363 392.324C707.414 379.075 712.138 358.176 716.199 336.777C717.08 332.139 718.432 327.553 719.25 322.934L718.719 322.397C717.762 322.669 717.673 322.718 717.142 323.526C714.774 327.127 714.277 333.56 713.586 337.757C710.9 354.06 706.747 371.301 694.815 383.479C697.384 358.237 703.075 332.58 712.044 308.844C718.879 304.504 725.575 300.99 732.028 295.944Z"/>
	<path fill="#FEFEFE" d="M687.871 478.618C717.353 477.94 747.011 478.139 776.501 478.515C776.453 525.251 777.017 572.051 776.315 618.779L765.829 618.615C736.423 619.128 706.961 618.855 677.546 618.958C678.745 594.337 680.98 569.731 682.834 545.151C684.507 522.977 685.743 500.757 687.871 478.618Z"/>
	<path fill="#FEFEFE" d="M598.987 384.651Q599.586 384.6 600.187 384.579Q600.788 384.558 601.39 384.567Q601.991 384.575 602.591 384.614Q603.191 384.653 603.789 384.721Q604.386 384.789 604.979 384.887Q605.573 384.985 606.16 385.112Q606.748 385.239 607.329 385.396Q607.91 385.552 608.482 385.737Q609.054 385.921 609.617 386.134Q610.179 386.347 610.73 386.588Q611.281 386.829 611.82 387.096Q612.358 387.364 612.883 387.658Q613.407 387.952 613.917 388.272Q614.426 388.592 614.919 388.936Q615.412 389.281 615.887 389.65Q616.362 390.018 616.818 390.41C624.457 396.989 627.016 405.68 627.797 415.382C627.152 416.581 626.475 417.741 625.705 418.865C620.869 425.929 613.998 428.935 605.876 430.345C599.538 430.794 593.409 429.226 588.178 425.568C582.692 421.732 578.705 415.768 577.709 409.107Q577.633 408.614 577.581 408.119Q577.53 407.623 577.503 407.125Q577.476 406.628 577.474 406.129Q577.472 405.631 577.495 405.133Q577.517 404.635 577.565 404.139Q577.612 403.643 577.684 403.15Q577.757 402.656 577.853 402.168Q577.95 401.679 578.071 401.195Q578.191 400.712 578.336 400.235Q578.481 399.758 578.649 399.289Q578.818 398.819 579.009 398.359Q579.2 397.899 579.414 397.449Q579.629 396.999 579.865 396.56Q580.101 396.121 580.359 395.695Q580.617 395.268 580.895 394.855Q581.174 394.442 581.473 394.043C585.797 388.215 592.075 385.706 598.987 384.651Z"/>
	<path fill="#FEFEFE" d="M715.284 266.041C717.408 268.392 719.34 270.402 722.023 272.145C722.898 277.147 724.321 281.964 725.832 286.803C721.326 291.675 718.159 295.102 711.272 296.543C702.916 298.291 696.179 295.643 689.407 291.082C684.394 286.959 681.211 282.817 678.888 276.703C683.003 274.842 685.603 272.913 687.998 269.053C688.896 270.001 689.802 270.903 690.822 271.722C693.91 274.201 697.775 275.367 701.719 274.874C707.49 274.152 711.851 270.474 715.284 266.041Z"/>
	<path fill="#EBA992" d="M42.1371 330.678C41.7735 311.223 42.6332 295.673 56.9744 280.905C66.2681 271.334 78.4747 265.876 91.8376 265.687Q93.1621 265.664 94.4861 265.707Q95.8101 265.749 97.1304 265.856Q98.4507 265.963 99.7642 266.135Q101.078 266.307 102.381 266.543Q103.685 266.779 104.975 267.078Q106.265 267.378 107.54 267.74Q108.814 268.103 110.069 268.527Q111.323 268.951 112.556 269.437Q113.789 269.922 114.996 270.467Q116.203 271.013 117.382 271.616Q118.561 272.22 119.709 272.881Q120.858 273.542 121.972 274.258Q123.086 274.974 124.164 275.744Q125.242 276.514 126.281 277.336Q127.32 278.158 128.317 279.03Q129.315 279.901 130.268 280.821C142.394 292.614 145.861 308.544 145.992 324.905Q146.011 327.56 145.992 330.215L131.879 330.412L131.852 519.087L131.993 583.371C131.977 591.814 132.724 604.623 131.57 612.548C125.54 600.596 117.669 589.451 104.297 585.162Q103.596 584.931 102.884 584.736Q102.172 584.541 101.451 584.383Q100.73 584.224 100.001 584.103Q99.2731 583.981 98.5397 583.897Q97.8063 583.812 97.0695 583.766Q96.3327 583.719 95.5945 583.709Q94.8563 583.7 94.1185 583.728Q93.3808 583.757 92.6455 583.822Q91.9102 583.888 91.1791 583.991Q90.4481 584.094 89.7233 584.235Q88.9984 584.375 88.2817 584.552Q87.5649 584.729 86.8581 584.942Q86.1513 585.155 85.4562 585.404Q84.7612 585.653 84.0797 585.937Q83.3982 586.221 82.732 586.539Q82.0659 586.857 81.4168 587.209C68.983 593.847 62.2594 607.074 54.4003 618.039C54.8573 566.597 54.0931 515.095 54.1002 463.643L54.052 381.432C54.0573 364.49 54.3459 347.49 53.9327 330.556L42.1371 330.678Z"/>
	<path fill="#668CC3" d="M42.1371 330.678C41.7735 311.223 42.6332 295.673 56.9744 280.905C66.2681 271.334 78.4747 265.876 91.8376 265.687Q93.1621 265.664 94.4861 265.707Q95.8101 265.749 97.1304 265.856Q98.4507 265.963 99.7642 266.135Q101.078 266.307 102.381 266.543Q103.685 266.779 104.975 267.078Q106.265 267.378 107.54 267.74Q108.814 268.103 110.069 268.527Q111.323 268.951 112.556 269.437Q113.789 269.922 114.996 270.467Q116.203 271.013 117.382 271.616Q118.561 272.22 119.709 272.881Q120.858 273.542 121.972 274.258Q123.086 274.974 124.164 275.744Q125.242 276.514 126.281 277.336Q127.32 278.158 128.317 279.03Q129.315 279.901 130.268 280.821C142.394 292.614 145.861 308.544 145.992 324.905Q146.011 327.56 145.992 330.215L131.879 330.412L53.9327 330.556L42.1371 330.678Z"/>
	<path fill="#E16349" d="M340.637 463.714C351.954 454.522 361.707 441.044 363.257 426.17C366.403 395.958 330.333 377.919 347.078 337.389C350.999 327.898 356.56 319.638 364.55 313.125C367.051 311.087 369.795 309.155 372.573 307.511C366.102 326.309 363.152 347.23 372.207 365.764C376.787 375.138 385.955 385.234 396.036 388.631C405.138 391.699 415.969 389.96 424.339 385.565C433.533 380.737 439.987 372.382 442.995 362.498C447.18 348.743 443.354 333.647 437.598 320.954C450.65 329.325 458.952 343.725 462.277 358.673C464.934 370.621 464.596 383.542 463.063 395.62C460.447 416.23 452.803 437.213 470.599 453.431C479.226 445.069 484.696 434.997 484.935 422.789C485.068 415.985 483.555 409.577 481.572 403.116C490.847 409.533 496.358 418.524 498.444 429.611C500.506 440.57 498.008 452.039 501.008 462.783C505.233 477.918 516.792 483.203 516.487 501.485L371.65 501.397L326.979 501.217C318.264 501.161 309.283 500.681 300.603 501.432C300.424 495.387 300.114 489.396 301.392 483.437C302.977 476.043 306.681 469.769 310.308 463.232C324.01 438.53 322.658 428.011 311.16 402.805C323.655 408.005 333.308 414.789 338.624 427.698C343.453 439.426 341.833 451.46 340.637 463.714Z"/>
	<path fill="#668CC3" d="M580.829 422.687C584.392 426.095 588.371 430.147 593.423 431.105C586.758 436.961 554.677 490.715 549.183 501.466L532.074 501.464C535.193 497.176 537.896 492.468 540.778 488.006Q550.494 473.229 559.666 458.109C566.826 446.467 574.737 434.926 580.829 422.687Z"/>
	<path fill="#668CC3" d="M604.622 382.213C609.373 380.197 620.416 353.459 627.67 349.262C629.6 348.146 631.626 348.178 633.659 349.008C635.166 349.623 636.13 350.595 636.775 352.084C637.946 354.786 636.8 358.238 635.539 360.68C630.644 370.164 623.539 378.669 618.383 388.104C614.009 385.098 609.701 383.611 604.622 382.213Z"/>
</svg>
