<?xml version="1.0" encoding="utf-8" ?>
<svg xmlns="http://www.w3.org/2000/svg" xmlns:xlink="http://www.w3.org/1999/xlink" width="1024" height="1024">
	<path fill="#FEFEFE" d="M0 0L1024 0L1024 1024L0 1024L0 0Z"/>
	<path fill="#010101" d="M287.715 454.658C298.355 453.351 309.803 456.303 318.462 462.596Q319.341 463.243 320.187 463.932Q321.033 464.62 321.845 465.35Q322.656 466.079 323.432 466.847Q324.207 467.615 324.944 468.419Q325.681 469.224 326.377 470.064Q327.074 470.904 327.729 471.776Q328.384 472.649 328.996 473.552Q329.608 474.456 330.175 475.388Q330.742 476.32 331.263 477.279Q331.784 478.237 332.257 479.22Q332.731 480.203 333.156 481.208Q333.582 482.213 333.957 483.237Q334.333 484.262 334.659 485.303Q334.984 486.345 335.258 487.401Q335.533 488.457 335.755 489.525Q335.978 490.593 336.148 491.671C338.005 503.955 335.069 516.846 327.542 526.775C319.734 537.075 309.9 542.518 297.209 544.338C287.087 545.839 274.578 542.045 266.406 536.076C256.876 529.116 251.048 519.08 249.271 507.456C247.358 494.943 249.918 482.377 257.495 472.138C264.942 462.074 275.454 456.441 287.715 454.658Z"/>
	<path fill="#ED3434" d="M124.105 165.72C124.248 165.701 124.39 165.676 124.534 165.665C127.605 165.418 134.894 165.69 137.209 167.61C138.394 172.046 130.273 176.35 130.651 181.72C130.725 182.766 131.294 184.092 132.137 184.756C134.053 186.264 137.95 187.237 140.309 188.239C145.035 190.247 148.962 192.639 152.972 195.83Q154.015 194.831 155.003 193.778C157.971 190.584 160.582 187.121 160.417 182.575C160.364 181.098 159.901 178.123 160.716 176.991C160.937 177.009 161.16 177.006 161.379 177.043C166.897 177.957 176.55 189.801 179.568 194.33C171.213 194.963 165.76 196.075 159.155 201.523C165.376 209.282 167.308 216.785 169.253 226.327C176.203 224.598 181.108 220.987 187.183 217.448C188.622 226.138 188.29 233.37 185.072 241.614C179.35 237.553 175.637 235.028 168.58 234.032Q168.178 235.553 167.692 237.049Q167.206 238.544 166.637 240.011Q166.069 241.478 165.42 242.91Q164.77 244.343 164.042 245.737Q163.315 247.131 162.51 248.483Q161.706 249.835 160.827 251.139Q159.949 252.444 158.999 253.698Q158.05 254.952 157.032 256.151C160.086 258.162 163.445 260.347 166.915 261.539C169.282 262.352 172.087 262.824 174.305 263.95C175.183 264.395 175.537 264.7 176.075 265.498C176.193 266.415 176.12 267.019 175.69 267.83C173.508 271.951 166.308 278.871 161.868 280.314C160.862 280.072 160.56 280.134 160.046 279.141C159.055 277.226 158.921 274.434 158.319 272.324C157.136 268.182 155.064 264.877 152.75 261.306C144.641 268.356 141.994 267.523 133.474 271.572C132.266 272.145 131.311 272.995 131.008 274.35C130.103 278.405 136.391 286.936 138.539 290.202C135.929 290.86 133.211 291.153 130.55 291.548C126.135 291.667 119.652 292.258 115.631 290.24C114.136 287.707 119.823 281.604 121.075 278.723C122 276.593 122.158 274.15 122.406 271.863C113.715 270.31 107.606 267.012 100.307 262.187C95.7113 267.591 92.3294 273.984 89.58 280.482C83.708 276.41 78.8294 271.292 74.4835 265.649C81.8905 263.707 88.7532 260.779 95.862 257.987C88.8747 250.108 85.0985 242.988 83.1574 232.638C76.8006 234.715 71.3135 237.144 65.5359 240.524C64.3875 236.131 63.6446 231.88 63.7036 227.331C63.7442 224.196 63.7295 219.015 66.0656 216.718C67.5055 216.626 76.4019 223.826 82.4009 224.642L83.082 224.728C83.9549 215.291 87.1482 208.815 92.3702 201.018C86.4474 196.882 81.3676 193.653 74.4038 191.564C77.4369 186.235 83.3703 179.264 89.0153 176.669C90.1358 176.154 90.6424 176.185 91.7707 176.59C92.7556 178.78 91.6061 181.407 91.6627 183.853C91.7762 188.753 94.5776 191.801 97.9143 194.97C105.238 189.971 110.27 188.345 118.409 185.534C120.227 184.906 120.763 184.342 121.607 182.641C121.722 176.921 116.55 171.359 113.317 166.982C116.907 166.316 120.466 165.995 124.105 165.72Z"/>
	<path fill="#FEFEFE" d="M124.478 217.045C125.4 217.05 126.349 217.094 127.246 217.323C128.86 217.734 130.122 218.876 130.96 220.276C131.799 221.679 131.831 223.522 131.389 225.056C130.66 227.591 129.114 228.571 126.873 229.73C126.333 229.704 125.794 229.665 125.257 229.607C123.351 229.403 121.74 228.693 120.561 227.126C119.479 225.688 119.244 224.045 119.629 222.31C120.218 219.655 122.274 218.299 124.478 217.045Z"/>
	<path fill="#FEFEFE" d="M151.569 225.594C152.923 225.504 154.374 225.351 155.718 225.571C158.161 225.971 160.639 227.57 161.905 229.708Q162.081 230.009 162.226 230.326Q162.371 230.644 162.483 230.974Q162.595 231.305 162.673 231.645Q162.751 231.985 162.794 232.331Q162.837 232.677 162.845 233.026Q162.852 233.375 162.824 233.723Q162.797 234.071 162.734 234.414Q162.671 234.757 162.573 235.092C161.679 238.205 159.253 239.85 156.516 241.243C154.996 241.398 153.304 241.678 151.788 241.399C149.708 241.016 147.679 239.631 146.573 237.831C145.41 235.936 145.229 233.666 145.859 231.554C146.785 228.451 148.856 227.08 151.569 225.594Z"/>
	<path fill="#FEFEFE" d="M126.064 251.698C127.702 251.582 129.656 251.3 131.248 251.697C133.36 252.223 135.432 253.735 136.542 255.606C137.698 257.553 137.819 259.858 137.149 261.994C136.196 265.032 134.132 266.419 131.456 267.878C129.94 267.959 128.272 268.1 126.778 267.813C124.372 267.35 121.965 265.622 120.779 263.479C119.714 261.556 119.521 259.335 120.274 257.265C121.357 254.287 123.364 253.09 126.064 251.698Z"/>
	<path fill="#FEFEFE" d="M96.3866 214.122C98.0214 214.017 99.6934 213.979 101.273 214.491Q101.676 214.625 102.062 214.8Q102.449 214.975 102.815 215.188Q103.182 215.402 103.524 215.652Q103.867 215.903 104.182 216.187Q104.497 216.471 104.781 216.786Q105.065 217.102 105.315 217.444Q105.565 217.787 105.779 218.154Q105.992 218.52 106.167 218.907C107.282 221.349 107.121 224.072 106.103 226.511C104.778 229.685 102.486 231.06 99.4184 232.302C97.7636 232.165 96.1552 232.016 94.6188 231.337C91.9423 230.155 89.511 227.78 88.5771 224.972C87.8792 222.874 88.0032 220.671 89.0942 218.732C90.6676 215.936 93.5079 215.04 96.3866 214.122Z"/>
	<path fill="#FEFEFE" d="M127.859 188.569C129.061 188.655 130.285 188.831 131.436 189.203C133.981 190.025 136.209 191.838 137.249 194.331C138.189 196.585 138.07 199.066 137.151 201.304C135.775 204.649 133.465 205.851 130.269 207.17C128.373 207.116 126.503 207.111 124.765 206.251C122.459 205.109 120.57 203.079 119.801 200.602Q119.658 200.15 119.563 199.685Q119.468 199.22 119.422 198.748Q119.376 198.276 119.38 197.802Q119.383 197.327 119.436 196.856Q119.489 196.384 119.591 195.921Q119.693 195.458 119.842 195.008Q119.992 194.558 120.188 194.125Q120.383 193.693 120.623 193.284C122.302 190.429 124.746 189.287 127.859 188.569Z"/>
	<path fill="#ED3434" d="M886.834 123.352C895.548 121.5 904.253 120.353 912.818 123.553C908.823 129.296 905.868 133.536 905.442 140.738C914.149 141.964 921.148 146.511 928.124 151.581C931.528 145.389 933.77 140.02 935.345 133.095C942.32 136.356 948.713 140.993 951.859 148.276C945.931 151.705 939.438 154.257 933.357 157.449C938.675 165.021 941.78 171.596 943.678 180.651C952.733 179.423 953.089 175.921 959.833 171.236C961.519 176.443 963.985 188.133 961.697 193.252C961.132 194.516 960.56 194.513 959.353 194.812C954.454 193.829 949.958 189.455 943.861 187.885C941.881 197.891 939.113 208.541 931.559 215.907C938.572 219.128 945.52 220.721 953.213 221.093C949.784 228.222 943.818 235.658 936.64 239.289C934.82 232.078 933.386 224.921 929.028 218.728C923.961 222.568 918.878 225.704 912.978 228.104C910.521 229.104 906.181 229.544 904.277 230.981C906.688 237.607 909.297 243.388 913.212 249.29C905.139 251.667 896.911 251.195 888.688 250.154C892.922 244.136 895.592 237.878 896.762 230.621C887.039 228.736 880.368 225.014 872.249 219.523C870.119 226.898 867.68 233.492 867.178 241.238C859.56 237.696 850.841 230.245 847.72 222.263C856.114 221.808 861.36 220.32 868.453 215.634C861.45 207.164 858.698 199.51 856.913 188.786C854.608 189.277 852.153 189.726 850.041 190.804C846.753 192.481 843.398 196.425 839.848 197.095C838.628 196.575 838.238 196.25 837.783 194.961C836.169 190.384 836.498 179.435 838.803 175.21C842.303 172.861 849.231 180.688 855.125 179.991C855.165 179.986 856.342 179.775 856.498 179.588C857.305 178.618 859.348 169.856 860.232 167.762C861.859 163.911 863.909 160.768 866.425 157.439C860.543 153.644 854.239 150.437 847.971 147.336C852.307 141.235 856.897 136.789 863.647 133.513C865.699 139.86 868.504 145.102 872.529 150.412C879.007 144.44 888.075 142.548 896.167 139.873C893.245 132.111 891.682 129.79 886.834 123.352Z"/>
	<path fill="#FEFEFE" d="M895.625 175.094C896.502 175.054 897.634 174.903 898.482 175.113C899.658 175.405 901.08 176.364 901.723 177.439C902.591 178.891 902.712 180.421 902.249 182.023C901.527 184.525 899.847 185.452 897.648 186.573C897.07 186.566 896.49 186.556 895.914 186.498C894.391 186.346 892.456 185.473 891.573 184.159C890.781 182.978 890.643 181.953 890.87 180.568C891.312 177.869 893.487 176.438 895.625 175.094Z"/>
	<path fill="#FEFEFE" d="M925.584 180.674C927.013 180.498 928.589 180.404 930.022 180.575C932.512 180.871 935.076 182.515 936.561 184.504C937.935 186.344 938.431 188.582 938.012 190.832C937.434 193.932 935.36 195.935 932.873 197.657C931.156 198.168 929.552 198.58 927.747 198.356C925.423 198.067 923.202 196.869 921.761 195.013C920.15 192.936 919.644 190.282 920.138 187.724C920.786 184.367 922.851 182.49 925.584 180.674Z"/>
	<path fill="#FEFEFE" d="M901.916 145.642C903.493 145.428 905.092 145.205 906.683 145.395C908.877 145.657 911 146.952 912.349 148.688C913.894 150.677 914.399 153.27 913.936 155.727C913.232 159.463 911.046 161.384 907.993 163.366C906.531 163.545 904.934 163.699 903.473 163.468C901.039 163.083 898.58 161.24 897.326 159.152Q897.1 158.776 896.912 158.38Q896.725 157.983 896.577 157.57Q896.429 157.157 896.323 156.732Q896.216 156.307 896.152 155.873Q896.088 155.439 896.067 155.001Q896.046 154.563 896.068 154.125Q896.09 153.687 896.155 153.253Q896.22 152.819 896.327 152.394C897.142 149.122 899.159 147.349 901.916 145.642Z"/>
	<path fill="#FEFEFE" d="M869.253 173.603C870.909 173.615 872.534 173.792 874.107 174.349C876.208 175.091 878.02 176.825 878.92 178.854C879.974 181.231 879.861 183.987 878.833 186.35C877.392 189.662 875.061 190.966 871.862 192.309C870.179 192.242 868.35 192.206 866.794 191.495C864.49 190.442 862.776 188.349 861.993 185.963Q861.843 185.504 861.74 185.034Q861.636 184.563 861.579 184.084Q861.522 183.605 861.512 183.123Q861.502 182.64 861.54 182.16Q861.577 181.679 861.662 181.204Q861.747 180.729 861.877 180.265Q862.008 179.801 862.184 179.352Q862.36 178.903 862.579 178.473C864.078 175.559 866.222 174.489 869.253 173.603Z"/>
	<path fill="#FEFEFE" d="M902.553 207.103C904.275 206.989 905.94 206.844 907.583 207.485C910.142 208.484 912.283 210.373 913.375 212.913C914.41 215.323 914.35 217.973 913.253 220.352C911.849 223.399 909.318 224.721 906.334 225.908C905.378 225.937 904.424 225.951 903.469 225.883C899.727 225.619 897.735 222.997 895.486 220.356C894.824 217.767 894.504 215.852 895.496 213.298C896.754 210.058 899.544 208.471 902.553 207.103Z"/>
	<path fill="#ED3434" d="M90.8243 394.209C94.0377 393.982 97.929 394.112 101.147 394.461C103.07 394.671 104.587 395.037 105.855 396.581C106.15 397.7 106.16 398.491 105.719 399.583C104.854 401.726 103.395 403.762 102.261 405.78C99.8958 409.987 98.5876 413.853 97.4041 418.533C107.516 420.004 114.933 423.807 122.678 430.429C128.656 423.385 131.113 417.046 132.922 408.102C136.9 410.06 140.334 412.751 143.569 415.757C146.541 418.518 152.212 423.67 152.398 427.909C150.39 430.735 140.894 430.704 137.256 432.017C134.14 433.141 131.718 435.057 129.122 437.048C135.896 446.2 138.883 452.019 141.247 463.131C145.617 462.831 150.244 461.887 154.128 459.794C156.496 458.517 158.968 455.422 161.626 455.162C162.672 455.709 163.242 456.189 163.744 457.288C166.912 464.225 165.006 477.584 162.185 484.506C155.354 478.79 150.508 474.9 141.161 474.48C140.246 484.686 136.558 492.696 130.728 501.025C137.434 510.002 144.424 508.628 152.69 513.687C152.493 514.093 152.296 514.5 152.073 514.892C149.814 518.859 138.768 530.208 134.306 530.785C132.973 530.957 132.795 530.724 131.838 529.928C130.443 526.903 130.801 522.93 130.501 519.631C130.104 515.271 128.488 511.269 125.031 508.469C124.912 508.373 124.79 508.28 124.67 508.186C116.251 514.549 107.52 518.992 97.045 520.538C97.9604 524.25 99.1581 527.94 101.375 531.102C102.893 533.266 105.8 536.065 106.617 538.522C107.068 539.88 106.908 540.155 106.346 541.364C102.91 543.881 98.2195 543.642 94.1139 543.935C88.1241 543.659 83.2745 543.185 77.586 541.302C83.5397 532.832 86.7962 532.307 89.0524 520.776C78.2345 518.837 70.2092 515.246 61.2526 508.969C59.4995 511.689 58.2743 514.275 57.4796 517.423C56.5642 521.049 57.2289 527.986 54.5904 530.569C53.4802 530.78 53.0528 530.846 51.9562 530.426C45.9482 528.126 37.4655 519.152 34.6822 513.398C34.7024 513.122 34.62 512.818 34.7428 512.57C34.8279 512.398 36.0158 511.886 36.1531 511.841C37.6966 511.332 39.4698 511.277 41.0573 510.84C46.3959 509.371 50.4669 505.179 54.2931 501.428C49.1988 495.85 45.3958 488.836 43.717 481.458C43.2656 479.474 43.0082 476.139 41.9528 474.443C41.554 473.802 41.2037 473.382 40.4649 473.197C35.1521 471.871 26.2102 480.09 21.8153 482.669L21.2493 482.996C17.3159 473.689 18.2758 461.612 20.8523 452.074C29.0003 456.675 31.1238 461.968 41.6924 462.079C43.2644 451.659 47.8389 443.601 54.1528 435.317C47.1669 430.755 39.776 428.364 31.8803 425.924C36.5542 417.227 42.9852 409.575 51.9677 405.163C53.8387 414.579 55.5633 421.009 61.4125 428.807C69.202 423.059 79.173 419.446 88.6424 417.811C88.1591 408.705 83.0461 403.041 77.0609 396.834C81.7125 395.189 85.9034 394.529 90.8243 394.209Z"/>
	<path fill="#FEFEFE" d="M91.5806 457.635C92.8489 457.594 94.1473 457.529 95.3732 457.913C97.108 458.456 98.851 459.8 99.5721 461.507C100.278 463.176 100.347 464.83 99.6441 466.496C98.7212 468.683 97.1872 469.659 95.0989 470.598C94.2091 470.605 93.3135 470.592 92.4309 470.465C90.5712 470.196 88.6429 469.043 87.6759 467.393C86.8139 465.922 86.5979 464.352 87.0377 462.711C87.7339 460.113 89.3918 458.984 91.5806 457.635Z"/>
	<path fill="#FEFEFE" d="M123.642 464.099C125.603 464.001 127.314 464.14 129.133 464.945C131.945 466.188 134.198 468.461 135.251 471.364Q135.424 471.833 135.55 472.316Q135.676 472.799 135.753 473.293Q135.831 473.786 135.859 474.285Q135.887 474.784 135.866 475.283Q135.845 475.782 135.774 476.277Q135.704 476.771 135.585 477.257Q135.466 477.742 135.3 478.213Q135.133 478.684 134.921 479.136C133.481 482.172 130.93 483.825 127.855 484.894C125.921 485.041 124.044 485.138 122.183 484.49C119.662 483.613 117.527 481.83 116.382 479.401C115.103 476.687 115.124 473.479 116.29 470.731C117.765 467.257 120.286 465.541 123.642 464.099Z"/>
	<path fill="#FEFEFE" d="M95.6849 423.63C97.7227 423.447 99.622 423.376 101.569 424.125C104.213 425.142 106.404 427.117 107.551 429.721Q107.765 430.198 107.928 430.695Q108.091 431.191 108.2 431.702Q108.31 432.213 108.365 432.733Q108.42 433.253 108.42 433.776Q108.42 434.298 108.365 434.818Q108.31 435.338 108.201 435.849Q108.092 436.36 107.929 436.857Q107.767 437.354 107.553 437.831C106.1 441.068 103.692 442.496 100.539 443.797C98.5144 443.971 96.505 443.954 94.5429 443.344C91.7996 442.49 89.4359 440.54 88.2348 437.915Q88.0305 437.469 87.873 437.004Q87.7156 436.539 87.6067 436.06Q87.4978 435.581 87.4386 435.094Q87.3794 434.607 87.3706 434.116Q87.3617 433.625 87.4033 433.136Q87.4448 432.647 87.5363 432.164Q87.6279 431.682 87.7684 431.212Q87.9089 430.741 88.097 430.288C89.5463 426.726 92.2953 425.096 95.6849 423.63Z"/>
	<path fill="#FEFEFE" d="M57.1287 451.615C58.5886 451.571 60.0975 451.533 61.52 451.918C64.3996 452.699 66.9269 454.637 68.2645 457.323Q68.4913 457.787 68.6716 458.271Q68.852 458.754 68.9842 459.254Q69.1163 459.753 69.1991 460.262Q69.2818 460.772 69.3144 461.287Q69.3469 461.802 69.3288 462.318Q69.3108 462.835 69.2424 463.346Q69.1741 463.858 69.056 464.361Q68.9379 464.863 68.7712 465.352C67.5273 469.088 64.9433 471.013 61.6055 472.806C59.9282 472.962 58.3736 472.943 56.7306 472.504Q56.2038 472.363 55.6947 472.167Q55.1857 471.971 54.6998 471.723Q54.214 471.475 53.7568 471.178Q53.2995 470.881 52.8759 470.537Q52.4523 470.194 52.0669 469.808Q51.6816 469.422 51.3387 468.998Q50.9958 468.574 50.6992 468.116Q50.4025 467.658 50.1554 467.172Q49.901 466.662 49.7016 466.128Q49.5022 465.593 49.36 465.041Q49.2178 464.489 49.1345 463.925Q49.0512 463.361 49.0276 462.791Q49.004 462.221 49.0404 461.652Q49.0768 461.083 49.1728 460.521Q49.2688 459.959 49.4233 459.41Q49.5778 458.862 49.7892 458.332C51.1974 454.77 53.7251 453.063 57.1287 451.615Z"/>
	<path fill="#FEFEFE" d="M96.3467 492.642C97.8203 492.66 99.1404 492.786 100.562 493.207C103.318 494.021 105.823 495.92 107.105 498.521Q107.352 499.018 107.547 499.537Q107.741 500.057 107.882 500.594Q108.022 501.131 108.107 501.679Q108.191 502.227 108.219 502.781Q108.247 503.336 108.218 503.89Q108.188 504.444 108.102 504.992Q108.017 505.54 107.875 506.076Q107.733 506.613 107.537 507.132C106.041 511.114 103.247 512.989 99.4788 514.595C97.2173 514.527 95.2554 514.324 93.2248 513.232C90.2662 511.642 87.8757 509.011 86.9715 505.735Q86.839 505.27 86.7534 504.794Q86.6678 504.317 86.6299 503.835Q86.5921 503.353 86.6024 502.869Q86.6126 502.385 86.6709 501.905Q86.7292 501.425 86.835 500.953Q86.9407 500.48 87.0928 500.021Q87.245 499.562 87.442 499.12Q87.639 498.678 87.879 498.258C89.7875 494.947 92.8045 493.597 96.3467 492.642Z"/>
	<path fill="#ED3434" d="M398.981 83.1668C404.48 82.4375 410.894 82.9042 416.352 83.9178C417.94 84.2126 419.432 84.4574 420.38 85.8277C413.695 92.5609 412.242 98.7522 410.246 107.847C419.822 109.231 427.36 113.393 434.686 119.544C441.484 112.952 444.771 106.045 445.719 96.618C447.067 97.21 448.319 97.886 449.546 98.7035C454.072 101.719 465.304 111.801 466.409 117.029C465.573 118.584 462.7 118.379 460.941 118.658C453.678 119.812 448.005 121.854 441.71 125.628C448.793 135.029 453.752 143.93 454.731 155.809C465.062 153.258 467.015 149.498 475.416 145.383C475.657 145.265 475.909 145.171 476.139 145.034C476.234 144.976 476.302 144.881 476.383 144.805L476.539 144.901C478.1 147.239 478.728 150.762 479.087 153.52C479.67 158.006 480.26 170.218 477.063 173.717C476.407 174.435 475.489 173.663 474.769 173.248C468.081 169.393 463.333 165.179 455.271 164.648C453.842 176.005 449.459 185.639 442.486 194.662C446.957 197.11 450.941 200.472 455.663 202.488C458.518 203.706 462.131 203.559 464.662 205.282C464.865 206.129 465.027 206.24 464.683 207.105C462.343 212.983 451.523 220.397 445.789 223.03C444.343 214.612 441.43 207.544 438.373 199.605C429.294 206.536 420.958 209.797 409.749 211.771C410.775 221 414.211 227.21 419.912 234.35C418.188 234.983 416.39 235.419 414.618 235.899C407.406 237.447 398.487 237.243 391.667 234.295C396.817 226.832 400.408 221.227 400.761 211.86C390.234 209.599 382.113 206.284 373.087 200.323C369.206 207.96 366.48 214.167 365.242 222.732C359.477 219.631 354.44 216.17 349.644 211.653C348.316 210.403 346.923 208.955 346.993 207.012C347.113 203.668 358.059 200.682 360.976 199.129C363.261 197.912 365.223 196.367 367.186 194.701C359.767 183.872 356.795 175.097 355.502 162.074C346.493 165.643 339.92 166.961 332.553 173.858C328.605 163.885 328.655 154.303 331.724 144.16C333.415 145.674 335.097 147.262 336.898 148.643C342.406 152.866 348.394 154.251 355.231 153.376C357.404 142.49 360.487 133.955 367.971 125.531C359.383 119.484 354.366 117.625 344.003 115.888C348.988 106.941 355.916 99.2496 365.227 94.7448L365.171 95.7157C364.647 105.763 367.153 112.225 373.793 119.628C381.429 113.297 390.662 109.571 400.431 108.277C399.936 98.2616 396.558 92.3432 389.614 85.4203C392.76 84.4399 395.709 83.6148 398.981 83.1668Z"/>
	<path fill="#FEFEFE" d="M403.598 148.605C404.679 148.575 405.809 148.526 406.867 148.783C408.801 149.251 410.524 150.471 411.525 152.199C412.462 153.814 412.571 155.753 411.972 157.508C411.105 160.054 409.323 161.109 407.032 162.269C405.975 162.33 405.069 162.307 404.033 162.06C402.102 161.601 400.326 160.526 399.348 158.751C398.509 157.226 398.419 155.365 398.895 153.708C399.649 151.085 401.36 149.95 403.598 148.605Z"/>
	<path fill="#FEFEFE" d="M409.36 112.063C410.933 111.997 412.688 112.192 414.171 112.742C416.703 113.68 418.857 115.546 419.989 118.016Q420.213 118.497 420.384 118.999Q420.555 119.501 420.672 120.019Q420.788 120.536 420.849 121.063Q420.909 121.59 420.913 122.121Q420.916 122.651 420.863 123.179Q420.81 123.707 420.701 124.226Q420.592 124.745 420.427 125.25Q420.263 125.754 420.046 126.238C418.57 129.593 415.952 131.265 412.628 132.475C410.477 132.558 408.457 132.478 406.471 131.552C404.039 130.418 402.066 128.37 401.176 125.822Q401.015 125.352 400.901 124.869Q400.787 124.385 400.721 123.893Q400.655 123.401 400.638 122.904Q400.62 122.408 400.652 121.912Q400.683 121.417 400.763 120.927Q400.842 120.436 400.97 119.956Q401.097 119.476 401.271 119.011Q401.445 118.546 401.664 118.1C403.318 114.713 405.887 113.171 409.36 112.063Z"/>
	<path fill="#FEFEFE" d="M408.446 186.183C410.22 186.253 412.022 186.65 413.776 186.93C416.017 188.623 417.957 190.499 418.869 193.226C419.826 196.084 419.671 199.214 418.2 201.874C416.363 205.195 413.498 206.67 409.995 207.73C407.655 207.664 405.575 207.549 403.502 206.343C400.85 204.8 398.889 202.362 398.209 199.345Q398.082 198.804 398.012 198.253Q397.943 197.702 397.931 197.147Q397.919 196.592 397.966 196.038Q398.013 195.485 398.117 194.939Q398.221 194.394 398.382 193.862Q398.543 193.33 398.759 192.818Q398.974 192.307 399.242 191.82Q399.51 191.334 399.828 190.878C401.994 187.804 404.858 186.722 408.446 186.183Z"/>
	<path fill="#FEFEFE" d="M369.465 143.119C371.544 142.945 373.582 142.722 375.596 143.398Q376.082 143.561 376.549 143.772Q377.016 143.983 377.46 144.239Q377.904 144.495 378.32 144.793Q378.737 145.092 379.122 145.43Q379.507 145.769 379.856 146.143Q380.206 146.518 380.517 146.925Q380.828 147.333 381.097 147.769Q381.365 148.205 381.59 148.666C382.889 151.375 382.93 154.587 381.865 157.38C380.423 161.162 377.644 163.22 374.039 164.751C372.161 164.81 370.308 164.805 368.502 164.212C365.732 163.303 363.313 161.18 362.105 158.524Q361.87 158.01 361.69 157.473Q361.51 156.937 361.388 156.385Q361.265 155.833 361.201 155.271Q361.137 154.709 361.132 154.143Q361.128 153.578 361.182 153.015Q361.237 152.452 361.35 151.898Q361.464 151.344 361.635 150.804Q361.805 150.265 362.032 149.747C363.506 146.37 366.17 144.51 369.465 143.119Z"/>
	<path fill="#FEFEFE" d="M434.485 154.21C436.421 153.957 438.341 153.733 440.269 154.177C443.16 154.843 445.809 156.986 447.229 159.565C448.671 162.185 448.998 165.411 448.011 168.244C446.751 171.858 444.059 173.715 440.754 175.323C438.406 175.761 436.378 176.038 434.063 175.273Q433.578 175.11 433.112 174.9Q432.645 174.69 432.202 174.435Q431.759 174.18 431.343 173.882Q430.927 173.584 430.543 173.246Q430.159 172.909 429.81 172.535Q429.462 172.161 429.152 171.754Q428.842 171.347 428.574 170.912Q428.306 170.476 428.082 170.016Q427.833 169.502 427.635 168.967Q427.438 168.431 427.294 167.878Q427.151 167.326 427.063 166.762Q426.975 166.198 426.943 165.628Q426.911 165.058 426.936 164.487Q426.961 163.917 427.042 163.352Q427.122 162.787 427.259 162.232Q427.395 161.678 427.586 161.14C428.833 157.617 431.197 155.73 434.485 154.21Z"/>
	<path fill="#ED3434" d="M919.04 443.631C917.048 435.941 912.582 431.922 910.83 425.997C910.511 424.921 910.418 423.613 911.074 422.645C912.471 420.584 915.572 420.146 917.86 419.855C923.025 419.2 933.454 418.199 937.736 421.527C940.025 426.247 933.167 432.466 931.038 436.585C930.016 438.563 929.668 440.892 929.266 443.063C939.362 444.297 948.158 449.326 956.198 455.255C959.451 448.183 962.039 441.136 964.307 433.703C970.922 436.857 982.54 445.945 984.983 452.792C984.759 454.036 984.805 454.39 983.48 454.911C982.055 455.472 980.216 455.642 978.711 456.012C973.238 457.356 968.542 459.287 964.425 463.263L963.936 463.745C970.647 472.678 973.594 480.664 974.844 491.823C984.839 491.363 985.646 487.697 993.393 483.808C994.667 483.168 995.274 483.239 996.583 483.663C997.93 485.373 998.127 487.217 998.306 489.332C998.696 493.937 999.542 504.784 996.459 508.481C992.812 509.712 986.9 504.897 983.252 503.559C980.556 502.57 977.541 502.203 974.718 501.719Q974.363 504.115 973.963 506.503C972.581 514.654 968.226 526.191 961.217 531.139L961.605 531.537C964.143 534.094 967.27 536.666 970.706 537.869C974.151 539.076 983.293 538.407 985.303 541.066C984.955 544.92 978.39 550.5 975.415 552.986C971.518 556.242 967.355 558.747 962.708 560.767C963.576 553.398 964.397 546.465 959.433 540.243C958.388 538.933 957.288 537.565 955.943 536.56C951.49 542.129 938.004 547.025 931.082 548.458L929.976 549.062C926.44 558.679 937.149 565.965 938.309 570.821L937.52 571.765C930.007 574.727 916.752 573.016 909.162 570.192C915.383 563.178 918.675 557.645 918.512 547.918C911.87 548.836 899.655 541.93 894.109 538.56C883.948 545.907 887.223 551.001 882.162 557.678C881.118 558.172 880.848 558.389 879.673 558.084C874.252 556.677 864.636 544.211 861.683 539.433C871.528 538.705 878.367 538.186 885.76 530.828C880.878 525.262 876.154 516.453 874.593 509.227C874.205 507.432 873.909 504.081 872.608 502.769C872.033 502.189 870.698 501.976 869.9 502.043C863.594 502.575 857.211 509.033 853.161 513.344C852.658 512.177 852.218 510.997 851.803 509.797C848.47 500.172 847.853 489.736 852.387 480.385C858.996 486.247 863.64 489.382 872.62 490.229C874.91 480.109 877.733 470.577 885.084 462.897C876.731 456.931 872.101 455.055 861.76 454.233C861.977 453.645 862.203 453.063 862.475 452.498C866.332 444.475 876.052 436.829 884.265 433.837C884.181 436.509 884.254 439.148 884.684 441.789C885.606 447.462 887.745 451.552 892.446 454.935C900.781 448.686 908.816 445.415 919.04 443.631Z"/>
	<path fill="#FEFEFE" d="M922.065 481.153C923.414 481.003 924.833 480.799 926.187 480.982C928.324 481.271 930.338 482.596 931.57 484.348C932.845 486.16 933.261 488.341 932.728 490.494C932.004 493.415 930.34 494.846 927.867 496.365C926.448 496.511 925.01 496.628 923.591 496.415C921.472 496.096 919.44 494.651 918.265 492.88Q918.059 492.567 917.887 492.234Q917.714 491.902 917.576 491.554Q917.438 491.206 917.335 490.845Q917.233 490.485 917.168 490.116Q917.103 489.747 917.076 489.373Q917.049 489 917.06 488.625Q917.07 488.251 917.119 487.879Q917.168 487.508 917.254 487.143C917.912 484.244 919.649 482.685 922.065 481.153Z"/>
	<path fill="#FEFEFE" d="M887.046 480.166C888.604 479.975 890.203 479.848 891.766 480.059C894.542 480.432 897.26 482.21 898.785 484.544Q899.062 484.971 899.295 485.425Q899.527 485.878 899.712 486.353Q899.897 486.828 900.033 487.319Q900.169 487.81 900.254 488.312Q900.339 488.815 900.372 489.323Q900.405 489.832 900.386 490.341Q900.367 490.85 900.296 491.355Q900.226 491.859 900.104 492.354C899.201 496.112 896.644 498.399 893.412 500.241C891.527 500.484 889.432 500.699 887.563 500.267C884.829 499.634 882.289 497.541 881 495.072Q880.76 494.608 880.567 494.122Q880.374 493.637 880.23 493.134Q880.086 492.632 879.992 492.118Q879.898 491.604 879.856 491.083Q879.813 490.562 879.823 490.039Q879.832 489.517 879.893 488.998Q879.954 488.479 880.065 487.968Q880.177 487.458 880.339 486.961C881.474 483.572 883.904 481.614 887.046 480.166Z"/>
	<path fill="#FEFEFE" d="M955.694 491.169C958.074 491.087 960.159 491.221 962.265 492.449C965.65 494.424 966.755 497.866 967.716 501.411C967.278 503.309 966.832 505.191 965.951 506.942C964.329 510.163 961.858 511.367 958.563 512.445C956.68 512.439 954.973 512.255 953.21 511.544C950.472 510.441 948.224 508.197 947.243 505.399C946.299 502.703 946.601 499.612 947.924 497.092C949.647 493.81 952.251 492.206 955.694 491.169Z"/>
	<path fill="#FEFEFE" d="M926.165 447.586C928.438 447.466 930.493 447.47 932.628 448.366C935.425 449.541 937.774 451.909 938.85 454.752Q939.03 455.215 939.161 455.693Q939.293 456.171 939.375 456.661Q939.458 457.15 939.49 457.645Q939.522 458.14 939.503 458.636Q939.485 459.132 939.416 459.624Q939.347 460.115 939.228 460.597Q939.11 461.079 938.943 461.546Q938.776 462.013 938.562 462.461C936.94 465.827 934.091 467.251 930.726 468.454C929.062 468.647 927.239 468.706 925.625 468.197C922.791 467.303 920.29 465.077 919.007 462.409C917.807 459.911 917.627 457.065 918.609 454.467C919.985 450.827 922.751 449.096 926.165 447.586Z"/>
	<path fill="#FEFEFE" d="M928.41 521.647C930.102 521.751 931.859 522.137 933.375 522.918C935.861 524.198 937.714 526.187 938.502 528.898Q938.655 529.432 938.755 529.979Q938.855 530.526 938.9 531.08Q938.946 531.634 938.937 532.19Q938.929 532.745 938.865 533.297Q938.802 533.85 938.685 534.393Q938.568 534.936 938.398 535.466Q938.229 535.995 938.008 536.505Q937.787 537.015 937.517 537.501C935.445 541.273 932.724 542.361 928.833 543.545C926.948 543.423 925.272 543.268 923.54 542.436C920.833 541.135 918.771 538.877 917.932 535.971Q917.776 535.426 917.678 534.867Q917.581 534.308 917.542 533.742Q917.504 533.176 917.525 532.61Q917.546 532.043 917.626 531.481Q917.707 530.92 917.846 530.37Q917.984 529.82 918.18 529.288Q918.376 528.755 918.627 528.247Q918.877 527.738 919.18 527.258C921.421 523.697 924.45 522.497 928.41 521.647Z"/>
	<path fill="#ED3434" d="M657.282 81.6475C666.024 80.4536 674.712 81.6103 683.13 84.0024C676.87 91.2851 672.357 95.6695 670.627 105.645C680.212 107.746 688.281 111.434 695.975 117.567C701.063 110.581 703.244 102.431 705.363 94.1866C711.619 98.4161 723.228 107.143 725.487 114.513C724.964 116.211 722.575 116.25 720.89 116.712C714.112 118.571 708.938 121.032 703.312 125.252C709.788 133.066 713.722 143.264 714.752 153.317C717.139 152.728 719.446 152.067 721.707 151.095C724.271 149.993 734.312 143.969 736.037 144.218C736.528 144.824 736.569 144.822 736.98 145.618C740.459 152.36 737.625 167.929 735.407 174.878C729.685 167.569 723.03 165.374 714.606 162.334C713.208 169.777 711.832 177.592 707.85 184.154C705.853 187.445 703.333 190.649 701.788 194.167C704.102 198.366 720.06 204.143 724.806 205.604C719.703 213.011 713.238 218.575 705.114 222.418C703.222 214.969 700.651 207.78 696.544 201.243C698.184 200.235 699.966 199.279 700.574 197.327C700.863 196.398 700.815 196.7 700.295 195.86C698.307 196.541 696.296 198.87 694.717 200.293C688.006 206.346 676.869 209.437 668.202 211.363C668.913 214.635 669.868 217.713 671.143 220.812C672.443 223.971 677.599 232.37 677.675 235.112L676.355 235.954C668.426 237.812 659.212 237.068 651.381 235.079C652.692 231.03 654.819 227.172 656.473 223.243C658.115 219.341 659.226 215.338 660.297 211.25C649.786 209.653 640.403 205.933 632.122 199.185C626.7 206.381 624.391 214.796 623.789 223.646C620.191 221.866 617.027 219.785 613.924 217.24C611.067 214.898 604.553 209.621 604.181 205.841C605.046 204.368 608.341 203.449 610.014 202.715C615.844 200.158 620.948 196.733 626.508 193.709C622.224 188.322 618.518 182.265 616.559 175.627C615.861 173.26 615.577 170.664 614.749 168.362C614.216 166.881 613.68 166.486 612.332 165.758C605.51 165.506 597.474 172.079 591.636 175.244C587.329 165.107 588.311 153.314 591.42 143.007C599.219 148.925 604.698 152.064 614.437 154.116C616.068 141.828 620.64 132.673 627.742 122.672C619.496 118.187 611.049 116.956 601.872 115.958C601.919 115.821 601.964 115.685 602.013 115.549C605.286 106.538 615.938 96.81 624.396 92.7459C626.542 102.784 627.561 108.333 633.291 117.093C637.134 113.604 642.247 110.743 647.151 109.052C650.11 108.032 655.332 107.505 657.617 105.592C658.331 104.994 658.619 104.42 658.767 103.534C659.722 97.7817 651.552 87.9658 648.266 83.4648C651.254 82.6622 654.228 82.1337 657.282 81.6475Z"/>
	<path fill="#FEFEFE" d="M662.531 146.6C663.605 146.525 664.757 146.404 665.824 146.575C667.617 146.863 669.326 148.034 670.351 149.515C671.303 150.889 671.56 152.539 671.253 154.168C670.733 156.925 668.914 158.333 666.692 159.797C665.668 159.944 664.662 160.076 663.625 160.02C661.955 159.931 660.392 159.236 659.314 157.932C658.246 156.64 657.904 154.926 658.121 153.291C658.54 150.144 660.14 148.507 662.531 146.6Z"/>
	<path fill="#FEFEFE" d="M697.314 154.626C698.774 154.634 700.158 154.774 701.518 155.343C704.036 156.397 706.03 158.251 706.986 160.835C708.055 163.726 707.743 166.852 706.382 169.583C704.811 172.734 702.505 174.029 699.273 175.109C697.548 174.892 695.747 174.681 694.162 173.93C691.777 172.802 689.826 170.767 688.965 168.254Q688.813 167.801 688.705 167.335Q688.598 166.868 688.537 166.394Q688.476 165.92 688.462 165.442Q688.448 164.964 688.481 164.487Q688.514 164.009 688.593 163.538Q688.673 163.066 688.798 162.605Q688.924 162.143 689.094 161.696Q689.264 161.249 689.477 160.821C691.148 157.397 693.858 155.855 697.314 154.626Z"/>
	<path fill="#FEFEFE" d="M666.178 186.649C668.316 186.558 670.29 186.44 672.301 187.285C675.1 188.46 677.294 190.64 678.353 193.502Q678.544 194.013 678.682 194.541Q678.82 195.069 678.905 195.608Q678.989 196.147 679.019 196.692Q679.049 197.237 679.023 197.782Q678.998 198.327 678.918 198.867Q678.838 199.406 678.704 199.935Q678.57 200.464 678.383 200.977Q678.196 201.49 677.959 201.981C676.371 205.221 673.773 206.757 670.441 207.789C668.217 207.832 665.966 207.406 663.765 207.107C661.689 205.366 659.805 203.864 658.64 201.335C657.452 198.758 657.255 195.746 658.418 193.128C659.955 189.666 662.822 188.023 666.178 186.649Z"/>
	<path fill="#FEFEFE" d="M668.032 110.62C670.087 110.646 671.862 111.046 673.685 112.018C676.313 113.42 678.205 115.663 678.996 118.55C679.807 121.514 679.398 124.593 677.769 127.207C675.748 130.448 672.927 131.627 669.344 132.481C667.243 132.385 665.335 132.128 663.464 131.102Q662.973 130.839 662.512 130.527Q662.05 130.215 661.623 129.858Q661.196 129.5 660.808 129.101Q660.42 128.702 660.075 128.264Q659.73 127.827 659.431 127.357Q659.133 126.887 658.884 126.389Q658.635 125.891 658.438 125.37Q658.242 124.849 658.1 124.31Q657.95 123.762 657.859 123.2Q657.768 122.639 657.738 122.072Q657.708 121.504 657.738 120.936Q657.769 120.368 657.86 119.807Q657.951 119.246 658.101 118.698Q658.251 118.15 658.46 117.621Q658.668 117.091 658.931 116.588Q659.194 116.084 659.51 115.611C661.594 112.489 664.494 111.358 668.032 110.62Z"/>
	<path fill="#FEFEFE" d="M631.296 141.171C633.083 141.338 634.763 141.499 636.385 142.326C639.07 143.695 641.08 145.941 641.929 148.853Q642.085 149.389 642.186 149.938Q642.286 150.487 642.329 151.043Q642.372 151.6 642.357 152.158Q642.343 152.716 642.271 153.269Q642.199 153.822 642.07 154.365Q641.941 154.908 641.757 155.435Q641.573 155.962 641.335 156.467Q641.097 156.972 640.809 157.45C638.69 161.001 635.542 162.458 631.655 163.322C629.501 163.204 627.547 162.748 625.732 161.542Q625.259 161.234 624.82 160.88Q624.381 160.526 623.979 160.13Q623.578 159.733 623.219 159.298Q622.859 158.864 622.546 158.395Q622.232 157.926 621.968 157.428Q621.703 156.929 621.49 156.407Q621.277 155.885 621.117 155.344Q620.958 154.802 620.854 154.248C620.273 151.261 620.895 148.239 622.685 145.772C624.897 142.723 627.707 141.736 631.296 141.171Z"/>
	<path fill="#ED3434" d="M304.389 262.707C304.548 262.692 304.706 262.674 304.865 262.663C326.131 261.225 346.249 268.101 362.506 281.826Q363.253 282.45 363.984 283.093Q364.716 283.736 365.431 284.397Q366.145 285.058 366.844 285.736Q367.542 286.415 368.223 287.111Q368.904 287.807 369.567 288.519Q370.231 289.232 370.876 289.961Q371.521 290.69 372.148 291.435Q372.775 292.18 373.384 292.94Q373.992 293.7 374.581 294.476Q375.169 295.251 375.739 296.041Q376.308 296.831 376.858 297.634Q377.407 298.438 377.936 299.255Q378.465 300.073 378.974 300.903Q379.483 301.733 379.97 302.576Q380.458 303.419 380.924 304.273Q381.391 305.128 381.836 305.994Q382.281 306.86 382.704 307.737Q383.127 308.614 383.528 309.501Q383.929 310.388 384.308 311.285Q384.687 312.182 385.043 313.088Q385.399 313.994 385.732 314.909Q386.066 315.824 386.376 316.746Q386.687 317.669 386.974 318.6Q387.262 319.53 387.526 320.467Q387.789 321.404 388.03 322.348Q388.27 323.291 388.487 324.24Q388.704 325.189 388.897 326.144Q389.09 327.098 389.259 328.057Q389.428 329.016 389.573 329.978Q389.718 330.941 389.839 331.907Q389.96 332.873 390.057 333.842Q390.154 334.811 390.226 335.782C391.765 355.327 384.766 376.422 372.01 391.268Q371.365 392.028 370.701 392.772Q370.037 393.517 369.354 394.244Q368.672 394.972 367.972 395.682Q367.273 396.393 366.555 397.086Q365.838 397.779 365.104 398.454Q364.37 399.129 363.619 399.785Q362.869 400.442 362.102 401.08Q361.335 401.718 360.553 402.337Q359.771 402.955 358.974 403.555Q358.177 404.154 357.365 404.733Q356.553 405.313 355.727 405.872Q354.902 406.431 354.062 406.97Q353.223 407.508 352.37 408.026Q351.518 408.544 350.653 409.04Q349.788 409.537 348.911 410.012Q348.034 410.487 347.146 410.94Q346.258 411.393 345.358 411.824Q344.459 412.255 343.549 412.664Q342.639 413.073 341.72 413.459Q340.8 413.845 339.872 414.208Q338.943 414.572 338.005 414.912Q337.068 415.252 336.122 415.569Q335.177 415.886 334.224 416.18Q333.27 416.473 332.31 416.743Q331.35 417.013 330.384 417.259Q329.417 417.505 328.445 417.727Q327.473 417.949 326.495 418.147Q325.518 418.346 324.536 418.519Q323.554 418.693 322.568 418.843Q321.582 418.992 320.592 419.117Q319.603 419.243 318.611 419.343Q317.618 419.444 316.624 419.52C295.913 421.331 274.025 415.129 257.982 401.755C242.14 388.55 231.782 370.024 230.008 349.396C228.227 328.689 234.195 307.134 247.721 291.167C262.249 274.017 282.109 264.525 304.389 262.707Z"/>
	<path fill="#FEFEFE" d="M304.8 271.702C321.88 270.679 338.614 274.753 352.329 285.233C367.475 296.805 378.477 312.64 380.919 331.801C383.262 350.19 378.652 368.381 367.156 383.011C354.83 398.699 336.681 408.044 317.124 410.424C298.325 411.826 278.436 406.666 263.576 394.771C249.742 383.697 240.575 366.541 238.713 348.981C236.736 330.341 241.988 312.846 253.779 298.264C266.862 282.083 284.372 273.816 304.8 271.702Z"/>
	<path fill="#ED3434" d="M768.73 263.213C786.636 262.054 805.304 267.875 819.635 278.579C836.335 291.054 848.351 308.446 851.297 329.359Q851.435 330.332 851.549 331.307Q851.663 332.283 851.752 333.261Q851.841 334.24 851.906 335.22Q851.971 336.2 852.011 337.182Q852.051 338.163 852.066 339.145Q852.082 340.127 852.073 341.11Q852.064 342.092 852.03 343.074Q851.996 344.056 851.938 345.036Q851.879 346.017 851.796 346.996Q851.713 347.974 851.606 348.951Q851.499 349.927 851.367 350.901Q851.235 351.874 851.078 352.844Q850.922 353.814 850.742 354.779Q850.561 355.745 850.356 356.706Q850.152 357.667 849.923 358.622Q849.694 359.577 849.442 360.527Q849.189 361.476 848.913 362.419Q848.637 363.361 848.337 364.297Q848.037 365.232 847.714 366.16Q847.391 367.087 847.044 368.007Q846.698 368.926 846.329 369.836Q845.959 370.746 845.567 371.647Q845.175 372.548 844.761 373.439Q844.346 374.329 843.91 375.209Q843.473 376.089 843.014 376.958Q842.556 377.827 842.076 378.684Q841.595 379.54 841.094 380.385Q840.592 381.23 840.07 382.062Q839.547 382.893 839.004 383.712Q838.461 384.53 837.897 385.335Q837.333 386.139 836.75 386.93Q836.166 387.72 835.563 388.495C819.467 409.423 799.857 416.752 774.541 419.955C752.402 421.058 730.839 413.941 714.372 398.945Q713.016 397.705 711.722 396.401Q710.428 395.096 709.2 393.73Q707.971 392.363 706.811 390.938Q705.651 389.513 704.563 388.033Q703.474 386.553 702.459 385.022Q701.444 383.49 700.505 381.911Q699.566 380.331 698.706 378.707Q697.846 377.084 697.066 375.42Q696.286 373.756 695.589 372.056Q694.892 370.356 694.279 368.624Q693.666 366.892 693.138 365.132Q692.611 363.372 692.17 361.588Q691.729 359.805 691.376 358.001Q691.023 356.198 690.759 354.38Q690.495 352.562 690.321 350.733Q690.146 348.903 690.061 347.068Q690.023 346.087 690.009 345.106Q689.996 344.124 690.006 343.143Q690.016 342.161 690.051 341.18Q690.086 340.199 690.144 339.219Q690.203 338.24 690.286 337.261Q690.369 336.283 690.476 335.308Q690.583 334.332 690.714 333.359Q690.845 332.386 691 331.417Q691.155 330.448 691.333 329.482Q691.512 328.517 691.714 327.557Q691.917 326.596 692.143 325.641Q692.369 324.686 692.618 323.737Q692.868 322.787 693.141 321.844Q693.414 320.901 693.709 319.965Q694.005 319.03 694.324 318.101Q694.643 317.173 694.985 316.253Q695.327 315.333 695.691 314.421Q696.055 313.509 696.442 312.607Q696.828 311.705 697.237 310.812Q697.646 309.92 698.076 309.038Q698.507 308.156 698.959 307.285Q699.411 306.413 699.884 305.553Q700.358 304.694 700.852 303.846Q701.347 302.998 701.862 302.162Q702.377 301.327 702.913 300.504Q703.449 299.682 704.004 298.872Q704.56 298.063 705.136 297.268Q705.711 296.473 706.306 295.692Q706.901 294.912 707.515 294.146Q708.129 293.38 708.762 292.629Q709.394 291.879 710.045 291.144Q710.696 290.409 711.365 289.691C726.592 273.15 746.298 264.209 768.73 263.213Z"/>
	<path fill="#FEFEFE" d="M768.331 272.234C786.255 272.064 802.318 276.157 816.596 287.42C830.908 298.71 840.873 316.437 842.977 334.557C845.052 352.415 839.431 369.848 828.311 383.824C814.443 401.254 795.12 409.398 773.483 411.95C754.055 412.466 735.159 406.402 720.58 393.208Q719.359 392.094 718.195 390.921Q717.031 389.747 715.926 388.518Q714.821 387.289 713.778 386.006Q712.736 384.724 711.758 383.391Q710.78 382.059 709.869 380.68Q708.958 379.3 708.116 377.878Q707.275 376.455 706.504 374.993Q705.734 373.53 705.037 372.032Q704.34 370.533 703.718 369.002Q703.096 367.47 702.551 365.91Q702.005 364.35 701.537 362.765Q701.069 361.179 700.681 359.573Q700.292 357.967 699.983 356.343Q699.674 354.719 699.446 353.082Q699.217 351.445 699.07 349.799Q698.923 348.153 698.858 346.501C698.009 327.567 704.931 309.619 717.685 295.67C730.817 281.307 748.95 273.156 768.331 272.234Z"/>
	<path fill="#010101" d="M815.563 302.839C816.522 303.35 816.303 303.289 816.621 304.235C814.5 308.408 755.522 366.75 747.483 373.034C737.348 363.009 728.141 351.178 717.26 342.061C716.692 340.848 716.631 340.713 716.82 339.395L717.439 339.127C722.975 342.501 741.855 363.911 747.651 370.001C756.614 362.365 764.851 353.845 773.177 345.531L815.563 302.839Z"/>
	<path fill="#010101" d="M370.044 554.354C370.032 541.815 369.746 529.199 370.835 516.695C374.973 469.171 393.24 424.852 427.156 390.889C455.753 362.252 493.339 345.813 533.912 345.793C575.935 345.772 615.199 363.879 644.698 393.375C674.801 423.473 689.965 458.422 697.299 499.886Q729.003 500.098 760.707 499.965C771.153 499.959 783.206 498.775 793.439 500.904C800.346 502.341 806.527 505.37 811.465 510.466Q812.439 511.475 813.327 512.562Q814.215 513.648 815.011 514.804Q815.806 515.96 816.503 517.177Q817.201 518.395 817.795 519.666Q818.39 520.937 818.877 522.252Q819.365 523.568 819.743 524.919Q820.12 526.27 820.385 527.648Q820.65 529.026 820.8 530.421C821.422 535.953 821.14 541.706 821.109 547.271L821.018 574.288L821.179 670.392L821.118 805.564Q821.503 869.81 820.912 934.054C832.26 934.035 929.25 932.941 932.579 934.715L932.268 935.453C926.861 936.707 919.495 935.847 913.87 935.836L877.009 935.784L721.456 935.914L97.9249 936.01C95.2914 936.011 89.7745 936.714 87.5876 935.419L87.3103 935.014C88.4781 934.001 90.0587 933.963 91.5777 933.895C101.731 933.435 112.106 934.098 122.285 934.099L188.921 934.041L199.547 746.722C183.015 744.036 169.097 736.757 159.171 722.925C150.778 711.227 146.425 696.151 148.87 681.822C150.635 671.475 155.966 655.546 162.95 647.573L163.821 647.368C169.912 634.099 177.005 621.141 183.47 608.036C189.069 596.685 197.17 577.304 204.615 567.827C209.058 562.171 214.942 557.419 221.564 554.564C225.554 552.845 229.556 552.101 233.872 551.762C241.758 551.143 249.833 551.433 257.746 551.458L296.58 551.588L334.751 551.522C341.965 551.501 349.326 551.196 356.521 551.659C361.13 551.955 365.73 552.654 370.044 554.354Z"/>
	<path fill="#FEFEFE" d="M399.06 744.461C402.982 742.552 407.183 741.264 411.157 739.454C422 734.515 429.276 726.438 436.692 717.377L437.202 717.588C433.727 728.039 428.323 735.709 418.327 740.732C412.04 743.891 406.052 744.745 399.06 744.461Z"/>
	<path fill="#FEFEFE" d="M583.38 474.502C584.308 474.475 585.616 474.347 586.507 474.624C587.827 475.034 588.753 475.949 589.279 477.207C590.875 481.022 589.424 486.779 587.903 490.516C586.106 494.932 584.131 497.993 579.662 499.858L573.461 500.465Q573.359 490.136 573.481 479.807C576.637 477.495 579.629 475.681 583.38 474.502Z"/>
	<path fill="#FEFEFE" d="M467.051 474.463C472.569 473.838 476.073 477.703 481.045 479.146Q481.249 480.326 481.407 481.514C481.962 485.723 482.81 497.206 480.349 500.436C477.16 499.962 474.12 499.385 471.013 498.517Q470.49 497.995 469.985 497.455C466.182 493.362 464.017 486.103 464.304 480.573C464.45 477.754 464.946 476.382 467.051 474.463Z"/>
	<path fill="#FEFEFE" d="M524.054 484.055C535.738 483.614 557.79 492.865 570.95 495.657L570.867 502.49C557.747 497.293 543.588 493.558 530.044 489.586C520.774 487.681 493.312 499.15 483.296 502.949C483.377 500.684 483.646 498.433 483.879 496.18Q503.916 489.949 524.054 484.055Z"/>
	<path fill="#FEFEFE" d="M419.348 743.032L419.732 743.347C419.805 746.807 418.692 750.6 418.077 754.009C417.157 759.105 416.545 764.028 416.464 769.214C407.57 769.261 392.856 770.305 384.632 768.807C384.368 761.184 383.801 753.568 383.484 745.945C397.657 745.537 405.486 748.814 419.348 743.032Z"/>
	<path fill="#FEFEFE" d="M291.265 828.327C293.06 833.377 293.145 844.934 293.678 850.991Q297.402 892.535 299.821 934.175L293.476 934.134L284.256 934.172C284.629 919.277 286.317 904.308 287.231 889.425C288.479 869.115 289.103 848.557 291.265 828.327Z"/>
	<path fill="#FEFEFE" d="M556.361 539.457C558.198 541.284 559.271 544.272 560.319 546.616C548.894 558.217 538.095 570.431 526.936 582.301C520.53 576.187 514.927 569.225 508.953 562.687Q502.556 555.909 495.993 549.292C497.631 546.666 499.051 544.012 499.881 541.02C506.954 546.697 515.229 551.775 524.469 552.517C536.737 553.502 547.34 547.078 556.361 539.457Z"/>
	<path fill="#FEFEFE" d="M691.319 727.46C692.589 729.694 691.664 764.048 691.649 769.514L642.787 769.392L641.171 763.377Q638.694 753.377 637.236 743.179C647.906 747.83 658.211 749.961 669.613 746.37C679.601 743.223 686.577 736.634 691.319 727.46Z"/>
	<path fill="#FEFEFE" d="M523.048 446.12L524.696 446.161C526.096 448.298 525.39 475.964 525.49 481.006L486.608 493.032C485.734 493.381 485.396 493.436 484.493 493.464C482.729 489.513 484.09 472.303 484.588 467.075C490.959 460.639 514.23 447.646 523.048 446.12Z"/>
	<path fill="#FEFEFE" d="M527.631 445.717C536.455 446.494 564.362 460.777 570.476 467.117C570.736 475.781 570.901 484.411 570.761 493.079C565.002 492.46 558.746 490.106 553.171 488.444Q540.622 484.58 527.927 481.224Q527.474 463.473 527.631 445.717Z"/>
	<path fill="#5C6FB5" d="M524.391 491.627C525.743 491.361 526.872 491.362 528.214 491.64C536.035 493.259 543.831 496.291 551.48 498.642C557.669 500.544 564.251 501.944 570.211 504.427C569.879 508.531 569.837 514.698 566.968 517.83C565.922 518.255 564.612 518.669 563.827 519.497C560.794 522.698 559.229 532.041 555.775 536.368C549.861 543.773 538.346 549.094 529.123 550.347C517.356 550.955 508.631 544.103 499.546 537.661C499.821 535.747 500.234 533.452 499.92 531.541C499.513 529.064 497.888 527.995 495.96 526.719C495.317 524.267 494.782 520.714 492.631 519.183C491.471 519.22 490.108 519.334 489.079 518.667C488.024 517.983 488.125 517.297 487.977 516.17C487.553 512.945 487.448 511.997 484.701 509.911C483.939 509.333 483.963 509.038 483.623 508.169C483.729 507.481 483.736 506.177 484.172 505.645C486.639 502.636 518.54 492.907 524.391 491.627Z"/>
	<path fill="#FEFEFE" d="M573.103 513.271C583.571 513.175 604.841 522.529 613.618 528.776C615.766 530.306 617.489 531.942 618.856 534.213C623.574 542.049 629.138 564.405 630.866 573.846C618.289 585.357 600.452 593.253 583.399 594.08C579.709 585.219 578.836 575.284 575.513 566.217C570.886 553.592 562.273 552.506 562.49 537.549C565.634 538.839 568.578 540.099 571.456 541.925C575.299 545.137 577.975 549.655 582.929 551.234L583.225 550.935C582.903 550.347 582.609 549.838 582.203 549.302C576.453 541.719 569.021 535.942 559.519 534.631C560.353 532.31 561.336 530.064 562.315 527.803C572.292 530.036 579.642 534.706 587.542 540.942C589.186 542.24 590.195 543.325 592.431 543.064L592.505 542.027C587.632 535.126 571.54 527.227 563.254 525.383C563.806 523.845 564.305 522.563 565.26 521.229C579.564 517.372 595.416 534.839 601.891 534.587L601.856 533.729C597.855 528.832 586.953 522.778 580.878 520.741C577.831 519.72 574.562 519.549 571.64 518.174C571.454 516.46 572.422 514.812 573.103 513.271Z"/>
	<path fill="#FEFEFE" d="M478.745 514.117C479.97 514.004 481.296 513.84 482.529 513.918C483.981 514.01 485.078 514.658 486.06 515.693C486.147 516.602 486.267 517.098 485.695 517.898C484.486 519.587 480.957 520.067 478.976 520.689C473.603 522.377 457.138 529.173 454.701 533.826L455.426 534.924L456.566 534.951C459.848 532.711 463.313 530.666 466.782 528.73C473.055 525.23 484.353 519.544 491.596 521.584C492.891 522.778 493.265 524.609 493.795 526.239Q493.182 526.357 492.57 526.485C486.38 527.779 468.607 536.318 465.679 541.522C465.263 542.262 465.519 542.429 465.748 543.166C469.292 543.465 484.577 528.658 495.205 529.08C496.045 529.483 496.524 529.769 497.061 530.577C497.785 531.665 498.07 532.802 497.697 534.067C497.54 534.601 492.755 535.724 491.746 536.237C486.176 539.068 477.39 545.365 475.533 551.384L475.878 552.024C478.705 550.876 482.504 546.237 484.853 544.082C487.55 541.86 491.832 538.387 495.356 537.916C496.304 537.79 496.394 537.831 497.177 538.413C498.574 544.121 484.859 559.031 481.841 564.781C479.958 568.367 475.475 588.171 474.194 593.438C455.514 594.016 441.208 584.476 426.158 574.604C429.438 561.367 430.051 546.864 438.22 535.395C445.324 525.422 467.03 516.074 478.745 514.117Z"/>
	<path fill="#FEFEFE" d="M407.864 604.546C407.952 604.362 408.042 604.178 408.128 603.992C411.067 597.647 415.159 578.428 420.463 575.346C421.665 575.267 422.082 575.241 423.185 575.807C426.438 577.475 429.545 579.966 432.617 581.975C438.487 585.814 444.841 589.254 451.368 591.834C458.56 594.677 465.478 595.984 473.194 596.061Q458.471 644.169 444.867 692.606C443.383 689.11 443.332 684.295 442.565 680.519C441.609 675.812 439.582 671.554 437.49 667.262C432.482 656.981 409.177 612.736 407.864 604.546Z"/>
	<path fill="#F7C11B" d="M480.332 580.877C481.137 586.12 480.624 592.22 480.653 597.552L480.619 637.076L480.544 769.004L419.122 769.072C418.534 760.152 421.683 750.147 422.792 741.243C428.085 737.53 432.642 733.283 435.72 727.512C442.146 715.465 444.947 700.34 448.716 687.246L470.995 612.035C474.091 601.842 476.498 590.771 480.332 580.877Z"/>
	<path fill="#F7C11B" d="M575.137 572.848C577.725 578.42 578.185 585.273 579.827 591.187C580.653 594.161 583.333 596.103 584.103 599.168C592.145 631.18 601.464 663.089 610.902 694.718C613.971 705.003 616.675 719.075 621.694 728.228C624.778 733.854 630.063 738.013 634.918 742.04C635.213 749.006 640.452 764.371 639.293 769.297L575.007 769.334L575.255 640.017Q575.052 616.682 575.16 593.347C575.159 586.52 574.808 579.667 575.137 572.848Z"/>
	<path fill="#FEFEFE" d="M633.19 575.902C638.009 578.366 680.264 652.245 691.542 665.069L691.594 697.844C691.585 705.334 692.389 713.883 690.572 721.165Q690.383 721.953 690.155 722.73Q689.927 723.508 689.661 724.273Q689.394 725.038 689.09 725.789Q688.785 726.54 688.444 727.274Q688.102 728.009 687.724 728.726Q687.346 729.442 686.933 730.139Q686.52 730.836 686.072 731.511Q685.624 732.186 685.143 732.839Q684.663 733.491 684.15 734.118Q683.637 734.745 683.093 735.346Q682.55 735.947 681.977 736.52Q681.404 737.092 680.803 737.636Q680.202 738.179 679.575 738.692Q678.948 739.205 678.296 739.686Q677.644 740.167 676.968 740.614Q676.293 741.062 675.596 741.475C667.201 746.358 656.646 747.111 647.377 744.656C644.086 743.566 640.793 742.267 637.777 740.55C631.918 737.215 626.773 732.31 623.604 726.321C618.636 716.935 616.195 704.387 613.102 694.09Q598.946 645.52 585.745 596.681C604.219 593.634 618.177 586.919 633.19 575.902Z"/>
	<path fill="#FEFEFE" d="M561.841 549.429C565.941 553.991 569.456 559.834 573.081 564.822Q572.329 605.459 572.671 646.102L572.644 769.077L483.063 769.123L483.043 746.75L483.058 627.722C483.099 607.193 482.693 586.589 483.333 566.072C486.499 560.96 491.037 556.29 494.531 551.303C498.476 556.041 503.201 560.265 507.473 564.718C514.099 571.624 520.473 578.799 526.919 585.874C538.849 573.982 549.227 560.674 561.841 549.429Z"/>
	<path fill="#F7C11B" d="M384.95 771.484L691.822 771.619L691.867 833.364C691.89 844.815 693.255 862.067 690.545 872.876C688.77 879.956 685.262 885.271 680.462 890.668C675.019 895.89 668.644 899.621 661.126 900.807C651.773 902.282 641.484 901.478 631.995 901.46L579.39 901.3L392.093 901.293C390.731 882.014 390.3 862.671 389.282 843.373L384.95 771.484Z"/>
	<path fill="#FEFEFE" d="M422.226 812.128C461.002 811.094 500.022 811.952 538.82 811.952L604.973 811.955C616.629 811.948 628.39 811.613 640.034 811.95C641.674 811.997 643.044 811.871 644.447 812.777C644.863 814.215 644.628 815.09 644.268 816.483L523.881 816.424C510.59 816.458 428.79 818.317 422.884 816.154C422.014 814.672 422.216 813.822 422.226 812.128Z"/>
	<path fill="#FEFEFE" d="M422.144 850.075C462.022 849.321 502.036 849.991 541.926 850L605.089 850.004C616.58 849.99 628.133 849.707 639.617 849.978C641.856 850.031 643.448 849.796 645.072 851.494C645.287 852.9 645.256 853.099 644.708 854.414C635.958 855.247 626.84 854.755 618.045 854.721L571.934 854.584L476.347 854.744C467.701 854.784 427.238 856.14 422.227 854.412C421.624 852.947 421.945 851.593 422.144 850.075Z"/>
	<path fill="#FEFEFE" d="M377.568 558.023C375.276 499.625 387.052 444.777 427.74 400.801C454.447 371.935 490.609 353.94 530.204 352.551C569.073 351.187 608.161 368.252 636.144 394.699C668.927 425.681 690.306 471.285 691.501 516.566C691.981 534.772 691.542 553.09 691.538 571.307L691.629 661.021C686.257 654.61 681.918 646.625 677.388 639.573L649.045 594.908C644.256 587.323 639.627 578.582 633.292 572.216C630.693 562.469 625.614 539.822 620.218 532.24C617.85 528.912 614.676 526.593 611.195 524.559C599.976 518.005 587.946 512.747 575.045 510.766C574.844 508.156 574.56 505.524 574.505 502.906C579.852 502.2 583.988 501.747 587.426 497.102C590.793 492.554 592.873 484.676 592.03 478.999C591.699 476.771 590.76 474.587 588.842 473.284C586.976 472.016 584.605 471.896 582.46 472.403C579.191 473.175 576.192 475.154 573.525 477.137C571.931 454.876 569.293 437.747 551.498 422.191C543.833 415.491 534.465 411.903 524.223 412.647C513.74 413.408 504.338 419.592 497.617 427.395C485.341 441.651 481.639 458.515 481.309 476.816C477.079 474.548 470.947 471.004 466.007 472.555C464.663 472.977 463.613 473.892 462.964 475.129C460.859 479.141 462.274 487.901 463.743 492.09C465.033 495.772 467.415 498.868 470.991 500.56C473.41 501.705 476.068 501.924 478.683 502.263C479.699 502.394 479.32 502.323 480.374 502.796C480.567 503.723 480.821 504.149 480.495 505.057C479.765 507.083 479.479 508.724 479.444 510.87C464.333 514.716 442.827 522.96 434.518 536.928C427.853 548.131 428.307 558.586 424.794 570.41C424.47 571.501 424.506 572.534 423.325 572.911C423.16 572.963 421.821 573.179 421.713 573.198C419.945 573.516 417.847 573.99 416.715 575.538C411.806 582.258 409.316 593.36 406.737 601.323C406.009 601.178 405.685 600.438 405.342 599.806C395.504 581.718 395.34 571.156 377.568 558.023Z"/>
	<path fill="#FEFEFE" d="M697.526 502.169C712.571 501.942 727.634 502.133 742.681 502.106C756.479 502.081 770.326 501.806 784.119 502.097C794.012 502.305 802.909 504.9 809.869 512.285C814.135 516.813 817.628 523.127 818.43 529.323C820.064 541.938 818.911 560.28 818.95 573.457L819.124 665.725L819.179 828.75Q819.545 881.371 818.928 933.989L512.75 934.34L393.529 934.062C393.402 925.542 392.863 916.989 392.479 908.475L580.597 908.438L630.74 908.489C640.171 908.548 650.17 909.305 659.547 908.282C671.166 907.016 681.434 900.338 688.607 891.301C694.192 884.265 697.267 876.337 698.264 867.43C699.114 859.848 698.837 852.064 698.838 844.443L698.907 813.261L698.816 694.194L698.925 569.141L698.722 533.349C698.643 522.905 698.735 512.562 697.526 502.169Z"/>
	<path fill="#5C6FB5" d="M162.95 647.573L163.821 647.368C169.912 634.099 177.005 621.141 183.47 608.036C189.069 596.685 197.17 577.304 204.615 567.827C209.058 562.171 214.942 557.419 221.564 554.564C225.554 552.845 229.556 552.101 233.872 551.762C241.758 551.143 249.833 551.433 257.746 551.458L296.58 551.588L334.751 551.522C341.965 551.501 349.326 551.196 356.521 551.659C361.13 551.955 365.73 552.654 370.044 554.354C372.314 555.947 375.032 556.921 377.568 558.023C395.34 571.156 395.504 581.718 405.342 599.806C405.685 600.438 406.009 601.178 406.737 601.323C406.987 602.482 407.129 603.58 407.864 604.546C409.177 612.736 432.482 656.981 437.49 667.262C439.582 671.554 441.609 675.812 442.565 680.519C443.332 684.295 443.383 689.11 444.867 692.606C443.182 700.535 440.809 710.349 437.202 717.588L436.692 717.377C429.276 726.438 422 734.515 411.157 739.454C407.183 741.264 402.982 742.552 399.06 744.461C393.955 744.54 388.312 743.445 383.136 743.174C382.014 729.293 381.481 715.323 380.571 701.42Q378.883 676.346 376.684 651.312C376.382 647.513 376.554 637.013 375.371 633.999C375.067 633.224 374.711 633.28 374.01 632.975L373.089 633.492C372.333 638.996 374.301 652.858 374.797 659.001Q376.985 684.913 378.566 710.87Q386.049 822.393 391.444 934.036L302.036 934.094C300.664 906.281 298.302 878.611 296.009 850.866C295.277 842.01 294.829 820.45 291.823 813.375L291.259 813.33C290.336 814.732 289.946 816.455 289.742 818.108C288.047 831.799 287.536 845.913 286.581 859.691L281.693 934.205C251.64 933.579 221.489 934.052 191.424 934.049C191.496 924.555 192.462 914.994 193.06 905.517L195.442 863.75L200.51 769.397Q202.774 734.036 204.459 698.643L206.655 654.502C206.946 649.115 207.904 643.327 207.683 637.984C207.607 636.148 207.365 634.076 206.006 632.774C204.443 634.923 200.393 731.197 199.81 744.106C192.472 743.196 186.047 741.522 179.549 737.884C160.531 727.237 147.377 703.793 151.137 681.781C152.42 674.268 155.712 665.86 158.861 658.956C159.85 656.788 163.354 650.984 163.282 648.748C163.269 648.341 163.061 647.964 162.95 647.573Z"/>
</svg>
