<?xml version="1.0" encoding="utf-8" ?>
<svg xmlns="http://www.w3.org/2000/svg" xmlns:xlink="http://www.w3.org/1999/xlink" width="1024" height="1024">
	<path fill="#FEFEFE" d="M0 0L1024 0L1024 1024L0 1024L0 0Z"/>
	<path fill="#010101" d="M351.517 450.073C352.12 450.233 352.716 450.493 353.301 450.71Q353.429 451.415 353.566 452.119C355.958 464.372 358.774 472.44 369.607 479.631Q370.442 480.181 371.303 480.689Q372.163 481.198 373.048 481.663Q373.933 482.129 374.839 482.55Q375.746 482.971 376.672 483.348Q377.598 483.724 378.542 484.054Q379.485 484.385 380.444 484.668Q381.402 484.952 382.374 485.188Q383.345 485.424 384.327 485.612Q385.309 485.801 386.298 485.94Q387.288 486.08 388.284 486.171Q389.279 486.262 390.278 486.304Q391.277 486.346 392.277 486.338Q393.276 486.331 394.274 486.275Q395.272 486.218 396.267 486.113Q397.261 486.008 398.248 485.853Q399.236 485.699 400.215 485.497C413.425 482.823 425.718 474.021 430.274 461.037C431.314 458.074 431.388 453.605 433.057 451.057L433.942 451.084L434.746 452.04C432.932 461.403 429.928 469.165 422.967 475.919Q422.189 476.675 421.375 477.391Q420.561 478.107 419.712 478.783Q418.864 479.458 417.983 480.09Q417.102 480.723 416.191 481.311Q415.279 481.899 414.34 482.441Q413.401 482.983 412.436 483.478Q411.472 483.974 410.483 484.421Q409.495 484.867 408.486 485.265Q407.477 485.662 406.45 486.009Q405.423 486.356 404.379 486.652Q403.336 486.948 402.279 487.192Q401.223 487.436 400.155 487.627Q399.088 487.818 398.012 487.957Q396.936 488.095 395.855 488.18Q394.774 488.265 393.69 488.296Q392.606 488.327 391.522 488.305C380.41 488.12 369.8 484.24 362.051 476.136C355.447 469.23 351.335 459.682 351.517 450.073Z"/>
	<path fill="#010101" d="M91.4903 590.661C91.9805 590.552 92.0642 590.523 92.6381 590.457C97.5144 589.895 102.721 590.262 107.634 590.243C118.92 590.201 131.368 588.757 140.907 596.104C149.26 602.537 149.744 610.705 151.199 620.206C152.405 628.081 157.063 635.269 163.471 639.943C170.484 645.059 179.378 646.784 187.892 645.243C196.367 643.709 205.419 637.002 209.386 629.478C210.985 626.445 211.68 622.895 213.649 620.086L214.252 620.146L214.516 621.365C211.999 629.721 207.843 636.905 200.511 641.892Q199.791 642.373 199.048 642.817Q198.305 643.261 197.54 643.668Q196.776 644.075 195.993 644.443Q195.209 644.812 194.408 645.141Q193.607 645.469 192.791 645.758Q191.975 646.047 191.145 646.294Q190.315 646.542 189.474 646.748Q188.633 646.954 187.783 647.118Q186.933 647.282 186.076 647.403Q185.219 647.525 184.356 647.603Q183.494 647.682 182.629 647.718Q181.764 647.753 180.898 647.746Q180.032 647.738 179.168 647.688Q178.304 647.638 177.443 647.544Q176.582 647.451 175.727 647.315Q174.872 647.178 174.025 647C161.89 644.49 152.414 634.507 149.689 622.512C148.051 615.306 148.439 608.396 144.015 602.002C135.356 589.486 114.563 592.06 101.475 592.097C98.8013 592.105 95.5409 592.44 92.9478 591.901C91.8801 591.679 92.0465 591.516 91.4903 590.661Z"/>
	<path fill="#4666C8" d="M598.673 570.129C608.343 565.564 618.661 563.421 629.056 567.171C638.229 570.48 643.646 577.992 647.457 586.57C654.023 601.351 658.489 626.438 675.597 632.742C682.93 635.444 691.831 635.05 698.868 631.69C709.145 626.782 714.059 616.371 717.566 606.135C720.834 596.596 723.51 584.906 730.299 577.132C735.574 570.663 743.29 567.475 751.447 566.663C759.655 565.845 768.683 567.839 775.152 573.133C795.787 590.017 787.751 637.751 827.837 634.715C835.803 634.111 843.261 630.001 848.423 623.956C866.003 603.369 857.727 569.543 894.442 566.383C904.18 565.545 912.784 567.687 920.281 574.144C937.988 589.392 935.984 617.279 955.293 631.642L954.72 632.633C937.443 624.864 935.183 590.677 921.228 576.828C914.899 570.547 906.585 567.637 897.739 567.783C858.322 568.434 867.871 606.667 847.768 627.041C841.499 633.395 833.132 636.653 824.237 636.613C787.471 636.449 794.526 594.486 776.042 576.252C770.319 570.607 761.94 567.904 753.979 568.058C744.465 568.242 737.429 571.901 730.939 578.725C719.183 595.346 720.137 623.054 699.911 632.993C692.631 636.571 683.172 637.191 675.51 634.477C655.968 627.556 653.304 601.298 645.244 585.072C641.529 577.593 635.524 570.692 627.359 568.099C618.224 565.198 607.488 567.153 599.117 571.473L598.673 570.129Z"/>
	<path fill="#010101" d="M176.091 485.196C182.646 485.112 188.63 486.278 194.239 489.768C200.969 493.955 206.477 501.365 208.47 509.062C209.238 512.03 209.471 515.129 210.196 518.106C211.986 525.46 218.147 532.269 224.507 536.085Q225.206 536.506 225.925 536.892Q226.643 537.278 227.381 537.628Q228.118 537.977 228.872 538.289Q229.626 538.602 230.394 538.876Q231.163 539.15 231.944 539.385Q232.725 539.621 233.517 539.817Q234.309 540.013 235.11 540.169Q235.911 540.326 236.718 540.442Q237.526 540.558 238.338 540.633Q239.151 540.709 239.966 540.744Q240.781 540.779 241.597 540.773Q242.413 540.767 243.227 540.72Q244.042 540.674 244.853 540.587Q245.664 540.499 246.47 540.372Q247.276 540.244 248.074 540.076Q248.873 539.909 249.662 539.701Q250.133 539.578 250.6 539.44Q251.066 539.302 251.529 539.15Q251.991 538.998 252.448 538.831Q252.906 538.664 253.357 538.483Q253.809 538.302 254.255 538.108Q254.701 537.913 255.141 537.704Q255.581 537.495 256.013 537.273Q256.446 537.05 256.872 536.815Q257.298 536.579 257.716 536.33Q258.134 536.081 258.545 535.819Q258.955 535.557 259.357 535.282Q259.758 535.008 260.152 534.721Q260.545 534.434 260.929 534.134Q261.312 533.835 261.687 533.524Q262.061 533.213 262.426 532.891Q262.79 532.568 263.144 532.234Q263.499 531.901 263.842 531.556Q264.186 531.211 264.519 530.856Q264.851 530.501 265.173 530.135Q265.494 529.77 265.804 529.395Q266.114 529.019 266.412 528.634Q266.71 528.25 266.996 527.856Q267.281 527.462 267.555 527.059Q267.828 526.656 268.089 526.245Q268.349 525.834 268.597 525.415Q268.845 524.996 269.079 524.57Q269.314 524.143 269.535 523.709Q269.756 523.276 269.963 522.836Q270.171 522.395 270.364 521.949Q270.558 521.502 270.737 521.05Q270.917 520.597 271.082 520.139Q271.247 519.682 271.398 519.219C273.087 514.075 274.087 508.423 276.956 503.769Q277.387 503.082 277.851 502.416Q278.314 501.751 278.81 501.109Q279.305 500.466 279.831 499.849Q280.357 499.231 280.912 498.64Q281.467 498.048 282.05 497.484Q282.633 496.92 283.243 496.386Q283.852 495.85 284.487 495.346Q285.122 494.841 285.781 494.367Q286.439 493.894 287.12 493.452Q287.801 493.011 288.502 492.604Q289.203 492.196 289.923 491.822Q290.643 491.449 291.38 491.111Q292.118 490.773 292.871 490.471Q293.623 490.169 294.39 489.904Q295.156 489.639 295.935 489.411Q296.713 489.183 297.502 488.993C312.86 485.197 329.776 493.266 336.407 507.704C339.116 513.601 339.551 520.257 342.846 525.937C345.4 530.339 349.197 533.735 353.519 536.338C361.017 540.853 370.087 541.825 378.507 539.613C390.044 536.582 400.453 526.261 402.224 514.184C402.637 511.369 401.799 505.786 403.097 503.534C403.211 503.622 403.338 503.696 403.438 503.8C404.792 505.21 404.674 507.694 404.598 509.485C404.187 519.193 400.17 528.029 392.894 534.508C386.114 540.545 376.268 543.274 367.298 542.709C355.537 541.969 343.756 534.321 339.232 523.23C335.937 515.152 335.627 507.756 329.427 500.906C323.57 494.436 315.687 490.578 306.943 490.219C294.194 489.697 282.511 496.421 277.27 508.166C272.588 518.657 273.119 525.848 263.869 534.345C256.833 540.809 248.262 543.109 238.875 542.771Q238.269 542.734 237.664 542.675Q237.06 542.616 236.458 542.535Q235.856 542.455 235.258 542.353Q234.659 542.251 234.064 542.127Q233.47 542.004 232.88 541.859Q232.29 541.715 231.706 541.549Q231.121 541.384 230.543 541.197Q229.965 541.011 229.395 540.804Q228.824 540.597 228.26 540.37Q227.697 540.142 227.143 539.895Q226.588 539.648 226.042 539.381Q225.497 539.114 224.961 538.828Q224.426 538.542 223.901 538.236Q223.376 537.931 222.862 537.607Q222.348 537.283 221.847 536.941Q221.345 536.599 220.856 536.239Q220.366 535.879 219.89 535.502Q219.414 535.125 218.952 534.732Q218.49 534.338 218.042 533.927Q217.594 533.517 217.161 533.091Q216.728 532.665 216.311 532.224Q215.894 531.783 215.492 531.327Q215.091 530.872 214.706 530.402Q214.321 529.932 213.954 529.449Q213.586 528.965 213.236 528.469Q212.886 527.973 212.554 527.465Q212.221 526.956 211.908 526.436Q211.594 525.916 211.299 525.385Q211.004 524.854 210.728 524.313Q210.452 523.772 210.196 523.222Q209.94 522.671 209.704 522.112Q209.467 521.552 209.251 520.985C205.659 511.43 206.551 504.275 198.737 496.149C193.312 490.509 185.954 487.51 178.179 487.368C170.456 487.227 162.967 489.695 157.429 495.242C145.776 506.914 148.611 525.074 148.664 540.145C162.282 542.58 173 549.824 177.378 563.342C180.107 571.767 179.99 577.358 186.994 583.99Q187.533 584.502 188.096 584.988Q188.66 585.473 189.246 585.93Q189.833 586.387 190.441 586.815Q191.049 587.242 191.677 587.64Q192.306 588.037 192.953 588.403Q193.6 588.769 194.264 589.103Q194.929 589.437 195.609 589.738Q196.289 590.039 196.982 590.306Q197.676 590.573 198.382 590.806Q199.088 591.039 199.805 591.237Q200.522 591.435 201.247 591.598Q201.973 591.76 202.706 591.887Q203.438 592.014 204.176 592.105Q204.914 592.195 205.656 592.25Q206.397 592.304 207.14 592.322Q207.884 592.34 208.627 592.322C220.958 591.924 231.552 584.135 235.875 572.615C236.775 570.216 237.136 566.364 238.795 564.58C239.269 565.292 239.42 565.352 239.47 566.267C239.751 571.364 235.183 579.82 231.935 583.609C226.394 590.073 217.858 593.768 209.432 594.284C196.551 595.072 183.814 587.446 178.67 575.585C173.243 563.068 175.598 553.565 160.888 546.068Q158.302 544.769 155.538 543.909Q152.774 543.05 149.907 542.653C141.185 541.395 93.8076 543.291 91.4525 541.229L91.6718 540.321C95.6087 539.144 138.634 539.991 146.61 539.986C146.944 525.113 143.901 507.34 154.549 495.225C160.227 488.765 167.681 485.858 176.091 485.196Z"/>
	<path fill="#010101" d="M857.248 692.132C863.266 691.447 869.608 692.484 874.877 695.531Q875.449 695.865 876.004 696.226Q876.558 696.587 877.094 696.975Q877.631 697.363 878.147 697.778Q878.663 698.192 879.159 698.631Q879.654 699.07 880.127 699.533Q880.6 699.996 881.05 700.482Q881.5 700.967 881.925 701.475Q882.35 701.982 882.75 702.51Q883.15 703.037 883.523 703.584Q883.896 704.131 884.242 704.695Q884.588 705.26 884.905 705.84Q885.223 706.421 885.511 707.017Q885.8 707.613 886.059 708.222Q886.318 708.831 886.546 709.452Q886.775 710.074 886.972 710.706Q887.17 711.337 887.336 711.978Q887.529 712.704 887.686 713.439Q887.843 714.174 887.963 714.916Q888.083 715.658 888.166 716.405Q888.249 717.152 888.294 717.902Q888.339 718.652 888.347 719.404Q888.355 720.155 888.325 720.906Q888.295 721.657 888.228 722.405Q888.161 723.154 888.056 723.898Q887.952 724.642 887.81 725.38Q887.668 726.118 887.49 726.848Q887.312 727.578 887.097 728.299Q886.883 729.019 886.632 729.728Q886.382 730.436 886.097 731.131Q885.811 731.826 885.491 732.507Q885.172 733.187 884.818 733.85Q884.465 734.513 884.079 735.158C879.642 742.454 872.963 746.034 864.939 747.871C857.75 748.805 851.16 747.619 845.116 743.419Q844.511 742.999 843.928 742.549Q843.346 742.099 842.786 741.62Q842.227 741.142 841.692 740.635Q841.158 740.129 840.65 739.596Q840.141 739.063 839.661 738.505Q839.18 737.948 838.728 737.366Q838.276 736.785 837.854 736.181Q837.432 735.578 837.041 734.954Q836.65 734.33 836.291 733.687Q835.932 733.044 835.606 732.384Q835.28 731.724 834.988 731.048Q834.696 730.372 834.438 729.683Q834.18 728.993 833.958 728.291Q833.735 727.589 833.548 726.877Q833.361 726.165 833.211 725.444Q833.06 724.723 832.946 723.996C831.803 716.682 833.817 708.797 838.252 702.873C843.036 696.483 849.544 693.367 857.248 692.132Z"/>
	<path fill="#FEFEFE" d="M857.479 694.149C863.543 693.631 869.358 694.704 874.539 698.043Q875.082 698.393 875.606 698.771Q876.131 699.148 876.636 699.552Q877.14 699.955 877.624 700.384Q878.107 700.812 878.568 701.265Q879.029 701.718 879.467 702.193Q879.905 702.669 880.317 703.166Q880.73 703.663 881.117 704.18Q881.504 704.697 881.865 705.234Q882.225 705.77 882.558 706.324Q882.89 706.878 883.195 707.448Q883.499 708.018 883.773 708.603Q884.048 709.188 884.293 709.786Q884.538 710.384 884.752 710.993Q884.966 711.603 885.149 712.223Q885.332 712.842 885.483 713.471Q885.634 714.099 885.753 714.734Q885.876 715.379 885.967 716.03Q886.058 716.68 886.117 717.335Q886.176 717.989 886.203 718.645Q886.23 719.301 886.225 719.958Q886.219 720.615 886.182 721.271Q886.144 721.927 886.074 722.58Q886.004 723.233 885.902 723.882Q885.8 724.531 885.667 725.174Q885.533 725.817 885.368 726.453Q885.203 727.088 885.007 727.715Q884.811 728.342 884.585 728.959Q884.358 729.575 884.101 730.18Q883.845 730.785 883.559 731.376Q883.273 731.967 882.958 732.544Q882.643 733.12 882.301 733.681Q881.958 734.241 881.588 734.784C877.255 741.061 870.978 744.501 863.621 745.89C857.745 746.489 852.484 745.445 847.477 742.199Q846.899 741.829 846.34 741.43Q845.781 741.031 845.242 740.605Q844.704 740.178 844.188 739.726Q843.671 739.273 843.179 738.794Q842.686 738.316 842.218 737.814Q841.75 737.311 841.307 736.786Q840.865 736.261 840.449 735.714Q840.034 735.167 839.647 734.6Q839.259 734.033 838.901 733.447Q838.542 732.862 838.214 732.259Q837.885 731.656 837.587 731.037Q837.29 730.418 837.023 729.785Q836.757 729.152 836.523 728.507Q836.288 727.861 836.087 727.205Q835.885 726.548 835.717 725.882Q835.549 725.216 835.414 724.543Q835.296 723.909 835.21 723.27Q835.124 722.632 835.069 721.989Q835.015 721.347 834.992 720.703Q834.969 720.059 834.978 719.414Q834.987 718.769 835.028 718.126Q835.069 717.483 835.141 716.842Q835.214 716.202 835.318 715.566Q835.422 714.929 835.557 714.299Q835.693 713.669 835.859 713.046Q836.025 712.423 836.222 711.81Q836.419 711.196 836.646 710.592Q836.873 709.989 837.129 709.398Q837.386 708.806 837.671 708.228Q837.956 707.65 838.27 707.087Q838.584 706.524 838.924 705.977Q839.265 705.43 839.633 704.9C843.955 698.704 850.176 695.415 857.479 694.149Z"/>
	<path fill="#010101" d="M147.299 690.659C153.887 690.248 160.387 691.492 165.91 695.284Q166.524 695.709 167.117 696.165Q167.709 696.621 168.277 697.107Q168.845 697.592 169.388 698.106Q169.932 698.619 170.448 699.16Q170.964 699.7 171.453 700.266Q171.941 700.832 172.4 701.421Q172.859 702.011 173.288 702.623Q173.716 703.236 174.113 703.869Q174.51 704.502 174.875 705.155Q175.239 705.807 175.57 706.477Q175.901 707.147 176.198 707.833Q176.495 708.519 176.756 709.219Q177.018 709.919 177.244 710.632Q177.469 711.344 177.659 712.067Q177.848 712.79 178.001 713.522Q178.154 714.254 178.269 714.992Q178.374 715.689 178.444 716.391Q178.515 717.093 178.551 717.797Q178.588 718.501 178.589 719.207Q178.591 719.912 178.559 720.616Q178.526 721.321 178.459 722.023Q178.392 722.725 178.291 723.423Q178.19 724.121 178.055 724.813Q177.919 725.505 177.751 726.19Q177.582 726.875 177.38 727.55Q177.178 728.226 176.943 728.891Q176.708 729.556 176.441 730.209Q176.174 730.862 175.876 731.501Q175.577 732.139 175.248 732.763Q174.918 733.387 174.559 733.993Q174.199 734.6 173.811 735.189Q173.422 735.777 173.005 736.346C168.11 743.09 161.297 746.707 153.127 748.008C145.567 748.596 138.693 747.709 132.355 743.147C126.045 738.606 122.16 732.133 121.025 724.428C119.85 716.459 121.712 708.125 126.677 701.705C131.884 694.974 139.03 691.71 147.299 690.659Z"/>
	<path fill="#FEFEFE" d="M148.1 692.661C153.544 692.455 158.792 693.374 163.509 696.241Q164.096 696.604 164.665 696.995Q165.234 697.387 165.782 697.806Q166.33 698.226 166.857 698.672Q167.384 699.118 167.888 699.59Q168.391 700.062 168.871 700.559Q169.35 701.056 169.804 701.576Q170.258 702.096 170.686 702.638Q171.113 703.18 171.513 703.743Q171.913 704.306 172.284 704.888Q172.655 705.47 172.997 706.07Q173.338 706.67 173.649 707.286Q173.96 707.903 174.24 708.534Q174.52 709.165 174.768 709.809Q175.016 710.453 175.232 711.109Q175.447 711.765 175.63 712.431Q175.812 713.097 175.961 713.771C177.472 720.946 176.108 727.869 171.997 733.943C167.214 741.01 160.946 744.405 152.709 746.027C145.678 746.461 139.471 745.482 133.566 741.297C127.688 737.132 124.187 731.125 123.079 724.045Q122.968 723.368 122.891 722.686Q122.815 722.004 122.772 721.319Q122.73 720.634 122.722 719.947Q122.715 719.261 122.742 718.575Q122.768 717.89 122.83 717.206Q122.891 716.523 122.987 715.843Q123.083 715.163 123.213 714.49Q123.342 713.816 123.506 713.149Q123.67 712.483 123.867 711.825Q124.064 711.168 124.293 710.521Q124.523 709.874 124.785 709.24Q125.048 708.606 125.341 707.986Q125.635 707.365 125.96 706.761Q126.284 706.156 126.639 705.568Q126.993 704.981 127.377 704.412Q127.761 703.843 128.173 703.294C133.182 696.743 140.159 693.658 148.1 692.661Z"/>
	<path fill="#010101" d="M861.56 209.483C832.192 174.465 774.687 128.711 733.032 109.444L731.998 109.606C731.308 110.885 731.101 112.056 730.854 113.464L730.24 113.695L729.789 112.98C730.319 111.568 730.755 110.341 730.898 108.821C729.029 106.187 719.187 102.559 715.616 100.942C674.966 82.5327 633.591 70.342 589.615 62.8543C564.207 58.5282 537.806 57.1059 512.07 57.0186C413.629 56.6845 321.147 82.2699 240.411 139.712Q235.814 142.962 231.301 146.325Q226.787 149.689 222.358 153.164Q217.929 156.639 213.589 160.223Q209.248 163.807 204.998 167.499Q200.749 171.191 196.592 174.987Q192.436 178.784 188.376 182.683Q184.315 186.582 180.354 190.581Q176.392 194.58 172.531 198.677Q168.671 202.774 164.913 206.965Q161.156 211.157 157.504 215.441Q153.853 219.726 150.309 224.1Q146.766 228.474 143.333 232.935Q139.899 237.396 136.578 241.941Q133.258 246.487 130.051 251.113Q126.845 255.74 123.755 260.446Q120.665 265.151 117.693 269.932Q114.722 274.713 111.87 279.567Q109.019 284.42 106.29 289.344Q103.56 294.267 100.954 299.257Q98.3488 304.247 95.8684 309.3Q93.388 314.353 91.0345 319.467Q88.681 324.581 86.4559 329.752Q84.2307 334.922 82.1352 340.147Q80.0398 345.372 78.0754 350.647Q76.1109 355.923 74.2787 361.245Q72.4465 366.568 70.7477 371.935Q69.0489 377.302 67.4846 382.709Q65.9202 388.117 64.4912 393.562Q63.0623 399.006 61.7696 404.485Q60.477 409.964 59.3215 415.473Q58.1659 420.983 57.1482 426.519Q56.1305 432.056 55.2513 437.616C45.4718 495.842 49.0639 557.042 62.8099 614.302Q67.1582 632.691 73.1713 650.604C75.6 657.822 78.5489 664.915 80.8149 672.182C81.2445 673.56 81.5893 674.849 81.4408 676.301L80.6205 676.201C76.6746 670.904 71.4279 652.188 69.2352 645.134Q67.2924 639.045 65.522 632.905Q63.7515 626.764 62.1548 620.576Q60.5582 614.387 59.1365 608.156Q57.7149 601.926 56.4694 595.657Q55.2239 589.389 54.1555 583.088Q53.0872 576.787 52.1969 570.458Q51.3065 564.129 50.5949 557.778Q49.8832 551.427 49.3509 545.058Q48.8185 538.689 48.4658 532.308Q48.1131 525.927 47.9404 519.538Q47.7677 513.15 47.7752 506.759Q47.7826 500.368 47.9701 493.98Q48.1576 487.591 48.525 481.211Q48.8925 474.831 49.4396 468.463Q49.9868 462.096 50.7131 455.746Q51.4395 449.397 52.3445 443.07Q53.1384 437.493 54.0714 431.937Q55.0044 426.381 56.0759 420.85Q57.1474 415.319 58.3567 409.817Q59.566 404.314 60.9124 398.844Q62.2588 393.374 63.7414 387.939Q65.224 382.504 66.8419 377.107Q68.4598 371.711 70.212 366.357Q71.9642 361.002 73.8497 355.694Q75.7351 350.385 77.7525 345.125Q79.7699 339.865 81.9181 334.657Q84.0663 329.449 86.3439 324.296Q88.6215 319.143 91.0271 314.049Q93.4328 308.955 95.9649 303.922Q98.497 298.89 101.154 293.922Q103.811 288.954 106.591 284.054Q109.372 279.155 112.273 274.326Q115.175 269.497 118.197 264.742Q121.218 259.987 124.358 255.309Q127.497 250.632 130.752 246.034Q134.008 241.436 137.377 236.92Q140.746 232.405 144.227 227.975Q147.707 223.546 151.298 219.204Q154.888 214.863 158.586 210.613Q162.284 206.363 166.086 202.206Q169.889 198.049 173.794 193.989Q177.7 189.929 181.705 185.967Q185.711 182.006 189.814 178.145Q193.918 174.285 198.116 170.529Q202.314 166.772 206.605 163.122Q210.896 159.471 215.277 155.929Q219.658 152.387 224.126 148.956Q228.594 145.524 233.146 142.205C334.028 67.3051 463.018 41.8239 586.246 60.0625Q591.779 60.8314 597.291 61.7361Q602.803 62.6407 608.291 63.6805Q613.78 64.7204 619.241 65.8947Q624.702 67.0691 630.132 68.3773Q635.563 69.6855 640.959 71.1268Q646.356 72.5681 651.716 74.1415Q657.076 75.715 662.395 77.4197Q667.714 79.1244 672.99 80.9592Q678.266 82.7941 683.495 84.7581Q688.725 86.7221 693.904 88.814Q699.083 90.9059 704.21 93.1244Q709.336 95.3429 714.407 97.6868Q719.477 100.031 724.488 102.498Q729.5 104.966 734.449 107.556Q739.398 110.146 744.282 112.857Q749.166 115.568 753.981 118.398Q758.797 121.229 763.542 124.176Q768.287 127.124 772.958 130.187Q777.629 133.251 782.223 136.428Q786.817 139.605 791.332 142.894Q795.847 146.183 800.28 149.582Q804.712 152.982 809.06 156.489Q813.408 159.996 817.668 163.608Q821.928 167.221 826.098 170.937Q830.269 174.654 834.346 178.472Q838.424 182.289 842.406 186.206Q846.389 190.123 850.274 194.136Q854.159 198.15 857.945 202.258Q861.73 206.365 865.413 210.565Q869.096 214.764 872.675 219.053Q876.254 223.342 879.727 227.717Q883.199 232.093 886.563 236.552Q889.919 241.036 893.162 245.602Q896.405 250.168 899.533 254.814Q902.662 259.459 905.673 264.181Q908.685 268.903 911.578 273.698Q914.471 278.494 917.244 283.36Q920.017 288.226 922.667 293.16Q925.318 298.093 927.845 303.092Q930.372 308.09 932.773 313.149Q935.175 318.209 937.45 323.327Q939.725 328.444 941.872 333.617Q944.018 338.79 946.035 344.015Q948.052 349.24 949.939 354.513Q951.825 359.787 953.58 365.105Q955.334 370.424 956.955 375.785Q958.577 381.146 960.064 386.545Q961.551 391.945 962.904 397.379Q964.256 402.814 965.473 408.281Q966.689 413.748 967.769 419.244Q968.849 424.739 969.792 430.26Q970.735 435.781 971.54 441.323Q972.345 446.865 973.011 452.426Q973.678 457.987 974.206 463.563Q974.734 469.138 975.123 474.726Q975.511 480.313 975.761 485.908Q976.01 491.503 976.121 497.102Q976.231 502.702 976.201 508.302Q976.172 513.903 976.003 519.501Q975.834 525.099 975.526 530.691Q975.217 536.283 974.77 541.866Q974.322 547.449 973.736 553.019Q973.149 558.588 972.424 564.142Q971.699 569.695 970.836 575.229C965.761 609.372 956.361 644.525 941.846 675.901L940.977 676.481L940.09 676.214C939.58 672.315 956.164 639.981 954.72 632.633L955.293 631.642C958.671 626.337 960.162 615.624 961.713 609.391C973.569 561.752 975.944 512.854 971.657 464.036C970.53 451.204 969.353 437.886 966.542 425.286L966.372 424.537C964.64 424.127 961.026 423.723 959.983 422.243L960.492 421.962C962.03 422.528 963.983 423.544 965.606 423.183C966.584 420.42 964.447 413.81 963.801 410.724Q961.125 398.16 957.701 385.779Q954.277 373.398 950.118 361.245Q945.958 349.091 941.077 337.209Q936.197 325.327 930.613 313.758C925.08 302.161 910.767 272.714 902.528 264.376C896.835 264.031 890.302 264.726 884.863 264.091C887.119 263.537 889.292 263.121 891.624 263.028C893.375 262.959 901.181 263.941 901.961 263.241C899.188 254.94 869.713 218.231 862.133 210.052C861.52 212.858 859.519 218.817 859.465 220.906L859.266 220.916C859.147 216.679 860.7 213.495 861.56 209.483Z"/>
	<path fill="#010101" d="M397.899 801.982C408.333 793.769 418.327 784.958 428.774 776.721C432.433 773.836 436.186 770.303 440.291 768.163L441.104 768.57C441.172 768.714 441.238 768.86 441.309 769.004C443.282 772.99 451.9 779.494 450.636 783.841C450.1 785.684 447.711 787.257 446.297 788.397C459.238 802.683 464.026 814.372 482.951 822.289C490.803 821.118 497.939 820.583 504.653 825.759C509.57 829.55 512.763 835.572 513.313 841.74Q513.363 842.275 513.385 842.811Q513.408 843.348 513.402 843.885Q513.397 844.422 513.364 844.958Q513.332 845.494 513.271 846.028Q513.211 846.562 513.124 847.092Q513.036 847.622 512.922 848.146Q512.807 848.671 512.666 849.189Q512.524 849.707 512.357 850.218Q512.189 850.728 511.995 851.229Q511.801 851.73 511.582 852.22Q511.363 852.71 511.119 853.189Q510.875 853.667 510.607 854.133Q510.339 854.598 510.047 855.049Q509.755 855.5 509.441 855.935Q509.126 856.371 508.79 856.789Q508.453 857.208 508.096 857.609C504.379 861.733 499.83 863.539 494.721 865.224Q480.11 889.469 464.357 912.989C459.721 920.029 455.197 928.075 449.768 934.491C448.334 936.186 446.875 937.619 444.855 938.564C443.603 938.488 443.338 938.372 442.443 937.359C437.858 932.175 439.287 891.967 439.947 883.663C440.649 874.813 444.783 853.669 441.683 846.194C439.467 840.854 419.689 820.25 414.544 814.081L410.653 816.952C405.819 812.376 402.558 806.63 397.899 801.982Z"/>
	<path fill="#4666C8" d="M439.135 771.889C442.018 772.461 447.272 780.537 448.989 782.814C436.49 793.464 423.942 803.899 411.05 814.073C407.302 811.42 403.804 806.053 400.98 802.347C413.951 792.547 426.001 781.462 439.135 771.889Z"/>
	<path fill="#F47A3E" d="M485.807 824.215C490.666 823.769 495.179 823.506 499.739 825.637Q500.187 825.849 500.624 826.084Q501.061 826.319 501.486 826.575Q501.91 826.831 502.321 827.109Q502.733 827.386 503.129 827.684Q503.526 827.981 503.907 828.299Q504.288 828.616 504.653 828.952Q505.018 829.288 505.365 829.642Q505.712 829.996 506.042 830.367Q506.371 830.738 506.681 831.125Q506.991 831.512 507.281 831.915Q507.571 832.317 507.841 832.733Q508.11 833.149 508.358 833.579Q508.607 834.008 508.833 834.449Q509.059 834.891 509.263 835.343Q509.467 835.795 509.648 836.257Q509.829 836.719 509.986 837.189Q510.146 837.659 510.282 838.136Q510.418 838.613 510.529 839.097Q510.64 839.58 510.726 840.069Q510.811 840.558 510.872 841.05Q510.932 841.542 510.968 842.037Q511.003 842.532 511.012 843.028Q511.022 843.525 511.005 844.02Q510.989 844.516 510.948 845.011Q510.906 845.505 510.839 845.997Q510.772 846.488 510.679 846.976Q510.587 847.463 510.469 847.945Q510.352 848.427 510.21 848.903Q510.068 849.378 509.901 849.846Q509.735 850.313 509.544 850.771Q509.354 851.229 509.14 851.677Q508.927 852.125 508.69 852.561C505.326 858.685 500.119 860.877 493.775 862.726C488.589 869.463 484.329 877.54 479.738 884.758Q467.244 904.228 454.427 923.486C452.575 926.245 447.736 935.058 444.821 936.001L443.981 935.208C440.534 924.851 441.84 905.266 442.024 893.899C455.852 884.97 472.853 858.75 479.039 843.714C481.342 838.117 482.38 832.724 483.951 826.957C484.342 825.522 484.526 824.98 485.807 824.215Z"/>
	<path fill="#FEFEFE" d="M444.196 789.877C447.773 791.077 460.281 809.88 464.789 814.032C469.86 818.701 475.691 821.838 481.752 824.985C478.31 842.854 470.285 856.681 459.769 871.259C455.798 876.763 451.796 882.26 447.038 887.121L441.931 891.429C442.23 885.549 442.548 879.635 443.265 873.789C444.015 867.664 445.219 861.404 445.417 855.238C445.535 851.567 444.954 848.035 443.319 844.725C440.117 838.238 422.305 819.578 416.366 813.166C425.896 805.735 435.006 797.723 444.196 789.877Z"/>
	<path fill="#010101" d="M562.29 840.484C567.059 841.745 612.506 841.961 618.007 840.988Q618.344 852.009 617.934 863.028L610.024 862.997C609.904 874.352 608.248 896.531 610.798 906.37C611.37 908.577 612.632 910.48 614.209 912.101C617.833 915.825 622.877 918.379 627.323 920.987C639.105 927.9 654.586 935.018 665.306 943.059C671.635 947.807 675.596 958.471 678.161 960.31C684.608 959.604 691.343 959.982 697.831 960.006Q716.823 960.2 735.815 960.017C752.223 960.57 768.75 960.118 785.172 960.124L883.171 960.148L911.077 960.207C916.644 960.21 923.883 959.427 929.227 960.81L929.532 961.528C929.228 961.853 929.113 962.018 928.679 962.249C927.371 962.946 925.701 962.811 924.271 962.826C912.238 962.95 900.183 962.543 888.148 962.503L796.25 962.415L406.775 962.494L212.828 962.525C204.437 962.53 142.191 963.409 138.342 961.995L138.472 961.049C139.809 960.249 141.05 960.142 142.575 960.108C160.816 959.704 179.269 960.289 197.535 960.273L307.227 959.967C319.314 960.582 337.001 960.811 349.008 960.127L349.694 960.275C357.865 959.829 366.256 960.209 374.445 960.224L422.745 960.315L567.199 960.355C563.455 957.996 560.343 955.643 558.128 951.673Q557.889 951.245 557.672 950.806Q557.455 950.368 557.26 949.918Q557.065 949.469 556.893 949.011Q556.721 948.552 556.572 948.086Q556.422 947.62 556.297 947.146Q556.171 946.673 556.069 946.194Q555.968 945.715 555.89 945.232Q555.812 944.748 555.758 944.261Q555.705 943.775 555.676 943.286Q555.646 942.797 555.642 942.307Q555.637 941.818 555.657 941.328Q555.677 940.839 555.721 940.352Q555.765 939.864 555.833 939.379Q555.902 938.894 555.994 938.413Q556.087 937.932 556.203 937.457Q556.32 936.981 556.46 936.512C558.496 929.892 563.435 925.862 569.249 922.662C567.393 914.646 568.302 905.246 568.342 897.043Q568.438 879.999 568.308 862.956C566.281 862.901 564.28 862.678 562.264 862.467C561.561 855.741 561.276 847.166 562.29 840.484Z"/>
	<path fill="#4666C8" d="M564.101 843.61Q590.051 844.126 616.001 843.651L615.919 860.464C598.712 859.956 581.445 860.329 564.233 860.445L564.101 843.61Z"/>
	<path fill="#F47A3E" d="M570.409 924.969C574.003 927.304 574.769 930.569 580.338 932.857C597.825 940.042 636.079 930.294 652.752 938.154C662.549 942.772 670.635 949.655 674.338 960.044C670.314 960.178 666.276 960.172 662.25 960.233L604.073 960.419C594.56 960.409 578.651 961.561 570.121 959.283C566.398 958.289 562.027 953.735 560.137 950.479Q559.731 949.781 559.395 949.046Q559.06 948.312 558.798 947.548Q558.537 946.784 558.352 945.998Q558.166 945.212 558.06 944.411Q557.953 943.611 557.925 942.804Q557.898 941.996 557.95 941.191Q558.002 940.385 558.134 939.588Q558.265 938.791 558.474 938.011C560.194 931.642 564.972 928.059 570.409 924.969Z"/>
	<path fill="#FEFEFE" d="M570.504 862.92Q589.01 862.79 607.515 862.91C607.611 873.927 606.414 895.607 608.156 905.27C608.691 908.236 609.84 910.801 611.89 913.028C618.388 920.088 634.388 926.927 643.043 932.869Q627.447 932.558 611.849 932.701C603.315 932.737 594.123 933.4 585.737 931.697C581.911 930.921 578.133 929.491 575.324 926.687C572.954 924.322 571.514 921.202 570.88 917.938C569.652 911.615 570.346 904.34 570.37 897.904L570.504 862.92Z"/>
	<path fill="#010101" d="M518.823 107.702C522.479 107.127 526.787 107.283 530.499 107.391C549.938 107.958 565.869 114.929 581.601 125.818C582.523 123.182 584.772 114.906 586.41 113.324C586.507 113.23 586.628 113.165 586.738 113.085L586.538 112.502L586.651 112.637C587.012 114.134 583.348 124.063 582.679 126.306C594.507 136.417 603.324 146.442 609.493 160.921Q609.932 161.966 610.345 163.021Q610.759 164.076 611.146 165.141Q611.534 166.206 611.895 167.28Q612.256 168.354 612.591 169.436Q612.926 170.519 613.234 171.609Q613.543 172.7 613.824 173.797Q614.106 174.895 614.36 175.999Q614.615 177.103 614.843 178.213Q615.07 179.324 615.271 180.439Q615.471 181.554 615.644 182.674Q615.817 183.794 615.963 184.918Q616.108 186.042 616.226 187.169Q616.344 188.296 616.435 189.425Q616.525 190.555 616.588 191.686Q616.651 192.818 616.686 193.95Q616.721 195.083 616.729 196.216Q616.736 197.349 616.716 198.482Q616.696 199.615 616.648 200.747Q616.6 201.879 616.524 203.01Q616.448 204.141 616.345 205.269Q616.242 206.398 616.111 207.523Q615.98 208.649 615.822 209.771Q615.664 210.893 615.478 212.011Q615.292 213.129 615.079 214.242Q614.866 215.355 614.626 216.462Q614.386 217.57 614.119 218.671Q613.852 219.772 613.558 220.867Q613.264 221.961 612.943 223.048Q612.622 224.135 612.275 225.213Q611.928 226.292 611.555 227.362Q611.181 228.432 610.782 229.492Q610.382 230.553 609.957 231.603C603.633 247.1 590.042 264.187 574.354 270.849C572.434 266.575 568.804 263.052 566.249 259.11C558.772 247.573 553.191 233.371 542.699 224.157C533.477 217.292 522.424 213.39 510.82 214.407C486.529 216.536 478.986 236.748 468.056 255.025C466.002 258.46 464.01 262.226 461.415 265.281C461.309 265.405 461.2 265.526 461.092 265.648C443.849 247.635 434.081 229.474 431.366 204.501C429.008 182.808 436.747 159.505 450.386 142.69C468.134 120.808 491.109 110.587 518.823 107.702Z"/>
	<path fill="#8ABAE7" d="M458.284 197.236C459.86 197.764 462.129 198.152 463.145 199.435C462.772 200.517 462.147 201.09 461.675 202.039C461.598 202.192 461.608 202.375 461.575 202.542C459.095 202.384 456.51 201.292 454.143 200.541L458.284 197.236Z"/>
	<path fill="#8ABAE7" d="M471.782 218.492C475.537 218.395 479.257 218.053 482.996 217.712C479.131 220.586 474.378 223.7 469.644 224.731C467.595 225.674 465.418 225.959 463.214 226.358C464.711 224.309 466.325 222.32 467.359 219.991C467.464 219.887 467.563 219.778 467.672 219.679C469.032 218.461 470.062 218.464 471.782 218.492Z"/>
	<path fill="#D8E4F2" d="M458.284 197.236C459.53 196.158 460.758 195.041 462.034 193.999C468.962 196.549 475.409 198.413 482.816 198.94C477.547 199.784 472.823 199.489 467.567 199.653L467.314 200.054L468.055 201.091C466.783 202.292 463.268 202.533 461.575 202.542C461.608 202.375 461.598 202.192 461.675 202.039C462.147 201.09 462.772 200.517 463.145 199.435C462.129 198.152 459.86 197.764 458.284 197.236Z"/>
	<path fill="#8ABAE7" d="M480.542 145.876C483.153 147.297 485.839 149.417 488.149 151.293L488.03 151.925C486.469 152.251 485.294 151.561 483.801 151.055C483.868 151.263 483.897 151.487 484.003 151.678C484.617 152.785 486.118 154.165 487.347 154.454C488.024 153.9 488.408 153.646 489.236 153.296C491.428 154.727 492.418 157.909 493.475 160.235C494.92 162.632 496.664 164.925 498.263 167.227C496.137 165.253 482.492 155.38 482.146 154.491C481.264 152.23 481.124 148.392 480.542 145.876Z"/>
	<path fill="#8ABAE7" d="M557.521 149.663C561.344 148.615 564.687 147.021 568.17 145.158L566.004 151.384C565.876 151.449 565.746 151.513 565.619 151.58C565.407 151.692 565.198 151.81 564.986 151.922C562.856 153.045 561.222 154.519 559.43 156.101C558.148 159.762 552.521 163.125 549.502 165.381C550.944 162.65 552.288 159.86 554.157 157.391C555.401 154.862 556.458 152.272 557.521 149.663Z"/>
	<path fill="#D8E4F2" d="M552.5 230.534C555.729 232.24 559.928 234.022 562.56 236.521C564.438 237.488 566.384 238.104 567.465 239.957L567.431 241.853C567.82 244.607 568.407 247.214 569.102 249.902C566.094 247.209 561.974 244.957 559.554 241.749C557.984 237.906 554.827 233.999 552.5 230.534Z"/>
	<path fill="#8ABAE7" d="M562.442 241.895L563.476 241.401C563.133 239.934 561.08 239.339 560.491 237.569C561.22 236.775 561.556 236.821 562.56 236.521C564.438 237.488 566.384 238.104 567.465 239.957L567.431 241.853C566.709 242.526 566.002 243.111 565.192 243.676C563.762 243.45 563.463 242.884 562.442 241.895Z"/>
	<path fill="#8ABAE7" d="M507.963 136.415C507.97 134.922 507.741 133.775 508.494 132.466C509.99 133.17 511.207 135.275 512.205 136.576C512.895 137.351 513.605 138.343 514.391 139.002C515.263 141.838 515.144 144.388 514.605 147.277C514.394 149.929 514.642 152.782 514.699 155.452C510.838 148.448 507.368 144.878 507.963 136.415Z"/>
	<path fill="#8ABAE7" d="M531.958 139.961C533.646 136.555 536.902 133.409 539.193 130.305C539.544 132.36 539.813 134.382 539.977 136.461C540.464 138.148 541.368 140.298 540.67 142.025C540.361 142.792 539.465 144.111 538.813 144.631C537.153 147.818 535.673 151.056 534.223 154.343C534.209 153.726 534.171 153.11 534.158 152.494C534.068 148.125 531.832 144.253 531.958 139.961Z"/>
	<path fill="#8ABAE7" d="M465.843 168.663C466.467 168.593 467.09 168.383 467.713 168.454C469.903 168.7 481.407 178.522 484.094 180.495L473.292 178.526C471.664 178.568 470.027 178.737 468.535 177.97C467.503 177.44 465.781 176.629 465.39 175.538C466.361 174.697 467.444 174.68 468.668 174.502C469.509 174.38 469.14 174.583 469.713 173.878C466.756 171.426 462.543 173.538 459.663 169.902L460.313 169.412C461.88 169.398 463.468 169.458 464.974 168.966C465.266 168.871 465.554 168.764 465.843 168.663Z"/>
	<path fill="#D8E4F2" d="M586.247 194.254C588.993 195.615 591.745 197.109 594.584 198.261C592.082 199.157 588.867 200.008 586.972 201.935C586.483 202.248 586.067 202.549 585.506 202.746C582.337 203.859 572.332 198.929 569.023 197.687C571.413 197.33 575.503 196.228 577.725 196.888C580.42 195.608 583.368 194.997 586.247 194.254Z"/>
	<path fill="#D8E4F2" d="M562.701 215.048C565.541 215.665 580.597 217.685 581.806 218.839L579.236 219.159C580.716 221.469 584.762 224.144 586.879 226.156L587.511 227.1C587.27 227.196 587.043 227.336 586.789 227.389C585.782 227.602 584.207 227.362 583.171 227.295C574.623 226.741 575.496 222.548 571.697 220.98C568.398 219.618 565.553 217.178 562.701 215.048Z"/>
	<path fill="#D8E4F2" d="M561.41 246.003C563.922 247.681 580.501 262.781 580.955 264.46L579.823 265.293L574.141 268.155C569.327 261.326 564.114 253.956 561.41 246.003Z"/>
	<path fill="#8ABAE7" d="M577.931 165.96C581.48 166.188 584.992 166.448 588.548 166.261C587.589 166.988 586.428 167.78 585.73 168.77C584.726 170.194 582.988 176.475 581.723 176.899C581.141 177.094 580.502 177.03 579.891 177.096C573.836 177.675 567.694 179.09 561.657 179.986C565.731 176.812 569.92 174.399 575.093 173.541C577.035 173.219 578.43 173.091 580.074 174.242L580.348 176.3C581.537 174.459 582.941 172.648 583.497 170.507L583.224 169.695C582.043 169.455 581.527 169.676 580.436 170.145C579.556 171.679 579.656 171.894 577.895 172.335C575.138 173.025 572.382 173.133 569.616 173.969L577.931 165.96Z"/>
	<path fill="#FEFEFE" d="M477.898 201.632C485.98 199.179 495.913 199.676 504.315 200.145L505.733 206.412C500.831 208.959 495.091 211.823 489.597 212.736L489.386 212.136C489.931 211.975 490.482 211.831 491.016 211.634C492.311 211.156 493.535 210.714 494.872 210.33C494.747 210.157 494.644 209.966 494.498 209.811C491.819 206.973 490.23 203.467 487.347 200.843C484.413 201.284 480.807 202.216 477.898 201.632Z"/>
	<path fill="#FEFEFE" d="M477.464 195.505C477.482 195.107 477.431 195.346 477.795 194.853L478.659 194.955C478.314 191.501 479.063 186.958 480.122 183.647C481.203 182.697 483.579 183.025 485.058 182.999C491.878 183.838 498.439 187.047 504.684 189.753C504.24 192.513 504.063 195.08 504.102 197.875C495.576 197.303 485.608 198.243 477.464 195.505Z"/>
	<path fill="#FEFEFE" d="M548.139 197.413C563.268 198.332 570.031 201.065 583.995 206.103C583.129 209.193 582.545 212.098 582.294 215.296C580.124 215.739 576.982 214.897 574.784 214.588C563.255 212.969 557.128 211.279 547.055 205.439C547.58 202.761 547.883 200.126 548.139 197.413Z"/>
	<path fill="#FEFEFE" d="M520.521 175.878C516.842 165.861 517.191 157.215 517.666 146.773C517.778 144.309 517.581 141.853 517.738 139.396L518.943 138.915C521.607 139.42 524.306 139.913 526.948 139.037C527.273 139.384 527.353 139.443 527.639 139.909C533.924 150.154 530.514 164.746 527.69 175.474C525.251 175.455 522.938 175.604 520.521 175.878Z"/>
	<path fill="#FEFEFE" d="M581.174 179.059L581.945 179.311C583.296 182.818 583.673 187.041 584.779 190.726C574.628 195.742 561.683 196.331 550.678 194.673L548.333 194.219C547.053 192.997 546.921 190.875 546.592 189.188C562.138 179.178 565.024 183.43 581.174 179.059Z"/>
	<path fill="#FEFEFE" d="M529.931 175.601C531.925 166.92 536.154 150.588 542.972 144.577C544.128 143.558 546.253 144.003 547.697 144.089C548.917 144.702 549.947 145.28 551.337 145.39C551.979 146.959 552.888 148.225 553.864 149.604C549.618 160.097 544.908 169.573 538.361 178.823C535.63 177.481 532.814 176.554 529.931 175.601Z"/>
	<path fill="#FEFEFE" d="M540.044 180.185C542.504 176.107 545.234 172.399 548.747 169.162C552.898 165.338 561.888 157.662 567.537 157.921C568.645 158.726 569.712 159.731 571.112 159.897C572.794 161.237 573.967 162.787 575.269 164.475C565.585 173.796 557.49 180.731 545.305 186.533C543.687 184.302 541.853 182.26 540.044 180.185Z"/>
	<path fill="#FEFEFE" d="M545.709 207.633C554.716 212.15 568.567 220.522 574.356 228.979C572.702 230.563 571.214 232.304 570.425 234.485C569.11 235.243 568.454 235.941 566.854 235.574C564.235 234.973 561.194 233.11 558.865 231.773C550.429 226.927 543.709 222.483 538.597 213.97C541.124 211.975 543.432 209.909 545.709 207.633Z"/>
	<path fill="#FEFEFE" d="M492.56 147.824C496.953 147.021 501.434 146.431 505.759 145.322C511.858 155.439 515.385 164.862 518.057 176.401C515.52 177.625 513.268 178.925 510.957 180.544C506.726 175.099 502.835 169.583 499.234 163.698C496.65 159.476 494.199 154.016 490.947 150.367C491.565 149.594 492.045 148.67 492.56 147.824Z"/>
	<path fill="#FEFEFE" d="M480.655 157.988C490.439 161.84 503.197 173.726 509.622 181.969C508.282 183.808 506.874 185.626 505.646 187.542C494.673 183.308 477.49 175.848 470.937 165.763C474.688 163.808 476.902 159.661 480.655 157.988Z"/>
	<path fill="#D8E4F2" d="M574.356 228.979C575.498 229.516 586.329 229.137 589.307 229.903C594.409 231.216 599.673 235.367 604.321 237.928C598.811 247.627 591.723 255.851 583.362 263.197C576.884 257 570.294 251.211 570.073 241.543C570.02 239.215 570.333 236.817 570.425 234.485C571.214 232.304 572.702 230.563 574.356 228.979Z"/>
	<path fill="#D8E4F2" d="M597.88 199.621C603.408 199.38 608.919 199.429 614.449 199.481C613.735 210.056 612.134 220.028 608.424 230.011C607.667 232.049 606.772 235.158 604.675 236.126L603.232 235.062C595.842 230.279 589.635 225.755 584.052 218.887C583.991 214.68 584.132 210.548 586.35 206.831C588.853 202.636 593.309 200.696 597.88 199.621Z"/>
	<path fill="#D8E4F2" d="M503.934 112.557C515.93 109.78 529.451 108.383 541.583 111.117C540.671 119.219 538.833 129.324 532.178 134.845C530.508 136.23 528.671 137.443 526.867 138.643L526.948 139.037C524.306 139.913 521.607 139.42 518.943 138.915C518.07 135.455 512.299 133.19 510.161 130.085C506.787 125.185 505.488 118.232 503.934 112.557Z"/>
	<path fill="#D8E4F2" d="M606.343 160.008C612.516 168.307 614.035 186.298 614.336 196.325C607.604 196.776 601.282 197.049 594.73 195.218C591.758 193.86 589.133 192.365 586.424 190.536C585.025 185.679 583.747 180.574 585.363 175.584C588.112 167.092 599.029 163.573 606.343 160.008Z"/>
	<path fill="#D8E4F2" d="M506.674 208.735L506.94 208.79C507.946 209.959 509.05 211.015 510.154 212.089Q508.347 212.31 506.568 212.692C488.76 216.379 481.613 227.248 473.155 242C469.237 248.835 465.312 255.694 461.023 262.306C458.595 259.915 456.45 257.193 454.25 254.591C449.595 249.294 445.604 242.705 442.183 236.553C448.575 234.521 454.55 231.503 460.876 229.465C466.375 227.693 472.316 227.091 477.62 224.71C481.15 223.125 483.157 219.554 486.497 217.66C492.91 214.024 500.053 211.9 506.674 208.735Z"/>
	<path fill="#D8E4F2" d="M579.673 127.043C591.313 135.318 599.891 145.619 606.054 158.479C595.946 161.633 587.801 166.136 576.916 162.4C574.916 161.714 573.098 160.589 571.112 159.897C569.712 159.731 568.645 158.726 567.537 157.921C568.216 148.298 575.839 136.005 579.673 127.043Z"/>
	<path fill="#D8E4F2" d="M466.883 129.624Q468.792 128.159 470.774 126.794Q472.756 125.429 474.806 124.169Q476.856 122.908 478.968 121.755Q481.081 120.602 483.25 119.56Q485.419 118.518 487.639 117.589Q489.859 116.66 492.124 115.848Q494.389 115.035 496.693 114.34Q498.997 113.646 501.334 113.071C504.971 124.939 505.885 130.859 504.808 143.147C501.59 143.567 494.347 144.019 492.276 146.52L492.56 147.824C492.045 148.67 491.565 149.594 490.947 150.367C487.522 147.077 483.256 145.431 479.684 142.401C475.299 138.681 471.816 133.963 467.479 130.145L466.883 129.624Z"/>
	<path fill="#D8E4F2" d="M441.736 160.315C446.716 149.194 455.567 138.352 465.006 130.726C470.616 135.967 478.718 143.461 479.035 151.599C479.106 153.449 478.668 156.195 479.553 157.826L480.655 157.988C476.902 159.661 474.688 163.808 470.937 165.763C467.774 164.61 460.858 168.499 456.577 167.472C451.523 166.26 446.298 162.778 441.736 160.315Z"/>
	<path fill="#D8E4F2" d="M543.696 111.336C556.669 113.582 567.496 118.911 578.33 126.245C578.214 126.409 578.097 126.571 577.983 126.736C572.34 134.876 570.654 143.761 559.401 145.744C556.518 146.252 554.167 145.907 551.337 145.39C549.947 145.28 548.917 144.702 547.697 144.089C540.216 133.558 541.298 125.501 543.311 113.598L543.696 111.336Z"/>
	<path fill="#D8E4F2" d="M440.446 162.578C450.867 167.527 460.495 171.599 466.987 181.618C472.835 181.218 479.287 181.901 485.058 182.999C483.579 183.025 481.203 182.697 480.122 183.647C479.063 186.958 478.314 191.501 478.659 194.955L477.795 194.853C477.431 195.346 477.482 195.107 477.464 195.505C472.989 194.954 469.127 192.434 464.931 191.783C460.478 191.093 456.76 195.03 453.414 197.429C446.779 198.206 439.769 197.629 433.086 197.478C433.124 185.096 436.264 174.105 440.446 162.578Z"/>
	<path fill="#FEFEFE" d="M523.571 178.112C528.471 177.903 532.918 178.71 537.025 181.574Q537.427 181.854 537.813 182.154Q538.2 182.453 538.572 182.772Q538.943 183.091 539.298 183.428Q539.653 183.765 539.99 184.12Q540.328 184.474 540.647 184.845Q540.966 185.216 541.266 185.603Q541.566 185.99 541.846 186.391Q542.126 186.792 542.386 187.207Q542.646 187.622 542.884 188.049Q543.122 188.477 543.339 188.916Q543.556 189.355 543.75 189.804Q543.944 190.253 544.116 190.711Q544.287 191.17 544.435 191.636Q544.583 192.103 544.708 192.576Q544.832 193.05 544.932 193.529Q545.033 194.008 545.109 194.491Q545.183 194.934 545.235 195.38Q545.286 195.826 545.315 196.273Q545.343 196.721 545.348 197.17Q545.354 197.619 545.336 198.068Q545.318 198.516 545.277 198.963Q545.236 199.41 545.172 199.854Q545.108 200.299 545.021 200.739Q544.935 201.18 544.825 201.615Q544.716 202.05 544.584 202.479Q544.452 202.909 544.299 203.33Q544.145 203.752 543.97 204.165Q543.795 204.579 543.599 204.982Q543.402 205.386 543.185 205.779Q542.969 206.172 542.732 206.553Q542.495 206.935 542.239 207.303Q541.983 207.672 541.708 208.027C538.567 212.003 534.401 213.679 529.5 214.259C524.834 213.381 516.952 213.209 513.091 210.571C509.475 208.101 507.388 204.502 506.727 200.199C505.939 195.072 507.044 189.892 510.165 185.718C513.598 181.125 518.046 178.994 523.571 178.112Z"/>
	<defs>
		<linearGradient id="gradient_0" gradientUnits="userSpaceOnUse" x1="436.4888" y1="217.32957" x2="492.28445" y2="201.95799">
			<stop offset="0" stop-color="#AFCAF6"/>
			<stop offset="1" stop-color="#F6F7FE"/>
		</linearGradient>
	</defs>
	<path fill="url(#gradient_0)" d="M433.305 200.053C439.621 200.007 445.921 200.314 452.229 200.582C453.21 201.334 454.201 202.107 455.239 202.78C463.821 208.338 468.491 203.302 476.908 201.798C477.237 201.739 477.568 201.687 477.898 201.632C480.807 202.216 484.413 201.284 487.347 200.843C490.23 203.467 491.819 206.973 494.498 209.811C494.644 209.966 494.747 210.157 494.872 210.33C493.535 210.714 492.311 211.156 491.016 211.634C490.482 211.831 489.931 211.975 489.386 212.136L489.597 212.736C482.856 215.972 473.382 215.544 466.037 215.592C465.568 217.311 464.937 218.949 464.082 220.518C459.039 229.768 450.405 231.602 441.082 234.155C436.672 223.56 433.969 211.498 433.305 200.053Z"/>
	<path fill="#4666C8" d="M735.274 812.308C745.552 790.578 760.124 764.508 784.223 755.946C792.195 753.113 801.168 752.683 808.93 756.438C815.187 759.464 819.741 764.921 821.95 771.475C826.587 785.229 822.527 803.546 816.178 816.131C811.873 824.662 794.531 841.376 797.665 850.842C798.29 852.73 799.708 854.135 801.498 854.953C806.004 857.015 811.423 855.475 815.767 853.68C829.646 847.945 842.74 838.961 858.526 845.366C865.255 848.095 871 854.266 873.748 860.951C876.966 868.777 875.865 876.727 872.544 884.251C860.196 912.223 821.865 934.021 794.049 944.534C784.974 947.964 775.565 951.03 766.149 953.368C761.765 954.457 737.565 959.073 735.815 960.017Q716.823 960.2 697.831 960.006C691.343 959.982 684.608 959.604 678.161 960.31C679.064 958.911 680.035 957.583 681.03 956.249C682.451 943.258 681.648 924.167 681.74 910.586Q682.269 861.24 681.502 811.898Q699.26 811.791 717.017 811.928C722.939 811.951 729.462 811.371 735.274 812.308Z"/>
	<path fill="#D8E4F2" d="M681.502 811.898Q699.26 811.791 717.017 811.928C722.939 811.951 729.462 811.371 735.274 812.308C736.24 812.563 737.201 812.824 738.17 813.062C742.478 814.118 747.052 817.338 749.362 821.153C751.441 824.584 751.59 828.816 750.584 832.624C746.376 848.557 715.428 863.728 725.712 882.388C730.383 890.862 741.968 887.887 744.561 898.377Q744.805 899.362 744.921 900.369Q745.037 901.377 745.024 902.391Q745.011 903.405 744.868 904.41Q744.726 905.414 744.457 906.392C740.214 922.318 714.263 939.114 700.475 946.687C694.142 950.165 687.529 953.098 681.03 956.249C682.451 943.258 681.648 924.167 681.74 910.586Q682.269 861.24 681.502 811.898Z"/>
	<path fill="#4666C8" d="M307.227 959.967C303.334 958.333 286.826 957.058 281.065 956.002Q269.699 953.872 258.518 950.923Q247.337 947.974 236.4 944.221C210.338 935.101 164.98 910.351 152.78 884.536C149.288 877.148 148.222 869.117 151.129 861.296C153.739 854.275 159.067 849.187 165.831 846.195C183.885 838.208 197.442 849.208 213.046 855.222C216.548 856.572 221.967 858.106 225.497 856.304C226.972 855.551 227.772 854.226 228.139 852.658C230.468 842.708 220.575 831.141 215.822 823.25C207.568 809.546 201.594 792.623 205.705 776.529C207.697 768.733 212.496 761.477 219.561 757.417C226.556 753.395 235.08 752.92 242.733 755.144C268.252 762.558 284.226 790.661 296.289 812.473C314.708 812.859 333.142 812.385 351.563 812.547L351.566 906.09C351.581 921.325 352.41 940.083 351.27 954.973C351.116 956.986 350.866 958.603 349.694 960.275L349.008 960.127C337.001 960.811 319.314 960.582 307.227 959.967Z"/>
	<path fill="#D8E4F2" d="M296.289 812.473C314.708 812.859 333.142 812.385 351.563 812.547L351.566 906.09C351.581 921.325 352.41 940.083 351.27 954.973C351.116 956.986 350.866 958.603 349.694 960.275L349.008 960.127C345.476 956.05 325.707 947.011 319.619 943.501C307.004 936.227 286.789 924.83 283.107 909.715C279.549 895.112 293.958 891.212 299.67 881.171C309.714 863.513 284.101 848.252 279.958 833.136C278.874 829.18 279.162 824.591 281.351 821.05C284.58 815.826 290.584 813.657 296.289 812.473Z"/>
	<path fill="#F47A3E" d="M514.652 558.49C522.485 558.291 530.299 558.431 538.131 558.58Q537.971 607.185 538.45 655.787Q538.531 668.257 538.422 680.726C538.387 685.554 537.95 690.821 538.552 695.602C538.979 698.997 540.011 702.347 542.546 704.768C544.592 706.721 547.017 708.072 549.818 708.517C559.996 710.131 571.675 708.949 581.993 708.907L635.73 708.727C649.199 708.569 663.101 707.853 676.517 708.774C664.695 709.763 652.219 709.01 640.318 708.971C641.056 723.348 643.817 741.234 645.792 755.708C649.233 780.926 653.376 805.918 634.433 826.687C630.376 831.134 620.27 838.052 618.007 840.988C612.506 841.961 567.059 841.745 562.29 840.484C562.017 839.475 551.232 832.379 549.413 830.659C541.923 823.572 536.047 813.165 533.369 803.25C529.899 790.401 530.2 775.994 529.153 762.738Q524.873 704.12 522.345 645.401C499.499 656.119 476.962 667.446 454.072 678.103C443.389 683.077 432.067 686.561 421.826 692.482C433.782 704.858 443.786 717.51 446.948 734.934C448.999 746.238 447.751 758.919 441.104 768.57L440.291 768.163C436.186 770.303 432.433 773.836 428.774 776.721C418.327 784.958 408.333 793.769 397.899 801.982C393.292 802.007 388.723 802.009 384.158 801.317C364.699 798.369 349.078 784.387 337.765 769.081C322.248 748.084 314.062 722.214 318.112 696.186C321.226 676.177 331.517 657.988 347.982 646.013C367.463 666.129 398.709 675.93 426.154 676.362C437.621 676.543 454.957 675.278 463.634 666.548C470.137 660.006 473.208 649.093 477.007 640.754L500.085 590.089C504.277 580.663 509.413 567.02 514.652 558.49Z"/>
	<path fill="#010101" d="M366.53 237.035C365.383 234.209 364.955 231.443 364.852 228.413C364.242 210.629 376.529 201.296 387.634 189.415C390.531 186.316 394.238 182.896 398.764 182.901C401.036 182.904 403.099 183.854 404.673 185.475C406.587 187.446 407.735 190.063 408.529 192.657C412.728 206.381 402.456 217.557 402.512 230.887L404.002 232.276C407.901 235.939 411.286 239.608 412.796 244.9C415.17 253.218 413.874 272.143 413.828 281.662C413.741 299.682 413.417 317.754 413.965 335.766C417.613 339.062 421.876 341.911 425.817 344.866L446.634 360.573L467.885 376.581C471.892 379.594 475.88 382.953 480.186 385.508L495.978 385.989L499.215 388.125C504.173 387.218 506.584 386.124 510.133 382.599C510.964 378.767 510.979 374.974 511.02 371.07Q507.997 370.981 504.978 370.793C499.496 370.403 486.577 367.465 483.367 362.79C480.436 358.519 488.565 352.507 491.087 349.472C492.95 347.23 494.526 344.701 495.831 342.098C501.748 330.292 498.015 317.487 499.209 304.923Q499.261 304.312 499.345 303.705Q499.428 303.098 499.543 302.496Q499.658 301.894 499.803 301.299Q499.949 300.703 500.125 300.116Q500.301 299.529 500.508 298.952Q500.714 298.375 500.95 297.81Q501.186 297.244 501.45 296.691Q501.715 296.138 502.008 295.6Q502.301 295.062 502.621 294.539Q502.941 294.017 503.288 293.511Q503.635 293.006 504.007 292.519Q504.38 292.033 504.777 291.566Q505.174 291.099 505.594 290.653Q506.015 290.207 506.458 289.784Q506.901 289.36 507.365 288.96Q507.83 288.56 508.314 288.185Q508.845 287.761 509.398 287.365Q509.951 286.969 510.523 286.602Q511.095 286.236 511.685 285.899Q512.276 285.562 512.883 285.256Q513.49 284.95 514.112 284.675Q514.734 284.401 515.369 284.159Q516.004 283.917 516.651 283.708Q517.298 283.499 517.954 283.324Q518.611 283.148 519.276 283.007Q519.941 282.866 520.612 282.759Q521.284 282.652 521.959 282.58Q522.635 282.508 523.314 282.471Q523.993 282.434 524.673 282.432Q525.352 282.43 526.031 282.463Q526.71 282.496 527.387 282.564Q528.063 282.631 528.735 282.734Q529.792 282.888 530.833 283.125Q531.875 283.363 532.894 283.682Q533.913 284.002 534.904 284.401Q535.894 284.801 536.85 285.278Q537.805 285.756 538.72 286.308Q539.634 286.859 540.502 287.482Q541.37 288.105 542.185 288.795Q543 289.485 543.758 290.238C554.189 300.636 551.159 317.373 550.959 330.778C550.916 333.68 550.555 337.312 551.476 340.065C553.955 347.481 560.165 353.801 564.738 359.967C564.534 360.818 564.255 361.448 563.715 362.131C558.714 368.454 545.893 370.105 538.362 371.153C538.306 374.711 537.967 378.502 539.047 381.924C542.309 385.09 567.548 384.007 573.641 384.568C579.217 379.018 585.922 374.444 592.007 369.437Q611.749 352.889 631.934 336.883L631.889 265.356C629.031 265.441 626.201 266.276 623.353 266.612L623.525 266.189C625.842 264.682 629.012 264.674 631.71 264.339C631.66 257.542 631.725 251.044 634.735 244.793C638.878 236.19 646.11 232.251 654.706 229.347C649.273 220.435 640.584 200.372 643.084 189.874C643.525 188.022 644.524 186.317 646.202 185.345C648.252 184.158 650.817 184.355 653.013 184.986C663.388 187.969 673.887 198.533 678.73 207.931C683.455 217.099 683.267 226.023 680.252 235.689C684.207 240.329 687.942 245.374 689.301 251.446C690.639 257.426 689.751 268.26 689.78 274.678L689.89 336.361C692.415 335.64 695.127 335.257 697.474 334.031C698.941 333.265 700.569 331.739 702.062 331.219L702.07 331.678C698.455 335.354 694.437 336.421 689.675 337.869C689.679 343.664 689.899 349.603 689.551 355.382C688.677 369.867 678.398 375.817 668.055 383.884C661.792 388.769 655.543 393.755 649.635 399.068C652.742 403.946 655.162 408.893 659.202 413.118C660.014 413.968 660.791 414.666 661.292 415.757L660.796 415.793C655.735 411.242 652.061 405.711 648.386 400.039C642.076 403.701 636.145 409.381 630.457 413.981C617.23 424.677 603.836 436.13 589.857 445.797C589.802 453.542 589.644 461.305 589.892 469.046C591.123 467.382 592.454 465.85 593.837 464.311C593.026 466.626 590.995 468.951 589.599 470.981C589.111 486.166 589.613 501.482 589.611 516.681C589.609 525.269 588.533 552.661 590.27 558.588C591.472 562.689 595.887 566.871 598.673 570.129L599.117 571.473C604.805 580.498 611.177 589.05 617.138 597.891L662.24 664.726L674.284 682.792C677.043 686.842 680.25 690.918 682.474 695.29C683.561 697.425 683.97 699.681 683.354 702.031C682.727 704.421 681.003 706.595 678.828 707.764Q677.714 708.363 676.517 708.774C663.101 707.853 649.199 708.569 635.73 708.727L581.993 708.907C571.675 708.949 559.996 710.131 549.818 708.517C547.017 708.072 544.592 706.721 542.546 704.768C540.011 702.347 538.979 698.997 538.552 695.602C537.95 690.821 538.387 685.554 538.422 680.726Q538.531 668.257 538.45 655.787Q537.971 607.184 538.131 558.58C530.299 558.431 522.485 558.291 514.652 558.49C509.413 567.02 504.277 580.663 500.085 590.089L477.007 640.754C473.208 649.093 470.137 660.006 463.634 666.548C454.957 675.278 437.621 676.543 426.154 676.362C398.709 675.93 367.463 666.129 347.982 646.013Q385.573 616.409 422.751 586.289C434.831 576.608 447.072 567.13 458.961 557.212C459.361 520.434 459.684 483.417 458.461 446.654C453.369 443.375 448.77 439.285 443.68 435.94L374.7 435.986C363.293 435.986 351.209 436.758 339.881 435.522C344.116 433.73 429.862 434.511 442.695 434.801C428.326 424.601 414.467 413.491 400.482 402.769C391.19 395.646 380.703 388.922 372.512 380.593C361.093 368.981 359.851 356.204 359.974 340.781C334.807 327.966 344.24 306.751 328.57 292.552C322.672 287.208 314.101 284.899 306.246 285.485C303.249 285.709 300.378 286.536 297.353 286.664C297.871 285.986 297.548 286.249 298.617 285.874C305.868 283.328 317.039 284.505 323.657 288.064C334.924 294.122 337.473 304.147 340.791 315.472C343.992 326.399 349.875 334.253 359.884 339.75L359.916 280.311C359.917 270.288 358.876 259.068 360.728 249.263C361.593 244.685 364.012 240.856 366.53 237.035Z"/>
	<path fill="#FEFEFE" d="M549.888 386.573C551.3 386.502 552.587 386.401 553.977 386.741C554.784 388.098 554.397 389.415 554.313 390.964C553.021 390.913 552.4 391.027 551.295 390.319C551.01 389.33 550.708 388.412 550.29 387.469L549.888 386.573Z"/>
	<path fill="#FEFEFE" d="M540.363 386.542C542.684 386.522 545.167 386.004 547.391 386.791C548.681 388.251 548.624 389.271 548.965 391.162C545.671 390.232 543.105 388.505 540.363 386.542Z"/>
	<path fill="#8ABAE7" d="M356.601 642.297C360.524 644.78 364.023 646.811 366.932 650.531L367.578 657.952C361.951 654.377 356.731 650.278 351.631 646C353.273 644.747 354.945 643.53 356.601 642.297Z"/>
	<path fill="#FEFEFE" d="M647.186 186.405C648.293 186.423 649.409 186.496 650.494 186.734C660.549 188.947 670.606 198.424 675.744 207.014C681.115 215.995 681.201 224.596 678.654 234.503C671.477 230.169 665.431 228.805 657.084 228.897C650.999 219.816 645.966 206.973 645.121 196.015C644.854 192.553 644.831 189.152 647.186 186.405Z"/>
	<path fill="#FEFEFE" d="M397.688 185.02C400.308 185.441 402.169 186.231 403.946 188.265C413.112 198.751 400.581 218.131 399.926 229.962C390.616 227.081 383.436 226.995 374.426 230.932C372.056 232.15 369.877 233.781 367.674 235.276C367.016 227.885 366.626 220.798 369.885 213.906C373.39 206.494 379.975 201.411 385.436 195.527C387.905 192.867 390.072 189.777 392.889 187.462C394.33 186.278 395.952 185.647 397.688 185.02Z"/>
	<path fill="#FEFEFE" d="M513.285 371.616C521.131 373.286 528.092 373.984 536.023 372.577C535.925 377.68 535.575 386.481 540.853 389.255C543.33 390.557 545.834 391.545 547.953 393.446C548.685 394.103 549.721 395.032 550.06 395.99C550.526 397.306 550.379 398.525 549.81 399.773C547.431 404.993 542.005 407.806 536.924 409.661C528.546 411.463 519.582 411.889 511.552 408.422C505.798 405.937 502.273 402.348 500.011 396.6C503.271 390.675 509.28 387.916 512.859 382.27C513.163 378.744 513.167 375.155 513.285 371.616Z"/>
	<path fill="#FEFEFE" d="M515.025 329.757C520.554 329.698 539.971 328.737 543.825 331.367C544.895 332.098 545.79 333.368 546.027 334.638C546.546 337.424 546.865 337.502 548.991 339.272C548.559 346.351 548.442 354.903 544.884 361.223C542.173 366.039 537.794 368.877 532.572 370.376Q529.398 370.915 526.179 370.929Q522.96 370.942 519.782 370.429C513.568 369.458 507.327 367.127 503.603 361.771C498.999 355.149 498.699 346.544 500.174 338.901C502.856 337.212 502.835 334.399 504.92 332.311C507.627 329.601 511.479 329.86 515.025 329.757Z"/>
	<path fill="#010101" d="M523.369 354.148C524.876 354.07 526.219 354.025 527.718 354.293L528.226 355.164L527.717 356.728C526.318 356.82 525.383 356.788 524.001 356.423C523.279 355.447 523.34 355.377 523.369 354.148Z"/>
	<path fill="#010101" d="M536.56 344.585L537.11 344.834L537.122 345.791C536.015 347.179 534.903 347.948 533.405 348.887C532.452 347.911 532.309 347.899 532.169 346.563C533.134 345.33 535.111 345.017 536.56 344.585Z"/>
	<path fill="#010101" d="M535.952 335.203C537.151 335.367 537.838 335.42 538.77 336.225C538.874 337.804 538.279 338.418 537.518 339.778C536.336 339.521 535.83 339.328 534.961 338.478C534.829 336.927 535.222 336.543 535.952 335.203Z"/>
	<path fill="#010101" d="M511.174 343.935C512.561 344.182 513.879 344.455 515.228 344.878C516.088 346.238 515.824 346.827 515.713 348.401C514.154 348.326 513.137 348.325 511.81 347.379C511.027 346.061 511.095 345.406 511.174 343.935Z"/>
	<path fill="#010101" d="M508.989 334.508C510.879 334.434 512.119 334.447 513.582 335.7C514.022 337.041 513.594 337.897 513.136 339.151C512.083 338.818 510.444 338.157 509.689 337.295C508.713 336.18 508.774 335.843 508.989 334.508Z"/>
	<path fill="#010101" d="M516.978 357.963C519.285 358.125 521.221 359.787 523.518 360.083C526.383 360.451 529.632 358.354 532.296 359.055L532.929 361.024C529.137 362.275 525.702 362.507 521.76 362.476C519.651 361.306 517.688 360.424 516.978 357.963Z"/>
	<path fill="#4666C8" d="M522.073 285.154C522.482 285.125 522.893 285.103 523.303 285.095C530.183 284.964 537.126 287.06 542.107 291.984C551.965 301.729 549.087 321.309 548.949 334.237C547.596 332.236 546.178 330.477 544.565 328.683C540.344 327.689 535.936 327.739 531.625 327.664C527.721 327.657 523.814 327.551 519.91 327.499C512.602 327.404 507.038 326.73 501.462 332.164C501.408 321.597 499.147 303.472 505.199 294.748C509.117 289.1 515.499 286.287 522.073 285.154Z"/>
	<path fill="#D8E4F2" d="M362.329 637.384C385.059 637.128 407.99 639.706 430.711 640.63C431.728 640.848 432.477 641.122 433.507 640.856L434.277 641.497C429.042 648.158 426.714 644.84 422.731 655.726C425.638 662.851 431.549 667.117 435.266 673.546C422.502 674.235 410.504 672.606 398.031 670.049C394.856 669.241 391.714 668.466 388.651 667.289C381.157 665.22 374.25 661.884 367.578 657.952L366.932 650.531C364.023 646.811 360.524 644.78 356.601 642.297L362.329 637.384Z"/>
	<path fill="#8ABAE7" d="M394.286 640.956C398.582 643.467 406.128 648.987 407.597 653.933C408.2 655.96 407.625 657.947 406.549 659.701C404.223 663.487 400.64 666.444 398.031 670.049C394.856 669.241 391.714 668.466 388.651 667.289C388.226 663.637 383.249 658.043 381.122 654.855C384.492 649.818 389.979 645.247 394.286 640.956Z"/>
	<path fill="#D8E4F2" d="M502.462 558.109C505.324 558.158 508.229 558.105 511.08 558.354C503.545 578.042 493.68 597.054 485.065 616.308L472.269 644.893C469.722 650.572 467.406 656.888 463.971 662.09C461.803 665.371 457.902 667.726 454.355 669.314C449.83 671.339 444.878 672.511 439.98 673.191C438.416 673.327 436.835 673.517 435.266 673.546C431.549 667.117 425.638 662.851 422.731 655.726C426.714 644.84 429.042 648.158 434.277 641.497L433.507 640.856C432.477 641.122 431.728 640.848 430.711 640.63C432.572 640.705 434.519 640.664 436.362 640.911C445.153 641.113 454.121 640.956 462.875 641.744C470.152 625.662 477.995 609.855 485.422 593.842C490.425 583.055 496.655 568.056 502.462 558.109Z"/>
	<path fill="#8ABAE7" d="M430.711 640.63C432.572 640.705 434.519 640.664 436.362 640.911C441.507 645.274 447.656 650.729 449.556 657.417C449.453 657.57 449.352 657.724 449.246 657.875C445.576 663.156 440.442 667.254 436.489 672.286L436.853 672.21L436.239 672.706C437.509 673.038 438.68 673.127 439.98 673.191C438.416 673.327 436.835 673.517 435.266 673.546C431.549 667.117 425.638 662.851 422.731 655.726C426.714 644.84 429.042 648.158 434.277 641.497L433.507 640.856C432.477 641.122 431.728 640.848 430.711 640.63Z"/>
	<path fill="#FEFEFE" d="M583.806 535.231C584.674 535.185 585.539 535.256 586.407 535.296C587.947 537.196 587.33 552.426 587.341 555.882L466.375 555.914L461.858 555.909L461.857 535.514C502.461 535.182 543.229 536.59 583.806 535.231Z"/>
	<path fill="#FEFEFE" d="M461.909 505.575C503.589 505.738 545.336 504.425 586.997 505.044Q587.147 518.97 587.135 532.897L461.91 532.956C461.918 523.842 462.125 514.684 461.909 505.575Z"/>
	<path fill="#F47A3E" d="M496.02 423.876C495.966 417.95 494.81 397.822 497.017 393.794C499.646 394.142 498.247 397.921 498.683 399.781C499.108 401.593 500.322 403.307 501.534 404.687C506.998 410.907 516.106 413.342 524.113 413.628C532.138 413.915 542.287 412.281 548.247 406.493C550.777 404.036 552.443 401.452 552.46 397.857C552.465 396.717 552.493 395.823 552.798 394.706L553.327 394.819C555.213 399.575 554.126 417.861 554.125 423.935C550.126 424.108 545.492 423.844 542.006 426.141C540.877 426.885 540.309 427.675 540.03 429.003C540.353 429.957 540.364 430.29 541.115 431.025C544.409 434.246 550.145 433.573 554.331 433.507L554.341 447.223C550.936 447.243 547.336 446.969 544.177 448.447C542.639 449.166 541.706 449.904 541.138 451.544C541.374 452.576 541.426 453.076 542.204 453.852C545.182 456.818 550.381 456.452 554.233 456.597L554.254 468.747C550.482 468.572 546.51 467.937 543.175 470.128C542.017 470.888 541.54 471.717 541.226 473.054C541.37 474.179 541.572 474.922 542.42 475.736C545.461 478.658 550.212 478.028 554.063 478.027C554.014 481.425 554.349 484.823 554.598 488.21C565.412 488.471 576.258 488.361 587.077 488.529L586.997 505.044C545.336 504.425 503.589 505.738 461.909 505.575L461.627 488.401C472.935 487.685 484.634 488.429 495.973 488.588L495.99 478.597C499.478 478.661 502.928 479.074 506.087 477.307C507.518 476.507 508.319 475.619 508.764 474.009C508.623 472.89 508.376 472.187 507.547 471.376C504.443 468.338 499.891 468.863 495.921 468.868L495.89 456.586C499.311 456.672 502.875 457.149 505.993 455.458C507.43 454.679 507.963 453.861 508.436 452.337C508.279 451.569 508.136 450.998 507.585 450.396C504.621 447.157 500.018 447.607 496.064 447.672C495.996 442.949 496.095 438.215 496.127 433.491C499.644 433.591 502.932 433.93 506.137 432.185C507.483 431.453 508.354 430.644 508.819 429.142C508.736 428.271 508.659 427.681 508.082 426.968C505.342 423.583 499.895 424.011 496.02 423.876Z"/>
	<path fill="#D8E4F2" d="M541.142 558.572L552.498 558.564L552.555 627.406C552.552 639.752 552.271 652.164 552.587 664.504L659.78 664.503Q664.842 673.336 670.707 681.657C673.667 685.927 677.149 690.241 679.531 694.86C680.474 696.688 681.635 698.891 681.153 701C680.759 702.722 679.8 704.167 678.297 705.114C676.212 706.426 673.421 706.522 671.017 706.581C658.402 706.889 645.713 706.14 633.084 706.167L576.418 706.333C569.501 706.363 556.206 707.513 549.903 705.93C546.534 705.085 544.154 703.011 542.321 700.098C539.544 694.224 541.102 679.237 541.315 672.35L541.142 558.572Z"/>
	<path fill="#8ABAE7" d="M541.315 672.35C545.186 677.125 549.79 680.958 551.791 686.939C549.682 691.579 545.722 696.319 542.321 700.098C539.544 694.224 541.102 679.237 541.315 672.35Z"/>
	<path fill="#8ABAE7" d="M574.028 671.407C577.421 671.941 584.898 678.809 586.996 681.597C588.437 683.512 589.309 685.712 588.89 688.132C587.917 693.762 580.002 698.421 575.673 701.667C569.448 699.711 563.064 692.498 560.117 686.872C563.018 680.616 568.574 675.467 574.028 671.407Z"/>
	<path fill="#8ABAE7" d="M611.288 671.848C614.854 672.228 621.219 677.323 623.657 679.962C625.357 681.804 626.778 684.187 626.549 686.787C626.012 692.898 617.302 698.325 612.849 701.886C610.279 701.392 602.043 693.849 600.178 691.483C598.773 689.702 597.671 687.525 598.027 685.195C598.863 679.72 607.115 674.958 611.288 671.848Z"/>
	<path fill="#8ABAE7" d="M648.311 672.898C651.99 672.923 655.584 676.273 658.112 678.675C660.614 681.052 662.873 683.939 662.882 687.557C662.899 694.343 654.614 700.358 650.074 704.612C645.951 700.955 640.676 697.103 637.698 692.435C636.254 690.173 635.605 687.634 636.305 684.997C637.761 679.511 643.676 675.598 648.311 672.898Z"/>
	<path fill="#FEFEFE" d="M384.02 230.081C384.85 230.018 385.672 229.964 386.504 229.942C393.441 229.758 400.152 231.267 405.234 236.324C407.965 239.042 410.075 242.345 410.905 246.125C412.79 254.711 411.609 268.779 411.586 277.905L411.667 336.715C419.005 342.842 474.883 383.807 475.294 385.756C474.674 386.536 473.534 387.714 473.2 388.634C472.64 390.179 473.047 393.752 473.039 395.472C473.008 401.981 472.949 408.497 473.014 415.005C473.049 418.519 473.571 422.382 473.018 425.837C472.592 428.497 471.611 431.154 470.294 433.496C468.148 437.316 464.22 442.293 459.641 443.133C457.89 443.454 456.964 442.529 455.568 441.647L398.486 398.587C389.994 392.093 378.542 384.809 371.629 376.775C367.781 372.304 364.72 365.738 363.326 360.008C361.313 351.737 362.081 342.192 362.087 333.7L362.128 301.516L362.175 271.497C362.191 265.11 361.948 258.514 362.629 252.16C363.049 248.232 363.893 244.9 366.069 241.529C370.271 235.02 376.65 231.666 384.02 230.081Z"/>
	<path fill="#FEFEFE" d="M658.751 231.148C659.986 231.086 661.262 231.007 662.499 231.081C669.662 231.509 676.199 234.828 680.954 240.16C683.694 243.231 686.276 247.574 686.959 251.627C688.011 257.87 687.54 264.588 687.545 270.914L687.549 301.274L687.525 337.982C687.52 344.287 687.897 350.851 687.363 357.115C687.078 360.443 685.53 365.37 683.281 367.972C676.458 375.868 663.765 384.345 655.272 391.103L597.839 437.054C595.137 439.178 592.529 441.394 589.928 443.639C588.253 441.967 586.533 440.342 584.864 438.665C581.585 435.37 578.534 431.437 577.124 426.956C574.959 420.077 576.208 394.694 576.201 385.626C580.979 381.097 586.282 377.029 591.371 372.853L618.15 350.813C623.596 346.395 629.252 342.229 634.489 337.562C633.733 320.677 634.178 303.56 634.09 286.652C634.034 275.821 632.809 262.317 634.689 251.844C635.402 247.87 636.985 244.551 639.454 241.378C644.39 235.037 651.041 232.202 658.751 231.148Z"/>
</svg>
