<?xml version="1.0" encoding="utf-8" ?>
<svg xmlns="http://www.w3.org/2000/svg" xmlns:xlink="http://www.w3.org/1999/xlink" width="1024" height="1024">
	<path fill="#FEFEFE" d="M0 0L1024 0L1024 1024L0 1024L0 0Z"/>
	<path d="M498.287 466.351C498.479 466.543 498.706 466.705 498.861 466.927C499.482 467.811 499.522 468.717 499.062 469.684C496.893 474.246 486.261 477.626 481.677 478.815C480.984 478.16 480.727 477.629 480.37 476.751C481.122 475.253 482.059 475.316 483.592 474.699C489.149 472.459 493.513 469.977 498.287 466.351Z"/>
	<path fill="#EF9F53" d="M268.001 104.11C274.155 103.741 279.312 104.483 284.753 107.592C289.857 110.508 295.11 115.646 296.48 121.495C296.995 123.697 296.833 125.945 295.585 127.878C293.513 131.087 289.704 132.636 286.142 133.436C280.686 133.657 275.756 132.93 270.847 130.514C265.271 127.769 259.608 122.789 257.756 116.719C257.028 114.333 257.029 111.878 258.356 109.698C260.374 106.384 264.425 104.893 268.001 104.11Z"/>
	<path fill="#F9E6AD" d="M663.222 209.239C665.907 211.309 676.627 239.72 678.75 244.717C673.758 256.673 669.275 268.933 663.769 280.657L663.379 280.734C661.983 279.502 650.362 249.646 648.817 245.535Q655.462 227.166 663.222 209.239Z"/>
	<path d="M819.649 438.853C820.337 439.291 821.122 439.551 821.44 440.346C822.487 442.967 821.823 448.314 822.018 451.281Q822.339 456.415 823.65 461.389C826.079 470.276 834.321 479.866 842.253 484.467C844.559 485.804 847.791 487.278 848.509 489.987C847.934 490.88 847.909 491.038 846.734 491.015C844.664 490.976 842.29 490.343 840.213 490.04C835.465 489.348 830.428 489.982 825.848 491.364C810.759 495.918 802.213 507.573 795.132 520.852C794.772 520.759 794.086 520.598 793.772 520.429C792.331 519.651 793.579 517.012 793.83 515.606C795.206 507.879 794.569 500.778 792.202 493.33C789.672 485.366 784.269 477.211 776.627 473.324C773.978 471.977 771.013 471.193 768.446 469.676C767.437 469.08 766.963 468.641 766.718 467.482C766.916 467.234 767.03 466.883 767.313 466.739C768.116 466.33 778.168 466.958 779.945 466.88C783.265 466.732 786.358 466.252 789.559 465.339C804.054 461.208 812.515 451.549 819.649 438.853Z"/>
	<path fill="#8AA4E8" d="M817.769 449.859C819.824 465.395 825.159 475.694 837.194 485.762C834.994 485.886 832.794 486.056 830.632 486.499Q829.412 486.737 828.205 487.037Q826.998 487.336 825.808 487.695Q824.617 488.055 823.446 488.473Q822.275 488.892 821.127 489.368Q819.978 489.845 818.855 490.378Q817.732 490.912 816.637 491.501Q815.542 492.09 814.478 492.733Q813.414 493.376 812.383 494.072Q811.352 494.768 810.358 495.514Q809.363 496.26 808.407 497.056Q807.451 497.851 806.537 498.693Q805.622 499.535 804.75 500.422Q803.879 501.309 803.053 502.238Q802.227 503.168 801.448 504.137Q800.67 505.107 799.941 506.114Q799.212 507.121 798.534 508.164C798.273 504.716 798.01 501.263 797.347 497.863C795.113 486.414 788.65 477.016 779.048 470.524L779.466 470.493C796.043 469.137 807.057 462.331 817.769 449.859Z"/>
	<path fill="#FCF290" d="M106.832 373.331C109.395 375.812 111.156 381.23 112.707 384.462C121.299 402.364 129.532 408.189 146.837 416.929C124.442 430.639 118.181 447.484 110.128 471.108L109.945 471.188L109.548 470.783L109.95 470.882L108.903 471.127L108.718 470.943L109.232 469.433L109.003 469.577C102.48 454.023 95.8986 439.893 83.3465 428.169C79.3623 424.447 74.9547 421.254 70.8325 417.694C74.5291 414.174 79.3091 411.472 83.3555 408.291C94.7805 399.309 102.114 386.942 106.832 373.331Z"/>
	<path fill="#C5CADD" d="M834.183 721.184C843.495 720.8 851.619 723.53 859.403 728.545C875.775 739.092 888.569 757.364 892.588 776.476C895.36 789.662 894.934 807.279 887.222 818.858C881.785 827.021 873.6 831.655 864.117 833.482C851.285 833.795 841.491 829.975 831.486 821.974C815.899 809.509 805.643 789.584 803.605 769.795C802.253 756.67 803.681 742.547 812.402 732.056C818.197 725.084 825.382 722.033 834.183 721.184Z"/>
	<path d="M303.965 273.957C297.838 274.785 292.301 273.938 287.213 270.136C283.381 267.272 280.994 263.226 280.438 258.473C279.819 253.173 281.065 247.644 284.542 243.499C287.665 239.776 292.396 237.645 297.198 237.281C302.232 236.899 306.926 238.757 310.614 242.157C314.417 245.664 316.741 250.437 316.708 255.651C316.67 261.591 313.678 267.296 309.523 271.413C314.716 276.552 320.895 280.871 326.635 285.389C334.32 291.438 341.88 297.599 349.632 303.57C364.473 315.002 378.941 326.963 393.707 338.5C406.444 348.453 419.843 358.126 432.024 368.722C447.612 359.737 459.461 350.17 478.561 355.294C488.209 357.882 496.875 364.501 501.74 373.25Q502.143 373.989 502.51 374.746Q502.877 375.504 503.207 376.278Q503.536 377.053 503.828 377.843Q504.119 378.633 504.372 379.436Q504.624 380.238 504.837 381.053Q505.05 381.867 505.223 382.691Q505.396 383.515 505.529 384.346Q505.662 385.177 505.754 386.014Q505.846 386.851 505.897 387.691Q505.948 388.531 505.958 389.373Q505.968 390.214 505.937 391.056Q505.906 391.897 505.834 392.735Q505.762 393.574 505.649 394.408Q505.536 395.242 505.383 396.07Q505.229 396.898 505.036 397.717Q504.842 398.536 504.609 399.345C501.968 408.43 495.259 416.188 487.063 420.8C488.745 428.573 501.328 459.575 505.73 465.7C508.191 469.125 511.866 471.886 515.385 474.14C523.931 479.612 538.02 482.821 540.448 494.172C541.291 498.112 540.811 502.775 538.415 506.104C535.521 510.124 530.741 511.933 526.133 513.163L525.439 523.549C563.005 521.78 600.771 523.353 638.292 520.869C635.5 516.939 632.093 512.076 632.814 506.973C633.053 505.285 633.935 503.883 635.316 502.894C637.064 501.643 639.379 500.947 641.516 501.386C643.665 501.828 647.304 504.834 649.319 503.747C651.689 502.467 653.072 502.256 655.679 502.998C665.329 505.745 673.172 513.948 680.284 520.616C687.506 521.05 694.787 520.986 702.018 520.882C708.455 520.789 716.374 519.683 722.578 521.629C723.705 523.239 723.903 565.124 723.08 568.448C722.769 569.701 721.994 570.425 720.839 570.973C720.339 571.209 719.391 571.256 718.874 571.322C720.053 574.476 722.047 577.177 723.529 580.187C728.523 590.329 731.566 601.198 731.888 612.531C732.257 625.537 729.321 638.976 727.367 651.805Q722.176 685.827 716.463 719.765Q708.78 769.914 700.223 819.922C698.563 829.282 697.554 838.852 695.52 848.131Q694.535 852.555 693.091 856.852Q691.648 861.149 689.762 865.271C679.747 887.334 659.801 905.663 637.081 914.021Q635.915 914.462 634.738 914.874Q633.561 915.285 632.375 915.667Q631.188 916.049 629.992 916.402Q628.796 916.754 627.592 917.076Q626.388 917.399 625.176 917.691Q623.964 917.983 622.745 918.245Q621.526 918.506 620.301 918.737Q619.076 918.969 617.846 919.169Q616.615 919.369 615.38 919.539Q614.145 919.708 612.906 919.847Q611.667 919.986 610.425 920.093Q609.183 920.201 607.939 920.278Q606.694 920.354 605.449 920.399Q604.203 920.445 602.956 920.459Q601.71 920.473 600.463 920.456Q599.216 920.439 597.971 920.391Q596.725 920.343 595.481 920.264Q594.237 920.184 592.995 920.074Q591.753 919.964 590.515 919.822Q589.276 919.681 588.041 919.508Q586.807 919.336 585.577 919.133Q584.347 918.93 583.122 918.696Q581.897 918.462 580.679 918.198Q579.461 917.933 578.25 917.638Q577.038 917.344 575.835 917.019Q574.631 916.694 573.436 916.339Q572.241 915.984 571.055 915.599Q569.869 915.214 568.694 914.8Q567.518 914.385 566.353 913.942Q565.188 913.498 564.034 913.026Q562.88 912.553 561.739 912.052Q560.598 911.551 559.469 911.021C538.068 901.04 527.656 885.238 511.441 869.747C499.88 858.702 487.47 848.327 475.526 837.689C475.512 846.425 476.209 918.246 474.975 920.958C473.981 921.451 473.718 921.466 472.607 921.042C472.416 920.969 472.247 920.849 472.067 920.752C463.919 919.432 445.39 920.456 435.977 920.492L358.5 920.572L232.231 920.591L198.994 920.498C192.994 920.469 186.497 919.962 180.563 920.825C179.119 920.608 178.513 920.765 177.514 919.655C175.905 909.713 177.346 885.878 178.035 875.232C182.727 802.693 201.39 725.056 244.415 665.318C268.666 631.646 307.183 600.873 348.97 594.163C363.93 591.761 380.245 593.866 392.742 602.918C401.744 609.438 409.824 618.171 417.948 625.771C430.798 637.791 443.801 649.6 456.526 661.763C456.587 637.985 455.95 614.063 456.539 590.306C477.638 586.64 497.342 579.422 510.107 561.109C514.218 555.21 516.789 548.649 518.829 541.798C510.776 541.497 503.077 541.283 497.145 534.889C494.239 531.756 490.373 524.294 491.224 519.739C491.328 519.183 491.395 519.129 491.637 518.704C492.948 518.43 492.884 518.715 493.967 519.386C495.394 521.584 495.668 524.172 496.315 526.674C497.932 532.926 502.981 536.26 509.054 537.47C512.382 538.132 515.895 538.099 519.277 538.202C520.8 528.764 522.474 519.415 522.521 509.823C527.312 509.258 532.29 508.293 535.368 504.17C537.134 501.804 537.987 498.655 537.415 495.737C536.543 491.294 532.931 487.956 529.242 485.674C518.315 478.913 505.056 474.908 499.426 462.213C496.877 456.464 495.058 450.457 492.164 444.856C492.103 444.738 492.045 444.618 491.986 444.499C486.134 443.455 479.006 443.104 473.913 446.718C470.09 449.432 469.013 455.653 465.092 457.451L464.35 457.108C463.782 455.286 464.19 453.571 465.026 451.894C467.507 446.915 471.589 443.284 476.958 441.724C481.303 440.461 485.987 440.358 490.481 440.329Q486.854 430.856 483.009 421.469C466.656 421.364 450.066 420.935 433.737 420.063C428.467 436.377 424.703 453.142 419.116 469.368C412.422 467.701 406.776 467.339 400.571 471.051C395.529 474.068 391.871 478.852 390.567 484.607C389.272 490.317 390.159 496.369 393.305 501.333C397.337 507.693 402.749 509.477 409.319 511.946C407.069 521.682 403.789 531.271 401.088 540.905C397.249 554.603 393.872 569.329 388.452 582.462C382.151 581.544 375.94 580.588 369.853 578.642C353.684 573.472 337.78 561.929 327.696 548.295C312.719 528.045 306.377 503.752 310.185 478.764C314.262 452.009 327.754 429.711 348.845 412.977C338.412 380.086 326.821 347.527 316.243 314.667C311.991 301.459 306.227 287.641 303.965 273.957Z"/>
	<path fill="#FEFEFE" d="M652.194 506.989C661.038 508.091 671.402 516.107 676.993 522.822C678.033 524.071 678.03 524.611 677.903 526.197C677.06 526.298 676.77 526.251 676.031 525.753C672.695 523.5 669.597 520.277 666.47 517.694C661.874 513.898 657.045 510.446 652.194 506.989Z"/>
	<path fill="#FEFEFE" d="M419.585 363.725C422.788 365.499 425.744 368.337 428.581 370.659C425.356 372.632 421.892 374.256 418.519 375.96C416.315 377.123 414.002 378.149 411.755 379.23Q415.724 371.505 419.585 363.725Z"/>
	<path fill="#FEFEFE" d="M308.26 276.243C313.117 278.768 317.701 283.294 321.913 286.797L318.004 294.787L315.426 300.677Q311.283 288.624 308.26 276.243Z"/>
	<path fill="#8AA4E8" d="M324.914 288.714C328.353 290.381 331.483 293.626 334.267 296.189C331.391 303.259 327.176 309.804 323.819 316.672L322.352 320.685C320.608 316.194 319.001 311.751 317.658 307.117C319.34 300.658 322.115 294.742 324.914 288.714Z"/>
	<path fill="#8AA4E8" d="M405.723 352.748C409.543 355.44 413.144 358.495 416.797 361.409C413.713 367.663 409.473 374.035 407.256 380.621C403.586 383.022 399.624 384.985 395.751 387.037L387.776 391.429C394.097 378.692 399.28 365.412 405.723 352.748Z"/>
	<path fill="#FEFEFE" d="M337.209 298.993C341.186 301.286 344.674 304.596 348.042 307.679C343.704 318.676 336.638 329.246 331.28 339.839L329.344 343.906C327.777 337.468 325.55 331.185 323.872 324.764C327.99 315.967 332.564 307.517 337.209 298.993Z"/>
	<path fill="#F9E6AD" d="M351.458 309.44L361.113 317.782C352.75 331.89 345.705 347.135 338.347 361.811C337.939 362.583 337.507 363.965 336.696 364.26L336.465 362.468L335.929 363.028C334.375 358.164 332.693 353.335 331.066 348.495C337.554 335.326 345.29 322.741 351.458 309.44Z"/>
	<path fill="#8AA4E8" d="M296.272 240.574C299.109 240.42 301.656 240.706 304.274 241.902Q304.946 242.21 305.584 242.585Q306.222 242.959 306.82 243.395Q307.417 243.832 307.967 244.326Q308.517 244.82 309.015 245.367Q309.513 245.914 309.953 246.509Q310.394 247.103 310.772 247.738Q311.151 248.374 311.463 249.044Q311.776 249.715 312.02 250.413C313.453 254.416 313.438 258.995 311.418 262.795C309.07 267.212 304.895 269.5 300.285 270.975C297.329 271.107 294.697 270.688 292.017 269.37Q291.309 269.016 290.641 268.591Q289.974 268.167 289.352 267.677Q288.731 267.186 288.164 266.635Q287.596 266.084 287.087 265.477Q286.579 264.871 286.135 264.216Q285.691 263.561 285.316 262.864Q284.942 262.167 284.64 261.435Q284.338 260.704 284.113 259.945C282.99 256.231 283.5 252.254 285.34 248.858C287.738 244.431 291.575 242.017 296.272 240.574Z"/>
	<path fill="#FEFEFE" d="M391.439 341.693C395.364 343.306 399.903 348.326 403.128 351.263C396.184 361.821 388.014 381.022 383.445 393.117Q377.028 396.195 370.797 399.634Q366.271 402.081 361.687 404.42C371.041 383.486 380.336 361.739 391.439 341.693Z"/>
	<path fill="#FEFEFE" d="M363.738 319.771C367.87 322.513 371.662 325.732 375.318 329.07C366.272 347.881 355.877 366.062 346.395 384.657L344.35 388.666C341.882 382.505 340.195 375.829 338.245 369.477C341.802 363.852 344.648 357.67 347.681 351.742L363.738 319.771Z"/>
	<path fill="#EF9F53" d="M682.292 524.531L719.797 524.433C719.705 532.395 720.683 560.786 719.299 566.375C719.026 567.479 718.461 567.794 717.685 568.588C713.029 564.106 709.21 558.004 704.987 553.026C697.129 543.76 688.426 536.022 679.015 528.396C680.146 527.145 681.208 525.823 682.292 524.531Z"/>
	<path fill="#8AA4E8" d="M378.621 331.575C382.081 333.966 385.269 336.838 388.504 339.527Q379.146 357.562 370.599 375.995C367.205 383.144 358.853 403.893 354.585 408.353C353.715 408.979 353.762 409.077 352.62 409.175C348.965 405.795 347.23 397.921 345.869 393.265C349.101 386.848 352.902 380.631 356.229 374.239C363.639 360.005 370.763 345.566 378.621 331.575Z"/>
	<path fill="#EF9F53" d="M635.521 524.726L635.797 524.972C634.978 532.529 639.765 540.454 642.794 547.225C608.225 545.081 573.695 541.446 539.115 539.43C533.713 538.843 528.282 538.64 522.855 538.441C523.631 534.662 524.132 530.795 524.739 526.984C540.784 526.02 556.968 526.148 573.039 526.025Q604.292 525.938 635.521 524.726Z"/>
	<path fill="#FEFEFE" d="M463.325 357.651C468.126 357.302 472.844 357.469 477.525 358.683Q478.328 358.898 479.119 359.151Q479.911 359.405 480.689 359.697Q481.468 359.988 482.231 360.317Q482.994 360.646 483.741 361.012Q484.487 361.378 485.215 361.78Q485.943 362.181 486.65 362.618Q487.357 363.054 488.043 363.524Q488.728 363.994 489.39 364.497Q490.052 365 490.688 365.535Q491.325 366.069 491.934 366.634Q492.544 367.199 493.126 367.793Q493.708 368.386 494.26 369.008Q494.812 369.629 495.334 370.276Q495.855 370.923 496.344 371.595Q496.834 372.267 497.29 372.962Q497.746 373.657 498.168 374.373Q498.548 375.016 498.896 375.676Q499.244 376.337 499.559 377.014Q499.874 377.691 500.156 378.382Q500.438 379.074 500.685 379.778Q500.932 380.483 501.145 381.199Q501.357 381.914 501.534 382.64Q501.711 383.365 501.853 384.098Q501.994 384.831 502.099 385.57Q502.204 386.31 502.273 387.053Q502.342 387.797 502.374 388.543Q502.406 389.289 502.402 390.035Q502.397 390.782 502.356 391.527Q502.315 392.273 502.237 393.016Q502.16 393.758 502.046 394.496Q501.932 395.234 501.782 395.965Q501.632 396.697 501.446 397.42C499.082 406.42 492.897 413.577 484.993 418.266C467.388 418.672 449.119 416.617 431.383 416.525C429.479 420.795 428.322 425.731 427.042 430.225C423.809 441.575 421.146 453.387 417.146 464.475C412.52 464.383 408.382 464.29 403.916 465.735C397.369 467.852 391.807 472.401 388.825 478.646C385.891 484.79 385.624 492.384 388.03 498.744C391.14 506.965 397.502 511.194 405.147 514.512C398.713 535.702 393.417 557.286 386.287 578.251C382.487 577.918 378.851 577.314 375.145 576.415C365.591 573.933 356.949 569.704 348.952 563.949Q348.073 563.321 347.211 562.672Q346.348 562.022 345.502 561.351Q344.656 560.68 343.827 559.988Q342.998 559.296 342.186 558.584Q341.375 557.871 340.582 557.139Q339.788 556.406 339.013 555.654Q338.239 554.902 337.483 554.131Q336.727 553.359 335.991 552.569Q335.255 551.779 334.539 550.971Q333.822 550.163 333.127 549.337Q332.431 548.511 331.756 547.668Q331.081 546.825 330.428 545.966Q329.774 545.106 329.142 544.23Q328.511 543.355 327.901 542.463Q327.291 541.572 326.704 540.666Q326.117 539.76 325.553 538.839Q324.988 537.918 324.447 536.984Q323.906 536.049 323.389 535.102Q322.871 534.154 322.377 533.193Q321.884 532.233 321.414 531.261Q320.945 530.288 320.5 529.304Q320.055 528.32 319.635 527.326Q319.214 526.331 318.819 525.326Q318.424 524.321 318.054 523.307Q317.684 522.292 317.34 521.269Q316.995 520.245 316.677 519.213Q316.358 518.182 316.065 517.142Q315.772 516.103 315.506 515.057Q315.239 514.01 314.999 512.957Q314.758 511.905 314.544 510.846Q314.331 509.788 314.143 508.724Q313.956 507.661 313.795 506.593C309.744 481.276 316.975 455.486 331.971 434.918C338.179 426.403 346.278 418.584 355.018 412.697C363.964 406.671 374.2 401.964 383.863 397.208C392.047 393.18 400.082 388.86 408.268 384.844C414.154 381.957 420.212 379.394 426.056 376.429C435.055 371.862 442.977 365.327 452.067 360.947C455.748 359.174 459.311 358.286 463.325 357.651Z"/>
	<path fill="#FCF290" d="M352.849 597.182C355.438 596.906 357.999 596.76 360.603 596.795C369.708 596.918 379.807 599.123 387.685 603.827C397.128 609.465 416.64 629.211 425.768 637.695L471.513 680.92C482.106 690.898 493 700.596 503.205 710.973C483.595 732.154 463.078 752.506 443.11 773.346C437.988 778.999 432.48 784.332 427.101 789.742C418.295 781.752 409.019 774.269 400.097 766.41C386.8 754.698 373.824 742.643 360.466 730.985C349.539 721.45 329.259 705.487 321.183 694.445C314.474 685.275 309.951 673.319 308.33 662.116C305.817 644.754 309.382 629.033 320.028 615.034C328.524 603.861 339.125 599.048 352.849 597.182Z"/>
	<path fill="#FEFEFE" d="M522.411 541.773C538.496 542.421 554.53 543.999 570.569 545.329C595.033 547.356 619.657 549.339 644.166 550.651C649.501 563.19 654.448 576.015 659.147 588.805C663.396 600.368 668.266 614.969 667.179 627.349C666.048 640.234 648.711 678.177 642.755 692.203Q622.697 740.571 600.777 788.125L598.421 793.077C594.82 790.438 591.593 786.969 588.299 783.947C579.791 776.141 571.48 768.096 562.924 760.349Q526.881 728.308 491.806 695.211C481.85 685.919 468.44 675.063 460.302 664.5C459.623 655.675 459.964 646.66 459.96 637.811L460.005 593.187C470.494 591.441 480.783 588.6 490.144 583.44C507.363 573.949 517.082 560.351 522.411 541.773Z"/>
	<path fill="#FEFEFE" d="M638.776 505.009C648.326 505.463 662.38 518.897 669.618 525.078C695.432 547.12 725.572 572.806 728.265 609.117C729.205 621.799 726.411 634.858 724.571 647.385Q720.463 675.822 715.478 704.118C711.238 728.813 707.613 753.634 703.538 778.362L696.167 824.059C694.659 833.404 693.567 843.121 690.924 852.217C687.466 864.111 681.745 874.892 673.581 884.215C656.474 903.752 633.702 915.165 607.798 916.796Q606.05 916.918 604.298 916.974Q602.546 917.03 600.794 917.02Q599.041 917.011 597.29 916.935Q595.539 916.86 593.792 916.719Q592.045 916.578 590.305 916.372Q588.564 916.166 586.833 915.895Q585.101 915.623 583.381 915.287Q581.661 914.951 579.954 914.551Q578.248 914.151 576.558 913.687Q574.868 913.223 573.196 912.696Q571.525 912.169 569.874 911.58Q568.223 910.991 566.596 910.34Q564.969 909.69 563.367 908.979Q561.765 908.268 560.191 907.497Q558.616 906.727 557.072 905.897Q555.528 905.068 554.016 904.182C537.235 894.411 526.466 879.055 512.484 866.124C488.464 843.908 463.75 822.318 439.286 800.586L429.861 792.154C436.716 784.187 444.647 776.784 451.963 769.205L505.856 713.799C516.236 721.635 525.638 731.166 535.19 739.986L577.831 778.947C584.573 785.097 592.696 793.968 600.051 798.833C602.963 794.097 604.876 788.418 607.081 783.297Q611.598 772.949 616.272 762.67Q631.92 727.342 646.689 691.637C653.928 674.469 661.681 657.228 667.873 639.656C669.366 635.416 670.549 631.213 670.724 626.697C671.501 606.541 655.318 566.93 647.061 547.481C644.681 541.875 641.374 536.27 639.452 530.528C639.064 529.371 638.84 527.944 639.258 526.763C639.651 525.654 640.31 525.068 641.333 524.588C652.671 528.61 669.863 547.25 678.274 556.519C679.475 557.842 680.23 558.323 682.008 558.401L682.961 557.492C683.192 549.782 646.112 523.45 639.938 516.079C638.292 514.114 635.804 510.979 636.371 508.189C636.687 506.636 637.608 505.93 638.776 505.009Z"/>
	<path fill="#FCF290" d="M180.563 920.825L180.618 920.221C181.283 912.119 180.857 903.761 180.944 895.624Q181.133 878.359 182.737 861.167C190.033 783.677 216.036 687.052 277.382 634.366C291.478 622.26 308.037 610.555 325.773 604.63C312.407 615.565 305.91 628.944 304.278 646.026C302.858 660.875 306.296 674.467 313.18 687.556C315.16 691.319 317.055 694.97 319.787 698.256C325.565 705.205 332.488 710.944 339.258 716.885L363.928 738.41L435.283 801.726C447.394 812.588 460.279 823.185 471.666 834.795C472.656 863.407 471.788 892.121 472.067 920.752C463.919 919.432 445.39 920.456 435.977 920.492L358.5 920.572L232.231 920.591L198.994 920.498C192.994 920.469 186.497 919.962 180.563 920.825Z"/>
</svg>
