<?xml version="1.0" encoding="utf-8" ?>
<svg xmlns="http://www.w3.org/2000/svg" xmlns:xlink="http://www.w3.org/1999/xlink" width="1024" height="1024">
	<path fill="#FEFEFE" d="M0 0L1024 0L1024 1024L0 1024L0 0Z"/>
	<path d="M496.76 436.208Q498.4 436.104 500.043 436.072Q501.686 436.041 503.329 436.083Q504.971 436.125 506.611 436.24Q508.25 436.354 509.882 436.542Q511.515 436.73 513.137 436.99Q514.76 437.25 516.369 437.582Q517.979 437.915 519.572 438.318Q521.165 438.721 522.738 439.195Q524.312 439.669 525.862 440.213Q527.413 440.756 528.938 441.368Q530.463 441.98 531.96 442.659Q533.456 443.338 534.921 444.083Q536.385 444.829 537.815 445.638Q539.245 446.448 540.638 447.32Q542.031 448.192 543.383 449.126Q544.735 450.059 546.045 451.052Q548.143 452.627 550.125 454.344Q552.108 456.062 553.965 457.914Q555.822 459.766 557.546 461.743Q559.269 463.72 560.85 465.814Q562.43 467.907 563.861 470.105Q565.291 472.304 566.564 474.597Q567.837 476.891 568.946 479.268Q570.056 481.644 570.996 484.093C576.697 498.823 578.353 525.073 580.556 541.267L591.591 618.5C574.598 618.814 557.571 618.58 540.575 618.559C541.799 625.148 543.848 631.53 544.885 638.169C564.084 639.329 582.388 643.129 600.847 648.341C607.557 628.07 616.438 608.312 624.654 588.619C631.077 573.225 636.927 557.486 643.824 542.306C648.15 544.036 652.298 546.432 656.147 549.044C652.526 556.511 649.525 564.411 646.182 572.023Q628.839 612.2 612.173 652.663C615.24 654.153 618.395 655.502 621.499 656.915C628.625 645.011 634.885 632.788 641.485 620.605C646.714 610.952 652.289 601.474 657.595 591.859C664.26 579.782 670.72 567.519 677.765 555.659C682.59 557.599 687.136 561.008 691.534 563.783C683.019 578.913 673.699 593.49 664.64 608.291C660.449 615.139 656.582 622.177 652.397 629.027C645.979 639.531 637.637 651.53 632.556 662.526Q643.673 669.334 653.622 677.756C691.369 710.33 712.862 757.278 718.545 806.295C719.824 817.329 720.045 828.411 720.548 839.498C721.425 858.859 722.158 878.294 723.553 897.624L880.973 897.622L931.612 897.622C940.117 897.623 948.769 897.294 957.26 897.656C958.61 897.714 959.525 897.669 960.523 898.645L960.385 899.456C959.093 900.303 957.516 900.377 956.007 900.43C943.832 900.863 931.369 900.246 919.164 900.239L835.75 900.152L295.91 900.114L157.861 900.042C127.831 900.113 97.6473 900.753 67.6332 900.047C66.1157 900.011 64.8467 900.212 63.5974 899.286L63.7689 898.42C65.3517 897.716 66.9323 897.577 68.6558 897.512C75.8184 897.24 83.0918 897.545 90.2668 897.561L132.12 897.591L281.988 897.538C284.159 847.395 276.574 801.692 294.927 753.185Q296.929 747.825 299.283 742.611Q301.636 737.396 304.332 732.35Q307.028 727.303 310.053 722.448Q313.079 717.592 316.421 712.948C342.226 677.466 379.84 654.102 422.353 644.313C435.053 641.389 448.037 640.111 460.891 638.065C462.084 631.514 463.824 625.002 465.357 618.52Q439.816 618.447 414.276 618.668C416.543 605.394 417.563 591.836 418.826 578.434Q421.184 552.843 423.898 527.287C425.341 513.44 426.069 497.965 430.539 484.729C433.46 476.082 438.536 468.214 444.528 461.378C457.827 446.206 476.804 437.586 496.76 436.208Z"/>
	<path fill="#FCF290" d="M544.016 640.411C555.26 642.176 566.586 643.068 577.796 645.216C585.338 646.662 592.686 648.968 600.13 650.84Q590.252 674.82 581.227 699.135C576.581 711.382 571.643 723.608 567.987 736.195C558.556 735.828 549.045 736.078 539.605 736.083L488.158 736.104C446.472 736.121 404.742 735.71 363.061 736.233C364.715 766.058 372.354 788.701 388.038 813.792C388.583 823.361 388.157 833.164 388.152 842.762L388.084 897.498L316.423 897.588L284.843 897.548C285.325 826.304 277.008 762.312 327.076 703.822C361.703 663.37 410.177 645.096 462.229 641.105C467.631 650.775 484.325 681.259 491.609 686.981C495.754 690.237 500.893 691.734 506.132 690.89C510.221 690.231 513.784 688.153 516.677 685.233C520.457 681.415 522.996 676.468 525.654 671.852C531.405 661.863 536.945 650.177 543.651 640.904C543.771 640.738 543.895 640.575 544.016 640.411Z"/>
	<path fill="#FEFEFE" d="M371.448 771.512L627.661 771.576C619.121 794.918 608.842 815.433 591.233 833.412C575.122 848.435 557.849 858.994 536.6 865.049C503.969 874.347 466.702 870.583 436.991 854.056C404.483 835.973 381.697 807.254 371.448 771.512Z"/>
	<path fill="#FEFEFE" d="M495.204 438.687C495.48 438.648 495.755 438.599 496.032 438.571C513.208 436.835 531.917 443.451 545.434 453.82C556.58 462.371 564.555 474.073 569.416 487.193C575.686 504.118 576.484 526.004 578.913 544.091L589.208 616.243C572.931 616.923 556.361 616.645 540.073 616.247C539.095 612.594 538.415 608.82 537.625 605.12Q540.611 603.184 543.224 600.769C555.267 589.733 560.699 572.761 561.421 556.814C561.721 550.163 561.447 543.469 561.482 536.811C561.505 532.449 562.037 527.695 561.405 523.383C561.171 521.788 560.71 520.177 559.529 519.027C557.004 516.569 517.386 517.731 510.868 517.725C491.375 517.789 471.804 517.428 452.323 517.834C450.147 517.879 445.319 517.638 443.992 519.59C441.036 523.937 442.875 561.46 444.071 567.716C447.149 583.826 455.246 596.185 468.76 605.311C467.741 608.744 466.937 612.269 466.046 615.739C449.69 616.373 433.218 616.11 416.849 616.17C417.517 606.721 418.863 597.217 419.869 587.791L423.831 547.797C425.484 531.555 426.608 508.073 430.73 492.756C433.365 482.965 437.688 473.871 444.011 465.924C456.668 450.016 475.227 440.961 495.204 438.687Z"/>
	<path fill="#FEFEFE" d="M446.309 520.129C465.028 519.325 484.088 520.016 502.843 520.017C519.915 520.017 537.293 519.296 554.327 520.042C556.002 520.115 557.226 520.113 558.55 521.163C560.246 525.697 559.319 554.441 558.747 560.629Q558.147 567.003 556.447 573.176C553.045 585.563 545.965 597.552 534.515 604.026C535.686 607.623 536.264 611.469 537.146 615.153C538.934 622.626 541.145 630.084 541.968 637.737Q535.617 649.336 528.954 660.758C524.339 668.377 518.391 682.297 510.636 686.509Q509.95 686.889 509.229 687.198Q508.508 687.507 507.76 687.742Q507.012 687.976 506.243 688.134Q505.475 688.291 504.695 688.37Q503.914 688.448 503.13 688.448Q502.346 688.447 501.565 688.367Q500.785 688.286 500.017 688.128Q499.249 687.969 498.501 687.733C495.241 686.691 492.72 684.715 490.475 682.176C484.811 675.768 480.671 667.278 476.309 659.911C471.857 652.39 466.999 644.882 463.162 637.034C466.036 625.925 469.116 614.839 471.589 603.634Q468.432 601.983 465.58 599.848C454.346 591.328 447.714 577.295 445.869 563.533C445.1 557.796 443.902 523.273 446.309 520.129Z"/>
	<path d="M478.897 568.533Q489.684 568.229 500.469 568.598C500.635 574.585 501.297 579.377 497.659 584.475C495.215 586.49 491.985 588.099 488.753 588.179C486.486 588.234 484.321 587.175 482.748 585.584C478.291 581.076 478.709 574.357 478.897 568.533Z"/>
	<path fill="#FEFEFE" d="M481.496 570.541Q489.729 570.501 497.961 570.605C497.91 575.026 497.998 578.908 495.649 582.83C493.852 584.363 491.86 585.413 489.433 585.43C487.672 585.442 486.165 584.702 484.947 583.458C481.324 579.758 481.416 575.317 481.496 570.541Z"/>
	<path d="M503.765 527.333C505.172 527.397 506.477 527.5 507.714 528.25C510.143 529.723 511.3 532.619 511.876 535.278C513.022 540.563 513.503 551.909 510.472 556.52C509.978 556.54 509.484 556.572 508.991 556.567C508.087 556.559 507.299 556.387 506.696 555.684C503.461 551.92 505.016 539.989 505.02 534.897C504.771 534.733 504.52 534.573 504.273 534.407C502.782 533.401 502.161 532.604 501.802 530.816C502.15 529.121 502.567 528.583 503.765 527.333Z"/>
	<path d="M476.089 535.143C479.236 534.759 484.606 534.342 487.283 536.415C488.438 537.309 488.468 537.629 488.65 538.978C487.991 540.411 487.55 541.074 486.346 542.091C483.438 542.314 477.639 543.222 475.154 541.401C473.981 540.541 474.013 540.189 473.861 538.849C474.464 537.274 474.966 536.399 476.089 535.143Z"/>
	<path d="M519.37 534.595C522.606 534.479 527.862 533.931 530.632 535.984C531.733 536.8 531.721 537.274 531.766 538.504C531.137 539.767 530.585 540.455 529.591 541.412C526.806 541.991 520.696 542.745 518.35 540.931C517.695 540.425 517.261 540.002 517.181 539.168C516.995 537.239 518.184 535.94 519.37 534.595Z"/>
	<path fill="#EF9F53" d="M613.426 810.094C630.306 811.027 647.483 813.79 664.192 816.327Q690.763 820.409 717.381 824.17C717.671 848.641 720.248 873.034 720.492 897.52L647.25 897.461L540.045 897.474Q540.083 882.235 539.957 866.997C573.781 856.062 593.055 838.495 613.426 810.094Z"/>
	<path fill="#FCF290" d="M631.031 664.819C638.172 669.362 645.113 674.189 651.545 679.704C694.335 716.397 713.055 766.432 717.311 821.459Q686.38 817.101 655.502 812.379C641.855 810.844 628.265 808.576 614.584 807.367Q619.067 799.007 622.943 790.349Q626.818 781.691 630.067 772.779Q633.315 763.866 635.92 754.745Q638.525 745.624 640.473 736.34C632.613 735.878 624.657 736.104 616.78 736.081C606.423 736.052 596.043 735.815 585.706 736.561C591.129 724.598 601.892 712.09 609.237 700.943C616.971 689.202 623.587 676.75 631.031 664.819Z"/>
	<path fill="#FEFEFE" d="M529.55 738.748L637.318 738.716C636.274 743.038 635.022 747.318 633.839 751.604C617.157 752.413 612.544 757.218 601.69 768.467C597.826 768.527 593.951 768.451 590.086 768.435C581.347 760.529 572.052 755.018 559.923 755.104C547.756 755.189 539.55 760.095 531.226 768.543C527.991 768.623 524.746 768.54 521.51 768.502C514.735 764.102 508.503 758.639 500.494 756.591C491.447 754.278 483.992 756.825 476.382 761.447C473.407 763.51 470.727 766.153 468.019 768.56C463.779 769.011 459.558 768.714 455.318 768.43C449.629 761.894 444.716 756.166 436.344 753.07C428.231 750.07 418.623 750.045 410.748 753.812C404.304 756.894 399.613 762.162 397.197 768.823Q383.835 768.861 370.477 768.558C367.795 758.926 366.401 748.837 365.812 738.865L529.55 738.748Z"/>
	<path fill="#EF9F53" d="M390.821 817.712C394.598 821.955 398.008 826.543 401.91 830.671C418.526 848.25 438.221 858.701 460.544 867.159Q460.805 882.357 460.55 897.556L390.728 897.511C390.2 870.923 390.989 844.303 390.821 817.712Z"/>
	<path fill="#FEFEFE" d="M463.443 867.933C486.18 874.894 514.355 872.876 537.244 868.049C537.517 876.431 537.298 884.856 537.248 893.243C537.268 894.615 537.191 895.816 536.979 897.172C530.886 898.34 520.829 897.405 514.383 897.409L463.413 897.511C463.295 887.659 463.429 877.786 463.443 867.933Z"/>
	<path fill="#FCF290" d="M679.144 559.442C681.933 561.368 684.914 563.084 687.797 564.872C685.319 570.032 681.879 574.972 678.874 579.852C672.87 589.604 666.73 599.298 660.889 609.147L630.196 660.277C623.419 671.738 617.113 683.496 609.978 694.74C604.412 703.512 598.308 711.924 592.487 720.526C589.101 725.531 585.147 730.826 582.851 736.428C580.156 735.786 577.173 736.043 574.412 736.047C579.474 727.744 585.686 720.058 591.299 712.119C598.35 702.145 605.021 691.667 611.187 681.121C628.881 650.858 645.183 619.737 662.345 589.166C667.913 579.247 673.12 569.096 679.144 559.442Z"/>
	<path fill="#FCF290" d="M645.107 546.257C647.585 547.775 650.427 548.952 653.042 550.238C649.252 557.075 646.407 564.524 643.272 571.683Q634.828 590.745 626.906 610.03C618.039 631.557 608.554 652.89 599.909 674.49C592.413 693.221 585.519 714.326 574.562 731.184C573.115 733.509 571.523 735.736 569.957 737.982C592.554 673.206 618.822 609.602 645.107 546.257Z"/>
	<path fill="#304486" d="M420.241 754.12C423.106 754.02 425.993 753.876 428.841 754.284C438.775 755.71 445.531 761.405 451.481 769.103C445.163 768.972 438.837 768.973 432.518 768.911C421.665 768.694 410.777 768.936 399.922 768.994Q401.122 766.58 402.687 764.385C407.104 758.085 412.868 755.368 420.241 754.12Z"/>
	<path fill="#304486" d="M555.247 758.133C568.793 757.503 576.545 760.688 587.248 768.943C580.465 768.474 573.67 768.546 566.875 768.543C556.116 768.507 545.362 768.752 534.601 768.617C540.469 762.584 546.967 759.312 555.247 758.133Z"/>
	<path fill="#FCF290" d="M610.892 655.575C613.887 656.728 616.809 658.01 619.739 659.317C612.298 675.973 601.33 691.905 591.405 707.208C590.081 709.336 588.609 711.386 587.197 713.458C589.463 706.962 592.347 700.616 594.944 694.24Q602.813 674.864 610.892 655.575Z"/>
	<path fill="#304486" d="M490.233 759.09C501.581 758.494 508.211 762.778 516.97 769.03L496.875 768.814L471.084 768.75C477.162 764.106 482.688 760.653 490.233 759.09Z"/>
	<path fill="#304486" d="M631.059 754.189L632.036 754.227L632.592 754.913C632.114 759.627 630.469 764.179 629.018 768.663C621.98 769.126 614.924 768.982 607.875 768.932L606.31 768.726L606.313 768.077C614.009 760.283 619.649 755.15 631.059 754.189Z"/>
	<path fill="#EF9F53" d="M315.574 426.21C320.632 425.867 325.475 426.063 330.413 427.31C340.24 429.792 348.812 435.704 353.986 444.499Q354.486 445.345 354.944 446.214Q355.402 447.084 355.817 447.974Q356.232 448.865 356.602 449.775Q356.973 450.686 357.298 451.613Q357.624 452.54 357.903 453.482Q358.183 454.424 358.416 455.379Q358.649 456.333 358.835 457.298Q359.021 458.263 359.159 459.236Q359.297 460.209 359.387 461.188Q359.478 462.166 359.52 463.148Q359.562 464.13 359.556 465.112Q359.55 466.095 359.496 467.076Q359.442 468.057 359.339 469.034Q359.237 470.012 359.087 470.983Q358.937 471.954 358.739 472.917Q358.542 473.879 358.297 474.831C354.622 488.729 344.168 499.559 329.803 502.088C317.733 504.212 305.463 503.02 294.471 509.763C274.592 521.957 284.392 546.509 285.761 564.627Q285.988 568.033 285.947 571.447Q285.906 574.86 285.596 578.26Q285.286 581.66 284.71 585.025Q284.134 588.39 283.295 591.699C276.417 619.384 256.585 644.612 227.732 650.969C217.462 653.232 207.282 652.644 198.012 658.35C191.739 662.211 187.365 667.829 184.769 674.69C175.647 698.804 190.74 706.906 196.765 727.261C200.635 740.333 200.542 754.196 197.245 767.363C189.702 797.488 164.476 823.119 133.305 828.072C121.336 829.974 110.163 827.908 98.9211 833.996C93.0814 837.159 87.3147 842.348 83.6084 847.853C80.8965 851.881 79.6942 859.98 75.5275 862.488L74.8775 862.311C74.6784 861.155 74.805 860.522 75.0921 859.392C76.8694 852.403 80.7357 845.672 85.6085 840.403C100.698 824.085 112.442 827.736 132.03 824.897C141.281 823.557 149.901 820.287 157.865 815.417C187.276 797.431 203.578 761.865 193.806 728.134C187.945 707.903 174.428 702.151 180.621 677.268C184.114 663.234 195.338 653.319 209.382 650.468C215.473 649.232 221.773 649.321 227.836 647.822C234.212 646.247 240.359 643.081 245.928 639.672C265.451 627.721 275.681 609.687 280.927 587.919C282.578 579.75 283.209 571 282.322 562.7C280.992 550.248 276.826 538.317 279.81 525.727C283.731 509.175 297.625 502.392 313.263 500.569C322.845 499.451 331.449 500.378 339.95 494.965Q340.691 494.495 341.408 493.989Q342.125 493.483 342.817 492.942Q343.508 492.402 344.172 491.828Q344.837 491.254 345.472 490.649Q346.107 490.043 346.712 489.408Q347.317 488.772 347.89 488.107Q348.464 487.442 349.004 486.75Q349.544 486.059 350.049 485.341Q350.554 484.624 351.024 483.882Q351.494 483.141 351.927 482.377Q352.36 481.614 352.755 480.83Q353.15 480.047 353.506 479.245Q353.863 478.443 354.179 477.624Q354.496 476.805 354.772 475.972Q355.048 475.139 355.283 474.294Q355.519 473.448 355.712 472.592Q355.895 471.726 356.035 470.853Q356.176 469.979 356.273 469.1Q356.371 468.221 356.427 467.338Q356.482 466.455 356.494 465.57Q356.507 464.685 356.476 463.801Q356.445 462.917 356.372 462.035Q356.299 461.153 356.183 460.276Q356.067 459.399 355.908 458.529Q355.75 457.658 355.55 456.797Q355.349 455.935 355.107 455.084Q354.865 454.233 354.583 453.394Q354.3 452.556 353.977 451.732Q353.653 450.909 353.291 450.102Q352.928 449.295 352.527 448.506Q352.125 447.718 351.686 446.95Q351.247 446.182 350.771 445.436C345.729 437.572 337.284 432.039 328.178 430.124C321.54 428.728 314.591 429.381 307.907 430.086C287.971 432.19 269.692 437.222 252.802 448.538C223.013 468.495 204.435 502.832 207.911 538.982C208.971 550.017 213.374 561.703 211.097 572.709C208.157 586.922 196.983 600.066 182.854 603.996C177.299 605.541 171.36 605.246 165.754 606.593C157.86 608.49 149.603 612.177 142.812 616.623C112.299 636.602 104.931 670.275 113.251 704.23C114.384 708.852 119.122 720.124 118.338 723.915L117.019 723.807C111.745 718.904 107.809 695.448 107.262 688.008C104.394 648.953 121.86 617.801 159.885 605.066C175.735 599.758 186.897 604.184 199.352 589.426C206.188 581.326 209.7 570.873 208.152 560.284C207.167 553.55 205.154 547.269 204.574 540.353C202.229 512.381 211.144 486.322 229.261 465.043Q230.631 463.455 232.06 461.92Q233.49 460.385 234.977 458.906Q236.465 457.427 238.007 456.006Q239.55 454.585 241.146 453.224Q242.742 451.863 244.389 450.564Q246.036 449.265 247.731 448.03Q249.427 446.795 251.168 445.625Q252.909 444.456 254.694 443.354Q256.479 442.253 258.305 441.22Q260.13 440.187 261.994 439.225Q263.858 438.263 265.757 437.373Q267.657 436.483 269.589 435.666Q271.521 434.849 273.482 434.107Q275.444 433.364 277.433 432.698Q279.422 432.031 281.434 431.441Q283.447 430.851 285.481 430.338C295.238 427.951 305.57 426.993 315.574 426.21Z"/>
	<path fill="#EF9F53" d="M711.361 124.189C713.977 123.852 716.815 124.055 719.422 124.39C729.483 125.686 737.953 130.63 744.119 138.656C751.465 148.217 754.524 160.492 750.475 172.127C748.293 178.398 745.239 183.996 744.441 190.709C743.658 197.294 744.745 203.424 747.852 209.308C757.589 227.752 778.068 225.63 794.841 232.677C809.561 238.862 822.82 249.463 832.548 262.099Q833.31 263.1 834.046 264.119Q834.783 265.138 835.495 266.175Q836.206 267.212 836.892 268.267Q837.578 269.321 838.237 270.392Q838.897 271.462 839.53 272.549Q840.163 273.636 840.769 274.738Q841.375 275.84 841.954 276.956Q842.533 278.073 843.085 279.203Q843.636 280.333 844.159 281.477Q844.683 282.62 845.178 283.777Q845.673 284.933 846.139 286.101Q846.606 287.269 847.044 288.448Q847.481 289.627 847.89 290.816Q848.298 292.005 848.678 293.205Q849.057 294.404 849.406 295.612Q849.756 296.82 850.076 298.036Q850.396 299.253 850.685 300.476Q850.975 301.7 851.235 302.931Q851.494 304.161 851.724 305.398Q851.953 306.634 852.152 307.876Q852.351 309.118 852.519 310.364Q852.687 311.611 852.825 312.861Q852.962 314.111 853.069 315.364Q853.176 316.617 853.252 317.872Q853.328 319.128 853.373 320.385Q853.418 321.642 853.432 322.899Q853.446 324.157 853.429 325.414Q853.412 326.672 853.365 327.928Q853.317 329.185 853.239 330.44Q853.16 331.696 853.051 332.949Q852.941 334.201 852.801 335.451Q852.661 336.701 852.49 337.947C848.504 368.045 827.862 401.484 800.715 416.021C792.054 420.659 781.562 422.167 773.75 428.215C767.967 432.692 763.978 438.912 763.138 446.27C761.897 457.14 766.645 466.803 776.279 472.069C779.404 473.777 784.425 475.599 786.644 478.425L785.796 479.27C781.266 479.245 777.755 477.268 774.128 474.775C767.175 469.995 761.676 463.448 760.168 454.926C757.645 440.671 766.175 427.943 778.668 421.725C786.193 417.979 794.386 416.092 801.628 411.605C814.071 403.896 824.12 393.377 832.353 381.378Q833.058 380.363 833.737 379.332Q834.417 378.3 835.07 377.252Q835.724 376.204 836.352 375.14Q836.98 374.077 837.581 372.998Q838.183 371.919 838.757 370.825Q839.332 369.732 839.88 368.625Q840.427 367.518 840.947 366.397Q841.468 365.277 841.96 364.144Q842.453 363.011 842.917 361.867Q843.381 360.722 843.817 359.566Q844.253 358.411 844.661 357.245Q845.068 356.078 845.447 354.903Q845.826 353.727 846.175 352.542Q846.525 351.357 846.845 350.165Q847.166 348.972 847.456 347.771Q847.747 346.571 848.009 345.363Q848.27 344.156 848.501 342.943Q848.733 341.729 848.934 340.511Q849.136 339.292 849.307 338.069Q849.478 336.845 849.62 335.618Q849.761 334.391 849.872 333.161Q849.983 331.931 850.064 330.698Q850.144 329.465 850.195 328.231Q850.245 326.997 850.265 325.762Q850.285 324.527 850.274 323.292Q850.263 322.056 850.223 320.822Q850.182 319.587 850.11 318.354Q850.039 317.121 849.937 315.89Q849.836 314.659 849.704 313.431Q849.572 312.203 849.41 310.978Q849.248 309.753 849.055 308.533Q848.863 307.313 848.641 306.098C842.516 273.526 819.558 243.668 787.422 233.326C777.243 230.05 765.545 229.732 756.564 223.453C743.841 214.557 738.464 199.7 742.401 184.751C745.369 173.479 750.543 166.962 748.312 154.686C746.667 145.629 740.766 137.946 733.331 132.749C731.42 131.558 729.477 130.549 727.398 129.69C719.512 126.432 709.66 126.43 701.797 129.71C690.266 134.518 683.099 145.042 678.63 156.292C667.998 183.054 669.654 212.435 681.098 238.521C692.553 264.631 715.091 283.319 741.415 293.326C748.269 295.932 755.637 296.797 762.449 299.491C769.684 302.351 775.783 306.901 778.854 314.313C781.693 321.169 781.183 328.906 778.298 335.658C772.56 349.088 760.108 352.194 747.799 357.142C710.019 372.329 687.639 412.298 691.061 452.379C691.277 454.91 691.515 457.482 691.998 459.979C692.792 464.093 696.442 471.838 694.798 475.651L693.909 475.951C693.77 475.853 693.616 475.772 693.491 475.656C690.023 472.426 688.345 456.569 687.985 451.925C685.025 413.7 704.649 374.804 739.352 357.215C750.393 351.618 763.609 350.343 771.895 340.226C776.266 334.888 778.572 327.968 777.657 321.079C775.018 301.199 754.066 301.851 739.75 296.233C728.988 292.009 717.81 285.991 708.644 278.883C687.17 262.23 672.156 235.256 668.831 208.334C666.256 187.479 670.527 156.695 683.953 139.817C691.04 130.908 700.075 125.542 711.361 124.189Z"/>
	<path fill="#EF9F53" d="M446.726 125.619C450.72 125.362 454.836 125.051 458.784 125.878C463.56 126.879 468.106 129.42 471.928 132.413C494.216 149.87 475.323 182.123 488.091 201.871C500.378 220.875 516.15 212.534 533.493 216.354C539.199 217.611 544.701 220.456 548.898 224.538C568.787 243.88 549.657 276.476 563.623 297.491C569.404 306.19 579.042 310.41 589.239 310.609C594.848 310.718 600.423 310.23 605.96 311.394C613.803 313.042 620.31 317.622 624.647 324.332Q625.587 325.778 626.365 327.317Q627.144 328.857 627.75 330.471Q628.357 332.086 628.785 333.757Q629.213 335.428 629.457 337.135C629.854 339.928 630.042 397.347 629.783 398.256C629.563 399.031 629.554 398.787 628.687 399.248C627.492 398.747 627.252 397.848 627.034 396.618C626.29 392.432 626.725 387.647 626.706 383.383C626.647 369.998 627.753 352.787 626.526 339.984C626.202 336.597 625.48 333.34 624.095 330.215C613.266 305.789 593.409 318.441 576.755 311.878C541.648 298.042 563.05 258.068 552.583 235.105Q551.86 233.525 550.947 232.048Q550.034 230.57 548.944 229.217Q547.854 227.864 546.605 226.657Q545.356 225.45 543.966 224.408C530.489 214.26 515.431 221.858 500.977 216.521C467.285 204.081 488.119 167.419 476.992 143.875C473.411 136.296 467.364 131.922 459.624 129.198C456.97 128.484 454.064 128.254 451.317 128.302C443.787 128.432 435.822 131.866 430.689 137.391C426.997 141.366 424.643 146.277 423.489 151.545C421.259 161.731 422.518 173.849 422.494 184.302C422.467 195.765 421.977 207.466 422.584 218.901C423.594 237.892 434.905 253.231 454.017 256.873C467.003 259.348 476.736 255.488 487.932 265.758C500.781 277.543 496.125 296.25 496.989 311.756C497.336 317.987 499.181 324.089 502.991 329.104C516.835 347.327 541 332.44 556.819 346.846C563.067 352.536 566.161 360.445 566.402 368.817C566.519 372.879 567.156 397.388 565.324 399.319L564.467 399.125C561.87 394.53 564.379 372.163 562.902 364.329C561.864 358.823 559.444 353.371 555.294 349.508C541.604 336.764 521.64 347.562 506.797 337.148C487.431 323.562 496.722 301.393 493.175 282.137C492.329 277.541 490.29 273.473 487.261 269.938C473.741 254.156 454.961 266.397 436.671 253.449C427.584 247.017 421.903 237.064 420.131 226.145C418.541 216.346 419.59 205.241 419.551 195.287C419.505 183.611 418.375 162.566 420.309 151.581Q420.632 149.71 421.169 147.888Q421.706 146.067 422.451 144.32Q423.195 142.573 424.137 140.924Q425.079 139.275 426.206 137.746C431.339 130.713 438.243 126.979 446.726 125.619Z"/>
	<path fill="#EF9F53" d="M912.345 466.617C920.836 465.828 928.415 467.2 935.957 471.191C944.612 475.77 951.322 483.44 954.178 492.878C958.714 507.865 953.896 525.047 946.633 538.337C932.038 565.043 909.993 582.823 879.901 588.732C871.793 590.324 863.234 589.682 855.293 592.115C838.329 597.314 834.086 612.76 836.002 628.746C836.403 632.084 838.569 640.012 837.138 642.726L836.452 642.488C835.156 639.916 834.392 637.141 833.759 634.341C831.262 623.285 831.245 611.768 837.533 601.905C848.705 584.382 865.165 588.783 882.452 584.993C906.983 579.616 926.869 564.237 940.262 543.303C948.8 529.959 955.083 511.996 951.477 496.056C949.385 486.811 943.709 479.737 935.698 474.805Q934.939 474.341 934.157 473.915Q933.376 473.489 932.575 473.103Q931.773 472.716 930.953 472.37Q930.134 472.023 929.298 471.718Q928.463 471.412 927.613 471.148Q926.763 470.884 925.901 470.663Q925.039 470.442 924.167 470.263Q923.296 470.085 922.416 469.949Q921.537 469.814 920.651 469.723Q919.766 469.631 918.878 469.584Q917.989 469.536 917.099 469.533Q916.21 469.529 915.321 469.57Q914.432 469.61 913.546 469.695Q912.66 469.779 911.779 469.907Q910.899 470.035 910.026 470.207Q909.153 470.378 908.289 470.593C899.08 472.915 891.879 478.254 887.013 486.377C883.445 493.203 882.956 500.626 877.633 506.716C867.221 518.627 851.855 516.297 837.89 519.384Q836.064 519.804 834.257 520.298Q832.45 520.791 830.664 521.357Q828.878 521.922 827.116 522.56Q825.354 523.197 823.619 523.904Q821.885 524.612 820.18 525.389Q818.475 526.166 816.803 527.01Q815.131 527.855 813.494 528.767Q811.857 529.678 810.258 530.655Q808.66 531.632 807.102 532.672Q805.543 533.712 804.028 534.814Q802.513 535.916 801.044 537.078Q799.575 538.241 798.153 539.461Q796.732 540.682 795.361 541.958Q793.99 543.235 792.671 544.566Q791.352 545.897 790.088 547.279Q788.824 548.662 787.617 550.095C772.16 568.521 763.936 588.043 761.28 611.941C759.368 629.151 763.965 640.576 750.967 655.033C746.765 659.707 735.292 668.689 728.885 668.633C728.058 668.626 728.28 668.578 727.682 667.891C729.512 663.515 748.299 659.862 755.058 643.249C758.573 634.61 757.824 625.774 758.097 616.67Q758.144 614.767 758.259 612.867Q758.374 610.967 758.556 609.073Q758.738 607.178 758.987 605.291Q759.235 603.404 759.551 601.527Q759.866 599.65 760.248 597.785Q760.629 595.921 761.076 594.07Q761.524 592.22 762.036 590.387Q762.548 588.554 763.125 586.74Q763.702 584.927 764.343 583.134Q764.984 581.342 765.687 579.573Q766.391 577.805 767.156 576.062Q767.922 574.32 768.749 572.606Q769.576 570.891 770.463 569.207Q771.35 567.523 772.296 565.872Q773.242 564.22 774.246 562.603Q775.25 560.986 776.31 559.405C790.643 538.462 811.291 522.013 836.439 516.388C844.311 514.627 852.319 514.5 860.174 512.973C882.202 508.69 876.891 494.999 886.423 481.328C892.563 472.52 902.074 468.453 912.345 466.617Z"/>
	<path fill="#EF9F53" d="M872.191 679.621C875.493 679.281 879.069 679.357 882.357 679.825C892.216 681.228 901.771 686.595 907.765 694.607C927.19 720.577 906.737 767.034 888.746 788.482C876.561 803.008 861.889 808.48 854.308 827.042C849.812 838.05 848.129 850.778 850.703 862.469C851.582 866.461 853.314 871.229 852.729 875.288L852.261 875.447C851.243 874.509 850.642 873.477 850.057 872.238C846.791 865.323 846.175 855.389 846.527 847.839C847.262 832.071 853.345 816.585 865.347 806.022C872.276 799.923 879.465 794.904 885.517 787.808C895.172 776.488 902.003 763.613 906.871 749.603C911.999 734.848 915.085 715.663 907.99 701.055C904.516 694.786 899.058 689.372 892.654 686.13C884.156 681.829 874.36 681.506 865.41 684.573Q863.58 685.21 861.827 686.036Q860.074 686.862 858.418 687.867Q856.761 688.872 855.219 690.045Q853.677 691.218 852.266 692.546C837.322 706.366 843.684 723.15 833.236 739.252C827.963 747.378 819.811 752.216 812.544 758.268C802.99 766.226 795.136 777.147 789.477 788.154C785.483 795.923 781.884 804.45 779.73 812.95C778.408 818.167 777.991 829.314 775.653 833.495C775.148 834.399 775.432 834.116 774.416 834.411L773.697 833.411C773.237 829.625 774.159 825.042 774.811 821.256C778.628 799.11 790.179 775.224 806.48 759.477C814.762 751.475 825.525 746.134 831.529 735.918C839.357 722.596 835.908 708.69 844.508 696.543C851.293 686.962 860.762 681.629 872.191 679.621Z"/>
	<path fill="#EF9F53" d="M280.503 223.662C292.744 222.163 304.512 226.671 314.711 233.133C332.775 244.579 348.206 263.201 353.671 284.12C358.957 304.355 358.677 319.101 374.017 335.383C385.588 347.665 400.452 354.688 416.996 357.392C419.933 357.872 426.966 357.984 429.138 359.635L429.211 361.287L428.432 361.976C417.137 362.1 404.627 358.663 394.392 354.133C373.813 345.024 359.878 326.794 354.731 305.102C352.58 296.039 351.577 286.757 348.22 278.008C342.338 262.675 331.911 250.149 319.074 240.145C310.245 234.042 301.232 228.531 290.391 227.155C281.038 225.968 270.937 227.954 263.426 233.853C256.264 239.477 251.337 247.605 250.25 256.698C248.733 269.377 253.571 281.044 263.579 288.938C268.889 293.126 274.778 296.637 278.998 302.037C285.126 309.878 287.43 319.933 286.16 329.735C284.961 338.98 280.425 349.346 272.754 355.045C268.909 357.901 261.261 362.343 256.209 361.181C255.405 360.996 255.624 360.952 255.144 360.133C255.912 357.437 266.107 355.947 269.117 353.943C271.97 352.043 274.692 348.978 276.701 346.214C282.304 338.506 284.466 328.379 282.878 319.018C280.647 305.864 273.707 300.774 263.55 293.388C254.807 287.03 249 278.785 247.358 267.973C245.781 257.599 247.775 247.034 254.121 238.571C260.806 229.657 269.602 225.203 280.503 223.662Z"/>
</svg>
