<?xml version="1.0" encoding="utf-8" ?>
<svg xmlns="http://www.w3.org/2000/svg" xmlns:xlink="http://www.w3.org/1999/xlink" width="1024" height="1024">
	<path fill="#FEFEFE" d="M0 0L1024 0L1024 1024L0 1024L0 0Z"/>
	<path d="M261.248 351.654C258.304 337.482 260.367 322.52 268.459 310.339C276.318 298.51 288.755 289.56 302.789 286.852C315.632 284.374 327.416 286.739 338.661 293.225C347.316 291.497 356.649 294.159 363.909 298.933Q364.723 299.478 365.508 300.064Q366.294 300.649 367.049 301.273Q367.805 301.896 368.528 302.557Q369.252 303.217 369.941 303.913Q370.631 304.609 371.285 305.338Q371.939 306.067 372.556 306.828Q373.173 307.589 373.752 308.379Q374.33 309.17 374.868 309.988Q375.407 310.807 375.904 311.651Q376.401 312.495 376.855 313.363Q377.309 314.231 377.719 315.12Q378.13 316.01 378.496 316.919Q378.861 317.827 379.181 318.753Q379.501 319.679 379.775 320.62Q380.048 321.561 380.274 322.514Q380.5 323.467 380.679 324.43C382.474 333.704 381.488 344.139 380.118 353.444C390.408 354.936 397.888 358.896 404.14 367.345C410.942 376.537 413.545 387.624 413.669 398.898Q388.587 398.699 363.504 398.858C356.64 398.856 346.287 397.818 339.84 399.2C339.232 400.808 339.336 402.39 339.338 404.08C340.179 412.882 342.461 426.929 349.931 432.741C354.235 436.089 364.523 434.662 369.784 434.609C385.085 434.456 403.694 432.062 417.802 439.236Q419.041 439.855 420.233 440.562Q421.424 441.269 422.562 442.06Q423.699 442.851 424.777 443.721Q425.854 444.592 426.866 445.538Q427.878 446.484 428.819 447.501Q429.761 448.518 430.626 449.6Q431.492 450.681 432.277 451.823Q433.062 452.964 433.763 454.159C439.525 463.86 445.781 486.065 449.844 497.649Q459.133 523.674 468.113 549.807C470.043 555.504 472.276 561.198 474.001 566.95Q479.919 555.686 485.4 544.202C487.482 539.895 489.48 533.539 492.461 529.983C493.334 530.361 493.415 530.754 493.935 531.523C496.443 529.778 511.936 499.431 515.035 493.92C514.528 487.471 515.859 482.445 520.128 477.368C524.666 471.972 531.25 468.777 538.243 468.178C544.922 467.607 550.579 470.022 555.509 474.409C566.753 484.415 574.208 500.518 576.299 515.247C587.891 516.644 597.206 526.442 604.081 535.136C622.359 558.251 633.284 591.837 629.628 621.34C629.318 623.841 629.304 630.05 627.394 631.748C626.819 632.259 625.82 631.969 625.095 631.938C623.192 634.47 622.217 639.934 622.566 643.004C623.239 648.939 626.35 653.801 626.596 660.054C626.968 669.521 626.659 679.098 626.649 688.577L626.601 742.56C626.598 747.678 625.718 762.51 626.902 766.676C654.79 766.325 733.323 769.899 752.864 789.444C754.42 791.001 755.592 792.821 756.85 794.611C764.759 790.753 774.528 791.982 783.105 792.165L784.236 791.654C785.207 787.626 784.867 782.769 784.988 778.623C785.303 767.837 785.145 743.407 787.469 733.989C788.356 730.393 790.346 726.275 793.693 724.377C795.651 723.266 797.8 723.13 799.921 723.855C805.873 725.892 809.496 732.786 811.895 738.199C813.689 742.247 816.795 753.425 820.897 755.139C821.721 755.483 822.115 755.283 822.95 755.147C825.143 753.594 825.661 751.256 826.056 748.71C827.548 739.098 824.895 723.613 824.222 713.443C822.251 683.676 822.144 631.366 847.772 611.357C852.83 607.408 859.622 606.36 865.867 607.19C872.533 608.076 878.077 611.411 882.105 616.762C888.04 624.646 890.904 634.945 892.51 644.534C893.682 651.53 894.199 658.701 894.412 665.788C894.677 674.638 893.811 735.302 894.723 737.088C894.927 737.489 895.381 737.7 895.71 738.006L897.051 738.082C898.75 735.506 899.707 731.832 900.874 728.944C904.004 721.195 910.472 705.772 919.347 703.793C921.62 703.286 923.774 703.81 925.646 705.17C933.757 711.06 936.685 727.942 937.85 737.158C944.23 787.614 935.11 858.165 919.104 906.51Q915.09 918.481 909.588 929.845C907.621 933.806 904.256 938.31 903.057 942.463C911.031 942.605 955.726 941.484 959.317 943.203L959.56 943.975L958.991 944.814C950.668 945.912 938.036 945.112 929.314 945.152L859.58 945.114L644.513 945.305L264.093 945.026L135.635 945.093C112.027 945.104 88.2757 945.627 64.6836 944.908C63.3906 944.115 63.4995 944.055 63.0614 942.581C65.2856 937.376 65.9745 930.777 67.6824 925.29C72.2032 910.764 80.7399 898.384 90.1419 886.618C97.386 877.552 105.967 870.534 115.116 863.513C116.78 862.236 119.843 860.562 120.377 858.555C112.681 858.447 66.7835 859.397 63.7423 858.042L63.501 857.022L64.071 856.227C66.502 855.314 155.423 855.909 166.9 855.877C160.64 843.932 156.082 830.893 150.893 818.441Q135.914 783.129 121.772 747.473L98.7243 689.879C94.2463 678.729 89.2128 667.55 85.4996 656.133C83.5274 650.07 82.3413 644.152 82.4212 637.765C82.5193 629.914 84.4579 622.698 87.7613 615.605C90.8632 608.944 95.0234 602.709 98.6886 596.34L123.636 553.36Q143.604 517.789 163.991 482.456C169.223 473.287 181.742 448.898 188.401 442.45C192.293 438.681 196.635 436.396 201.934 435.252C210.913 433.313 221.295 434.272 230.498 434.262Q255.222 434.191 279.944 434.424C286.738 423.138 289.121 412.194 291.31 399.37C287.251 397.646 238.182 398.82 229.983 398.641C229.861 384.726 232.275 371.784 242.341 361.476C247.661 356.028 253.895 353.308 261.248 351.654Z"/>
	<path fill="#FEFEFE" d="M536.148 533.157C538.133 534.198 540.256 535.18 542.389 535.881C549.163 538.108 556.537 538.024 562.901 534.579C569.861 530.811 573.642 524.722 575.812 517.35C581.506 518.732 586.208 521.309 590.742 524.973C612.255 542.359 623.985 573.737 626.929 600.482C627.903 611.087 626.595 621.459 625.095 631.938C623.192 634.47 622.217 639.934 622.566 643.004C623.239 648.939 626.35 653.801 626.596 660.054C626.968 669.521 626.659 679.098 626.649 688.577L626.601 742.56C626.598 747.678 625.718 762.51 626.902 766.676C626.555 769.622 626.303 772.445 623.821 774.449C622.759 775.306 621.37 775.873 619.99 775.77C618.13 775.632 616.509 774.547 615.457 773.043C614.149 771.173 614.024 769.037 613.894 766.832C581.967 767.423 543.364 769.197 512.893 779.195C506.431 781.316 495.338 785.215 492.294 791.878C490.765 795.223 491.9 799.367 493.036 802.662C501.673 827.706 526.284 844.86 549.089 855.902C532.98 854.808 516.368 855.542 500.217 855.553L410.618 855.679L409.736 746.745C409.408 718.386 408.733 689.897 409.428 661.548L421.061 682.69C427.764 694.811 433.311 705.767 446.889 711.262C456.895 715.311 468.811 715.015 478.681 710.696Q479.927 710.139 481.131 709.499Q482.336 708.859 483.494 708.137Q484.652 707.416 485.758 706.617Q486.864 705.818 487.913 704.946Q488.961 704.073 489.948 703.131Q490.935 702.189 491.855 701.182Q492.775 700.174 493.624 699.106Q494.473 698.038 495.247 696.915C501.776 687.289 506.6 672.221 511.361 661.331C521.594 637.928 532.368 614.784 541.849 591.061C550.725 612.306 562.177 634.566 581.453 648.17L582.009 648.557L581.461 648.246L582.656 648.853C583.241 648.439 583.225 647.816 583.418 647.144C582.272 644.55 577.497 641.466 575.289 639.418C570.863 635.313 566.935 630.623 563.338 625.785C549.323 606.927 537.377 576.797 535.297 553.412C534.686 546.548 535.148 539.957 536.148 533.157Z"/>
	<path fill="#FE8A56" d="M546.367 565.41C552.021 566.188 557.706 567.132 563.411 567.4C569.544 567.688 575.7 567.323 581.832 567.645C595.949 568.385 596.705 586.641 604.724 595.049C610.591 601.2 619.153 600.477 626.929 600.482C627.903 611.087 626.595 621.459 625.095 631.938C623.192 634.47 622.217 639.934 622.566 643.004C623.239 648.939 626.35 653.801 626.596 660.054C626.968 669.521 626.659 679.098 626.649 688.577L626.601 742.56C626.598 747.678 625.718 762.51 626.902 766.676C626.555 769.622 626.303 772.445 623.821 774.449C622.759 775.306 621.37 775.873 619.99 775.77C618.13 775.632 616.509 774.547 615.457 773.043C614.149 771.173 614.024 769.037 613.894 766.832C613.662 744.502 613.825 722.139 613.878 699.807C613.895 692.479 615.072 676.007 613.364 669.552C611.939 664.166 605.845 661.118 602.005 657.581C580.019 637.336 558.306 613.681 549.825 584.31C548.039 578.124 547.213 571.777 546.367 565.41Z"/>
	<path fill="#80AE7B" d="M783.105 792.165L784.236 791.654C785.207 787.626 784.867 782.769 784.988 778.623C785.303 767.837 785.145 743.407 787.469 733.989C788.356 730.393 790.346 726.275 793.693 724.377C795.651 723.266 797.8 723.13 799.921 723.855C805.873 725.892 809.496 732.786 811.895 738.199C813.689 742.247 816.795 753.425 820.897 755.139C821.721 755.483 822.115 755.283 822.95 755.147C825.143 753.594 825.661 751.256 826.056 748.71C827.548 739.098 824.895 723.613 824.222 713.443C822.251 683.676 822.144 631.366 847.772 611.357C852.83 607.408 859.622 606.36 865.867 607.19C872.533 608.076 878.077 611.411 882.105 616.762C888.04 624.646 890.904 634.945 892.51 644.534C893.682 651.53 894.199 658.701 894.412 665.788C894.677 674.638 893.811 735.302 894.723 737.088C894.927 737.489 895.381 737.7 895.71 738.006L897.051 738.082C898.75 735.506 899.707 731.832 900.874 728.944C904.004 721.195 910.472 705.772 919.347 703.793C921.62 703.286 923.774 703.81 925.646 705.17C933.757 711.06 936.685 727.942 937.85 737.158C944.23 787.614 935.11 858.165 919.104 906.51Q915.09 918.481 909.588 929.845C907.621 933.806 904.256 938.31 903.057 942.463L813.414 942.486C810.199 931.729 805.029 921.549 801.838 910.715C793.207 881.413 789.1 848.388 786.321 817.973C795.635 818.032 818.282 820.132 825.293 814.363C827.686 812.395 829.128 809.72 829.372 806.627C829.627 803.395 828.624 798.869 826.382 796.436C824.687 794.596 822.411 793.53 820.005 792.956C811.114 790.834 794.168 793.006 784.093 792.246L783.105 792.165Z"/>
	<path fill="#FEFEFE" d="M858.486 683.223L859.676 683.954C860.001 684.642 860.223 685.247 860.249 686.017C860.947 706.152 860.157 726.61 860.118 746.777L860.088 864.409L860.235 915.789C860.263 921.4 861.22 937.278 859.892 941.824L858.158 942.735C857.847 942.448 857.565 942.219 857.33 941.852C855.823 939.5 856.644 851.438 856.626 842.121L856.497 724.6C856.494 716.316 856.615 708.024 856.545 699.742C856.506 695.146 855.636 689.512 856.674 685.074C856.971 683.804 857.403 683.82 858.486 683.223Z"/>
	<path fill="#BFE8FB" d="M120.377 858.555L340.286 858.47L408.986 858.443C421.433 858.422 433.946 858.133 446.384 858.427L446.661 942.436L149.775 942.46L88.6951 942.381C82.9204 942.357 68.081 941.351 63.0614 942.581C65.2856 937.376 65.9745 930.777 67.6824 925.29C72.2032 910.764 80.7399 898.384 90.1419 886.618C97.386 877.552 105.967 870.534 115.116 863.513C116.78 862.236 119.843 860.562 120.377 858.555Z"/>
	<path fill="#5FA6F3" d="M261.248 351.654C258.304 337.482 260.367 322.52 268.459 310.339C276.318 298.51 288.755 289.56 302.789 286.852C315.632 284.374 327.416 286.739 338.661 293.225C347.316 291.497 356.649 294.159 363.909 298.933Q364.723 299.478 365.508 300.064Q366.294 300.649 367.049 301.273Q367.805 301.896 368.528 302.557Q369.252 303.217 369.941 303.913Q370.631 304.609 371.285 305.338Q371.939 306.067 372.556 306.828Q373.173 307.589 373.752 308.379Q374.33 309.17 374.868 309.988Q375.407 310.807 375.904 311.651Q376.401 312.495 376.855 313.363Q377.309 314.231 377.719 315.12Q378.13 316.01 378.496 316.919Q378.861 317.827 379.181 318.753Q379.501 319.679 379.775 320.62Q380.048 321.561 380.274 322.514Q380.5 323.467 380.679 324.43C382.474 333.704 381.488 344.139 380.118 353.444C390.408 354.936 397.888 358.896 404.14 367.345C410.942 376.537 413.545 387.624 413.669 398.898Q388.587 398.699 363.504 398.858C356.64 398.856 346.287 397.818 339.84 399.2C339.232 400.808 339.336 402.39 339.338 404.08C338.687 401.767 339.028 398.997 339.081 396.602C343.647 390.381 348.164 384.333 351.603 377.387C358.021 364.424 361.986 348.713 356.786 334.607C355.759 331.82 354.411 330.611 351.708 329.474C349.203 326.228 346.581 323.193 343.616 320.355C338.482 330.18 331.117 337.731 320.334 341.166C316.105 342.514 310.411 343.42 306.053 342.276C304.293 341.814 302.536 340.592 300.785 340.308C300.164 340.207 299.681 340.351 299.123 340.568C297.045 339.462 294.771 339.368 292.502 340.004C289.652 340.801 287.435 343.073 286.115 345.66C284.166 349.481 284.01 353.937 285.489 357.949C287.166 362.501 290.181 365.014 294.347 367.214C293.863 376.922 293.241 389.997 291.31 399.37C287.251 397.646 238.182 398.82 229.983 398.641C229.861 384.726 232.275 371.784 242.341 361.476C247.661 356.028 253.895 353.308 261.248 351.654Z"/>
	<path fill="#FEFEFE" d="M749.666 811.844C751.64 813.426 753.71 815.288 756.058 816.269C764.135 819.644 777.599 818.062 786.321 817.973C789.1 848.388 793.207 881.413 801.838 910.715C805.029 921.549 810.199 931.729 813.414 942.486L777.953 942.474L777.63 885.666C777.577 876.199 778.369 865.707 776.888 856.36C767.326 855.253 757.089 855.791 747.444 855.711C730.434 855.569 713.332 855.257 696.333 855.84C722.023 842.561 731.176 833.848 749.666 811.844Z"/>
	<path fill="#FEFEFE" d="M343.616 320.355C346.581 323.193 349.203 326.228 351.708 329.474C357.856 343.288 357.452 355.918 351.985 369.985C348.169 379.802 340.182 395.34 329.959 399.7C326.359 401.235 322.516 400.905 319.011 399.285C309.598 394.936 303.367 382.072 300.172 372.802C299.408 370.585 298.789 368.319 298.175 366.056C294.132 364.585 290.484 362.616 288.461 358.586C286.813 355.301 286.77 351.287 288.041 347.868C288.82 345.772 290.244 343.59 292.338 342.629C294.003 341.866 295.607 341.997 297.269 342.687C298.313 343.121 299.052 343.678 299.896 344.414C300.055 347.255 297.825 346.814 300.289 349.487C301.693 349.739 301.962 349.684 303.316 349.213C303.831 348.625 304.302 348.422 304.241 347.585C304.039 344.795 301.141 342.234 299.123 340.568C299.681 340.351 300.164 340.207 300.785 340.308C302.536 340.592 304.293 341.814 306.053 342.276C310.411 343.42 316.105 342.514 320.334 341.166C331.117 337.731 338.482 330.18 343.616 320.355Z"/>
	<path fill="#F7CEF0" d="M252.392 436.841Q263.133 436.667 273.869 437.049C274.674 440.687 274.99 444.497 275.634 448.176L280.086 473.11L291.318 534.726C307.017 535.029 322.769 534.797 338.472 534.77C352.52 534.747 366.626 534.984 380.665 534.506C377.713 521.54 375.387 508.425 372.647 495.411L359.952 437.006L381.229 437.008C383.295 445.589 384.795 454.352 386.619 462.991L396.484 508.686C399.351 521.999 403.924 536.595 405.336 550.023C406.345 559.62 405.842 569.68 405.891 579.328L406.172 633.631L407.635 809.875L408.033 855.629L268.803 855.634C259.229 844.684 250.429 832.941 241.399 821.534C236.243 815.019 226.151 803.992 223.105 797.063C221.502 793.417 222.201 788.54 220.959 784.62L199.392 717.983C206.112 705.48 213.699 693.58 220.958 681.394C228.336 669.007 235.391 656.43 242.799 644.059C251.311 629.843 260.982 615.598 267.087 600.128C270.389 591.762 272.422 583.24 272.786 574.241C273.553 555.285 269.774 535.771 266.715 517.147Q259.88 476.936 252.392 436.841Z"/>
	<path fill="#FEFEFE" d="M205.845 437.141C220.289 436.116 235.294 436.943 249.789 436.954C251.159 443.103 252.05 449.436 253.213 455.637Q257.629 478.566 261.443 501.602C265.302 524.356 270.565 548.014 270.37 571.17Q270.342 574.23 270.066 577.277Q269.79 580.324 269.266 583.339Q268.743 586.354 267.977 589.316Q267.21 592.278 266.205 595.168C261.669 608.306 254.081 620.263 246.951 632.117Q237.327 647.967 228.039 664.016Q220.733 676.869 213.048 689.499C208.086 697.605 202.787 705.6 198.64 714.162C197.293 711.701 196.336 709.097 195.322 706.487C201.777 689.161 202.732 615.05 201.462 594.288Q217.357 567.75 232.496 540.774C235.856 534.893 242.061 526.275 244.047 520.023L243.621 519.495C241.638 520.218 240.496 522.121 239.368 523.835C237.012 527.418 235.104 531.324 232.963 535.039L217.996 560.918Q201.402 589.639 184.384 618.111C182.811 620.766 181.221 623.436 179.79 626.17C176.993 631.514 175.251 637.758 175.695 643.823C176.594 656.131 183.449 673.655 187.144 685.881C189.238 692.811 190.872 699.868 193.023 706.782C201.194 733.055 210.224 759.074 218.387 785.35C192.294 785.145 166.136 785.859 140.054 785.235C128.21 758.586 118.044 730.962 107.195 703.878Q100.527 687.647 94.0657 671.332C90.7482 662.958 87.0069 654.598 85.5028 645.663C84.1366 637.547 84.9719 628.549 88.0968 620.899C91.2974 613.064 96.3421 605.745 100.569 598.427L125.505 555.297Q145.94 518.99 166.766 482.906C172.969 472.073 180.091 457.723 187.164 448.035C191.819 441.658 198.153 438.288 205.845 437.141Z"/>
	<path fill="#F7CEF0" d="M513.549 858.25C524.897 858.249 544.479 857.21 554.881 858.842C560.936 859.792 566.832 862.952 572.854 864.413Q579 865.839 585.218 866.903Q591.437 867.968 597.707 868.668Q603.977 869.368 610.277 869.702Q616.577 870.035 622.886 870Q628.762 870.064 634.63 869.76Q640.498 869.456 646.335 868.786Q652.173 868.116 657.957 867.083Q663.742 866.049 669.45 864.656C676.605 862.865 684.065 859.728 691.321 858.73C700.326 857.492 710.284 858.29 719.416 858.302L774.653 858.548C775.272 868.359 774.922 878.362 774.979 888.204L775.298 942.513C750.337 942.521 725.222 943.099 700.28 942.387C704.362 940.934 708.026 939.376 711.096 936.159Q711.656 935.575 712.155 934.938Q712.654 934.301 713.086 933.617Q713.518 932.932 713.879 932.208Q714.24 931.483 714.525 930.726Q714.811 929.969 715.019 929.187Q715.228 928.405 715.356 927.606Q715.484 926.807 715.531 925.999Q715.578 925.192 715.543 924.383C715.35 919.848 713.129 915.612 709.822 912.559C706.273 909.283 701.45 907.402 696.604 907.671C692.037 907.925 688.057 910.137 685.129 913.607C681.633 917.75 680.518 922.576 680.97 927.877C681.491 929.548 682.054 931.25 682.905 932.786C685.956 938.294 691.005 940.848 696.814 942.53Q649.03 942.825 601.246 942.523C579.563 942.557 557.239 943.498 535.62 942.378C540.105 940.667 543.952 938.073 546.374 933.808C548.555 929.966 549.358 924.367 547.98 920.129C546.491 915.548 542.643 911.488 538.379 909.349Q537.681 908.991 536.949 908.707Q536.218 908.423 535.461 908.216Q534.703 908.009 533.929 907.882Q533.155 907.755 532.371 907.709Q531.588 907.663 530.804 907.698Q530.02 907.733 529.243 907.85Q528.467 907.966 527.707 908.162Q526.947 908.358 526.212 908.632Q525.796 908.791 525.389 908.972Q524.982 909.152 524.584 909.353Q524.187 909.554 523.8 909.776Q523.413 909.997 523.038 910.237Q522.663 910.478 522.301 910.737Q521.939 910.997 521.591 911.274Q521.243 911.552 520.909 911.847Q520.575 912.142 520.257 912.454Q519.939 912.766 519.637 913.093Q519.335 913.421 519.05 913.763Q518.766 914.106 518.499 914.462Q518.232 914.819 517.984 915.189Q517.736 915.559 517.507 915.941Q517.278 916.323 517.069 916.716Q516.859 917.109 516.671 917.513Q516.482 917.916 516.314 918.329C514.54 922.723 514.575 927.885 516.564 932.206C519.057 937.623 523.704 940.332 529.016 942.392C502.565 943.04 475.977 942.472 449.512 942.436C449.379 914.445 448.949 886.424 449.22 858.435C470.576 857.65 492.169 858.266 513.549 858.25Z"/>
	<path d="M614.404 907.928Q614.819 907.9 615.236 907.893Q615.652 907.886 616.068 907.899Q616.484 907.912 616.899 907.946Q617.314 907.98 617.727 908.033Q618.14 908.087 618.549 908.161Q618.959 908.235 619.365 908.329Q619.77 908.423 620.171 908.537Q620.571 908.651 620.965 908.784Q621.36 908.917 621.747 909.07Q622.135 909.222 622.514 909.394Q622.894 909.565 623.264 909.754Q623.635 909.944 623.996 910.152Q624.356 910.359 624.707 910.584Q625.057 910.809 625.396 911.051Q625.735 911.293 626.061 911.551Q626.388 911.809 626.701 912.083Q627.015 912.357 627.314 912.646Q627.614 912.935 627.899 913.238Q628.185 913.542 628.455 913.859Q628.725 914.175 628.979 914.505Q629.233 914.835 629.471 915.177Q629.708 915.518 629.929 915.871Q630.149 916.224 630.353 916.588Q630.556 916.951 630.741 917.324Q630.926 917.697 631.092 918.079Q631.259 918.46 631.406 918.849Q631.554 919.239 631.682 919.635Q631.811 920.031 631.919 920.432Q632.028 920.834 632.117 921.241Q632.206 921.648 632.275 922.058Q632.344 922.469 632.393 922.882Q632.442 923.296 632.47 923.711Q632.498 924.126 632.506 924.543Q632.514 924.959 632.502 925.375Q632.49 925.791 632.457 926.206Q632.424 926.621 632.371 927.034Q632.318 927.447 632.245 927.857Q632.172 928.266 632.079 928.672Q631.985 929.078 631.873 929.479Q631.76 929.879 631.627 930.274Q631.495 930.669 631.343 931.056Q631.191 931.444 631.021 931.824Q630.85 932.203 630.662 932.575Q630.473 932.946 630.266 933.307Q630.059 933.668 629.835 934.019Q629.611 934.37 629.369 934.709Q629.128 935.048 628.871 935.375Q628.613 935.702 628.34 936.017Q628.067 936.331 627.778 936.631Q627.49 936.931 627.187 937.217Q626.885 937.503 626.568 937.773Q626.252 938.044 625.923 938.299Q625.594 938.554 625.252 938.792Q624.911 939.03 624.558 939.252Q624.206 939.473 623.843 939.677Q623.48 939.881 623.107 940.067Q622.735 940.252 622.354 940.42Q621.972 940.587 621.583 940.735Q621.194 940.884 620.799 941.013Q620.403 941.142 620.001 941.252Q619.6 941.361 619.193 941.451Q618.787 941.541 618.376 941.611Q617.966 941.68 617.553 941.73Q617.139 941.78 616.724 941.809Q616.308 941.838 615.89 941.847Q615.473 941.856 615.056 941.844Q614.639 941.833 614.223 941.801Q613.807 941.768 613.392 941.716Q612.978 941.663 612.567 941.591Q612.156 941.518 611.75 941.425Q611.343 941.332 610.941 941.219Q610.539 941.106 610.143 940.974Q609.747 940.841 609.359 940.69Q608.97 940.538 608.589 940.367Q608.208 940.197 607.836 940.008Q607.464 939.819 607.102 939.611Q606.739 939.404 606.388 939.18Q606.036 938.955 605.696 938.713Q605.355 938.471 605.027 938.213Q604.699 937.955 604.385 937.681Q604.07 937.407 603.769 937.118Q603.468 936.829 603.181 936.525Q602.895 936.222 602.624 935.905Q602.352 935.587 602.097 935.257Q601.842 934.927 601.603 934.585Q601.364 934.242 601.143 933.889Q600.921 933.535 600.717 933.171Q600.513 932.807 600.327 932.433Q600.141 932.059 599.974 931.677Q599.807 931.295 599.658 930.905Q599.51 930.515 599.381 930.118Q599.252 929.721 599.143 929.318Q599.034 928.915 598.944 928.507Q598.855 928.1 598.786 927.688Q598.716 927.276 598.667 926.862Q598.619 926.447 598.59 926.031Q598.562 925.615 598.553 925.197Q598.545 924.78 598.558 924.363Q598.57 923.946 598.603 923.53Q598.636 923.114 598.69 922.7Q598.743 922.286 598.817 921.875Q598.89 921.464 598.984 921.057Q599.078 920.65 599.191 920.249Q599.305 919.847 599.438 919.452Q599.571 919.056 599.724 918.668Q599.876 918.279 600.048 917.899Q600.219 917.518 600.409 917.146Q600.599 916.775 600.807 916.413Q601.014 916.051 601.24 915.7Q601.465 915.348 601.708 915.009Q601.95 914.669 602.209 914.341Q602.468 914.014 602.742 913.7Q603.017 913.385 603.307 913.085Q603.596 912.784 603.9 912.498Q604.205 912.213 604.522 911.942Q604.84 911.671 605.171 911.417Q605.501 911.162 605.844 910.924Q606.187 910.686 606.541 910.465Q606.895 910.244 607.26 910.041Q607.624 909.837 607.998 909.652Q608.372 909.467 608.755 909.301Q609.138 909.134 609.528 908.987Q609.919 908.839 610.316 908.711Q610.713 908.583 611.116 908.474Q611.519 908.366 611.927 908.277Q612.335 908.189 612.747 908.12Q613.158 908.052 613.573 908.004Q613.988 907.956 614.404 907.928Z"/>
	<path fill="#FEFEFE" d="M384.128 437.13C396.714 436.697 409.237 436.426 420.2 443.574C425.136 446.792 429.48 451.253 432.264 456.474C435.68 462.882 437.795 470.291 440.144 477.148L450.917 508.544L464.623 547.866C467.202 555.334 470.223 562.929 471.909 570.653C469.589 576.338 466.393 581.843 463.568 587.303L449.574 614.284C447.117 618.959 443.221 624.73 441.969 629.854C441.677 631.051 441.731 631.234 442.43 632.189C443.471 631.7 443.683 631.417 444.298 630.472C445.795 628.17 446.805 625.462 448.081 623.025Q453.059 613.727 457.887 604.35L492.457 536.659C496.521 545.233 501.283 553.483 505.66 561.899C511.458 573.049 516.94 584.386 522.527 595.644C525.01 600.697 527.356 605.864 530.892 610.282C525.846 624.034 518.77 637.214 512.919 650.66L501.736 676.719C499.329 682.367 497.232 688.437 493.893 693.608C488.332 702.218 479.714 708.738 469.598 710.834C459.829 712.858 448.559 710.76 440.349 704.959C436.894 702.518 433.677 698.386 431.274 694.928C427.599 689.64 410.757 660.258 409.499 655.64C407.677 648.951 408.847 639.798 408.778 632.748Q408.457 607.143 408.526 581.537C408.512 571.985 409.028 562.093 408.241 552.584C407.361 541.944 404.158 531.149 401.842 520.73L390.435 468.212C388.223 457.952 385.497 447.532 384.128 437.13Z"/>
	<path fill="#FEFEFE" d="M348.867 436.453L356.832 437.174C359.913 447.524 361.767 458.352 364.113 468.893Q371.3 500.477 377.608 532.249C349.721 532.881 321.53 532.656 293.636 532.198L292.485 526.388L281.515 466.421C280.13 458.989 276.762 445.47 276.716 438.337C276.711 437.669 277.091 437.54 277.538 437.081C282.051 436.44 285.334 443.547 287.833 446.622C289.202 448.307 290.991 449.756 292.737 451.036C300.364 456.627 310.402 458.697 319.694 457.135C332.14 455.042 341.794 446.422 348.867 436.453Z"/>
	<path fill="#FEFEFE" d="M605.463 788.745C637.62 788.271 725.14 788.763 749.459 803.812C726.978 817.112 668.484 819.243 641.25 820.016C602.969 820.923 563.651 819.545 525.978 812.393C518.206 810.917 510.027 809.561 502.783 806.28C501.003 805.474 498.294 804.359 497.576 802.417L497.988 801.797C524.779 790.605 576.088 789.346 605.463 788.745Z"/>
	<path fill="#FEFEFE" d="M148.021 787.742C171.662 787.497 195.49 787.198 219.111 787.917C219.644 791.613 219.824 795.253 219.943 798.983C235.617 817.286 249.909 836.927 265.136 855.635L240.997 855.636C238.162 851.973 227.304 835.624 224.916 833.835C224.608 833.605 224.169 833.657 223.796 833.567L223.178 834.195C223.446 838.315 234.619 851.803 237.434 855.652L227.375 855.746L217.296 855.771C214.116 851.42 205.418 837.442 200.783 835.506L200.323 836.22C200.676 839.86 211.306 852.177 213.941 855.722Q203.414 855.968 192.884 855.894C190.177 852.397 179.72 837.011 176.674 836.104L175.728 836.77C176.604 841.311 186.087 851.655 189.317 855.782C182.844 855.911 176.356 855.848 169.881 855.872C165.521 847.732 162.161 838.769 158.533 830.272C152.584 816.342 146.343 802.214 141.381 787.906L148.021 787.742Z"/>
	<path fill="#FEFEFE" d="M297.087 371.832C300.857 379.452 303.071 387.508 307.485 394.96C314.696 407.133 325.106 414.312 338.743 417.871C340.945 423.769 343.83 428.936 347.158 434.271C342.16 441.216 336.974 446.601 329.642 451.08C322.346 454.726 314.669 456.216 306.619 454.4C295.634 451.922 289.136 444.814 283.392 435.611C286.125 428.562 289.177 421.795 291.105 414.447C294.757 400.531 295.086 386.021 297.087 371.832Z"/>
	<path fill="#FEFEFE" d="M536.628 471.118C541.048 470.771 544.443 470.893 548.519 472.98C559.545 478.628 568.039 494.297 571.593 505.642C573.473 511.647 573.671 517.814 570.536 523.464C567.699 528.575 562.734 532.241 557.133 533.815C550.416 535.701 544.185 534.083 538.286 530.777C535.859 529.114 533.034 527.123 531.267 524.751C530.51 523.735 530.429 523.223 530.588 522C532.561 519.986 535.785 520.488 537.88 518.851C538.958 518.008 538.841 517.616 538.889 516.361L538.347 515.787C536.846 516.365 535.334 517.263 533.761 517.592C531.826 517.997 529.969 517.777 528.333 516.616C526.534 515.34 525.547 513.163 525.289 511.019C524.63 505.54 528.807 501.516 531.862 497.458L531.651 496.747L530.648 496.447C528.618 496.986 527.146 498.48 525.558 499.794C524.462 499.349 523.346 498.907 522.297 498.358Q521.859 498.125 521.448 497.847Q521.037 497.569 520.658 497.249Q520.279 496.929 519.936 496.571Q519.593 496.213 519.289 495.82Q518.986 495.428 518.726 495.005Q518.466 494.583 518.252 494.135Q518.038 493.688 517.872 493.22Q517.707 492.753 517.592 492.27C516.727 488.636 518.355 484.691 520.376 481.733C524.314 475.97 529.853 472.422 536.628 471.118Z"/>
	<path fill="#FEFEFE" d="M516.725 497.272C518.994 499.735 520.743 501.049 523.987 501.986C523.072 504.865 522.068 508.869 522.373 511.914C522.652 514.695 525.476 516.778 526.689 519.24C527.982 521.868 528.16 525.429 529.72 527.824C530.662 529.27 532.391 530.617 533.658 531.795C530.282 551.007 534.778 568.725 540.669 586.88Q536.394 597.947 531.657 608.824C530.807 606.017 529.759 603.509 528.476 600.876C522.693 590.745 517.88 579.979 512.588 569.576C506.834 558.267 500.599 547.205 494.989 535.823C502.576 523.221 508.571 509.499 516.725 497.272Z"/>
	<path fill="#FE8A56" d="M764.429 795.108C773.558 794.676 782.721 795.034 791.859 794.985C799.588 794.944 807.608 794.425 815.307 795.021C817.409 795.184 819.549 795.52 821.473 796.421C823.592 797.413 825.186 799.077 825.938 801.305C826.908 804.176 826.354 807.244 824.919 809.857C823.276 812.849 821.05 814.003 817.903 814.993C807.521 815.03 767.676 816.541 760.271 814.38C758.763 813.94 757.315 813.339 756.679 811.771C755.397 808.611 757.199 804.397 758.402 801.459C759.802 798.038 760.978 796.55 764.429 795.108Z"/>
	<path d="M797.548 803.738C799.486 803.703 801.604 803.434 803.527 803.631C804.788 803.76 805.727 804.045 806.456 805.095C806.358 805.216 806.277 805.352 806.163 805.457C804.163 807.299 799.589 806.608 797.059 806.512C795.092 806.515 792.876 806.809 790.936 806.566C789.74 806.416 788.78 806.241 788.038 805.25C788.131 805.132 788.209 804.999 788.319 804.896C790.246 803.101 795.068 803.702 797.548 803.738Z"/>
	<path fill="#FEFEFE" d="M198.712 599.336C199.995 604.9 199.174 612.188 199.139 617.954Q199.241 647.138 197.126 676.246C196.492 684.477 196.023 693.117 194.091 701.161L190.927 689.378C187.727 676.925 183.004 664.834 179.871 652.333C176.284 638.018 180.986 628.964 188.163 616.93L198.712 599.336Z"/>
</svg>
